<svg width="24" height="24" viewBox="0 0 24 24" fill="none" xmlns="http://www.w3.org/2000/svg">
<path d="M2 3V1.75C1.30964 1.75 0.75 2.30964 0.75 3L2 3ZM13 3H14.25C14.25 2.30964 13.6904 1.75 13 1.75V3ZM13 9V7.75C12.6685 7.75 12.3505 7.8817 12.1161 8.11612C11.8817 8.35054 11.75 8.66848 11.75 9H13ZM2 4.25H13V1.75H2V4.25ZM11.75 3V19H14.25V3H11.75ZM3.25 17V3H0.75V17H3.25ZM13 10.25H18V7.75H13V10.25ZM20.75 13V17H23.25V13H20.75ZM14.25 19L14.25 9H11.75L11.75 19H14.25ZM18.5303 19.5303C18.2374 19.8232 17.7626 19.8232 17.4697 19.5303L15.7019 21.2981C16.9711 22.5673 19.0289 22.5673 20.2981 21.2981L18.5303 19.5303ZM17.4697 18.4697C17.7626 18.1768 18.2374 18.1768 18.5303 18.4697L20.2981 16.7019C19.0289 15.4327 16.9711 15.4327 15.7019 16.7019L17.4697 18.4697ZM6.53033 19.5303C6.23744 19.8232 5.76256 19.8232 5.46967 19.5303L3.7019 21.2981C4.97111 22.5673 7.02889 22.5673 8.2981 21.2981L6.53033 19.5303ZM5.46967 18.4697C5.76256 18.1768 6.23744 18.1768 6.53033 18.4697L8.2981 16.7019C7.02889 15.4327 4.97111 15.4327 3.7019 16.7019L5.46967 18.4697ZM18.5303 18.4697C18.677 18.6164 18.75 18.8061 18.75 19H21.25C21.25 18.1702 20.9325 17.3363 20.2981 16.7019L18.5303 18.4697ZM18.75 19C18.75 19.1939 18.677 19.3836 18.5303 19.5303L20.2981 21.2981C20.9325 20.6637 21.25 19.8298 21.25 19H18.75ZM16 17.75H13V20.25H16V17.75ZM17.4697 19.5303C17.323 19.3836 17.25 19.1939 17.25 19H14.75C14.75 19.8298 15.0675 20.6637 15.7019 21.2981L17.4697 19.5303ZM17.25 19C17.25 18.8061 17.323 18.6164 17.4697 18.4697L15.7019 16.7019C15.0675 17.3363 14.75 18.1702 14.75 19H17.25ZM5.46967 19.5303C5.32298 19.3836 5.25 19.1939 5.25 19H2.75C2.75 19.8298 3.06755 20.6637 3.7019 21.2981L5.46967 19.5303ZM5.25 19C5.25 18.8061 5.32298 18.6164 5.46967 18.4697L3.7019 16.7019C3.06755 17.3363 2.75 18.1702 2.75 19H5.25ZM13 17.75H8V20.25H13V17.75ZM6.53033 18.4697C6.67702 18.6164 6.75 18.8061 6.75 19H9.25C9.25 18.1702 8.93245 17.3363 8.2981 16.7019L6.53033 18.4697ZM6.75 19C6.75 19.1939 6.67702 19.3836 6.53033 19.5303L8.2981 21.2981C8.93245 20.6637 9.25 19.8298 9.25 19H6.75ZM20.75 17C20.75 17.4142 20.4142 17.75 20 17.75V20.25C21.7949 20.25 23.25 18.7949 23.25 17H20.75ZM18 10.25C19.5188 10.25 20.75 11.4812 20.75 13H23.25C23.25 10.1005 20.8995 7.75 18 7.75V10.25ZM0.75 17C0.75 18.7949 2.20507 20.25 4 20.25V17.75C3.58579 17.75 3.25 17.4142 3.25 17H0.75Z" fill="#292929"/>
<path d="M2 8H5" stroke="#292929" stroke-width="2.5" stroke-linecap="round" stroke-linejoin="round"/>
<path d="M2 12H7" stroke="#292929" stroke-width="2.5" stroke-linecap="round" stroke-linejoin="round"/>
</svg>
