<svg width="24" height="24" viewBox="0 0 24 24" fill="none" xmlns="http://www.w3.org/2000/svg">
<path d="M3 1.75C2.30964 1.75 1.75 2.30964 1.75 3C1.75 3.69036 2.30964 4.25 3 4.25V1.75ZM5 3L6.24632 2.90413C6.19622 2.25288 5.65317 1.75 5 1.75V3ZM21 6L22.2424 6.13804C22.2816 5.78466 22.1685 5.43128 21.9314 5.16635C21.6943 4.90141 21.3556 4.75 21 4.75V6ZM5.23077 6L3.98445 6.09587V6.09587L5.23077 6ZM18.3387 15.1187L18.4277 16.3655L18.3387 15.1187ZM7.98405 15.8583L7.89499 14.6115L7.98405 15.8583ZM3 4.25H5V1.75H3V4.25ZM8.0731 17.1051L18.4277 16.3655L18.2496 13.8718L7.89499 14.6115L8.0731 17.1051ZM21.4263 13.4827L22.2424 6.13804L19.7576 5.86196L18.9416 13.2066L21.4263 13.4827ZM3.75368 3.09587L3.98445 6.09587L6.47709 5.90413L6.24632 2.90413L3.75368 3.09587ZM3.98445 6.09587L4.60112 14.1126L7.09376 13.9209L6.47709 5.90413L3.98445 6.09587ZM21 4.75H5.23077V7.25H21V4.75ZM18.4277 16.3655C19.9918 16.2538 21.2531 15.0412 21.4263 13.4827L18.9416 13.2066C18.9016 13.5662 18.6105 13.8461 18.2496 13.8718L18.4277 16.3655ZM7.89499 14.6115C7.48342 14.6409 7.12541 14.3323 7.09376 13.9209L4.60112 14.1126C4.73826 15.8954 6.28966 17.2325 8.0731 17.1051L7.89499 14.6115Z" fill="#292929"/>
<path d="M13 9.5V12.5" stroke="#292929" stroke-width="2.5" stroke-linecap="round" stroke-linejoin="round"/>
<path d="M11.5 11H14.5" stroke="#292929" stroke-width="2.5" stroke-linecap="round" stroke-linejoin="round"/>
<rect x="17.5" y="20.5" width="0.01" height="0.01" stroke="#292929" stroke-width="3.75" stroke-linejoin="round"/>
<rect x="8.5" y="20.5" width="0.01" height="0.01" stroke="#292929" stroke-width="3.75" stroke-linejoin="round"/>
</svg>
