<svg width="24" height="24" viewBox="0 0 24 24" fill="none" xmlns="http://www.w3.org/2000/svg">
<path d="M3 10H1.75C1.75 10.6904 2.30964 11.25 3 11.25L3 10ZM3 14L3 12.75C2.30964 12.75 1.75 13.3096 1.75 14H3ZM21 10V11.25C21.6904 11.25 22.25 10.6904 22.25 10H21ZM21 14H22.25C22.25 13.3096 21.6904 12.75 21 12.75V14ZM5 6.25H10V3.75H5V6.25ZM10 6.25H19V3.75H10V6.25ZM19 17.75H10V20.25H19V17.75ZM10 17.75H5V20.25H10V17.75ZM8.75 5V19H11.25V5H8.75ZM3.53033 11.4697C3.82322 11.7626 3.82322 12.2374 3.53033 12.5303L5.2981 14.2981C6.5673 13.0289 6.5673 10.9711 5.2981 9.7019L3.53033 11.4697ZM20.4697 12.5303C20.1768 12.2374 20.1768 11.7626 20.4697 11.4697L18.7019 9.7019C17.4327 10.9711 17.4327 13.0289 18.7019 14.2981L20.4697 12.5303ZM3 11.25C3.19388 11.25 3.38364 11.323 3.53033 11.4697L5.2981 9.7019C4.66374 9.06755 3.82981 8.75 3 8.75L3 11.25ZM4.25 10V7H1.75V10H4.25ZM4.25 17V14H1.75V17H4.25ZM3.53033 12.5303C3.38364 12.677 3.19388 12.75 3 12.75L3 15.25C3.82981 15.25 4.66374 14.9325 5.2981 14.2981L3.53033 12.5303ZM20.4697 11.4697C20.6164 11.323 20.8061 11.25 21 11.25V8.75C20.1702 8.75 19.3363 9.06755 18.7019 9.7019L20.4697 11.4697ZM19.75 7V10H22.25V7H19.75ZM19.75 14C19.75 14.0015 19.75 14.0029 19.75 14.0044C19.75 14.0059 19.75 14.0073 19.75 14.0088C19.75 14.0103 19.75 14.0118 19.75 14.0132C19.75 14.0147 19.75 14.0162 19.75 14.0176C19.75 14.0191 19.75 14.0206 19.75 14.0221C19.75 14.0236 19.75 14.025 19.75 14.0265C19.75 14.028 19.75 14.0295 19.75 14.031C19.75 14.0325 19.75 14.0339 19.75 14.0354C19.75 14.0369 19.75 14.0384 19.75 14.0399C19.75 14.0414 19.75 14.0429 19.75 14.0444C19.75 14.0459 19.75 14.0474 19.75 14.0489C19.75 14.0504 19.75 14.0519 19.75 14.0534C19.75 14.0549 19.75 14.0564 19.75 14.0579C19.75 14.0594 19.75 14.0609 19.75 14.0624C19.75 14.0639 19.75 14.0654 19.75 14.0669C19.75 14.0684 19.75 14.0699 19.75 14.0714C19.75 14.0729 19.75 14.0744 19.75 14.0759C19.75 14.0775 19.75 14.079 19.75 14.0805C19.75 14.082 19.75 14.0835 19.75 14.085C19.75 14.0866 19.75 14.0881 19.75 14.0896C19.75 14.0911 19.75 14.0927 19.75 14.0942C19.75 14.0957 19.75 14.0972 19.75 14.0988C19.75 14.1003 19.75 14.1018 19.75 14.1033C19.75 14.1049 19.75 14.1064 19.75 14.1079C19.75 14.1095 19.75 14.111 19.75 14.1125C19.75 14.1141 19.75 14.1156 19.75 14.1171C19.75 14.1187 19.75 14.1202 19.75 14.1218C19.75 14.1233 19.75 14.1248 19.75 14.1264C19.75 14.1279 19.75 14.1295 19.75 14.131C19.75 14.1326 19.75 14.1341 19.75 14.1357C19.75 14.1372 19.75 14.1388 19.75 14.1403C19.75 14.1419 19.75 14.1434 19.75 14.145C19.75 14.1465 19.75 14.1481 19.75 14.1496C19.75 14.1512 19.75 14.1528 19.75 14.1543C19.75 14.1559 19.75 14.1574 19.75 14.159C19.75 14.1606 19.75 14.1621 19.75 14.1637C19.75 14.1653 19.75 14.1668 19.75 14.1684C19.75 14.17 19.75 14.1715 19.75 14.1731C19.75 14.1747 19.75 14.1762 19.75 14.1778C19.75 14.1794 19.75 14.181 19.75 14.1825C19.75 14.1841 19.75 14.1857 19.75 14.1873C19.75 14.1889 19.75 14.1904 19.75 14.192C19.75 14.1936 19.75 14.1952 19.75 14.1968C19.75 14.1983 19.75 14.1999 19.75 14.2015C19.75 14.2031 19.75 14.2047 19.75 14.2063C19.75 14.2079 19.75 14.2095 19.75 14.2111C19.75 14.2126 19.75 14.2142 19.75 14.2158C19.75 14.2174 19.75 14.219 19.75 14.2206C19.75 14.2222 19.75 14.2238 19.75 14.2254C19.75 14.227 19.75 14.2286 19.75 14.2302C19.75 14.2318 19.75 14.2334 19.75 14.235C19.75 14.2366 19.75 14.2382 19.75 14.2398C19.75 14.2415 19.75 14.2431 19.75 14.2447C19.75 14.2463 19.75 14.2479 19.75 14.2495C19.75 14.2511 19.75 14.2527 19.75 14.2543C19.75 14.256 19.75 14.2576 19.75 14.2592C19.75 14.2608 19.75 14.2624 19.75 14.264C19.75 14.2657 19.75 14.2673 19.75 14.2689C19.75 14.2705 19.75 14.2722 19.75 14.2738C19.75 14.2754 19.75 14.277 19.75 14.2787C19.75 14.2803 19.75 14.2819 19.75 14.2836C19.75 14.2852 19.75 14.2868 19.75 14.2884C19.75 14.2901 19.75 14.2917 19.75 14.2934C19.75 14.295 19.75 14.2966 19.75 14.2983C19.75 14.2999 19.75 14.3015 19.75 14.3032C19.75 14.3048 19.75 14.3065 19.75 14.3081C19.75 14.3097 19.75 14.3114 19.75 14.313C19.75 14.3147 19.75 14.3163 19.75 14.318C19.75 14.3196 19.75 14.3213 19.75 14.3229C19.75 14.3246 19.75 14.3262 19.75 14.3279C19.75 14.3295 19.75 14.3312 19.75 14.3328C19.75 14.3345 19.75 14.3362 19.75 14.3378C19.75 14.3395 19.75 14.3411 19.75 14.3428C19.75 14.3445 19.75 14.3461 19.75 14.3478C19.75 14.3494 19.75 14.3511 19.75 14.3528C19.75 14.3544 19.75 14.3561 19.75 14.3578C19.75 14.3594 19.75 14.3611 19.75 14.3628C19.75 14.3644 19.75 14.3661 19.75 14.3678C19.75 14.3695 19.75 14.3711 19.75 14.3728C19.75 14.3745 19.75 14.3762 19.75 14.3778C19.75 14.3795 19.75 14.3812 19.75 14.3829C19.75 14.3846 19.75 14.3862 19.75 14.3879C19.75 14.3896 19.75 14.3913 19.75 14.393C19.75 14.3947 19.75 14.3963 19.75 14.398C19.75 14.3997 19.75 14.4014 19.75 14.4031C19.75 14.4048 19.75 14.4065 19.75 14.4082C19.75 14.4099 19.75 14.4116 19.75 14.4133C19.75 14.4149 19.75 14.4166 19.75 14.4183C19.75 14.42 19.75 14.4217 19.75 14.4234C19.75 14.4251 19.75 14.4268 19.75 14.4285C19.75 14.4302 19.75 14.4319 19.75 14.4336C19.75 14.4353 19.75 14.4371 19.75 14.4388C19.75 14.4405 19.75 14.4422 19.75 14.4439C19.75 14.4456 19.75 14.4473 19.75 14.449C19.75 14.4507 19.75 14.4524 19.75 14.4541C19.75 14.4559 19.75 14.4576 19.75 14.4593C19.75 14.461 19.75 14.4627 19.75 14.4644C19.75 14.4662 19.75 14.4679 19.75 14.4696C19.75 14.4713 19.75 14.473 19.75 14.4748C19.75 14.4765 19.75 14.4782 19.75 14.4799C19.75 14.4817 19.75 14.4834 19.75 14.4851C19.75 14.4868 19.75 14.4886 19.75 14.4903C19.75 14.492 19.75 14.4938 19.75 14.4955C19.75 14.4972 19.75 14.499 19.75 14.5007C19.75 14.5024 19.75 14.5042 19.75 14.5059C19.75 14.5076 19.75 14.5094 19.75 14.5111C19.75 14.5128 19.75 14.5146 19.75 14.5163C19.75 14.5181 19.75 14.5198 19.75 14.5216C19.75 14.5233 19.75 14.525 19.75 14.5268C19.75 14.5285 19.75 14.5303 19.75 14.532C19.75 14.5338 19.75 14.5355 19.75 14.5373C19.75 14.539 19.75 14.5408 19.75 14.5425C19.75 14.5443 19.75 14.546 19.75 14.5478C19.75 14.5495 19.75 14.5513 19.75 14.5531C19.75 14.5548 19.75 14.5566 19.75 14.5583C19.75 14.5601 19.75 14.5619 19.75 14.5636C19.75 14.5654 19.75 14.5671 19.75 14.5689C19.75 14.5707 19.75 14.5724 19.75 14.5742C19.75 14.576 19.75 14.5777 19.75 14.5795C19.75 14.5813 19.75 14.583 19.75 14.5848C19.75 14.5866 19.75 14.5883 19.75 14.5901C19.75 14.5919 19.75 14.5937 19.75 14.5954C19.75 14.5972 19.75 14.599 19.75 14.6008C19.75 14.6025 19.75 14.6043 19.75 14.6061C19.75 14.6079 19.75 14.6097 19.75 14.6114C19.75 14.6132 19.75 14.615 19.75 14.6168C19.75 14.6186 19.75 14.6204 19.75 14.6221C19.75 14.6239 19.75 14.6257 19.75 14.6275C19.75 14.6293 19.75 14.6311 19.75 14.6329C19.75 14.6347 19.75 14.6364 19.75 14.6382C19.75 14.64 19.75 14.6418 19.75 14.6436C19.75 14.6454 19.75 14.6472 19.75 14.649C19.75 14.6508 19.75 14.6526 19.75 14.6544C19.75 14.6562 19.75 14.658 19.75 14.6598C19.75 14.6616 19.75 14.6634 19.75 14.6652C19.75 14.667 19.75 14.6688 19.75 14.6706C19.75 14.6724 19.75 14.6742 19.75 14.676C19.75 14.6778 19.75 14.6796 19.75 14.6814C19.75 14.6833 19.75 14.6851 19.75 14.6869C19.75 14.6887 19.75 14.6905 19.75 14.6923C19.75 14.6941 19.75 14.6959 19.75 14.6978C19.75 14.6996 19.75 14.7014 19.75 14.7032C19.75 14.705 19.75 14.7068 19.75 14.7087C19.75 14.7105 19.75 14.7123 19.75 14.7141C19.75 14.7159 19.75 14.7178 19.75 14.7196C19.75 14.7214 19.75 14.7232 19.75 14.7251C19.75 14.7269 19.75 14.7287 19.75 14.7305C19.75 14.7324 19.75 14.7342 19.75 14.736C19.75 14.7378 19.75 14.7397 19.75 14.7415C19.75 14.7433 19.75 14.7452 19.75 14.747C19.75 14.7488 19.75 14.7507 19.75 14.7525C19.75 14.7543 19.75 14.7562 19.75 14.758C19.75 14.7599 19.75 14.7617 19.75 14.7635C19.75 14.7654 19.75 14.7672 19.75 14.7691C19.75 14.7709 19.75 14.7727 19.75 14.7746C19.75 14.7764 19.75 14.7783 19.75 14.7801C19.75 14.782 19.75 14.7838 19.75 14.7857C19.75 14.7875 19.75 14.7894 19.75 14.7912C19.75 14.7931 19.75 14.7949 19.75 14.7968C19.75 14.7986 19.75 14.8005 19.75 14.8023C19.75 14.8042 19.75 14.806 19.75 14.8079C19.75 14.8097 19.75 14.8116 19.75 14.8134C19.75 14.8153 19.75 14.8172 19.75 14.819C19.75 14.8209 19.75 14.8227 19.75 14.8246C19.75 14.8265 19.75 14.8283 19.75 14.8302C19.75 14.8321 19.75 14.8339 19.75 14.8358C19.75 14.8376 19.75 14.8395 19.75 14.8414C19.75 14.8433 19.75 14.8451 19.75 14.847C19.75 14.8489 19.75 14.8507 19.75 14.8526C19.75 14.8545 19.75 14.8563 19.75 14.8582C19.75 14.8601 19.75 14.862 19.75 14.8638C19.75 14.8657 19.75 14.8676 19.75 14.8695C19.75 14.8713 19.75 14.8732 19.75 14.8751C19.75 14.877 19.75 14.8789 19.75 14.8807C19.75 14.8826 19.75 14.8845 19.75 14.8864C19.75 14.8883 19.75 14.8901 19.75 14.892C19.75 14.8939 19.75 14.8958 19.75 14.8977C19.75 14.8996 19.75 14.9015 19.75 14.9033C19.75 14.9052 19.75 14.9071 19.75 14.909C19.75 14.9109 19.75 14.9128 19.75 14.9147C19.75 14.9166 19.75 14.9185 19.75 14.9204C19.75 14.9223 19.75 14.9241 19.75 14.926C19.75 14.9279 19.75 14.9298 19.75 14.9317C19.75 14.9336 19.75 14.9355 19.75 14.9374C19.75 14.9393 19.75 14.9412 19.75 14.9431C19.75 14.945 19.75 14.9469 19.75 14.9488C19.75 14.9507 19.75 14.9526 19.75 14.9545C19.75 14.9564 19.75 14.9584 19.75 14.9603C19.75 14.9622 19.75 14.9641 19.75 14.966C19.75 14.9679 19.75 14.9698 19.75 14.9717C19.75 14.9736 19.75 14.9755 19.75 14.9774C19.75 14.9794 19.75 14.9813 19.75 14.9832C19.75 14.9851 19.75 14.987 19.75 14.9889C19.75 14.9908 19.75 14.9928 19.75 14.9947C19.75 14.9966 19.75 14.9985 19.75 15.0004C19.75 15.0023 19.75 15.0043 19.75 15.0062C19.75 15.0081 19.75 15.01 19.75 15.012C19.75 15.0139 19.75 15.0158 19.75 15.0177C19.75 15.0196 19.75 15.0216 19.75 15.0235C19.75 15.0254 19.75 15.0273 19.75 15.0293C19.75 15.0312 19.75 15.0331 19.75 15.0351C19.75 15.037 19.75 15.0389 19.75 15.0409C19.75 15.0428 19.75 15.0447 19.75 15.0466C19.75 15.0486 19.75 15.0505 19.75 15.0524C19.75 15.0544 19.75 15.0563 19.75 15.0583C19.75 15.0602 19.75 15.0621 19.75 15.0641C19.75 15.066 19.75 15.0679 19.75 15.0699C19.75 15.0718 19.75 15.0738 19.75 15.0757C19.75 15.0776 19.75 15.0796 19.75 15.0815C19.75 15.0835 19.75 15.0854 19.75 15.0874C19.75 15.0893 19.75 15.0913 19.75 15.0932C19.75 15.0951 19.75 15.0971 19.75 15.099C19.75 15.101 19.75 15.1029 19.75 15.1049C19.75 15.1068 19.75 15.1088 19.75 15.1107C19.75 15.1127 19.75 15.1146 19.75 15.1166C19.75 15.1185 19.75 15.1205 19.75 15.1225C19.75 15.1244 19.75 15.1264 19.75 15.1283C19.75 15.1303 19.75 15.1322 19.75 15.1342C19.75 15.1362 19.75 15.1381 19.75 15.1401C19.75 15.142 19.75 15.144 19.75 15.146C19.75 15.1479 19.75 15.1499 19.75 15.1518C19.75 15.1538 19.75 15.1558 19.75 15.1577C19.75 15.1597 19.75 15.1617 19.75 15.1636C19.75 15.1656 19.75 15.1676 19.75 15.1695C19.75 15.1715 19.75 15.1735 19.75 15.1754C19.75 15.1774 19.75 15.1794 19.75 15.1813C19.75 15.1833 19.75 15.1853 19.75 15.1873C19.75 15.1892 19.75 15.1912 19.75 15.1932C19.75 15.1952 19.75 15.1971 19.75 15.1991C19.75 15.2011 19.75 15.2031 19.75 15.205C19.75 15.207 19.75 15.209 19.75 15.211C19.75 15.2129 19.75 15.2149 19.75 15.2169C19.75 15.2189 19.75 15.2209 19.75 15.2228C19.75 15.2248 19.75 15.2268 19.75 15.2288C19.75 15.2308 19.75 15.2328 19.75 15.2347C19.75 15.2367 19.75 15.2387 19.75 15.2407C19.75 15.2427 19.75 15.2447 19.75 15.2467C19.75 15.2487 19.75 15.2506 19.75 15.2526C19.75 15.2546 19.75 15.2566 19.75 15.2586C19.75 15.2606 19.75 15.2626 19.75 15.2646C19.75 15.2666 19.75 15.2686 19.75 15.2706C19.75 15.2726 19.75 15.2745 19.75 15.2765C19.75 15.2785 19.75 15.2805 19.75 15.2825C19.75 15.2845 19.75 15.2865 19.75 15.2885C19.75 15.2905 19.75 15.2925 19.75 15.2945C19.75 15.2965 19.75 15.2985 19.75 15.3005C19.75 15.3025 19.75 15.3045 19.75 15.3065C19.75 15.3085 19.75 15.3105 19.75 15.3125C19.75 15.3145 19.75 15.3166 19.75 15.3186C19.75 15.3206 19.75 15.3226 19.75 15.3246C19.75 15.3266 19.75 15.3286 19.75 15.3306C19.75 15.3326 19.75 15.3346 19.75 15.3366C19.75 15.3386 19.75 15.3407 19.75 15.3427C19.75 15.3447 19.75 15.3467 19.75 15.3487C19.75 15.3507 19.75 15.3527 19.75 15.3547C19.75 15.3568 19.75 15.3588 19.75 15.3608C19.75 15.3628 19.75 15.3648 19.75 15.3668C19.75 15.3689 19.75 15.3709 19.75 15.3729C19.75 15.3749 19.75 15.3769 19.75 15.379C19.75 15.381 19.75 15.383 19.75 15.385C19.75 15.387 19.75 15.3891 19.75 15.3911C19.75 15.3931 19.75 15.3951 19.75 15.3972C19.75 15.3992 19.75 15.4012 19.75 15.4032C19.75 15.4053 19.75 15.4073 19.75 15.4093C19.75 15.4113 19.75 15.4134 19.75 15.4154C19.75 15.4174 19.75 15.4194 19.75 15.4215C19.75 15.4235 19.75 15.4255 19.75 15.4276C19.75 15.4296 19.75 15.4316 19.75 15.4337C19.75 15.4357 19.75 15.4377 19.75 15.4398C19.75 15.4418 19.75 15.4438 19.75 15.4459C19.75 15.4479 19.75 15.4499 19.75 15.452C19.75 15.454 19.75 15.456 19.75 15.4581C19.75 15.4601 19.75 15.4622 19.75 15.4642C19.75 15.4662 19.75 15.4683 19.75 15.4703C19.75 15.4724 19.75 15.4744 19.75 15.4764C19.75 15.4785 19.75 15.4805 19.75 15.4826C19.75 15.4846 19.75 15.4867 19.75 15.4887C19.75 15.4907 19.75 15.4928 19.75 15.4948C19.75 15.4969 19.75 15.4989 19.75 15.501C19.75 15.503 19.75 15.5051 19.75 15.5071C19.75 15.5092 19.75 15.5112 19.75 15.5133C19.75 15.5153 19.75 15.5174 19.75 15.5194C19.75 15.5215 19.75 15.5235 19.75 15.5256C19.75 15.5276 19.75 15.5297 19.75 15.5317C19.75 15.5338 19.75 15.5358 19.75 15.5379C19.75 15.5399 19.75 15.542 19.75 15.5441C19.75 15.5461 19.75 15.5482 19.75 15.5502C19.75 15.5523 19.75 15.5543 19.75 15.5564C19.75 15.5585 19.75 15.5605 19.75 15.5626C19.75 15.5646 19.75 15.5667 19.75 15.5688C19.75 15.5708 19.75 15.5729 19.75 15.5749C19.75 15.577 19.75 15.5791 19.75 15.5811C19.75 15.5832 19.75 15.5853 19.75 15.5873C19.75 15.5894 19.75 15.5915 19.75 15.5935C19.75 15.5956 19.75 15.5977 19.75 15.5997C19.75 15.6018 19.75 15.6039 19.75 15.6059C19.75 15.608 19.75 15.6101 19.75 15.6121C19.75 15.6142 19.75 15.6163 19.75 15.6183C19.75 15.6204 19.75 15.6225 19.75 15.6245C19.75 15.6266 19.75 15.6287 19.75 15.6308C19.75 15.6328 19.75 15.6349 19.75 15.637C19.75 15.6391 19.75 15.6411 19.75 15.6432C19.75 15.6453 19.75 15.6474 19.75 15.6494C19.75 15.6515 19.75 15.6536 19.75 15.6557C19.75 15.6577 19.75 15.6598 19.75 15.6619C19.75 15.664 19.75 15.6661 19.75 15.6681C19.75 15.6702 19.75 15.6723 19.75 15.6744C19.75 15.6765 19.75 15.6785 19.75 15.6806C19.75 15.6827 19.75 15.6848 19.75 15.6869C19.75 15.6889 19.75 15.691 19.75 15.6931C19.75 15.6952 19.75 15.6973 19.75 15.6994C19.75 15.7015 19.75 15.7035 19.75 15.7056C19.75 15.7077 19.75 15.7098 19.75 15.7119C19.75 15.714 19.75 15.7161 19.75 15.7182C19.75 15.7202 19.75 15.7223 19.75 15.7244C19.75 15.7265 19.75 15.7286 19.75 15.7307C19.75 15.7328 19.75 15.7349 19.75 15.737C19.75 15.7391 19.75 15.7411 19.75 15.7432C19.75 15.7453 19.75 15.7474 19.75 15.7495C19.75 15.7516 19.75 15.7537 19.75 15.7558C19.75 15.7579 19.75 15.76 19.75 15.7621C19.75 15.7642 19.75 15.7663 19.75 15.7684C19.75 15.7705 19.75 15.7726 19.75 15.7747C19.75 15.7768 19.75 15.7789 19.75 15.781C19.75 15.7831 19.75 15.7852 19.75 15.7873C19.75 15.7894 19.75 15.7915 19.75 15.7936C19.75 15.7957 19.75 15.7978 19.75 15.7999C19.75 15.802 19.75 15.8041 19.75 15.8062C19.75 15.8083 19.75 15.8104 19.75 15.8125C19.75 15.8146 19.75 15.8167 19.75 15.8188C19.75 15.8209 19.75 15.823 19.75 15.8251C19.75 15.8272 19.75 15.8293 19.75 15.8314C19.75 15.8335 19.75 15.8356 19.75 15.8378C19.75 15.8399 19.75 15.842 19.75 15.8441C19.75 15.8462 19.75 15.8483 19.75 15.8504C19.75 15.8525 19.75 15.8546 19.75 15.8567C19.75 15.8589 19.75 15.861 19.75 15.8631C19.75 15.8652 19.75 15.8673 19.75 15.8694C19.75 15.8715 19.75 15.8736 19.75 15.8758C19.75 15.8779 19.75 15.88 19.75 15.8821C19.75 15.8842 19.75 15.8863 19.75 15.8884C19.75 15.8906 19.75 15.8927 19.75 15.8948C19.75 15.8969 19.75 15.899 19.75 15.9011C19.75 15.9033 19.75 15.9054 19.75 15.9075C19.75 15.9096 19.75 15.9117 19.75 15.9138C19.75 15.916 19.75 15.9181 19.75 15.9202C19.75 15.9223 19.75 15.9244 19.75 15.9266C19.75 15.9287 19.75 15.9308 19.75 15.9329C19.75 15.9351 19.75 15.9372 19.75 15.9393C19.75 15.9414 19.75 15.9435 19.75 15.9457C19.75 15.9478 19.75 15.9499 19.75 15.952C19.75 15.9542 19.75 15.9563 19.75 15.9584C19.75 15.9605 19.75 15.9627 19.75 15.9648C19.75 15.9669 19.75 15.969 19.75 15.9712C19.75 15.9733 19.75 15.9754 19.75 15.9776C19.75 15.9797 19.75 15.9818 19.75 15.9839C19.75 15.9861 19.75 15.9882 19.75 15.9903C19.75 15.9925 19.75 15.9946 19.75 15.9967C19.75 15.9989 19.75 16.001 19.75 16.0031C19.75 16.0052 19.75 16.0074 19.75 16.0095C19.75 16.0116 19.75 16.0138 19.75 16.0159C19.75 16.018 19.75 16.0202 19.75 16.0223C19.75 16.0244 19.75 16.0266 19.75 16.0287C19.75 16.0308 19.75 16.033 19.75 16.0351C19.75 16.0372 19.75 16.0394 19.75 16.0415C19.75 16.0437 19.75 16.0458 19.75 16.0479C19.75 16.0501 19.75 16.0522 19.75 16.0543C19.75 16.0565 19.75 16.0586 19.75 16.0608C19.75 16.0629 19.75 16.065 19.75 16.0672C19.75 16.0693 19.75 16.0715 19.75 16.0736C19.75 16.0757 19.75 16.0779 19.75 16.08C19.75 16.0822 19.75 16.0843 19.75 16.0864C19.75 16.0886 19.75 16.0907 19.75 16.0929C19.75 16.095 19.75 16.0971 19.75 16.0993C19.75 16.1014 19.75 16.1036 19.75 16.1057C19.75 16.1079 19.75 16.11 19.75 16.1122C19.75 16.1143 19.75 16.1164 19.75 16.1186C19.75 16.1207 19.75 16.1229 19.75 16.125C19.75 16.1272 19.75 16.1293 19.75 16.1315C19.75 16.1336 19.75 16.1358 19.75 16.1379C19.75 16.1401 19.75 16.1422 19.75 16.1443C19.75 16.1465 19.75 16.1486 19.75 16.1508C19.75 16.1529 19.75 16.1551 19.75 16.1572C19.75 16.1594 19.75 16.1615 19.75 16.1637C19.75 16.1658 19.75 16.168 19.75 16.1701C19.75 16.1723 19.75 16.1744 19.75 16.1766C19.75 16.1787 19.75 16.1809 19.75 16.183C19.75 16.1852 19.75 16.1874 19.75 16.1895C19.75 16.1917 19.75 16.1938 19.75 16.196C19.75 16.1981 19.75 16.2003 19.75 16.2024C19.75 16.2046 19.75 16.2067 19.75 16.2089C19.75 16.211 19.75 16.2132 19.75 16.2154C19.75 16.2175 19.75 16.2197 19.75 16.2218C19.75 16.224 19.75 16.2261 19.75 16.2283C19.75 16.2304 19.75 16.2326 19.75 16.2348C19.75 16.2369 19.75 16.2391 19.75 16.2412C19.75 16.2434 19.75 16.2456 19.75 16.2477C19.75 16.2499 19.75 16.252 19.75 16.2542C19.75 16.2563 19.75 16.2585 19.75 16.2607C19.75 16.2628 19.75 16.265 19.75 16.2671C19.75 16.2693 19.75 16.2715 19.75 16.2736C19.75 16.2758 19.75 16.2779 19.75 16.2801C19.75 16.2823 19.75 16.2844 19.75 16.2866C19.75 16.2888 19.75 16.2909 19.75 16.2931C19.75 16.2952 19.75 16.2974 19.75 16.2996C19.75 16.3017 19.75 16.3039 19.75 16.3061C19.75 16.3082 19.75 16.3104 19.75 16.3126C19.75 16.3147 19.75 16.3169 19.75 16.319C19.75 16.3212 19.75 16.3234 19.75 16.3255C19.75 16.3277 19.75 16.3299 19.75 16.332C19.75 16.3342 19.75 16.3364 19.75 16.3385C19.75 16.3407 19.75 16.3429 19.75 16.345C19.75 16.3472 19.75 16.3494 19.75 16.3515C19.75 16.3537 19.75 16.3559 19.75 16.358C19.75 16.3602 19.75 16.3624 19.75 16.3645C19.75 16.3667 19.75 16.3689 19.75 16.371C19.75 16.3732 19.75 16.3754 19.75 16.3776C19.75 16.3797 19.75 16.3819 19.75 16.3841C19.75 16.3862 19.75 16.3884 19.75 16.3906C19.75 16.3927 19.75 16.3949 19.75 16.3971C19.75 16.3993 19.75 16.4014 19.75 16.4036C19.75 16.4058 19.75 16.4079 19.75 16.4101C19.75 16.4123 19.75 16.4145 19.75 16.4166C19.75 16.4188 19.75 16.421 19.75 16.4232C19.75 16.4253 19.75 16.4275 19.75 16.4297C19.75 16.4318 19.75 16.434 19.75 16.4362C19.75 16.4384 19.75 16.4405 19.75 16.4427C19.75 16.4449 19.75 16.4471 19.75 16.4492C19.75 16.4514 19.75 16.4536 19.75 16.4558C19.75 16.4579 19.75 16.4601 19.75 16.4623C19.75 16.4645 19.75 16.4666 19.75 16.4688C19.75 16.471 19.75 16.4732 19.75 16.4753C19.75 16.4775 19.75 16.4797 19.75 16.4819C19.75 16.484 19.75 16.4862 19.75 16.4884C19.75 16.4906 19.75 16.4927 19.75 16.4949C19.75 16.4971 19.75 16.4993 19.75 16.5015C19.75 16.5036 19.75 16.5058 19.75 16.508C19.75 16.5102 19.75 16.5123 19.75 16.5145C19.75 16.5167 19.75 16.5189 19.75 16.5211C19.75 16.5232 19.75 16.5254 19.75 16.5276C19.75 16.5298 19.75 16.532 19.75 16.5341C19.75 16.5363 19.75 16.5385 19.75 16.5407C19.75 16.5429 19.75 16.545 19.75 16.5472C19.75 16.5494 19.75 16.5516 19.75 16.5538C19.75 16.5559 19.75 16.5581 19.75 16.5603C19.75 16.5625 19.75 16.5647 19.75 16.5668C19.75 16.569 19.75 16.5712 19.75 16.5734C19.75 16.5756 19.75 16.5778 19.75 16.5799C19.75 16.5821 19.75 16.5843 19.75 16.5865C19.75 16.5887 19.75 16.5908 19.75 16.593C19.75 16.5952 19.75 16.5974 19.75 16.5996C19.75 16.6018 19.75 16.6039 19.75 16.6061C19.75 16.6083 19.75 16.6105 19.75 16.6127C19.75 16.6149 19.75 16.617 19.75 16.6192C19.75 16.6214 19.75 16.6236 19.75 16.6258C19.75 16.628 19.75 16.6301 19.75 16.6323C19.75 16.6345 19.75 16.6367 19.75 16.6389C19.75 16.6411 19.75 16.6432 19.75 16.6454C19.75 16.6476 19.75 16.6498 19.75 16.652C19.75 16.6542 19.75 16.6564 19.75 16.6585C19.75 16.6607 19.75 16.6629 19.75 16.6651C19.75 16.6673 19.75 16.6695 19.75 16.6717C19.75 16.6738 19.75 16.676 19.75 16.6782C19.75 16.6804 19.75 16.6826 19.75 16.6848C19.75 16.687 19.75 16.6891 19.75 16.6913C19.75 16.6935 19.75 16.6957 19.75 16.6979C19.75 16.7001 19.75 16.7023 19.75 16.7044C19.75 16.7066 19.75 16.7088 19.75 16.711C19.75 16.7132 19.75 16.7154 19.75 16.7176C19.75 16.7198 19.75 16.7219 19.75 16.7241C19.75 16.7263 19.75 16.7285 19.75 16.7307C19.75 16.7329 19.75 16.7351 19.75 16.7373C19.75 16.7394 19.75 16.7416 19.75 16.7438C19.75 16.746 19.75 16.7482 19.75 16.7504C19.75 16.7526 19.75 16.7548 19.75 16.7569C19.75 16.7591 19.75 16.7613 19.75 16.7635C19.75 16.7657 19.75 16.7679 19.75 16.7701C19.75 16.7723 19.75 16.7745 19.75 16.7766C19.75 16.7788 19.75 16.781 19.75 16.7832C19.75 16.7854 19.75 16.7876 19.75 16.7898C19.75 16.792 19.75 16.7942 19.75 16.7963C19.75 16.7985 19.75 16.8007 19.75 16.8029C19.75 16.8051 19.75 16.8073 19.75 16.8095C19.75 16.8117 19.75 16.8139 19.75 16.816C19.75 16.8182 19.75 16.8204 19.75 16.8226C19.75 16.8248 19.75 16.827 19.75 16.8292C19.75 16.8314 19.75 16.8336 19.75 16.8357C19.75 16.8379 19.75 16.8401 19.75 16.8423C19.75 16.8445 19.75 16.8467 19.75 16.8489C19.75 16.8511 19.75 16.8533 19.75 16.8555C19.75 16.8576 19.75 16.8598 19.75 16.862C19.75 16.8642 19.75 16.8664 19.75 16.8686C19.75 16.8708 19.75 16.873 19.75 16.8752C19.75 16.8774 19.75 16.8795 19.75 16.8817C19.75 16.8839 19.75 16.8861 19.75 16.8883C19.75 16.8905 19.75 16.8927 19.75 16.8949C19.75 16.8971 19.75 16.8993 19.75 16.9014C19.75 16.9036 19.75 16.9058 19.75 16.908C19.75 16.9102 19.75 16.9124 19.75 16.9146C19.75 16.9168 19.75 16.919 19.75 16.9212C19.75 16.9234 19.75 16.9255 19.75 16.9277C19.75 16.9299 19.75 16.9321 19.75 16.9343C19.75 16.9365 19.75 16.9387 19.75 16.9409C19.75 16.9431 19.75 16.9453 19.75 16.9474C19.75 16.9496 19.75 16.9518 19.75 16.954C19.75 16.9562 19.75 16.9584 19.75 16.9606C19.75 16.9628 19.75 16.965 19.75 16.9672C19.75 16.9693 19.75 16.9715 19.75 16.9737C19.75 16.9759 19.75 16.9781 19.75 16.9803C19.75 16.9825 19.75 16.9847 19.75 16.9869C19.75 16.9891 19.75 16.9912 19.75 16.9934C19.75 16.9956 19.75 16.9978 19.75 17H22.25C22.25 16.9978 22.25 16.9956 22.25 16.9934C22.25 16.9912 22.25 16.9891 22.25 16.9869C22.25 16.9847 22.25 16.9825 22.25 16.9803C22.25 16.9781 22.25 16.9759 22.25 16.9737C22.25 16.9715 22.25 16.9693 22.25 16.9672C22.25 16.965 22.25 16.9628 22.25 16.9606C22.25 16.9584 22.25 16.9562 22.25 16.954C22.25 16.9518 22.25 16.9496 22.25 16.9474C22.25 16.9453 22.25 16.9431 22.25 16.9409C22.25 16.9387 22.25 16.9365 22.25 16.9343C22.25 16.9321 22.25 16.9299 22.25 16.9277C22.25 16.9255 22.25 16.9234 22.25 16.9212C22.25 16.919 22.25 16.9168 22.25 16.9146C22.25 16.9124 22.25 16.9102 22.25 16.908C22.25 16.9058 22.25 16.9036 22.25 16.9014C22.25 16.8993 22.25 16.8971 22.25 16.8949C22.25 16.8927 22.25 16.8905 22.25 16.8883C22.25 16.8861 22.25 16.8839 22.25 16.8817C22.25 16.8795 22.25 16.8774 22.25 16.8752C22.25 16.873 22.25 16.8708 22.25 16.8686C22.25 16.8664 22.25 16.8642 22.25 16.862C22.25 16.8598 22.25 16.8576 22.25 16.8555C22.25 16.8533 22.25 16.8511 22.25 16.8489C22.25 16.8467 22.25 16.8445 22.25 16.8423C22.25 16.8401 22.25 16.8379 22.25 16.8357C22.25 16.8336 22.25 16.8314 22.25 16.8292C22.25 16.827 22.25 16.8248 22.25 16.8226C22.25 16.8204 22.25 16.8182 22.25 16.816C22.25 16.8139 22.25 16.8117 22.25 16.8095C22.25 16.8073 22.25 16.8051 22.25 16.8029C22.25 16.8007 22.25 16.7985 22.25 16.7963C22.25 16.7942 22.25 16.792 22.25 16.7898C22.25 16.7876 22.25 16.7854 22.25 16.7832C22.25 16.781 22.25 16.7788 22.25 16.7766C22.25 16.7745 22.25 16.7723 22.25 16.7701C22.25 16.7679 22.25 16.7657 22.25 16.7635C22.25 16.7613 22.25 16.7591 22.25 16.7569C22.25 16.7548 22.25 16.7526 22.25 16.7504C22.25 16.7482 22.25 16.746 22.25 16.7438C22.25 16.7416 22.25 16.7394 22.25 16.7373C22.25 16.7351 22.25 16.7329 22.25 16.7307C22.25 16.7285 22.25 16.7263 22.25 16.7241C22.25 16.7219 22.25 16.7198 22.25 16.7176C22.25 16.7154 22.25 16.7132 22.25 16.711C22.25 16.7088 22.25 16.7066 22.25 16.7044C22.25 16.7023 22.25 16.7001 22.25 16.6979C22.25 16.6957 22.25 16.6935 22.25 16.6913C22.25 16.6891 22.25 16.687 22.25 16.6848C22.25 16.6826 22.25 16.6804 22.25 16.6782C22.25 16.676 22.25 16.6738 22.25 16.6717C22.25 16.6695 22.25 16.6673 22.25 16.6651C22.25 16.6629 22.25 16.6607 22.25 16.6585C22.25 16.6564 22.25 16.6542 22.25 16.652C22.25 16.6498 22.25 16.6476 22.25 16.6454C22.25 16.6432 22.25 16.6411 22.25 16.6389C22.25 16.6367 22.25 16.6345 22.25 16.6323C22.25 16.6301 22.25 16.628 22.25 16.6258C22.25 16.6236 22.25 16.6214 22.25 16.6192C22.25 16.617 22.25 16.6149 22.25 16.6127C22.25 16.6105 22.25 16.6083 22.25 16.6061C22.25 16.6039 22.25 16.6018 22.25 16.5996C22.25 16.5974 22.25 16.5952 22.25 16.593C22.25 16.5908 22.25 16.5887 22.25 16.5865C22.25 16.5843 22.25 16.5821 22.25 16.5799C22.25 16.5778 22.25 16.5756 22.25 16.5734C22.25 16.5712 22.25 16.569 22.25 16.5668C22.25 16.5647 22.25 16.5625 22.25 16.5603C22.25 16.5581 22.25 16.5559 22.25 16.5538C22.25 16.5516 22.25 16.5494 22.25 16.5472C22.25 16.545 22.25 16.5429 22.25 16.5407C22.25 16.5385 22.25 16.5363 22.25 16.5341C22.25 16.532 22.25 16.5298 22.25 16.5276C22.25 16.5254 22.25 16.5232 22.25 16.5211C22.25 16.5189 22.25 16.5167 22.25 16.5145C22.25 16.5123 22.25 16.5102 22.25 16.508C22.25 16.5058 22.25 16.5036 22.25 16.5015C22.25 16.4993 22.25 16.4971 22.25 16.4949C22.25 16.4927 22.25 16.4906 22.25 16.4884C22.25 16.4862 22.25 16.484 22.25 16.4819C22.25 16.4797 22.25 16.4775 22.25 16.4753C22.25 16.4732 22.25 16.471 22.25 16.4688C22.25 16.4666 22.25 16.4645 22.25 16.4623C22.25 16.4601 22.25 16.4579 22.25 16.4558C22.25 16.4536 22.25 16.4514 22.25 16.4492C22.25 16.4471 22.25 16.4449 22.25 16.4427C22.25 16.4405 22.25 16.4384 22.25 16.4362C22.25 16.434 22.25 16.4318 22.25 16.4297C22.25 16.4275 22.25 16.4253 22.25 16.4232C22.25 16.421 22.25 16.4188 22.25 16.4166C22.25 16.4145 22.25 16.4123 22.25 16.4101C22.25 16.4079 22.25 16.4058 22.25 16.4036C22.25 16.4014 22.25 16.3993 22.25 16.3971C22.25 16.3949 22.25 16.3927 22.25 16.3906C22.25 16.3884 22.25 16.3862 22.25 16.3841C22.25 16.3819 22.25 16.3797 22.25 16.3776C22.25 16.3754 22.25 16.3732 22.25 16.371C22.25 16.3689 22.25 16.3667 22.25 16.3645C22.25 16.3624 22.25 16.3602 22.25 16.358C22.25 16.3559 22.25 16.3537 22.25 16.3515C22.25 16.3494 22.25 16.3472 22.25 16.345C22.25 16.3429 22.25 16.3407 22.25 16.3385C22.25 16.3364 22.25 16.3342 22.25 16.332C22.25 16.3299 22.25 16.3277 22.25 16.3255C22.25 16.3234 22.25 16.3212 22.25 16.319C22.25 16.3169 22.25 16.3147 22.25 16.3126C22.25 16.3104 22.25 16.3082 22.25 16.3061C22.25 16.3039 22.25 16.3017 22.25 16.2996C22.25 16.2974 22.25 16.2952 22.25 16.2931C22.25 16.2909 22.25 16.2888 22.25 16.2866C22.25 16.2844 22.25 16.2823 22.25 16.2801C22.25 16.2779 22.25 16.2758 22.25 16.2736C22.25 16.2715 22.25 16.2693 22.25 16.2671C22.25 16.265 22.25 16.2628 22.25 16.2607C22.25 16.2585 22.25 16.2563 22.25 16.2542C22.25 16.252 22.25 16.2499 22.25 16.2477C22.25 16.2456 22.25 16.2434 22.25 16.2412C22.25 16.2391 22.25 16.2369 22.25 16.2348C22.25 16.2326 22.25 16.2304 22.25 16.2283C22.25 16.2261 22.25 16.224 22.25 16.2218C22.25 16.2197 22.25 16.2175 22.25 16.2154C22.25 16.2132 22.25 16.211 22.25 16.2089C22.25 16.2067 22.25 16.2046 22.25 16.2024C22.25 16.2003 22.25 16.1981 22.25 16.196C22.25 16.1938 22.25 16.1917 22.25 16.1895C22.25 16.1874 22.25 16.1852 22.25 16.183C22.25 16.1809 22.25 16.1787 22.25 16.1766C22.25 16.1744 22.25 16.1723 22.25 16.1701C22.25 16.168 22.25 16.1658 22.25 16.1637C22.25 16.1615 22.25 16.1594 22.25 16.1572C22.25 16.1551 22.25 16.1529 22.25 16.1508C22.25 16.1486 22.25 16.1465 22.25 16.1443C22.25 16.1422 22.25 16.1401 22.25 16.1379C22.25 16.1358 22.25 16.1336 22.25 16.1315C22.25 16.1293 22.25 16.1272 22.25 16.125C22.25 16.1229 22.25 16.1207 22.25 16.1186C22.25 16.1164 22.25 16.1143 22.25 16.1122C22.25 16.11 22.25 16.1079 22.25 16.1057C22.25 16.1036 22.25 16.1014 22.25 16.0993C22.25 16.0971 22.25 16.095 22.25 16.0929C22.25 16.0907 22.25 16.0886 22.25 16.0864C22.25 16.0843 22.25 16.0822 22.25 16.08C22.25 16.0779 22.25 16.0757 22.25 16.0736C22.25 16.0715 22.25 16.0693 22.25 16.0672C22.25 16.065 22.25 16.0629 22.25 16.0608C22.25 16.0586 22.25 16.0565 22.25 16.0543C22.25 16.0522 22.25 16.0501 22.25 16.0479C22.25 16.0458 22.25 16.0437 22.25 16.0415C22.25 16.0394 22.25 16.0372 22.25 16.0351C22.25 16.033 22.25 16.0308 22.25 16.0287C22.25 16.0266 22.25 16.0244 22.25 16.0223C22.25 16.0202 22.25 16.018 22.25 16.0159C22.25 16.0138 22.25 16.0116 22.25 16.0095C22.25 16.0074 22.25 16.0052 22.25 16.0031C22.25 16.001 22.25 15.9989 22.25 15.9967C22.25 15.9946 22.25 15.9925 22.25 15.9903C22.25 15.9882 22.25 15.9861 22.25 15.9839C22.25 15.9818 22.25 15.9797 22.25 15.9776C22.25 15.9754 22.25 15.9733 22.25 15.9712C22.25 15.969 22.25 15.9669 22.25 15.9648C22.25 15.9627 22.25 15.9605 22.25 15.9584C22.25 15.9563 22.25 15.9542 22.25 15.952C22.25 15.9499 22.25 15.9478 22.25 15.9457C22.25 15.9435 22.25 15.9414 22.25 15.9393C22.25 15.9372 22.25 15.9351 22.25 15.9329C22.25 15.9308 22.25 15.9287 22.25 15.9266C22.25 15.9244 22.25 15.9223 22.25 15.9202C22.25 15.9181 22.25 15.916 22.25 15.9138C22.25 15.9117 22.25 15.9096 22.25 15.9075C22.25 15.9054 22.25 15.9033 22.25 15.9011C22.25 15.899 22.25 15.8969 22.25 15.8948C22.25 15.8927 22.25 15.8906 22.25 15.8884C22.25 15.8863 22.25 15.8842 22.25 15.8821C22.25 15.88 22.25 15.8779 22.25 15.8758C22.25 15.8736 22.25 15.8715 22.25 15.8694C22.25 15.8673 22.25 15.8652 22.25 15.8631C22.25 15.861 22.25 15.8589 22.25 15.8567C22.25 15.8546 22.25 15.8525 22.25 15.8504C22.25 15.8483 22.25 15.8462 22.25 15.8441C22.25 15.842 22.25 15.8399 22.25 15.8378C22.25 15.8356 22.25 15.8335 22.25 15.8314C22.25 15.8293 22.25 15.8272 22.25 15.8251C22.25 15.823 22.25 15.8209 22.25 15.8188C22.25 15.8167 22.25 15.8146 22.25 15.8125C22.25 15.8104 22.25 15.8083 22.25 15.8062C22.25 15.8041 22.25 15.802 22.25 15.7999C22.25 15.7978 22.25 15.7957 22.25 15.7936C22.25 15.7915 22.25 15.7894 22.25 15.7873C22.25 15.7852 22.25 15.7831 22.25 15.781C22.25 15.7789 22.25 15.7768 22.25 15.7747C22.25 15.7726 22.25 15.7705 22.25 15.7684C22.25 15.7663 22.25 15.7642 22.25 15.7621C22.25 15.76 22.25 15.7579 22.25 15.7558C22.25 15.7537 22.25 15.7516 22.25 15.7495C22.25 15.7474 22.25 15.7453 22.25 15.7432C22.25 15.7411 22.25 15.7391 22.25 15.737C22.25 15.7349 22.25 15.7328 22.25 15.7307C22.25 15.7286 22.25 15.7265 22.25 15.7244C22.25 15.7223 22.25 15.7202 22.25 15.7182C22.25 15.7161 22.25 15.714 22.25 15.7119C22.25 15.7098 22.25 15.7077 22.25 15.7056C22.25 15.7035 22.25 15.7015 22.25 15.6994C22.25 15.6973 22.25 15.6952 22.25 15.6931C22.25 15.691 22.25 15.6889 22.25 15.6869C22.25 15.6848 22.25 15.6827 22.25 15.6806C22.25 15.6785 22.25 15.6765 22.25 15.6744C22.25 15.6723 22.25 15.6702 22.25 15.6681C22.25 15.6661 22.25 15.664 22.25 15.6619C22.25 15.6598 22.25 15.6577 22.25 15.6557C22.25 15.6536 22.25 15.6515 22.25 15.6494C22.25 15.6474 22.25 15.6453 22.25 15.6432C22.25 15.6411 22.25 15.6391 22.25 15.637C22.25 15.6349 22.25 15.6328 22.25 15.6308C22.25 15.6287 22.25 15.6266 22.25 15.6245C22.25 15.6225 22.25 15.6204 22.25 15.6183C22.25 15.6163 22.25 15.6142 22.25 15.6121C22.25 15.6101 22.25 15.608 22.25 15.6059C22.25 15.6039 22.25 15.6018 22.25 15.5997C22.25 15.5977 22.25 15.5956 22.25 15.5935C22.25 15.5915 22.25 15.5894 22.25 15.5873C22.25 15.5853 22.25 15.5832 22.25 15.5811C22.25 15.5791 22.25 15.577 22.25 15.5749C22.25 15.5729 22.25 15.5708 22.25 15.5688C22.25 15.5667 22.25 15.5646 22.25 15.5626C22.25 15.5605 22.25 15.5585 22.25 15.5564C22.25 15.5543 22.25 15.5523 22.25 15.5502C22.25 15.5482 22.25 15.5461 22.25 15.5441C22.25 15.542 22.25 15.5399 22.25 15.5379C22.25 15.5358 22.25 15.5338 22.25 15.5317C22.25 15.5297 22.25 15.5276 22.25 15.5256C22.25 15.5235 22.25 15.5215 22.25 15.5194C22.25 15.5174 22.25 15.5153 22.25 15.5133C22.25 15.5112 22.25 15.5092 22.25 15.5071C22.25 15.5051 22.25 15.503 22.25 15.501C22.25 15.4989 22.25 15.4969 22.25 15.4948C22.25 15.4928 22.25 15.4907 22.25 15.4887C22.25 15.4867 22.25 15.4846 22.25 15.4826C22.25 15.4805 22.25 15.4785 22.25 15.4764C22.25 15.4744 22.25 15.4724 22.25 15.4703C22.25 15.4683 22.25 15.4662 22.25 15.4642C22.25 15.4622 22.25 15.4601 22.25 15.4581C22.25 15.456 22.25 15.454 22.25 15.452C22.25 15.4499 22.25 15.4479 22.25 15.4459C22.25 15.4438 22.25 15.4418 22.25 15.4398C22.25 15.4377 22.25 15.4357 22.25 15.4337C22.25 15.4316 22.25 15.4296 22.25 15.4276C22.25 15.4255 22.25 15.4235 22.25 15.4215C22.25 15.4194 22.25 15.4174 22.25 15.4154C22.25 15.4134 22.25 15.4113 22.25 15.4093C22.25 15.4073 22.25 15.4053 22.25 15.4032C22.25 15.4012 22.25 15.3992 22.25 15.3972C22.25 15.3951 22.25 15.3931 22.25 15.3911C22.25 15.3891 22.25 15.387 22.25 15.385C22.25 15.383 22.25 15.381 22.25 15.379C22.25 15.3769 22.25 15.3749 22.25 15.3729C22.25 15.3709 22.25 15.3689 22.25 15.3668C22.25 15.3648 22.25 15.3628 22.25 15.3608C22.25 15.3588 22.25 15.3568 22.25 15.3547C22.25 15.3527 22.25 15.3507 22.25 15.3487C22.25 15.3467 22.25 15.3447 22.25 15.3427C22.25 15.3407 22.25 15.3386 22.25 15.3366C22.25 15.3346 22.25 15.3326 22.25 15.3306C22.25 15.3286 22.25 15.3266 22.25 15.3246C22.25 15.3226 22.25 15.3206 22.25 15.3186C22.25 15.3166 22.25 15.3145 22.25 15.3125C22.25 15.3105 22.25 15.3085 22.25 15.3065C22.25 15.3045 22.25 15.3025 22.25 15.3005C22.25 15.2985 22.25 15.2965 22.25 15.2945C22.25 15.2925 22.25 15.2905 22.25 15.2885C22.25 15.2865 22.25 15.2845 22.25 15.2825C22.25 15.2805 22.25 15.2785 22.25 15.2765C22.25 15.2745 22.25 15.2726 22.25 15.2706C22.25 15.2686 22.25 15.2666 22.25 15.2646C22.25 15.2626 22.25 15.2606 22.25 15.2586C22.25 15.2566 22.25 15.2546 22.25 15.2526C22.25 15.2506 22.25 15.2487 22.25 15.2467C22.25 15.2447 22.25 15.2427 22.25 15.2407C22.25 15.2387 22.25 15.2367 22.25 15.2347C22.25 15.2328 22.25 15.2308 22.25 15.2288C22.25 15.2268 22.25 15.2248 22.25 15.2228C22.25 15.2209 22.25 15.2189 22.25 15.2169C22.25 15.2149 22.25 15.2129 22.25 15.211C22.25 15.209 22.25 15.207 22.25 15.205C22.25 15.2031 22.25 15.2011 22.25 15.1991C22.25 15.1971 22.25 15.1952 22.25 15.1932C22.25 15.1912 22.25 15.1892 22.25 15.1873C22.25 15.1853 22.25 15.1833 22.25 15.1813C22.25 15.1794 22.25 15.1774 22.25 15.1754C22.25 15.1735 22.25 15.1715 22.25 15.1695C22.25 15.1676 22.25 15.1656 22.25 15.1636C22.25 15.1617 22.25 15.1597 22.25 15.1577C22.25 15.1558 22.25 15.1538 22.25 15.1518C22.25 15.1499 22.25 15.1479 22.25 15.146C22.25 15.144 22.25 15.142 22.25 15.1401C22.25 15.1381 22.25 15.1362 22.25 15.1342C22.25 15.1322 22.25 15.1303 22.25 15.1283C22.25 15.1264 22.25 15.1244 22.25 15.1225C22.25 15.1205 22.25 15.1185 22.25 15.1166C22.25 15.1146 22.25 15.1127 22.25 15.1107C22.25 15.1088 22.25 15.1068 22.25 15.1049C22.25 15.1029 22.25 15.101 22.25 15.099C22.25 15.0971 22.25 15.0951 22.25 15.0932C22.25 15.0913 22.25 15.0893 22.25 15.0874C22.25 15.0854 22.25 15.0835 22.25 15.0815C22.25 15.0796 22.25 15.0776 22.25 15.0757C22.25 15.0738 22.25 15.0718 22.25 15.0699C22.25 15.0679 22.25 15.066 22.25 15.0641C22.25 15.0621 22.25 15.0602 22.25 15.0583C22.25 15.0563 22.25 15.0544 22.25 15.0524C22.25 15.0505 22.25 15.0486 22.25 15.0466C22.25 15.0447 22.25 15.0428 22.25 15.0409C22.25 15.0389 22.25 15.037 22.25 15.0351C22.25 15.0331 22.25 15.0312 22.25 15.0293C22.25 15.0273 22.25 15.0254 22.25 15.0235C22.25 15.0216 22.25 15.0196 22.25 15.0177C22.25 15.0158 22.25 15.0139 22.25 15.012C22.25 15.01 22.25 15.0081 22.25 15.0062C22.25 15.0043 22.25 15.0023 22.25 15.0004C22.25 14.9985 22.25 14.9966 22.25 14.9947C22.25 14.9928 22.25 14.9908 22.25 14.9889C22.25 14.987 22.25 14.9851 22.25 14.9832C22.25 14.9813 22.25 14.9794 22.25 14.9774C22.25 14.9755 22.25 14.9736 22.25 14.9717C22.25 14.9698 22.25 14.9679 22.25 14.966C22.25 14.9641 22.25 14.9622 22.25 14.9603C22.25 14.9584 22.25 14.9564 22.25 14.9545C22.25 14.9526 22.25 14.9507 22.25 14.9488C22.25 14.9469 22.25 14.945 22.25 14.9431C22.25 14.9412 22.25 14.9393 22.25 14.9374C22.25 14.9355 22.25 14.9336 22.25 14.9317C22.25 14.9298 22.25 14.9279 22.25 14.926C22.25 14.9241 22.25 14.9223 22.25 14.9204C22.25 14.9185 22.25 14.9166 22.25 14.9147C22.25 14.9128 22.25 14.9109 22.25 14.909C22.25 14.9071 22.25 14.9052 22.25 14.9033C22.25 14.9015 22.25 14.8996 22.25 14.8977C22.25 14.8958 22.25 14.8939 22.25 14.892C22.25 14.8901 22.25 14.8883 22.25 14.8864C22.25 14.8845 22.25 14.8826 22.25 14.8807C22.25 14.8789 22.25 14.877 22.25 14.8751C22.25 14.8732 22.25 14.8713 22.25 14.8695C22.25 14.8676 22.25 14.8657 22.25 14.8638C22.25 14.862 22.25 14.8601 22.25 14.8582C22.25 14.8563 22.25 14.8545 22.25 14.8526C22.25 14.8507 22.25 14.8489 22.25 14.847C22.25 14.8451 22.25 14.8433 22.25 14.8414C22.25 14.8395 22.25 14.8376 22.25 14.8358C22.25 14.8339 22.25 14.8321 22.25 14.8302C22.25 14.8283 22.25 14.8265 22.25 14.8246C22.25 14.8227 22.25 14.8209 22.25 14.819C22.25 14.8172 22.25 14.8153 22.25 14.8134C22.25 14.8116 22.25 14.8097 22.25 14.8079C22.25 14.806 22.25 14.8042 22.25 14.8023C22.25 14.8005 22.25 14.7986 22.25 14.7968C22.25 14.7949 22.25 14.7931 22.25 14.7912C22.25 14.7894 22.25 14.7875 22.25 14.7857C22.25 14.7838 22.25 14.782 22.25 14.7801C22.25 14.7783 22.25 14.7764 22.25 14.7746C22.25 14.7727 22.25 14.7709 22.25 14.7691C22.25 14.7672 22.25 14.7654 22.25 14.7635C22.25 14.7617 22.25 14.7599 22.25 14.758C22.25 14.7562 22.25 14.7543 22.25 14.7525C22.25 14.7507 22.25 14.7488 22.25 14.747C22.25 14.7452 22.25 14.7433 22.25 14.7415C22.25 14.7397 22.25 14.7378 22.25 14.736C22.25 14.7342 22.25 14.7324 22.25 14.7305C22.25 14.7287 22.25 14.7269 22.25 14.7251C22.25 14.7232 22.25 14.7214 22.25 14.7196C22.25 14.7178 22.25 14.7159 22.25 14.7141C22.25 14.7123 22.25 14.7105 22.25 14.7087C22.25 14.7068 22.25 14.705 22.25 14.7032C22.25 14.7014 22.25 14.6996 22.25 14.6978C22.25 14.6959 22.25 14.6941 22.25 14.6923C22.25 14.6905 22.25 14.6887 22.25 14.6869C22.25 14.6851 22.25 14.6833 22.25 14.6814C22.25 14.6796 22.25 14.6778 22.25 14.676C22.25 14.6742 22.25 14.6724 22.25 14.6706C22.25 14.6688 22.25 14.667 22.25 14.6652C22.25 14.6634 22.25 14.6616 22.25 14.6598C22.25 14.658 22.25 14.6562 22.25 14.6544C22.25 14.6526 22.25 14.6508 22.25 14.649C22.25 14.6472 22.25 14.6454 22.25 14.6436C22.25 14.6418 22.25 14.64 22.25 14.6382C22.25 14.6364 22.25 14.6347 22.25 14.6329C22.25 14.6311 22.25 14.6293 22.25 14.6275C22.25 14.6257 22.25 14.6239 22.25 14.6221C22.25 14.6204 22.25 14.6186 22.25 14.6168C22.25 14.615 22.25 14.6132 22.25 14.6114C22.25 14.6097 22.25 14.6079 22.25 14.6061C22.25 14.6043 22.25 14.6025 22.25 14.6008C22.25 14.599 22.25 14.5972 22.25 14.5954C22.25 14.5937 22.25 14.5919 22.25 14.5901C22.25 14.5883 22.25 14.5866 22.25 14.5848C22.25 14.583 22.25 14.5813 22.25 14.5795C22.25 14.5777 22.25 14.576 22.25 14.5742C22.25 14.5724 22.25 14.5707 22.25 14.5689C22.25 14.5671 22.25 14.5654 22.25 14.5636C22.25 14.5619 22.25 14.5601 22.25 14.5583C22.25 14.5566 22.25 14.5548 22.25 14.5531C22.25 14.5513 22.25 14.5495 22.25 14.5478C22.25 14.546 22.25 14.5443 22.25 14.5425C22.25 14.5408 22.25 14.539 22.25 14.5373C22.25 14.5355 22.25 14.5338 22.25 14.532C22.25 14.5303 22.25 14.5285 22.25 14.5268C22.25 14.525 22.25 14.5233 22.25 14.5216C22.25 14.5198 22.25 14.5181 22.25 14.5163C22.25 14.5146 22.25 14.5128 22.25 14.5111C22.25 14.5094 22.25 14.5076 22.25 14.5059C22.25 14.5042 22.25 14.5024 22.25 14.5007C22.25 14.499 22.25 14.4972 22.25 14.4955C22.25 14.4938 22.25 14.492 22.25 14.4903C22.25 14.4886 22.25 14.4868 22.25 14.4851C22.25 14.4834 22.25 14.4817 22.25 14.4799C22.25 14.4782 22.25 14.4765 22.25 14.4748C22.25 14.473 22.25 14.4713 22.25 14.4696C22.25 14.4679 22.25 14.4662 22.25 14.4644C22.25 14.4627 22.25 14.461 22.25 14.4593C22.25 14.4576 22.25 14.4559 22.25 14.4541C22.25 14.4524 22.25 14.4507 22.25 14.449C22.25 14.4473 22.25 14.4456 22.25 14.4439C22.25 14.4422 22.25 14.4405 22.25 14.4388C22.25 14.4371 22.25 14.4353 22.25 14.4336C22.25 14.4319 22.25 14.4302 22.25 14.4285C22.25 14.4268 22.25 14.4251 22.25 14.4234C22.25 14.4217 22.25 14.42 22.25 14.4183C22.25 14.4166 22.25 14.4149 22.25 14.4133C22.25 14.4116 22.25 14.4099 22.25 14.4082C22.25 14.4065 22.25 14.4048 22.25 14.4031C22.25 14.4014 22.25 14.3997 22.25 14.398C22.25 14.3963 22.25 14.3947 22.25 14.393C22.25 14.3913 22.25 14.3896 22.25 14.3879C22.25 14.3862 22.25 14.3846 22.25 14.3829C22.25 14.3812 22.25 14.3795 22.25 14.3778C22.25 14.3762 22.25 14.3745 22.25 14.3728C22.25 14.3711 22.25 14.3695 22.25 14.3678C22.25 14.3661 22.25 14.3644 22.25 14.3628C22.25 14.3611 22.25 14.3594 22.25 14.3578C22.25 14.3561 22.25 14.3544 22.25 14.3528C22.25 14.3511 22.25 14.3494 22.25 14.3478C22.25 14.3461 22.25 14.3445 22.25 14.3428C22.25 14.3411 22.25 14.3395 22.25 14.3378C22.25 14.3362 22.25 14.3345 22.25 14.3328C22.25 14.3312 22.25 14.3295 22.25 14.3279C22.25 14.3262 22.25 14.3246 22.25 14.3229C22.25 14.3213 22.25 14.3196 22.25 14.318C22.25 14.3163 22.25 14.3147 22.25 14.313C22.25 14.3114 22.25 14.3097 22.25 14.3081C22.25 14.3065 22.25 14.3048 22.25 14.3032C22.25 14.3015 22.25 14.2999 22.25 14.2983C22.25 14.2966 22.25 14.295 22.25 14.2934C22.25 14.2917 22.25 14.2901 22.25 14.2884C22.25 14.2868 22.25 14.2852 22.25 14.2836C22.25 14.2819 22.25 14.2803 22.25 14.2787C22.25 14.277 22.25 14.2754 22.25 14.2738C22.25 14.2722 22.25 14.2705 22.25 14.2689C22.25 14.2673 22.25 14.2657 22.25 14.264C22.25 14.2624 22.25 14.2608 22.25 14.2592C22.25 14.2576 22.25 14.256 22.25 14.2543C22.25 14.2527 22.25 14.2511 22.25 14.2495C22.25 14.2479 22.25 14.2463 22.25 14.2447C22.25 14.2431 22.25 14.2415 22.25 14.2398C22.25 14.2382 22.25 14.2366 22.25 14.235C22.25 14.2334 22.25 14.2318 22.25 14.2302C22.25 14.2286 22.25 14.227 22.25 14.2254C22.25 14.2238 22.25 14.2222 22.25 14.2206C22.25 14.219 22.25 14.2174 22.25 14.2158C22.25 14.2142 22.25 14.2126 22.25 14.2111C22.25 14.2095 22.25 14.2079 22.25 14.2063C22.25 14.2047 22.25 14.2031 22.25 14.2015C22.25 14.1999 22.25 14.1983 22.25 14.1968C22.25 14.1952 22.25 14.1936 22.25 14.192C22.25 14.1904 22.25 14.1889 22.25 14.1873C22.25 14.1857 22.25 14.1841 22.25 14.1825C22.25 14.181 22.25 14.1794 22.25 14.1778C22.25 14.1762 22.25 14.1747 22.25 14.1731C22.25 14.1715 22.25 14.17 22.25 14.1684C22.25 14.1668 22.25 14.1653 22.25 14.1637C22.25 14.1621 22.25 14.1606 22.25 14.159C22.25 14.1574 22.25 14.1559 22.25 14.1543C22.25 14.1528 22.25 14.1512 22.25 14.1496C22.25 14.1481 22.25 14.1465 22.25 14.145C22.25 14.1434 22.25 14.1419 22.25 14.1403C22.25 14.1388 22.25 14.1372 22.25 14.1357C22.25 14.1341 22.25 14.1326 22.25 14.131C22.25 14.1295 22.25 14.1279 22.25 14.1264C22.25 14.1248 22.25 14.1233 22.25 14.1218C22.25 14.1202 22.25 14.1187 22.25 14.1171C22.25 14.1156 22.25 14.1141 22.25 14.1125C22.25 14.111 22.25 14.1095 22.25 14.1079C22.25 14.1064 22.25 14.1049 22.25 14.1033C22.25 14.1018 22.25 14.1003 22.25 14.0988C22.25 14.0972 22.25 14.0957 22.25 14.0942C22.25 14.0927 22.25 14.0911 22.25 14.0896C22.25 14.0881 22.25 14.0866 22.25 14.085C22.25 14.0835 22.25 14.082 22.25 14.0805C22.25 14.079 22.25 14.0775 22.25 14.0759C22.25 14.0744 22.25 14.0729 22.25 14.0714C22.25 14.0699 22.25 14.0684 22.25 14.0669C22.25 14.0654 22.25 14.0639 22.25 14.0624C22.25 14.0609 22.25 14.0594 22.25 14.0579C22.25 14.0564 22.25 14.0549 22.25 14.0534C22.25 14.0519 22.25 14.0504 22.25 14.0489C22.25 14.0474 22.25 14.0459 22.25 14.0444C22.25 14.0429 22.25 14.0414 22.25 14.0399C22.25 14.0384 22.25 14.0369 22.25 14.0354C22.25 14.0339 22.25 14.0325 22.25 14.031C22.25 14.0295 22.25 14.028 22.25 14.0265C22.25 14.025 22.25 14.0236 22.25 14.0221C22.25 14.0206 22.25 14.0191 22.25 14.0176C22.25 14.0162 22.25 14.0147 22.25 14.0132C22.25 14.0118 22.25 14.0103 22.25 14.0088C22.25 14.0073 22.25 14.0059 22.25 14.0044C22.25 14.0029 22.25 14.0015 22.25 14H19.75ZM21 12.75C20.8061 12.75 20.6164 12.677 20.4697 12.5303L18.7019 14.2981C19.3363 14.9325 20.1702 15.25 21 15.25V12.75ZM5 17.75C4.58579 17.75 4.25 17.4142 4.25 17H1.75C1.75 18.7949 3.20507 20.25 5 20.25V17.75ZM19 20.25C20.7949 20.25 22.25 18.7949 22.25 17H19.75C19.75 17.4142 19.4142 17.75 19 17.75V20.25ZM19 6.25C19.4142 6.25 19.75 6.58579 19.75 7H22.25C22.25 5.20507 20.7949 3.75 19 3.75V6.25ZM5 3.75C3.20507 3.75 1.75 5.20507 1.75 7H4.25C4.25 6.58579 4.58579 6.25 5 6.25V3.75Z" fill="#292929"/>
</svg>
