<svg width="24" height="24" viewBox="0 0 24 24" fill="none" xmlns="http://www.w3.org/2000/svg">
<g clip-path="url(#clip0)">
<path d="M7.00018 19H6.00018C3.23876 19 1.00018 16.7614 1.00018 14C1.00018 11.35 3.06181 9.18144 5.66869 9.01081C6.78993 6.64004 9.20353 5 12.0002 5C15.5269 5 18.4444 7.60802 18.9294 11.0006C18.9529 11.0002 18.9765 11 19.0002 11C21.2093 11 23.0002 12.7909 23.0002 15C23.0002 17.2091 21.2093 19 19.0002 19H17.0002" stroke="#242328" stroke-width="2" stroke-linecap="round" stroke-linejoin="round"/>
<path d="M9.00018 15L12.0002 18M12.0002 18L15.0002 15M12.0002 18L12.0002 10" stroke="#242328" stroke-width="2" stroke-linecap="round" stroke-linejoin="round"/>
</g>
<defs>
<clipPath id="clip0">
<rect width="24" height="24" fill="white" transform="translate(0.000183105)"/>
</clipPath>
</defs>
</svg>
