<svg width="24" height="24" viewBox="0 0 24 24" fill="none" xmlns="http://www.w3.org/2000/svg">
<path opacity="0.16" d="M12 3L19.7942 7.5V15.3453C19.7942 16.0598 19.413 16.7201 18.7942 17.0774L13 20.4226C12.3812 20.7799 11.6188 20.7799 11 20.4226L5.20578 17.0773C4.58698 16.7201 4.20578 16.0598 4.20578 15.3453V7.5L12 3Z" fill="#292929"/>
<path d="M12 3L19.7943 7.5V15.3453C19.7943 16.0598 19.4131 16.7201 18.7943 17.0774L13 20.4226C12.3812 20.7799 11.6188 20.7799 11 20.4226L5.20581 17.0774C4.58701 16.7201 4.20581 16.0598 4.20581 15.3453V7.5L12 3Z" stroke="#292929" stroke-width="2" stroke-linecap="round" stroke-linejoin="round"/>
<path d="M12 7V12L7.66986 14.5" stroke="#292929" stroke-width="2" stroke-linecap="round" stroke-linejoin="round"/>
<path d="M12 12L16.3301 14.5" stroke="#292929" stroke-width="2" stroke-linecap="round" stroke-linejoin="round"/>
</svg>
