<svg width="24" height="24" viewBox="0 0 24 24" fill="none" xmlns="http://www.w3.org/2000/svg">
<path fill-rule="evenodd" clip-rule="evenodd" d="M8.00003 3C7.73481 3 7.48046 3.10536 7.29292 3.29289L3.29748 7.28834C3.11382 7.46965 3 7.72153 3 8V8.00022V18C3 19.6569 4.34315 21 6 21H18C19.6569 21 21 19.6569 21 18V8.011C21.0003 7.98323 20.9994 7.9555 20.9974 7.92789C20.9804 7.69303 20.8807 7.46643 20.7071 7.29289L16.7071 3.29289C16.5196 3.10536 16.2652 3 16 3H8.00003ZM5 18V9H19V18C19 18.5523 18.5523 19 18 19H6C5.44772 19 5 18.5523 5 18ZM8 11C7.44772 11 7 11.4477 7 12C7 12.5523 7.44772 13 8 13H12C12.5523 13 13 12.5523 13 12C13 11.4477 12.5523 11 12 11H8Z" fill="#242328"/>
</svg>
