<svg width="24" height="24" viewBox="0 0 24 24" fill="none" xmlns="http://www.w3.org/2000/svg">
<path fill-rule="evenodd" clip-rule="evenodd" d="M1 6C1 5.44772 1.44772 5 2 5H22C22.5523 5 23 5.44772 23 6V16C23 17.6569 21.6569 19 20 19H4C2.34315 19 1 17.6569 1 16V6ZM5 10C5 9.44772 5.44772 9 6 9H18C18.5523 9 19 9.44772 19 10C19 10.5523 18.5523 11 18 11H6C5.44772 11 5 10.5523 5 10ZM5 14C5 13.4477 5.44772 13 6 13H10C10.5523 13 11 13.4477 11 14C11 14.5523 10.5523 15 10 15H6C5.44772 15 5 14.5523 5 14Z" fill="#242328"/>
</svg>
