<svg width="24" height="24" viewBox="0 0 24 24" fill="none" xmlns="http://www.w3.org/2000/svg">
<path fill-rule="evenodd" clip-rule="evenodd" d="M0 4C0 3.44772 0.447715 3 1 3H15C15.5523 3 16 3.44772 16 4V6H19C21.7614 6 24 8.23858 24 11V16C24 17.354 23.1031 18.4984 21.871 18.8716C21.7325 19.3289 21.4826 19.7601 21.1213 20.1213C19.9497 21.2929 18.0503 21.2929 16.8787 20.1213C16.5514 19.7941 16.3156 19.4094 16.1711 19H15H8.8289C8.68444 19.4094 8.44855 19.7941 8.12132 20.1213C6.94975 21.2929 5.05025 21.2929 3.87868 20.1213C3.55145 19.7941 3.31555 19.4094 3.1711 19H3C1.34315 19 0 17.6569 0 16V4ZM16.1711 17H16V8H19C20.6569 8 22 9.34315 22 11V16C22 16.2759 21.8883 16.5257 21.7075 16.7067C21.5645 16.4072 21.3691 16.1265 21.1213 15.8787C19.9497 14.7071 18.0503 14.7071 16.8787 15.8787C16.5514 16.2059 16.3156 16.5906 16.1711 17ZM5.29289 17.2929C5.09744 17.4884 5 17.7425 5 18C5 18.2575 5.09744 18.5116 5.29289 18.7071C5.68342 19.0976 6.31658 19.0976 6.70711 18.7071C6.90256 18.5116 7 18.2575 7 18C7 17.7425 6.90256 17.4884 6.70711 17.2929C6.31658 16.9024 5.68342 16.9024 5.29289 17.2929ZM18.2929 17.2929C18.0974 17.4884 18 17.7425 18 18C18 18.2575 18.0974 18.5116 18.2929 18.7071C18.6834 19.0976 19.3166 19.0976 19.7071 18.7071C19.9026 18.5116 20 18.2575 20 18C20 17.7425 19.9026 17.4884 19.7071 17.2929C19.3166 16.9024 18.6834 16.9024 18.2929 17.2929ZM3.96362 10.8672H5.06909V10.3398H3.96362V9.68555H5.18042V9.15625H3.27808V12H3.96362V10.8672ZM6.35112 10.9961H6.72222L7.22417 12H7.95854V11.9707L7.36479 10.8242C7.53537 10.7435 7.66037 10.638 7.73979 10.5078C7.82052 10.3776 7.86089 10.2135 7.86089 10.0156C7.86089 9.74219 7.76584 9.5306 7.57573 9.38086C7.38563 9.23112 7.12196 9.15625 6.78472 9.15625H5.66558V12H6.35112V10.9961ZM6.78472 10.4668H6.35112V9.68555H6.78472C6.91362 9.68555 7.01128 9.7207 7.07769 9.79102C7.14409 9.86003 7.17729 9.95573 7.17729 10.0781C7.17729 10.2005 7.14409 10.2962 7.07769 10.3652C7.01258 10.4329 6.91493 10.4668 6.78472 10.4668ZM10.2386 10.7949H9.1605V11.4727H10.4339V12H8.47495V9.15625H10.4378V9.68555H9.1605V10.2852H10.2386V10.7949ZM11.5988 10.7949H12.6769V10.2852H11.5988V9.68555H12.8761V9.15625H10.9132V12H12.8722V11.4727H11.5988V10.7949Z" fill="#242328"/>
</svg>
