<svg width="24" height="24" viewBox="0 0 24 24" fill="none" xmlns="http://www.w3.org/2000/svg">
<path fill-rule="evenodd" clip-rule="evenodd" d="M1 3C0.447715 3 0 3.44772 0 4V16C0 17.6569 1.34315 19 3 19H3.1711C3.31555 19.4094 3.55145 19.7941 3.87868 20.1213C5.05025 21.2929 6.94975 21.2929 8.12132 20.1213C8.44855 19.7941 8.68444 19.4094 8.8289 19H15H16.1711C16.3156 19.4094 16.5514 19.7941 16.8787 20.1213C18.0503 21.2929 19.9497 21.2929 21.1213 20.1213C21.4826 19.7601 21.7325 19.3289 21.871 18.8716C23.1031 18.4984 24 17.354 24 16V11C24 8.23858 21.7614 6 19 6H16V4C16 3.44772 15.5523 3 15 3H1ZM16 17H16.1711C16.3156 16.5906 16.5514 16.2059 16.8787 15.8787C18.0503 14.7071 19.9497 14.7071 21.1213 15.8787C21.3691 16.1265 21.5645 16.4072 21.7075 16.7067C21.8883 16.5257 22 16.2759 22 16V11C22 9.34315 20.6569 8 19 8H16V17ZM5 18C5 17.7425 5.09744 17.4884 5.29289 17.2929C5.68342 16.9024 6.31658 16.9024 6.70711 17.2929C6.90256 17.4884 7 17.7425 7 18C7 18.2575 6.90256 18.5116 6.70711 18.7071C6.31658 19.0976 5.68342 19.0976 5.29289 18.7071C5.09744 18.5116 5 18.2575 5 18ZM18 18C18 17.7425 18.0974 17.4884 18.2929 17.2929C18.6834 16.9024 19.3166 16.9024 19.7071 17.2929C19.9026 17.4884 20 17.7425 20 18C20 18.2575 19.9026 18.5116 19.7071 18.7071C19.3166 19.0976 18.6834 19.0976 18.2929 18.7071C18.0974 18.5116 18 18.2575 18 18Z" fill="#242328"/>
</svg>
