<svg width="24" height="24" viewBox="0 0 24 24" fill="none" xmlns="http://www.w3.org/2000/svg">
<path fill-rule="evenodd" clip-rule="evenodd" d="M9.76484 1.99754C10.9573 0.665532 13.0428 0.665532 14.2352 1.99754L15.2191 3.09664C15.4217 3.32293 15.7161 3.44488 16.0194 3.42812L17.4923 3.34669C19.2774 3.24801 20.752 4.72265 20.6534 6.50772L20.5719 7.98064C20.5552 8.28389 20.6771 8.57833 20.9034 8.7809L22.0025 9.76484C23.3345 10.9573 23.3345 13.0428 22.0025 14.2352L20.9034 15.2191C20.6771 15.4217 20.5552 15.7161 20.5719 16.0194L20.6534 17.4923C20.752 19.2774 19.2774 20.752 17.4923 20.6534L16.0194 20.5719C15.7161 20.5552 15.4217 20.6771 15.2191 20.9034L14.2352 22.0025C13.0428 23.3345 10.9573 23.3345 9.76484 22.0025L8.7809 20.9034C8.57833 20.6771 8.28389 20.5552 7.98064 20.5719L6.50771 20.6534C4.72265 20.752 3.24801 19.2774 3.34669 17.4923L3.42812 16.0194C3.44488 15.7161 3.32293 15.4217 3.09664 15.2191L1.99754 14.2352C0.665532 13.0428 0.665532 10.9573 1.99754 9.76484L3.09664 8.7809C3.32293 8.57833 3.44488 8.28389 3.42812 7.98064L3.34669 6.50771C3.24801 4.72265 4.72265 3.24801 6.50771 3.34669L7.98064 3.42812C8.28389 3.44488 8.57833 3.32293 8.7809 3.09664L9.76484 1.99754ZM15.7071 8.29289C16.0976 8.68342 16.0976 9.31658 15.7071 9.70711L9.70711 15.7071C9.31658 16.0976 8.68342 16.0976 8.29289 15.7071C7.90237 15.3166 7.90237 14.6834 8.29289 14.2929L14.2929 8.29289C14.6834 7.90237 15.3166 7.90237 15.7071 8.29289ZM9.5 11C10.3284 11 11 10.3284 11 9.5C11 8.67157 10.3284 8 9.5 8C8.67157 8 8 8.67157 8 9.5C8 10.3284 8.67157 11 9.5 11ZM14.5 16C15.3284 16 16 15.3284 16 14.5C16 13.6716 15.3284 13 14.5 13C13.6716 13 13 13.6716 13 14.5C13 15.3284 13.6716 16 14.5 16Z" fill="#242328"/>
</svg>
