<svg width="24" height="24" viewBox="0 0 24 24" fill="none" xmlns="http://www.w3.org/2000/svg">
<path fill-rule="evenodd" clip-rule="evenodd" d="M3 3C2.44772 3 2 3.44772 2 4C2 4.55228 2.44772 5 3 5H4.08679L4.27683 7.09054L4.82651 13.1369C4.97446 14.7644 6.39785 15.9741 8.02793 15.8577L18.462 15.1124C19.8707 15.0118 21.0184 13.9423 21.2181 12.5443L21.99 7.14142C22.0681 6.59469 21.6882 6.08816 21.1414 6.01005C20.5947 5.93195 20.0882 6.31184 20.01 6.85858L19.2382 12.2614C19.1716 12.7275 18.7891 13.0839 18.3195 13.1175L7.88543 13.8628C7.34207 13.9016 6.86761 13.4984 6.81829 12.9559L6.26862 6.90946L5.99589 3.90946C5.94907 3.39439 5.5172 3 5 3H3ZM11 7C10.4477 7 10 7.44772 10 8C10 8.55228 10.4477 9 11 9H15C15.5523 9 16 8.55228 16 8C16 7.44772 15.5523 7 15 7H11ZM10 19.5C10 20.3284 9.32843 21 8.5 21C7.67157 21 7 20.3284 7 19.5C7 18.6716 7.67157 18 8.5 18C9.32843 18 10 18.6716 10 19.5ZM17.5 21C18.3284 21 19 20.3284 19 19.5C19 18.6716 18.3284 18 17.5 18C16.6716 18 16 18.6716 16 19.5C16 20.3284 16.6716 21 17.5 21Z" fill="#242328"/>
</svg>
