<svg width="24" height="24" viewBox="0 0 24 24" fill="none" xmlns="http://www.w3.org/2000/svg">
<path fill-rule="evenodd" clip-rule="evenodd" d="M2 4C2 3.44772 2.44772 3 3 3H5C5.5172 3 5.94907 3.39439 5.99589 3.90946L6.26862 6.90946L6.81829 12.9559C6.86761 13.4984 7.34207 13.9016 7.88543 13.8628L18.3195 13.1175C18.7891 13.0839 19.1716 12.7275 19.2382 12.2614L20.01 6.85858C20.0882 6.31184 20.5947 5.93195 21.1414 6.01005C21.6882 6.08816 22.0681 6.59469 21.99 7.14142L21.2181 12.5443C21.0184 13.9423 19.8707 15.0118 18.462 15.1124L8.02793 15.8577C6.39785 15.9741 4.97446 14.7644 4.82651 13.1369L4.27683 7.09054L4.08679 5H3C2.44772 5 2 4.55228 2 4ZM13 5C13.5523 5 14 5.44772 14 6V7H15C15.5523 7 16 7.44772 16 8C16 8.55228 15.5523 9 15 9H14V10C14 10.5523 13.5523 11 13 11C12.4477 11 12 10.5523 12 10V9H11C10.4477 9 10 8.55228 10 8C10 7.44772 10.4477 7 11 7H12V6C12 5.44772 12.4477 5 13 5ZM10 19.5C10 20.3284 9.32843 21 8.5 21C7.67157 21 7 20.3284 7 19.5C7 18.6716 7.67157 18 8.5 18C9.32843 18 10 18.6716 10 19.5ZM17.5 21C18.3284 21 19 20.3284 19 19.5C19 18.6716 18.3284 18 17.5 18C16.6716 18 16 18.6716 16 19.5C16 20.3284 16.6716 21 17.5 21Z" fill="#242328"/>
</svg>
