<svg width="24" height="24" viewBox="0 0 24 24" fill="none" xmlns="http://www.w3.org/2000/svg">
<path fill-rule="evenodd" clip-rule="evenodd" d="M3 3C2.44772 3 2 3.44772 2 4C2 4.55228 2.44772 5 3 5H4.08679L4.27683 7.09054L4.82651 13.1369C4.97446 14.7644 6.39785 15.9741 8.02793 15.8577L18.462 15.1124C19.8707 15.0118 21.0184 13.9423 21.2181 12.5443L21.99 7.14142C22.0309 6.85444 21.9454 6.5638 21.7555 6.3448C21.5655 6.1258 21.2899 6 21 6H6.18594L5.99589 3.90946C5.94907 3.39439 5.5172 3 5 3H3ZM10 19.5C10 20.3284 9.32843 21 8.5 21C7.67157 21 7 20.3284 7 19.5C7 18.6716 7.67157 18 8.5 18C9.32843 18 10 18.6716 10 19.5ZM17.5 21C18.3284 21 19 20.3284 19 19.5C19 18.6716 18.3284 18 17.5 18C16.6716 18 16 18.6716 16 19.5C16 20.3284 16.6716 21 17.5 21Z" fill="#242328"/>
</svg>
