<svg width="24" height="24" viewBox="0 0 24 24" fill="none" xmlns="http://www.w3.org/2000/svg">
<path fill-rule="evenodd" clip-rule="evenodd" d="M5.13242 2C4.07863 2 3.10211 2.5529 2.55994 3.45651L1.08439 5.91576C0.284744 7.24851 0.635387 8.9713 1.89235 9.88546L1.98552 9.95321C2.29738 10.18 2.64203 10.3396 3.00004 10.4319V20H2.00004C1.44775 20 1.00004 20.4477 1.00004 21C1.00004 21.5523 1.44775 22 2.00004 22H4.00004H9.00004H10H14H15H20H22C22.5523 22 23 21.5523 23 21C23 20.4477 22.5523 20 22 20H21V10.4319C21.358 10.3396 21.7027 10.18 22.0146 9.95321L22.1077 9.88546C23.3647 8.9713 23.7153 7.24851 22.9157 5.91576L21.4401 3.45651C20.898 2.5529 19.9214 2 18.8677 2H5.13242ZM15 20H19V10.2544C18.8214 10.1725 18.649 10.0721 18.4855 9.95321L17.5 9.2365L16.5146 9.95321C15.4626 10.7183 14.0375 10.7183 12.9855 9.95321L12 9.2365L11.0146 9.95321C9.9626 10.7183 8.53747 10.7183 7.48552 9.95321L6.50004 9.2365L5.51455 9.95321C5.35112 10.0721 5.17868 10.1725 5.00004 10.2544V20H9.00004V15C9.00004 13.3431 10.3432 12 12 12C13.6569 12 15 13.3431 15 15V20ZM11 20H13V15C13 14.4477 12.5523 14 12 14C11.4478 14 11 14.4477 11 15V20Z" fill="#242328"/>
</svg>
