<svg width="24" height="24" viewBox="0 0 24 24" fill="none" xmlns="http://www.w3.org/2000/svg">
<path fill-rule="evenodd" clip-rule="evenodd" d="M1 5C1 4.44772 1.44772 4 2 4H9H22C22.5523 4 23 4.44772 23 5V9C23 9.55228 22.5523 10 22 10C20.8954 10 20 10.8954 20 12C20 13.1046 20.8954 14 22 14C22.5523 14 23 14.4477 23 15V17C23 18.6569 21.6569 20 20 20H9H4C2.34315 20 1 18.6569 1 17V15C1 14.4477 1.44772 14 2 14C3.10457 14 4 13.1046 4 12C4 10.8954 3.10457 10 2 10C1.44772 10 1 9.55228 1 9V5ZM8 6V18H4C3.44772 18 3 17.5523 3 17V15.874C4.72523 15.4299 6 13.8638 6 12C6 10.1362 4.72523 8.57006 3 8.12602V6H8Z" fill="#242328"/>
</svg>
