<svg width="24" height="24" viewBox="0 0 24 24" fill="none" xmlns="http://www.w3.org/2000/svg">
<path d="M3 3V2C2.44772 2 2 2.44772 2 3H3ZM18.293 14.293L17.3818 13.8809C17.2104 14.2601 17.2916 14.7058 17.5859 15.0001L18.293 14.293ZM21 17L21.7071 17.7071C22.0976 17.3166 22.0976 16.6834 21.7071 16.2929L21 17ZM17 21L16.2929 21.7071C16.6834 22.0976 17.3166 22.0976 17.7071 21.7071L17 21ZM14.293 18.293L15.0001 17.5859C14.7058 17.2916 14.2601 17.2104 13.8809 17.3818L14.293 18.293ZM11 2H3V4H11V2ZM20 11C20 6.02944 15.9706 2 11 2V4C14.866 4 18 7.13401 18 11H20ZM19.2041 14.7051C19.7157 13.5738 20 12.3188 20 11H18C18 12.029 17.7786 13.0036 17.3818 13.8809L19.2041 14.7051ZM17.5859 15.0001L20.2929 17.7071L21.7071 16.2929L19.0001 13.5859L17.5859 15.0001ZM20.2929 16.2929L16.2929 20.2929L17.7071 21.7071L21.7071 17.7071L20.2929 16.2929ZM17.7071 20.2929L15.0001 17.5859L13.5859 19.0001L16.2929 21.7071L17.7071 20.2929ZM11 20C12.3188 20 13.5738 19.7157 14.7051 19.2041L13.8809 17.3818C13.0036 17.7786 12.029 18 11 18V20ZM2 11C2 15.9706 6.02944 20 11 20V18C7.13401 18 4 14.866 4 11H2ZM2 3V11H4V3H2Z" fill="#242328"/>
<ellipse cx="11" cy="11" rx="2" ry="2" transform="rotate(-180 11 11)" fill="#7045D4"/>
<path d="M3 3L11 11" stroke="#7045D4" stroke-width="2" stroke-linecap="round" stroke-linejoin="round"/>
</svg>
