<svg width="24" height="24" viewBox="0 0 24 24" fill="none" xmlns="http://www.w3.org/2000/svg">
<circle cx="12" cy="12" r="9" fill="black" fill-opacity="0.16"/>
<circle cx="12" cy="12" r="9" stroke="#242328" stroke-width="2" stroke-linecap="round" stroke-linejoin="round"/>
<path d="M13.5 14.5C13.5 13.6716 14.1716 13 15 13C15.8284 13 16.5 13.6716 16.5 14.5C16.5 15.3284 15.8284 16 15 16C14.1716 16 13.5 15.3284 13.5 14.5Z" fill="#242328"/>
<path d="M7.5 14.5C7.5 13.6716 8.17157 13 9 13C9.82843 13 10.5 13.6716 10.5 14.5C10.5 15.3284 9.82843 16 9 16C8.17157 16 7.5 15.3284 7.5 14.5Z" fill="#242328"/>
<path d="M8.5351 10C9.22672 8.8044 10.5194 8 12 8C13.4805 8 14.7732 8.8044 15.4648 10" stroke="#242328" stroke-width="2" stroke-linecap="round" stroke-linejoin="round"/>
</svg>
