<svg width="24" height="24" viewBox="0 0 24 24" fill="none" xmlns="http://www.w3.org/2000/svg">
<path fill-rule="evenodd" clip-rule="evenodd" d="M17 4C17.5523 4 18 3.55228 18 3C18 2.44772 17.5523 2 17 2H16C15.4477 2 15 2.44772 15 3C15 3.55228 15.4477 4 16 4H17ZM2 6C2 5.44772 2.44772 5 3 5H21C21.5523 5 22 5.44772 22 6V16C22 17.6569 20.6569 19 19 19H5C3.34315 19 2 17.6569 2 16V6ZM12 15C13.6569 15 15 13.6569 15 12C15 10.3431 13.6569 9 12 9C10.3431 9 9 10.3431 9 12C9 13.6569 10.3431 15 12 15Z" fill="#242328"/>
</svg>
