<svg width="24" height="24" viewBox="0 0 24 24" fill="none" xmlns="http://www.w3.org/2000/svg">
<path fill-rule="evenodd" clip-rule="evenodd" d="M12 3C9.79086 3 8 4.79086 8 7C8 9.20914 9.79086 11 12 11C14.2091 11 16 9.20914 16 7C16 4.79086 14.2091 3 12 3ZM15 18C15 16.3431 16.3431 15 18 15C18.3506 15 18.6872 15.0602 19 15.1707V11C19 10.6534 19.1795 10.3316 19.4743 10.1493C19.7691 9.96714 20.1372 9.95058 20.4472 10.1056L22.4472 11.1056C22.9412 11.3526 23.1414 11.9532 22.8944 12.4472C22.6474 12.9412 22.0468 13.1414 21.5528 12.8944L21 12.618V18C21 19.6569 19.6569 21 18 21C16.3431 21 15 19.6569 15 18ZM3 18C3 15.2386 5.23858 13 8 13H13.5278C14.0801 13 14.5278 13.4477 14.5278 14C14.5278 14.5523 14.0801 15 13.5278 15H8C6.34315 15 5 16.3431 5 18C5 18.5523 5.44772 19 6 19H12.3414C12.8937 19 13.3414 19.4477 13.3414 20C13.3414 20.5523 12.8937 21 12.3414 21H6C4.34315 21 3 19.6569 3 18Z" fill="#242328"/>
</svg>
