<svg width="24" height="24" viewBox="0 0 24 24" fill="none" xmlns="http://www.w3.org/2000/svg">
<path fill-rule="evenodd" clip-rule="evenodd" d="M5.82967 5.18077C6.39838 5.57887 6.39839 6.42113 5.82967 6.81923L3.57346 8.39857C2.91069 8.86252 2 8.38837 2 7.57934V4.42065C2 3.61163 2.91069 3.13748 3.57346 3.60142L5.82967 5.18077ZM3 11C2.44772 11 2 11.4477 2 12C2 12.5523 2.44772 13 3 13L21 13C21.5523 13 22 12.5523 22 12C22 11.4477 21.5523 11 21 11L3 11ZM9 6.00001C9 5.44773 9.44772 5.00001 10 5.00001L21 5.00001C21.5523 5.00001 22 5.44773 22 6.00001C22 6.5523 21.5523 7.00001 21 7.00001L10 7.00001C9.44772 7.00001 9 6.5523 9 6.00001ZM3 17C2.44772 17 2 17.4477 2 18C2 18.5523 2.44772 19 3 19L21 19C21.5523 19 22 18.5523 22 18C22 17.4477 21.5523 17 21 17L3 17Z" fill="#242328"/>
</svg>
