<svg width="24" height="24" viewBox="0 0 24 24" fill="none" xmlns="http://www.w3.org/2000/svg">
<path fill-rule="evenodd" clip-rule="evenodd" d="M19.7071 4.29289C19.3166 3.90237 18.6834 3.90237 18.2929 4.29289C17.9024 4.68342 17.9024 5.31658 18.2929 5.70711L18.5858 6H16.2648C14.5084 6 12.8809 6.92149 11.9773 8.42752L8.30772 14.5435C7.76555 15.4471 6.78903 16 5.73524 16H3C2.44772 16 2 16.4477 2 17C2 17.5523 2.44772 18 3 18H5.73524C7.49155 18 9.11909 17.0785 10.0227 15.5725L13.6923 9.45651C14.2345 8.5529 15.211 8 16.2648 8H18.5858L18.2929 8.29289C17.9024 8.68342 17.9024 9.31658 18.2929 9.70711C18.6834 10.0976 19.3166 10.0976 19.7071 9.70711L21.7071 7.70711C22.0976 7.31658 22.0976 6.68342 21.7071 6.29289L19.7071 4.29289ZM3 6C2.44772 6 2 6.44772 2 7C2 7.55228 2.44772 8 3 8H5.73524C6.55603 8 7.33016 8.33544 7.88861 8.91109C8.27316 9.3075 8.90625 9.31711 9.30266 8.93255C9.69906 8.548 9.70867 7.91491 9.32411 7.5185C8.39368 6.55939 7.10366 6 5.73524 6H3ZM19.7071 14.2929C19.3166 13.9024 18.6834 13.9024 18.2929 14.2929C17.9024 14.6834 17.9024 15.3166 18.2929 15.7071L18.5858 16H16.2648C15.444 16 14.6698 15.6646 14.1114 15.0889C13.7268 14.6925 13.0938 14.6829 12.6973 15.0674C12.3009 15.452 12.2913 16.0851 12.6759 16.4815C13.6063 17.4406 14.8963 18 16.2648 18H18.5858L18.2929 18.2929C17.9024 18.6834 17.9024 19.3166 18.2929 19.7071C18.6834 20.0976 19.3166 20.0976 19.7071 19.7071L21.7071 17.7071C22.0976 17.3166 22.0976 16.6834 21.7071 16.2929L19.7071 14.2929Z" fill="#242328"/>
</svg>
