<svg width="24" height="24" viewBox="0 0 24 24" fill="none" xmlns="http://www.w3.org/2000/svg">
<path fill-rule="evenodd" clip-rule="evenodd" d="M5 7.73704C5 5.34095 7.67044 3.91178 9.6641 5.24089L16.0585 9.50385C16.4652 9.77496 16.779 10.1206 17 10.5067V6C17 5.44772 17.4477 5 18 5C18.5523 5 19 5.44772 19 6V18C19 18.5523 18.5523 19 18 19C17.4477 19 17 18.5523 17 18V13.4933C16.779 13.8794 16.4652 14.225 16.0585 14.4962L9.6641 18.7591C7.67043 20.0882 5 18.6591 5 16.263V7.73704Z" fill="#242328"/>
</svg>
