<svg width="24" height="24" viewBox="0 0 24 24" fill="none" xmlns="http://www.w3.org/2000/svg">
<path fill-rule="evenodd" clip-rule="evenodd" d="M17.2929 5.70711C16.9024 5.31658 16.9024 4.68342 17.2929 4.29289C17.6834 3.90237 18.3166 3.90237 18.7071 4.29289L20.7071 6.29289C21.0976 6.68342 21.0976 7.31658 20.7071 7.70711L18.7071 9.70711C18.3166 10.0976 17.6834 10.0976 17.2929 9.70711C16.9024 9.31658 16.9024 8.68342 17.2929 8.29289L17.5858 8H8C6.34315 8 5 9.34315 5 11C5 11.5523 4.55228 12 4 12C3.44772 12 3 11.5523 3 11C3 8.23876 5.23828 6.0003 7.99945 6L8 6H17.5858L17.2929 5.70711ZM6.70711 18.2929C7.09763 18.6834 7.09763 19.3166 6.70711 19.7071C6.31658 20.0976 5.68342 20.0976 5.29289 19.7071L3.29289 17.7071C2.90237 17.3166 2.90237 16.6834 3.29289 16.2929L5.29289 14.2929C5.68342 13.9024 6.31658 13.9024 6.70711 14.2929C7.09763 14.6834 7.09763 15.3166 6.70711 15.7071L6.41421 16L15.9986 16C15.9991 16 15.9995 16 16 16C17.6569 16 19 14.6569 19 13C19 12.4477 19.4477 12 20 12C20.5523 12 21 12.4477 21 13C21 15.7609 18.7623 17.9992 16.0016 18C16.001 18 16.0005 18 16 18L6.41421 18L6.70711 18.2929Z" fill="#242328"/>
</svg>
