<svg width="24" height="24" viewBox="0 0 24 24" fill="none" xmlns="http://www.w3.org/2000/svg">
<path fill-rule="evenodd" clip-rule="evenodd" d="M20 10C20.5523 10 21 9.55229 21 9V4C21 3.65342 20.8205 3.33156 20.5257 3.14935C20.2309 2.96714 19.8628 2.95058 19.5528 3.10557L17.5528 4.10557C17.0588 4.35256 16.8586 4.95324 17.1056 5.44721C17.3526 5.94119 17.9532 6.14142 18.4472 5.89443L19 5.61804V9C19 9.55229 19.4477 10 20 10ZM15 7C15 6.44772 14.5523 6 14 6H8C5.23858 6 3 8.23858 3 11C3 11.5523 3.44772 12 4 12C4.55228 12 5 11.5523 5 11C5 9.34315 6.34315 8 8 8H14C14.5523 8 15 7.55229 15 7ZM6.70711 18.2929C7.09763 18.6834 7.09763 19.3166 6.70711 19.7071C6.31658 20.0976 5.68342 20.0976 5.29289 19.7071L3.29289 17.7071C2.90237 17.3166 2.90237 16.6834 3.29289 16.2929L5.29289 14.2929C5.68342 13.9024 6.31658 13.9024 6.70711 14.2929C7.09763 14.6834 7.09763 15.3166 6.70711 15.7071L6.41421 16L15.998 16C15.9987 16 15.9993 16 16 16C17.6569 16 19 14.6569 19 13C19 12.4477 19.4477 12 20 12C20.5523 12 21 12.4477 21 13C21 15.7607 18.7626 17.9988 16.0022 18C16.0015 18 16.0007 18 16 18L6.41421 18L6.70711 18.2929Z" fill="#242328"/>
</svg>
