<svg width="24" height="24" viewBox="0 0 24 24" fill="none" xmlns="http://www.w3.org/2000/svg">
<path fill-rule="evenodd" clip-rule="evenodd" d="M19 16.263C19 18.6591 16.3296 20.0882 14.3359 18.7591L7.94145 14.4962C7.53479 14.225 7.22097 13.8794 7 13.4933L7 18C7 18.5523 6.55229 19 6 19C5.44772 19 5 18.5523 5 18V6C5 5.44772 5.44772 5 6 5C6.55228 5 7 5.44772 7 6L7 10.5067C7.22097 10.1206 7.53479 9.77496 7.94145 9.50385L14.3359 5.24089C16.3296 3.91178 19 5.34095 19 7.73704L19 16.263Z" fill="#242328"/>
</svg>
