<svg width="24" height="24" viewBox="0 0 24 24" fill="none" xmlns="http://www.w3.org/2000/svg">
<path d="M4 4H20V18C20 19.1046 19.1046 20 18 20H6C4.89543 20 4 19.1046 4 18V4Z" stroke="#242328" stroke-linecap="round" stroke-linejoin="round"/>
<path d="M13 8C13 8.55228 12.5523 9 12 9C11.4477 9 11 8.55228 11 8C11 7.44772 11.4477 7 12 7C12.5523 7 13 7.44772 13 8Z" fill="#242328"/>
<path d="M13 16C13 16.5523 12.5523 17 12 17C11.4477 17 11 16.5523 11 16C11 15.4477 11.4477 15 12 15C12.5523 15 13 15.4477 13 16Z" fill="#242328"/>
<path d="M15 12H9" stroke="#242328" stroke-linecap="round" stroke-linejoin="round"/>
</svg>
