<svg width="24" height="24" viewBox="0 0 24 24" fill="none" xmlns="http://www.w3.org/2000/svg">
<path d="M1 3.5C0.723858 3.5 0.5 3.72386 0.5 4C0.5 4.27614 0.723858 4.5 1 4.5V3.5ZM15 4H15.5C15.5 3.72386 15.2761 3.5 15 3.5V4ZM15 8V7.5C14.8674 7.5 14.7402 7.55268 14.6464 7.64645C14.5527 7.74021 14.5 7.86739 14.5 8H15ZM1.5 16C1.5 15.7239 1.27614 15.5 1 15.5C0.723858 15.5 0.5 15.7239 0.5 16H1.5ZM1 4.5H15V3.5H1V4.5ZM14.5 4V18H15.5V4H14.5ZM15 8.5H19V7.5H15V8.5ZM22.5 12V16H23.5V12H22.5ZM15.5 18L15.5 8H14.5L14.5 18H15.5ZM20.0607 19.0607C19.4749 19.6464 18.5251 19.6464 17.9393 19.0607L17.2322 19.7678C18.2085 20.7441 19.7915 20.7441 20.7678 19.7678L20.0607 19.0607ZM17.9393 16.9393C18.5251 16.3536 19.4749 16.3536 20.0607 16.9393L20.7678 16.2322C19.7915 15.2559 18.2085 15.2559 17.2322 16.2322L17.9393 16.9393ZM7.06066 19.0607C6.47487 19.6464 5.52513 19.6464 4.93934 19.0607L4.23223 19.7678C5.20854 20.7441 6.79146 20.7441 7.76777 19.7678L7.06066 19.0607ZM4.93934 16.9393C5.52513 16.3536 6.47487 16.3536 7.06066 16.9393L7.76777 16.2322C6.79146 15.2559 5.20854 15.2559 4.23223 16.2322L4.93934 16.9393ZM20.0607 16.9393C20.3537 17.2323 20.5 17.6153 20.5 18H21.5C21.5 17.361 21.2558 16.7203 20.7678 16.2322L20.0607 16.9393ZM20.5 18C20.5 18.3847 20.3537 18.7677 20.0607 19.0607L20.7678 19.7678C21.2558 19.2797 21.5 18.639 21.5 18H20.5ZM17 17.5H15V18.5H17V17.5ZM17.9393 19.0607C17.6463 18.7677 17.5 18.3847 17.5 18H16.5C16.5 18.639 16.7442 19.2797 17.2322 19.7678L17.9393 19.0607ZM17.5 18C17.5 17.6153 17.6463 17.2323 17.9393 16.9393L17.2322 16.2322C16.7442 16.7203 16.5 17.361 16.5 18H17.5ZM4.93934 19.0607C4.64635 18.7677 4.5 18.3847 4.5 18H3.5C3.5 18.639 3.74418 19.2797 4.23223 19.7678L4.93934 19.0607ZM4.5 18C4.5 17.6153 4.64635 17.2323 4.93934 16.9393L4.23223 16.2322C3.74418 16.7203 3.5 17.361 3.5 18H4.5ZM4 17.5H2.97V18.5H4V17.5ZM15 17.5H8V18.5H15V17.5ZM7.06066 16.9393C7.35365 17.2323 7.5 17.6153 7.5 18H8.5C8.5 17.361 8.25582 16.7203 7.76777 16.2322L7.06066 16.9393ZM7.5 18C7.5 18.3847 7.35365 18.7677 7.06066 19.0607L7.76777 19.7678C8.25582 19.2797 8.5 18.639 8.5 18H7.5ZM1.5 16.03V16H0.5V16.03H1.5ZM22.5 16C22.5 16.8284 21.8284 17.5 21 17.5V18.5C22.3807 18.5 23.5 17.3807 23.5 16H22.5ZM19 8.5C20.933 8.5 22.5 10.067 22.5 12H23.5C23.5 9.51472 21.4853 7.5 19 7.5V8.5ZM2.97 17.5C2.15814 17.5 1.5 16.8419 1.5 16.03H0.5C0.5 17.3941 1.60586 18.5 2.97 18.5V17.5Z" fill="#242328"/>
<path d="M1 8H5" stroke="#242328" stroke-linecap="round" stroke-linejoin="round"/>
<path d="M1 12H7" stroke="#242328" stroke-linecap="round" stroke-linejoin="round"/>
</svg>
