<svg width="24" height="24" viewBox="0 0 24 24" fill="none" xmlns="http://www.w3.org/2000/svg">
<path d="M10.5099 2.66452C11.3048 1.77651 12.6952 1.77651 13.4901 2.66452L14.4741 3.76362C14.8792 4.21619 15.4681 4.4601 16.0746 4.42657L17.5475 4.34515C18.7376 4.27936 19.7206 5.26245 19.6549 6.4525L19.5734 7.92542C19.5399 8.53192 19.7838 9.12079 20.2364 9.52594L21.3355 10.5099C22.2235 11.3048 22.2235 12.6952 21.3355 13.4901L20.2364 14.4741C19.7838 14.8792 19.5399 15.4681 19.5734 16.0746L19.6549 17.5475C19.7206 18.7375 18.7375 19.7206 17.5475 19.6549L16.0746 19.5734C15.4681 19.5399 14.8792 19.7838 14.4741 20.2364L13.4901 21.3355C12.6952 22.2235 11.3048 22.2235 10.5099 21.3355L9.52594 20.2364C9.12079 19.7838 8.53192 19.5399 7.92542 19.5734L6.45249 19.6549C5.26245 19.7206 4.27936 18.7376 4.34515 17.5475L4.42657 16.0746C4.4601 15.4681 4.21619 14.8792 3.76362 14.4741L2.66452 13.4901C1.77651 12.6952 1.77651 11.3048 2.66452 10.5099L3.76362 9.52594C4.21619 9.12079 4.4601 8.53192 4.42657 7.92542L4.34515 6.45249C4.27936 5.26245 5.26245 4.27936 6.45249 4.34515L7.92542 4.42657C8.53192 4.4601 9.12079 4.21619 9.52594 3.76362L10.5099 2.66452Z" stroke="#242328"/>
<path d="M15.5 14.5C15.5 15.0523 15.0523 15.5 14.5 15.5C13.9477 15.5 13.5 15.0523 13.5 14.5C13.5 13.9477 13.9477 13.5 14.5 13.5C15.0523 13.5 15.5 13.9477 15.5 14.5Z" fill="#242328"/>
<path d="M10.5 9.5C10.5 10.0523 10.0523 10.5 9.5 10.5C8.94772 10.5 8.5 10.0523 8.5 9.5C8.5 8.94772 8.94772 8.5 9.5 8.5C10.0523 8.5 10.5 8.94772 10.5 9.5Z" fill="#242328"/>
<path d="M15 9L9 15" stroke="#242328" stroke-linecap="round" stroke-linejoin="round"/>
</svg>
