<svg width="24" height="24" viewBox="0 0 24 24" fill="none" xmlns="http://www.w3.org/2000/svg">
<path d="M3 3.5C2.72386 3.5 2.5 3.72386 2.5 4C2.5 4.27614 2.72386 4.5 3 4.5V3.5ZM5 4L5.49795 3.95473C5.47453 3.69719 5.2586 3.5 5 3.5V4ZM21.495 7.07071C21.534 6.79734 21.3441 6.54408 21.0707 6.50503C20.7973 6.46597 20.5441 6.65592 20.505 6.92929L21.495 7.07071ZM5.27273 7L4.77478 7.04527L5.27273 7ZM7.95668 14.8602L7.92106 14.3615L7.95668 14.8602ZM3 4.5H5V3.5H3V4.5ZM7.9923 15.359L18.4264 14.6137L18.3551 13.6162L7.92106 14.3615L7.9923 15.359ZM20.7231 12.4736L21.495 7.07071L20.505 6.92929L19.7332 12.3322L20.7231 12.4736ZM4.50205 4.04527L4.77478 7.04527L5.77067 6.95473L5.49795 3.95473L4.50205 4.04527ZM4.77478 7.04527L5.32445 13.0917L6.32035 13.0011L5.77067 6.95473L4.77478 7.04527ZM18.4264 14.6137C19.6003 14.5298 20.5567 13.6386 20.7231 12.4736L19.7332 12.3322C19.6333 13.0312 19.0595 13.5659 18.3551 13.6162L18.4264 14.6137ZM7.92106 14.3615C7.10602 14.4197 6.39432 13.8149 6.32035 13.0011L5.32445 13.0917C5.44775 14.4479 6.63391 15.456 7.9923 15.359L7.92106 14.3615Z" fill="#242328"/>
<path d="M13 6V10" stroke="#242328" stroke-linecap="round" stroke-linejoin="round"/>
<path d="M11 8H15" stroke="#242328" stroke-linecap="round" stroke-linejoin="round"/>
<path d="M9.5 19.5C9.5 20.0523 9.05228 20.5 8.5 20.5C7.94772 20.5 7.5 20.0523 7.5 19.5C7.5 18.9477 7.94772 18.5 8.5 18.5C9.05228 18.5 9.5 18.9477 9.5 19.5Z" fill="#242328"/>
<path d="M18.5 19.5C18.5 20.0523 18.0523 20.5 17.5 20.5C16.9477 20.5 16.5 20.0523 16.5 19.5C16.5 18.9477 16.9477 18.5 17.5 18.5C18.0523 18.5 18.5 18.9477 18.5 19.5Z" fill="#242328"/>
</svg>
