<svg width="24" height="24" viewBox="0 0 24 24" fill="none" xmlns="http://www.w3.org/2000/svg">
<path fill-rule="evenodd" clip-rule="evenodd" d="M2 12C2 6.47715 6.47715 2 12 2C17.5228 2 22 6.47715 22 12C22 17.5228 17.5228 22 12 22C6.47715 22 2 17.5228 2 12ZM9 14C9 14.5523 9.44772 15 10 15H14C14.5523 15 15 14.5523 15 14V10C15 9.44772 14.5523 9 14 9C13.4477 9 13 9.44772 13 10V11.5858L10.7071 9.29289C10.3166 8.90237 9.68342 8.90237 9.29289 9.29289C8.90237 9.68342 8.90237 10.3166 9.29289 10.7071L11.5858 13H10C9.44772 13 9 13.4477 9 14Z" fill="#292929"/>
</svg>
