<svg width="24" height="24" viewBox="0 0 24 24" fill="none" xmlns="http://www.w3.org/2000/svg">
<path fill-rule="evenodd" clip-rule="evenodd" d="M3 4C3 3.44772 3.44772 3 4 3H20C20.5523 3 21 3.44772 21 4V18C21 19.6569 19.6569 21 18 21H6C4.34315 21 3 19.6569 3 18V4ZM14 9H10C9.44772 9 9 9.44772 9 10V14C9 14.5523 9.44772 15 10 15C10.5523 15 11 14.5523 11 14V12.4142L13.2929 14.7071C13.6834 15.0976 14.3166 15.0976 14.7071 14.7071C15.0976 14.3166 15.0976 13.6834 14.7071 13.2929L12.4142 11H14C14.5523 11 15 10.5523 15 10C15 9.44772 14.5523 9 14 9Z" fill="#292929"/>
</svg>
