<svg width="24" height="24" viewBox="0 0 24 24" fill="none" xmlns="http://www.w3.org/2000/svg">
<g clip-path="url(#clip0)">
<path d="M1.00043 14C1.00043 16.7614 3.239 19 6.00043 19H7.1002C7.03461 18.6769 7.00018 18.3425 7.00018 18C7.00018 15.2386 9.23876 13 12.0002 13C14.7616 13 17.0002 15.2386 17.0002 18C17.0002 18.3425 16.9658 18.6769 16.9002 19H19.0004C21.2096 19 23.0004 17.2091 23.0004 15C23.0004 12.7909 21.2096 11 19.0004 11C18.9768 11 18.9532 11.0002 18.9296 11.0006C18.4447 7.60802 15.5271 5 12.0004 5C9.20378 5 6.79018 6.64004 5.66893 9.01081C3.06205 9.18144 1.00043 11.35 1.00043 14Z" fill="black" fill-opacity="0.16"/>
<circle cx="12.0001" cy="18" r="5" stroke="#242328" stroke-width="2" stroke-linecap="round" stroke-linejoin="round"/>
<path d="M3.00003 18.0004C1.78558 17.0882 1.00003 15.6358 1.00003 14C1.00003 11.35 3.06166 9.18144 5.66854 9.01081C6.78978 6.64004 9.20338 5 12 5C15.5267 5 18.4443 7.60802 18.9292 11.0006C18.9528 11.0002 18.9764 11 19 11C21.2092 11 23 12.7909 23 15C23 16.4856 22.1901 17.7821 20.9877 18.472" stroke="#242328" stroke-width="2" stroke-linecap="round" stroke-linejoin="round"/>
<path d="M12.0001 16V20" stroke="#242328" stroke-width="2" stroke-linecap="round" stroke-linejoin="round"/>
<path d="M10.0001 18H14.0001" stroke="#242328" stroke-width="2" stroke-linecap="round" stroke-linejoin="round"/>
</g>
<defs>
<clipPath id="clip0">
<rect width="24" height="24" fill="white"/>
</clipPath>
</defs>
</svg>
