<svg width="24" height="24" viewBox="0 0 24 24" fill="none" xmlns="http://www.w3.org/2000/svg">
<g clip-path="url(#clip0)">
<path d="M1.00031 14C1.00031 16.7614 3.23888 19 6.00031 19H7.10008C7.03449 18.6769 7.00006 18.3425 7.00006 18C7.00006 15.2386 9.23864 13 12.0001 13C14.7615 13 17.0001 15.2386 17.0001 18C17.0001 18.3425 16.9656 18.6769 16.9 19H19.0003C21.2094 19 23.0003 17.2091 23.0003 15C23.0003 12.7909 21.2094 11 19.0003 11C18.9767 11 18.9531 11.0002 18.9295 11.0006C18.4445 7.60802 15.527 5 12.0003 5C9.20366 5 6.79006 6.64004 5.66881 9.01081C3.06193 9.18144 1.00031 11.35 1.00031 14Z" fill="black" fill-opacity="0.16"/>
<path d="M2.99994 18.0004C1.78549 17.0882 0.999939 15.6358 0.999939 14C0.999939 11.35 3.06156 9.18144 5.66844 9.01081C6.78969 6.64004 9.20329 5 11.9999 5C15.5266 5 18.4442 7.60802 18.9291 11.0006C18.9527 11.0002 18.9763 11 18.9999 11C21.2091 11 22.9999 12.7909 22.9999 15C22.9999 16.4856 22.19 17.7821 20.9876 18.472" stroke="#242328" stroke-width="2" stroke-linecap="round" stroke-linejoin="round"/>
<circle cx="12.0001" cy="18" r="5" stroke="#242328" stroke-width="2" stroke-linecap="round" stroke-linejoin="round"/>
<path d="M11.0001 17L11.0001 19L13.0001 19" stroke="#242328" stroke-width="2" stroke-linecap="round" stroke-linejoin="round"/>
</g>
<defs>
<clipPath id="clip0">
<rect width="24" height="24" fill="white"/>
</clipPath>
</defs>
</svg>
