<svg width="24" height="24" viewBox="0 0 24 24" fill="none" xmlns="http://www.w3.org/2000/svg">
<g clip-path="url(#clip0)">
<path d="M1.00018 14C1.00018 16.7615 3.23876 19 6.00018 19H19.0002L7.05044 7.05029C6.48446 7.61627 6.01495 8.27872 5.66869 9.01085C3.06181 9.18148 1.00018 11.35 1.00018 14Z" fill="black" fill-opacity="0.16"/>
<path d="M19.0002 19H6.00018C3.23876 19 1.00018 16.7614 1.00018 14C1.00018 11.35 3.06181 9.18144 5.66869 9.01081C6.01495 8.27866 6.48448 7.61621 7.05047 7.05022M10.7656 5.10852C11.1664 5.03721 11.5789 5 12.0002 5C15.5269 5 18.4444 7.60802 18.9294 11.0006C18.9529 11.0002 18.9765 11 19.0002 11C21.2093 11 23.0002 12.7909 23.0002 15C23.0002 15.6782 22.8314 16.3169 22.5336 16.8765" stroke="#242328" stroke-width="2" stroke-linecap="round" stroke-linejoin="round"/>
<path d="M4.00018 4L20.0002 20" stroke="#242328" stroke-width="2" stroke-linecap="round"/>
</g>
<defs>
<clipPath id="clip0">
<rect width="24" height="24" fill="white" transform="translate(0.000183105)"/>
</clipPath>
</defs>
</svg>
