<svg width="24" height="24" viewBox="0 0 24 24" fill="none" xmlns="http://www.w3.org/2000/svg">
<g clip-path="url(#clip0)">
<path fill-rule="evenodd" clip-rule="evenodd" d="M3 4.00104C3 3.44875 3.44772 3.00104 4 3.00104H20C20.5523 3.00104 21 3.44875 21 4.00104V18.001C21 19.6579 19.6569 21.001 18 21.001H6C4.34315 21.001 3 19.6579 3 18.001V4.00104ZM12 13.0001C11.4477 13.0001 11 12.5523 11 12.0001V8.00006C11 7.44778 11.4477 7.00006 12 7.00006C12.5523 7.00006 13 7.44778 13 8.00006V12.0001C13 12.5523 12.5523 13.0001 12 13.0001ZM12 15.0001C11.4477 15.0001 11 15.4478 11 16.0001C11 16.5523 11.4477 17.0001 12 17.0001C12.5523 17.0001 13 16.5523 13 16.0001C13 15.4478 12.5523 15.0001 12 15.0001Z" fill="#242328"/>
</g>
<defs>
<clipPath id="clip0">
<rect width="24" height="24" fill="white"/>
</clipPath>
</defs>
</svg>
