<svg width="24" height="24" viewBox="0 0 24 24" fill="none" xmlns="http://www.w3.org/2000/svg">
<g clip-path="url(#clip0)">
<path fill-rule="evenodd" clip-rule="evenodd" d="M2 12C2 6.47715 6.47715 2 12 2C17.5228 2 22 6.47715 22 12C22 17.5228 17.5228 22 12 22C6.47715 22 2 17.5228 2 12ZM12 13.0001C11.4477 13.0001 11 12.5523 11 12.0001V8.00006C11 7.44778 11.4477 7.00006 12 7.00006C12.5523 7.00006 13 7.44778 13 8.00006V12.0001C13 12.5523 12.5523 13.0001 12 13.0001ZM12 15.0001C11.4477 15.0001 11 15.4478 11 16.0001C11 16.5523 11.4477 17.0001 12 17.0001C12.5523 17.0001 13 16.5523 13 16.0001C13 15.4478 12.5523 15.0001 12 15.0001Z" fill="#242328"/>
</g>
<defs>
<clipPath id="clip0">
<rect width="24" height="24" fill="white"/>
</clipPath>
</defs>
</svg>
