<svg width="24" height="24" viewBox="0 0 24 24" fill="none" xmlns="http://www.w3.org/2000/svg">
<g clip-path="url(#clip0)">
<path fill-rule="evenodd" clip-rule="evenodd" d="M3 4.00104C3 3.44875 3.44772 3.00104 4 3.00104H20C20.5523 3.00104 21 3.44875 21 4.00104V18.001C21 19.6579 19.6569 21.001 18 21.001H6C4.34315 21.001 3 19.6579 3 18.001V4.00104ZM15.7071 10.7072C16.0976 10.3167 16.0976 9.68354 15.7071 9.29302C15.3166 8.90249 14.6834 8.90249 14.2929 9.29302L11 12.5859L9.70711 11.293C9.31658 10.9025 8.68342 10.9025 8.29289 11.293C7.90237 11.6835 7.90237 12.3167 8.29289 12.7072L10.2929 14.7072C10.6834 15.0978 11.3166 15.0978 11.7071 14.7072L15.7071 10.7072Z" fill="#242328"/>
</g>
<defs>
<clipPath id="clip0">
<rect width="24" height="24" fill="white" transform="translate(0 0.00012207)"/>
</clipPath>
</defs>
</svg>
