<svg width="24" height="24" viewBox="0 0 24 24" fill="none" xmlns="http://www.w3.org/2000/svg">
<g clip-path="url(#clip0)">
<path fill-rule="evenodd" clip-rule="evenodd" d="M3 4.00104C3 3.44875 3.44772 3.00104 4 3.00104H20C20.5523 3.00104 21 3.44875 21 4.00104V18.001C21 19.6579 19.6569 21.001 18 21.001H6C4.34315 21.001 3 19.6579 3 18.001V4.00104ZM9.29289 9.29302C9.68342 8.90249 10.3166 8.90249 10.7071 9.29302L12 10.5859L13.2929 9.29302C13.6834 8.90249 14.3166 8.90249 14.7071 9.29302C15.0976 9.68354 15.0976 10.3167 14.7071 10.7072L13.4142 12.0001L14.7071 13.293C15.0976 13.6835 15.0976 14.3167 14.7071 14.7072C14.3166 15.0977 13.6834 15.0977 13.2929 14.7072L12 13.4143L10.7071 14.7072C10.3166 15.0977 9.68342 15.0977 9.2929 14.7072C8.90237 14.3167 8.90237 13.6835 9.2929 13.293L10.5858 12.0001L9.29289 10.7072C8.90237 10.3167 8.90237 9.68354 9.29289 9.29302Z" fill="#242328"/>
</g>
<defs>
<clipPath id="clip0">
<rect width="24" height="24" fill="white" transform="translate(0 0.00012207)"/>
</clipPath>
</defs>
</svg>
