<svg width="24" height="24" viewBox="0 0 24 24" fill="none" xmlns="http://www.w3.org/2000/svg">
<g clip-path="url(#clip0)">
<path fill-rule="evenodd" clip-rule="evenodd" d="M2 12C2 6.47715 6.47715 2 12 2C17.5228 2 22 6.47715 22 12C22 17.5228 17.5228 22 12 22C6.47715 22 2 17.5228 2 12ZM9.29289 9.29302C9.68342 8.90249 10.3166 8.90249 10.7071 9.29302L12 10.5859L13.2929 9.29302C13.6834 8.90249 14.3166 8.90249 14.7071 9.29302C15.0976 9.68354 15.0976 10.3167 14.7071 10.7072L13.4142 12.0001L14.7071 13.293C15.0976 13.6835 15.0976 14.3167 14.7071 14.7072C14.3166 15.0977 13.6834 15.0977 13.2929 14.7072L12 13.4143L10.7071 14.7072C10.3166 15.0977 9.68342 15.0977 9.2929 14.7072C8.90237 14.3167 8.90237 13.6835 9.2929 13.293L10.5858 12.0001L9.29289 10.7072C8.90237 10.3167 8.90237 9.68354 9.29289 9.29302Z" fill="#242328"/>
</g>
<defs>
<clipPath id="clip0">
<rect width="24" height="24" fill="white" transform="translate(0 0.00012207)"/>
</clipPath>
</defs>
</svg>
