<svg width="24" height="24" viewBox="0 0 24 24" fill="none" xmlns="http://www.w3.org/2000/svg">
<g clip-path="url(#clip0)">
<path fill-rule="evenodd" clip-rule="evenodd" d="M15 3.00104C15.5523 3.00104 16 3.44875 16 4.00104C16 4.55332 15.5523 5.00104 15 5.00104H6V18.001C6 18.5533 6.44772 19.001 7 19.001H15C15.5523 19.001 16 19.4488 16 20.001C16 20.5533 15.5523 21.001 15 21.001H7C5.34315 21.001 4 19.6579 4 18.001V4.00104C4 3.44875 4.44771 3.00104 5 3.00104H15ZM16.7071 8.29393C16.3166 7.90341 15.6834 7.90341 15.2929 8.29393C14.9024 8.68445 14.9024 9.31762 15.2929 9.70814L16.5858 11.001H9C8.44772 11.001 8 11.4488 8 12.001C8 12.5533 8.44772 13.001 9 13.001H16.5858L15.2929 14.2939C14.9024 14.6845 14.9024 15.3176 15.2929 15.7081C15.6834 16.0987 16.3166 16.0987 16.7071 15.7081L19.7071 12.7081C20.0976 12.3176 20.0976 11.6845 19.7071 11.2939L16.7071 8.29393Z" fill="#242328"/>
</g>
<defs>
<clipPath id="clip0">
<rect width="24" height="24" fill="white" transform="translate(0 0.0010376)"/>
</clipPath>
</defs>
</svg>
