<svg width="24" height="24" viewBox="0 0 24 24" fill="none" xmlns="http://www.w3.org/2000/svg">
<path fill-rule="evenodd" clip-rule="evenodd" d="M4.92882 17.6569C4.5383 18.0474 4.5383 18.6805 4.92882 19.0711C8.83407 22.9763 15.1657 22.9763 19.071 19.0711C22.9762 15.1658 22.9762 8.83418 19.071 4.92893C15.1657 1.02369 8.83407 1.02369 4.92882 4.92893C3.07975 6.77801 2.10601 9.1729 2.0081 11.5939L1.70711 11.2929C1.31658 10.9024 0.683418 10.9024 0.292894 11.2929C-0.0976308 11.6834 -0.0976315 12.3166 0.292893 12.7071L2.29289 14.7071L2.29505 14.7093C2.47586 14.889 2.72499 15 3.00005 15C3.27684 15 3.52735 14.8875 3.70841 14.7058L5.7071 12.7071C6.09763 12.3166 6.09763 11.6834 5.70711 11.2929C5.31658 10.9024 4.68342 10.9024 4.29289 11.2929L4.01112 11.5747C4.11175 9.67015 4.88891 7.79728 6.34304 6.34315C9.46723 3.21895 14.5326 3.21895 17.6567 6.34315C20.7809 9.46734 20.7809 14.5327 17.6567 17.6569C14.5326 20.781 9.46723 20.781 6.34304 17.6569C5.95251 17.2663 5.31935 17.2663 4.92882 17.6569ZM10 8C10 7.44772 10.4477 7 11 7C11.5523 7 12 7.44772 12 8V12H16C16.5523 12 17 12.4477 17 13C17 13.5523 16.5523 14 16 14H11C10.4477 14 10 13.5523 10 13V8Z" fill="#242328"/>
</svg>
