<svg width="24" height="24" viewBox="0 0 24 24" fill="none" xmlns="http://www.w3.org/2000/svg">
<g clip-path="url(#clip0)">
<path fill-rule="evenodd" clip-rule="evenodd" d="M2 12C2 6.47715 6.47715 2 12 2C17.5228 2 22 6.47715 22 12C22 17.5228 17.5228 22 12 22C6.47715 22 2 17.5228 2 12ZM12 9.00006C12.5523 9.00006 13 8.55235 13 8.00006C13 7.44778 12.5523 7.00006 12 7.00006C11.4477 7.00006 11 7.44778 11 8.00006C11 8.55235 11.4477 9.00006 12 9.00006ZM12 11.0001C12.5523 11.0001 13 11.4478 13 12.0001V16.0001C13 16.5523 12.5523 17.0001 12 17.0001C11.4477 17.0001 11 16.5523 11 16.0001V12.0001C11 11.4478 11.4477 11.0001 12 11.0001Z" fill="#242328"/>
</g>
<defs>
<clipPath id="clip0">
<rect width="24" height="24" fill="white"/>
</clipPath>
</defs>
</svg>
