<svg width="24" height="24" viewBox="0 0 24 24" fill="none" xmlns="http://www.w3.org/2000/svg">
<path fill-rule="evenodd" clip-rule="evenodd" d="M19 6.41421L9.70711 15.7071C9.31658 16.0976 8.68342 16.0976 8.29289 15.7071C7.90237 15.3166 7.90237 14.6834 8.29289 14.2929L17.5858 5H15C14.4477 5 14 4.55228 14 4C14 3.44772 14.4477 3 15 3H19.9998H20C20.1356 3 20.2649 3.02699 20.3828 3.07588C20.5007 3.12468 20.6112 3.19702 20.7071 3.29289C20.8902 3.47595 20.9874 3.71232 20.9989 3.95203C20.9996 3.96801 21 3.984 21 4C21 4.00033 21 4.00065 21 4.00098V9C21 9.55228 20.5523 10 20 10C19.4477 10 19 9.55228 19 9V6.41421ZM3 4C3 3.44772 3.44772 3 4 3H11C11.5523 3 12 3.44772 12 4C12 4.55228 11.5523 5 11 5H5V18C5 18.5523 5.44772 19 6 19H18C18.5523 19 19 18.5523 19 18V13C19 12.4477 19.4477 12 20 12C20.5523 12 21 12.4477 21 13V18C21 19.6569 19.6569 21 18 21H6C4.34315 21 3 19.6569 3 18V4Z" fill="#242328"/>
</svg>
