<svg width="24" height="24" viewBox="0 0 24 24" fill="none" xmlns="http://www.w3.org/2000/svg">
<g clip-path="url(#clip0)">
<path fill-rule="evenodd" clip-rule="evenodd" d="M3 4.00104C3 3.44875 3.44772 3.00104 4 3.00104H20C20.5523 3.00104 21 3.44875 21 4.00104V18.001C21 19.6579 19.6569 21.001 18 21.001H6C4.34315 21.001 3 19.6579 3 18.001V4.00104ZM12.7071 8.29289C12.5112 8.09699 12.2563 7.99955 11.9982 8C11.7414 8.00045 11.4879 8.09787 11.2929 8.29289C10.9024 8.68341 10.2692 8.68341 9.87868 8.29289C9.48816 7.90237 9.48816 7.2692 9.87868 6.87868C10.4629 6.29444 11.2302 6.00134 11.9947 6C12.7627 5.99865 13.5344 6.29173 14.1213 6.87868C14.7069 7.46427 15 8.23378 15 9C15 9.76622 14.7069 10.5357 14.1213 11.1213C13.7939 11.4487 13.409 11.6847 12.9994 11.8291L13 11.9965C13.0019 12.5488 12.5558 12.998 12.0035 13C11.4512 13.0019 11.002 12.5558 11 12.0035L10.9965 11.0035C10.9955 10.7374 11.1007 10.4819 11.2887 10.2935C11.4768 10.1052 11.7321 9.99953 11.9982 10C12.2563 10.0004 12.5112 9.903 12.7071 9.7071C12.9026 9.51165 13 9.25747 13 9C13 8.74253 12.9026 8.48835 12.7071 8.29289ZM13.5 16C13.5 16.8284 12.8284 17.5 12 17.5C11.1716 17.5 10.5 16.8284 10.5 16C10.5 15.1716 11.1716 14.5 12 14.5C12.8284 14.5 13.5 15.1716 13.5 16Z" fill="#242328"/>
</g>
<defs>
<clipPath id="clip0">
<rect width="24" height="24" fill="white"/>
</clipPath>
</defs>
</svg>
