<svg width="24" height="24" viewBox="0 0 24 24" fill="none" xmlns="http://www.w3.org/2000/svg">
<path fill-rule="evenodd" clip-rule="evenodd" d="M12 1.99988C11.4477 1.99988 11 2.44759 11 2.99988C11 3.55216 11.4477 3.99988 12 3.99988C16.4183 3.99988 20 7.5816 20 11.9999C20 16.4182 16.4183 19.9999 12 19.9999C7.58172 19.9999 4 16.4182 4 11.9999C4 9.97114 4.7544 8.11907 6 6.70812V8.49988C6 9.05216 6.44772 9.49988 7 9.49988C7.55228 9.49988 8 9.05216 8 8.49988V4.49988C8 3.94759 7.55228 3.49988 7 3.49988H3C2.44772 3.49988 2 3.94759 2 4.49988C2 5.05216 2.44772 5.49988 3 5.49988H4.40053C2.90476 7.24728 2 9.51815 2 11.9999C2 17.5227 6.47715 21.9999 12 21.9999C17.5228 21.9999 22 17.5227 22 11.9999C22 6.47703 17.5228 1.99988 12 1.99988Z" fill="#242328"/>
</svg>
