<svg width="24" height="24" viewBox="0 0 24 24" fill="none" xmlns="http://www.w3.org/2000/svg">
<g clip-path="url(#clip0)">
<path fill-rule="evenodd" clip-rule="evenodd" d="M10 4.00015C10 3.44787 9.55228 3.00015 9 3.00015C8.44772 3.00015 8 3.44787 8 4.00015V7.00015C8 7.55244 7.55228 8.00015 7 8.00015H4C3.44772 8.00015 3 8.44787 3 9.00015C3 9.55244 3.44772 10.0002 4 10.0002H7C8.65685 10.0002 10 8.65701 10 7.00015V4.00015ZM14 20.0002C14 20.5524 14.4477 21.0002 15 21.0002C15.5523 21.0002 16 20.5524 16 20.0002V17.0002C16 16.4479 16.4477 16.0002 17 16.0002H20C20.5523 16.0002 21 15.5524 21 15.0002C21 14.4479 20.5523 14.0002 20 14.0002H17C15.3431 14.0002 14 15.3433 14 17.0002V20.0002ZM21 9.00015C21 9.55244 20.5523 10.0002 20 10.0002H17C15.3431 10.0002 14 8.65701 14 7.00015V4.00015C14 3.44787 14.4477 3.00015 15 3.00015C15.5523 3.00015 16 3.44787 16 4.00015V7.00015C16 7.55244 16.4477 8.00015 17 8.00015H20C20.5523 8.00015 21 8.44787 21 9.00015ZM4 14.0002C3.44772 14.0002 3 14.4479 3 15.0002C3 15.5524 3.44772 16.0002 4 16.0002H7C7.55228 16.0002 8 16.4479 8 17.0002L8 20.0002C8 20.5524 8.44771 21.0002 9 21.0002C9.55228 21.0002 10 20.5524 10 20.0002L10 17.0002C10 15.3433 8.65685 14.0002 7 14.0002H4Z" fill="#242328"/>
</g>
<defs>
<clipPath id="clip0">
<rect width="24" height="24" fill="white" transform="translate(0 0.000152588)"/>
</clipPath>
</defs>
</svg>
