<svg width="24" height="24" viewBox="0 0 24 24" fill="none" xmlns="http://www.w3.org/2000/svg">
<g clip-path="url(#clip0)">
<path fill-rule="evenodd" clip-rule="evenodd" d="M3 9.00012C3 9.55241 3.44772 10.0001 4 10.0001C4.55228 10.0001 5 9.55241 5 9.00012L5 6.00012C5 5.44784 5.44772 5.00012 6 5.00012L9 5.00012C9.55229 5.00012 10 4.55241 10 4.00012C10 3.44784 9.55229 3.00012 9 3.00012H6C4.34315 3.00012 3 4.34327 3 6.00012V9.00012ZM21 15.0001C21 14.4478 20.5523 14.0001 20 14.0001C19.4477 14.0001 19 14.4478 19 15.0001V18.0001C19 18.5524 18.5523 19.0001 18 19.0001H15C14.4477 19.0001 14 19.4478 14 20.0001C14 20.5524 14.4477 21.0001 15 21.0001H18C19.6569 21.0001 21 19.657 21 18.0001V15.0001ZM14 4.00012C14 3.44784 14.4477 3.00012 15 3.00012H18C19.6569 3.00012 21 4.34327 21 6.00012V9.00012C21 9.55241 20.5523 10.0001 20 10.0001C19.4477 10.0001 19 9.55241 19 9.00012V6.00012C19 5.44784 18.5523 5.00012 18 5.00012H15C14.4477 5.00012 14 4.55241 14 4.00012ZM9 21.0001C9.55228 21.0001 10 20.5524 10 20.0001C10 19.4478 9.55228 19.0001 9 19.0001H6C5.44772 19.0001 5 18.5524 5 18.0001L5 15.0001C5 14.4478 4.55229 14.0001 4 14.0001C3.44772 14.0001 3 14.4478 3 15.0001V18.0001C3 19.657 4.34315 21.0001 6 21.0001H9Z" fill="#242328"/>
</g>
<defs>
<clipPath id="clip0">
<rect width="24" height="24" fill="white" transform="translate(0 0.00012207)"/>
</clipPath>
</defs>
</svg>
