<svg width="24" height="24" viewBox="0 0 24 24" fill="none" xmlns="http://www.w3.org/2000/svg">
<g clip-path="url(#clip0)">
<path fill-rule="evenodd" clip-rule="evenodd" d="M16.2929 20.7072C16.6834 21.0977 17.3166 21.0977 17.7071 20.7072L21.7071 16.7072C22.0976 16.3166 22.0976 15.6835 21.7071 15.293C21.3166 14.9024 20.6834 14.9024 20.2929 15.293L18 17.5858L18 4.00006C18 3.44778 17.5523 3.00006 17 3.00006C16.4477 3.00006 16 3.44778 16 4.00006L16 17.5858L13.7071 15.293C13.3166 14.9024 12.6834 14.9024 12.2929 15.293C11.9024 15.6835 11.9024 16.3166 12.2929 16.7072L16.2929 20.7072ZM7.70711 3.29295C7.31658 2.90243 6.68342 2.90243 6.29289 3.29295L2.29289 7.29295C1.90237 7.68348 1.90237 8.31664 2.29289 8.70717C2.68342 9.09769 3.31658 9.09769 3.70711 8.70717L6 6.41427L6 20.0001C6 20.5523 6.44771 21.0001 7 21.0001C7.55228 21.0001 8 20.5523 8 20.0001L8 6.41428L10.2929 8.70717C10.6834 9.09769 11.3166 9.09769 11.7071 8.70717C12.0976 8.31664 12.0976 7.68348 11.7071 7.29296L7.70711 3.29295Z" fill="#242328"/>
</g>
<defs>
<clipPath id="clip0">
<rect width="24" height="24" fill="white"/>
</clipPath>
</defs>
</svg>
