<svg width="24" height="24" viewBox="0 0 24 24" fill="none" xmlns="http://www.w3.org/2000/svg">
<g clip-path="url(#clip0)">
<path fill-rule="evenodd" clip-rule="evenodd" d="M18.5 4.40041V2.99988C18.5 2.44759 18.9477 1.99988 19.5 1.99988C20.0523 1.99988 20.5 2.44759 20.5 2.99988V6.99988C20.5 7.55216 20.0523 7.99988 19.5 7.99988L15.5 7.99988C14.9477 7.99988 14.5 7.55216 14.5 6.99988C14.5 6.44759 14.9477 5.99988 15.5 5.99988L17.2918 5.99988C15.8808 4.75428 14.0287 3.99988 12 3.99988C7.58172 3.99988 4 7.5816 4 11.9999C4 12.5522 3.55228 12.9999 3 12.9999C2.44772 12.9999 2 12.5522 2 11.9999C2 6.47703 6.47715 1.99988 12 1.99988C14.4817 1.99988 16.7526 2.90464 18.5 4.40041ZM6.70824 17.9999H8.5C9.05229 17.9999 9.5 17.5522 9.5 16.9999C9.5 16.4476 9.05229 15.9999 8.5 15.9999L4.5 15.9999C3.94772 15.9999 3.5 16.4476 3.5 16.9999L3.5 20.9999C3.5 21.5522 3.94772 21.9999 4.5 21.9999C5.05229 21.9999 5.5 21.5522 5.5 20.9999L5.5 19.5993C7.24741 21.0951 9.51827 21.9999 12 21.9999C17.5228 21.9999 22 17.5227 22 11.9999C22 11.4476 21.5523 10.9999 21 10.9999C20.4477 10.9999 20 11.4476 20 11.9999C20 16.4182 16.4183 19.9999 12 19.9999C9.97126 19.9999 8.1192 19.2455 6.70824 17.9999Z" fill="#242328"/>
</g>
<defs>
<clipPath id="clip0">
<rect width="24" height="24" fill="white" transform="translate(0 0.00012207)"/>
</clipPath>
</defs>
</svg>
