<svg width="24" height="24" viewBox="0 0 24 24" fill="none" xmlns="http://www.w3.org/2000/svg">
<g clip-path="url(#clip0)">
<path d="M3 7.00003L12 13L21 7.00003" stroke="#7045D4" stroke-width="2" stroke-linecap="round" stroke-linejoin="round"/>
<path d="M3 5.00003V4.00003C2.44772 4.00003 2 4.44775 2 5.00003H3ZM21 5.00003H22C22 4.44775 21.5523 4.00003 21 4.00003V5.00003ZM3 6.00003H21V4.00003H3V6.00003ZM20 5.00003V17H22V5.00003H20ZM19 18H5V20H19V18ZM4 17V5.00003H2V17H4ZM5 18C4.44772 18 4 17.5523 4 17H2C2 18.6569 3.34315 20 5 20V18ZM20 17C20 17.5523 19.5523 18 19 18V20C20.6569 20 22 18.6569 22 17H20Z" fill="#242328"/>
</g>
<defs>
<clipPath id="clip0">
<rect width="24" height="24" fill="white"/>
</clipPath>
</defs>
</svg>
