<svg width="24" height="24" viewBox="0 0 24 24" fill="none" xmlns="http://www.w3.org/2000/svg">
<g clip-path="url(#clip0)">
<path d="M8.00012 10V20" stroke="#7045D4" stroke-width="2"/>
<path d="M15.0001 10L14.0137 9.83563C13.9654 10.1256 14.0471 10.4221 14.2371 10.6464C14.4271 10.8707 14.7062 11 15.0001 11V10ZM4.00012 10V9.00003C3.44784 9.00003 3.00012 9.44775 3.00012 10H4.00012ZM20.5217 12.3923L21.5023 12.5884L20.5217 12.3923ZM6.00012 21H17.3605V19H6.00012V21ZM18.5605 9.00003H15.0001V11H18.5605V9.00003ZM15.9865 10.1644L16.7924 5.32883L14.8197 5.00003L14.0137 9.83563L15.9865 10.1644ZM14.8197 3.00003H14.6057V5.00003H14.8197V3.00003ZM11.2775 4.78123L8.76181 8.55473L10.4259 9.66413L12.9416 5.89063L11.2775 4.78123ZM7.92975 9.00003H4.00012V11H7.92975V9.00003ZM3.00012 10V18H5.00012V10H3.00012ZM20.3023 18.5884L21.5023 12.5884L19.5411 12.1961L18.3411 18.1961L20.3023 18.5884ZM8.76181 8.55473C8.57634 8.83293 8.26411 9.00003 7.92975 9.00003V11C8.93281 11 9.86951 10.4987 10.4259 9.66413L8.76181 8.55473ZM16.7924 5.32883C16.9956 4.10976 16.0555 3.00003 14.8197 3.00003V5.00003L14.8197 5.00003L16.7924 5.32883ZM18.5605 11C19.1916 11 19.6649 11.5774 19.5411 12.1961L21.5023 12.5884C21.8735 10.732 20.4537 9.00003 18.5605 9.00003V11ZM17.3605 21C18.7906 21 20.0218 19.9907 20.3023 18.5884L18.3411 18.1961C18.2476 18.6636 17.8372 19 17.3605 19V21ZM14.6057 3.00003C13.2683 3.00003 12.0193 3.66844 11.2775 4.78123L12.9416 5.89063C13.3125 5.33423 13.937 5.00003 14.6057 5.00003V3.00003ZM6.00012 19C5.44784 19 5.00012 18.5523 5.00012 18H3.00012C3.00012 19.6569 4.34327 21 6.00012 21V19Z" fill="#242328"/>
</g>
<defs>
<clipPath id="clip0">
<rect width="24" height="24" fill="white" transform="translate(0.00012207)"/>
</clipPath>
</defs>
</svg>
