<svg width="24" height="24" viewBox="0 0 24 24" fill="none" xmlns="http://www.w3.org/2000/svg">
<g clip-path="url(#clip0)">
<path d="M12.4707 12.5C11.5164 13.451 10.403 14.2423 9.17378 14.8305L7.6545 13.3112C6.81828 13.6397 5.92708 13.8587 4.99854 13.9508C4.44895 14.0053 4.00012 14.4477 4.00012 15V16C4.00012 18.2091 5.81867 20.0513 7.95952 19.5063C11.9872 18.481 15.4046 15.9277 17.5581 12.5" stroke="#242328" stroke-width="2" stroke-linecap="round" stroke-linejoin="round"/>
<path d="M12.4707 12.5C13.4347 11.5392 14.2363 10.4155 14.8306 9.17367L13.3114 7.65438C13.6398 6.81816 13.8589 5.92696 13.9509 4.99842C14.0054 4.44883 14.4478 4 15.0001 4H16.0001C18.2093 4 20.0515 5.81817 19.5065 7.95904C19.0922 9.58674 18.4283 11.1148 17.5581 12.5" stroke="#7045D4" stroke-width="2" stroke-linecap="round" stroke-linejoin="round"/>
</g>
<defs>
<clipPath id="clip0">
<rect width="24" height="24" fill="white" transform="translate(0.00012207)"/>
</clipPath>
</defs>
</svg>
