<svg width="24" height="24" viewBox="0 0 24 24" fill="none" xmlns="http://www.w3.org/2000/svg">
<path d="M8.00003 16H16V14H8.00003V16ZM14 9C14 10.1046 13.1046 11 12 11V13C14.2092 13 16 11.2091 16 9H14ZM12 11C10.8955 11 10 10.1046 10 9H8.00003C8.00003 11.2091 9.7909 13 12 13V11ZM10 9C10 7.89543 10.8955 7 12 7V5C9.7909 5 8.00003 6.79086 8.00003 9H10ZM12 7C13.1046 7 14 7.89543 14 9H16C16 6.79086 14.2092 5 12 5V7ZM8.00003 14C6.13996 14 4.51846 15.0162 3.65825 16.5189L5.39399 17.5125C5.9125 16.6067 6.88603 16 8.00003 16V14ZM16 16C17.114 16 18.0876 16.6067 18.6061 17.5125L20.3418 16.5189C19.4816 15.0162 17.8601 14 16 14V16Z" fill="#7045D4"/>
<path d="M21 12C21 13.8569 20.4376 15.5825 19.4739 17.0157C17.858 19.4189 15.1136 21 12 21C8.88636 21 6.14202 19.4189 4.52609 17.0157C3.56237 15.5825 3 13.8569 3 12C3 7.02944 7.02944 3 12 3C16.9706 3 21 7.02944 21 12Z" stroke="#242328" stroke-width="2"/>
</svg>
