<svg width="24" height="24" viewBox="0 0 24 24" fill="none" xmlns="http://www.w3.org/2000/svg">
<path opacity="0.16" d="M13 3H2V17C2 18.1046 2.89543 19 4 19C4 18.4882 4.19526 17.9763 4.58579 17.5858C5.36683 16.8047 6.63316 16.8047 7.41421 17.5858C7.80474 17.9763 8 18.4882 8 19H13L13 9L13 3Z" fill="#292929"/>
<path d="M2 3V2C1.44772 2 1 2.44772 1 3H2ZM13 3H14C14 2.44772 13.5523 2 13 2V3ZM13 9V8C12.7348 8 12.4804 8.10536 12.2929 8.29289C12.1054 8.48043 12 8.73478 12 9H13ZM2 4H13V2H2V4ZM12 3V19H14V3H12ZM3 17V3H1V17H3ZM13 10H18V8H13V10ZM21 13V17H23V13H21ZM14 19L14 9H12L12 19H14ZM18.7071 19.7071C18.3166 20.0976 17.6834 20.0976 17.2929 19.7071L15.8787 21.1213C17.0503 22.2929 18.9497 22.2929 20.1213 21.1213L18.7071 19.7071ZM17.2929 18.2929C17.6834 17.9024 18.3166 17.9024 18.7071 18.2929L20.1213 16.8787C18.9497 15.7071 17.0503 15.7071 15.8787 16.8787L17.2929 18.2929ZM6.70711 19.7071C6.31658 20.0976 5.68342 20.0976 5.29289 19.7071L3.87868 21.1213C5.05025 22.2929 6.94975 22.2929 8.12132 21.1213L6.70711 19.7071ZM5.29289 18.2929C5.68342 17.9024 6.31658 17.9024 6.70711 18.2929L8.12132 16.8787C6.94975 15.7071 5.05025 15.7071 3.87868 16.8787L5.29289 18.2929ZM18.7071 18.2929C18.9026 18.4884 19 18.7425 19 19H21C21 18.2338 20.7069 17.4643 20.1213 16.8787L18.7071 18.2929ZM19 19C19 19.2575 18.9026 19.5116 18.7071 19.7071L20.1213 21.1213C20.7069 20.5357 21 19.7662 21 19H19ZM16 18H13V20H16V18ZM17.2929 19.7071C17.0974 19.5116 17 19.2575 17 19H15C15 19.7662 15.2931 20.5357 15.8787 21.1213L17.2929 19.7071ZM17 19C17 18.7425 17.0974 18.4884 17.2929 18.2929L15.8787 16.8787C15.2931 17.4643 15 18.2338 15 19H17ZM5.29289 19.7071C5.09744 19.5116 5 19.2575 5 19H3C3 19.7662 3.29309 20.5357 3.87868 21.1213L5.29289 19.7071ZM5 19C5 18.7425 5.09744 18.4884 5.29289 18.2929L3.87868 16.8787C3.29309 17.4643 3 18.2338 3 19H5ZM13 18H8V20H13V18ZM6.70711 18.2929C6.90256 18.4884 7 18.7425 7 19H9C9 18.2338 8.70691 17.4643 8.12132 16.8787L6.70711 18.2929ZM7 19C7 19.2575 6.90256 19.5116 6.70711 19.7071L8.12132 21.1213C8.70691 20.5357 9 19.7662 9 19H7ZM21 17C21 17.5523 20.5523 18 20 18V20C21.6569 20 23 18.6569 23 17H21ZM18 10C19.6569 10 21 11.3431 21 13H23C23 10.2386 20.7614 8 18 8V10ZM1 17C1 18.6569 2.34315 20 4 20V18C3.44772 18 3 17.5523 3 17H1Z" fill="#292929"/>
</svg>
