<svg width="24" height="24" viewBox="0 0 24 24" fill="none" xmlns="http://www.w3.org/2000/svg">
<circle cx="12" cy="12" r="9" stroke="#242328" stroke-width="2" stroke-linecap="round" stroke-linejoin="round"/>
<path d="M10.5 9.5C10.5 10.3284 9.82843 11 9 11C8.17157 11 7.5 10.3284 7.5 9.5C7.5 8.67157 8.17157 8 9 8C9.82843 8 10.5 8.67157 10.5 9.5Z" fill="#242328"/>
<path d="M16.5 9.5C16.5 10.3284 15.8284 11 15 11C14.1716 11 13.5 10.3284 13.5 9.5C13.5 8.67157 14.1716 8 15 8C15.8284 8 16.5 8.67157 16.5 9.5Z" fill="#242328"/>
<path d="M8.5351 16C9.22672 14.8044 10.5194 14 12 14C13.4805 14 14.7732 14.8044 15.4648 16" stroke="#242328" stroke-width="2" stroke-linecap="round" stroke-linejoin="round"/>
</svg>
