<svg width="24" height="24" viewBox="0 0 24 24" fill="none" xmlns="http://www.w3.org/2000/svg">
<g clip-path="url(#clip0)">
<path d="M8.88388 6.88382C9.37204 6.39567 9.37204 5.60421 8.88388 5.11606C8.39573 4.6279 7.60427 4.6279 7.11612 5.11606L8.88388 6.88382ZM5 8.99994L4.11612 8.11606C3.62796 8.60421 3.62796 9.39567 4.11612 9.88382L5 8.99994ZM7.11612 12.8838C7.60427 13.372 8.39573 13.372 8.88388 12.8838C9.37204 12.3957 9.37204 11.6042 8.88388 11.1161L7.11612 12.8838ZM5 15.7499C4.30964 15.7499 3.75 16.3096 3.75 16.9999C3.75 17.6903 4.30964 18.2499 5 18.2499V15.7499ZM7.11612 5.11606L4.11612 8.11606L5.88388 9.88382L8.88388 6.88382L7.11612 5.11606ZM4.11612 9.88382L7.11612 12.8838L8.88388 11.1161L5.88388 8.11606L4.11612 9.88382ZM5 10.2499H16V7.74994H5V10.2499ZM18.75 12.9999C18.75 14.5187 17.5188 15.7499 16 15.7499V18.2499C18.8995 18.2499 21.25 15.8994 21.25 12.9999H18.75ZM16 10.2499C17.5188 10.2499 18.75 11.4812 18.75 12.9999H21.25C21.25 10.1004 18.8995 7.74994 16 7.74994V10.2499ZM5 18.2499H16V15.7499H5V18.2499Z" fill="#292929"/>
</g>
<defs>
<clipPath id="clip0">
<rect width="24" height="24" fill="white"/>
</clipPath>
</defs>
</svg>
