<svg width="24" height="24" viewBox="0 0 24 24" fill="none" xmlns="http://www.w3.org/2000/svg">
<g clip-path="url(#clip0)">
<path d="M16.8839 5.11606C16.3957 4.6279 15.6043 4.6279 15.1161 5.11606C14.628 5.60421 14.628 6.39567 15.1161 6.88382L16.8839 5.11606ZM19 8.99994L19.8839 9.88382C20.372 9.39567 20.372 8.60421 19.8839 8.11606L19 8.99994ZM15.1161 11.1161C14.628 11.6042 14.628 12.3957 15.1161 12.8838C15.6043 13.372 16.3957 13.372 16.8839 12.8838L15.1161 11.1161ZM19 18.2499C19.6904 18.2499 20.25 17.6903 20.25 16.9999C20.25 16.3096 19.6904 15.7499 19 15.7499V18.2499ZM15.1161 6.88382L18.1161 9.88382L19.8839 8.11606L16.8839 5.11606L15.1161 6.88382ZM18.1161 8.11606L15.1161 11.1161L16.8839 12.8838L19.8839 9.88382L18.1161 8.11606ZM19 7.74994H8V10.2499H19V7.74994ZM2.75 12.9999C2.75 15.8994 5.1005 18.2499 8 18.2499V15.7499C6.48122 15.7499 5.25 14.5187 5.25 12.9999H2.75ZM8 7.74994C5.1005 7.74994 2.75 10.1004 2.75 12.9999H5.25C5.25 11.4812 6.48122 10.2499 8 10.2499V7.74994ZM19 15.7499H8V18.2499H19V15.7499Z" fill="#292929"/>
</g>
<defs>
<clipPath id="clip0">
<rect width="24" height="24" fill="white"/>
</clipPath>
</defs>
</svg>
