<svg width="24" height="24" viewBox="0 0 24 24" fill="none" xmlns="http://www.w3.org/2000/svg">
<g clip-path="url(#clip0)">
<path d="M3 2.99994V1.74994C2.30964 1.74994 1.75 2.30958 1.75 2.99994L3 2.99994ZM18.293 14.2929L17.154 13.7779C16.9397 14.2518 17.0413 14.809 17.4091 15.1768L18.293 14.2929ZM21 16.9999L21.8839 17.8838C22.372 17.3957 22.372 16.6042 21.8839 16.1161L21 16.9999ZM17 20.9999L16.1161 21.8838C16.6043 22.372 17.3957 22.372 17.8839 21.8838L17 20.9999ZM14.293 18.2929L15.1769 17.409C14.8091 17.0412 14.2519 16.9396 13.7779 17.154L14.293 18.2929ZM11 1.74994H3V4.24994H11V1.74994ZM20.25 10.9999C20.25 5.8913 16.1086 1.74994 11 1.74994V4.24994C14.7279 4.24994 17.75 7.27202 17.75 10.9999H20.25ZM19.4319 14.808C19.9579 13.6451 20.25 12.3549 20.25 10.9999H17.75C17.75 11.9927 17.5365 12.9322 17.154 13.7779L19.4319 14.808ZM17.4091 15.1768L20.1161 17.8838L21.8839 16.1161L19.1769 13.409L17.4091 15.1768ZM20.1161 16.1161L16.1161 20.1161L17.8839 21.8838L21.8839 17.8838L20.1161 16.1161ZM17.8839 20.1161L15.1769 17.409L13.4091 19.1768L16.1161 21.8838L17.8839 20.1161ZM11 20.2499C12.355 20.2499 13.6451 19.9578 14.8081 19.4319L13.7779 17.154C12.9323 17.5364 11.9928 17.7499 11 17.7499V20.2499ZM1.75 10.9999C1.75 16.1086 5.89137 20.2499 11 20.2499V17.7499C7.27208 17.7499 4.25 14.7279 4.25 10.9999H1.75ZM1.75 2.99994V10.9999H4.25V2.99994H1.75Z" fill="#292929"/>
<ellipse cx="11" cy="10.9999" rx="2" ry="2" transform="rotate(-180 11 10.9999)" fill="#292929"/>
<path d="M3 2.99994L11 10.9999" stroke="#292929" stroke-width="2.5" stroke-linecap="round" stroke-linejoin="round"/>
</g>
<defs>
<clipPath id="clip0">
<rect width="24" height="24" fill="white"/>
</clipPath>
</defs>
</svg>
