<svg width="24" height="24" viewBox="0 0 24 24" fill="none" xmlns="http://www.w3.org/2000/svg">
<g clip-path="url(#clip0)">
<path d="M12 19.7499C7.71979 19.7499 4.25 16.2801 4.25 11.9999H1.75C1.75 17.6609 6.33908 22.2499 12 22.2499V19.7499ZM12 4.24994C16.2802 4.24994 19.75 7.71973 19.75 11.9999H22.25C22.25 6.33902 17.6609 1.74994 12 1.74994V4.24994ZM4.25 11.9999C4.25 9.85949 5.11608 7.9237 6.51992 6.51986L4.75216 4.75209C2.89864 6.60561 1.75 9.16983 1.75 11.9999H4.25ZM6.51992 6.51986C7.92377 5.11602 9.85955 4.24994 12 4.24994V1.74994C9.16989 1.74994 6.60567 2.89858 4.75216 4.75209L6.51992 6.51986ZM4.75216 6.51986L17.4801 19.2478L19.2478 17.48L6.51992 4.75209L4.75216 6.51986ZM19.75 11.9999C19.75 14.1404 18.8839 16.0762 17.4801 17.48L19.2478 19.2478C21.1014 17.3943 22.25 14.8301 22.25 11.9999H19.75ZM17.4801 17.48C16.0762 18.8839 14.1404 19.7499 12 19.7499V22.2499C14.8301 22.2499 17.3943 21.1013 19.2478 19.2478L17.4801 17.48Z" fill="#292929"/>
</g>
<defs>
<clipPath id="clip0">
<rect width="24" height="24" fill="white"/>
</clipPath>
</defs>
</svg>
