<svg width="24" height="24" viewBox="0 0 24 24" fill="none" xmlns="http://www.w3.org/2000/svg">
<path fill-rule="evenodd" clip-rule="evenodd" d="M2 11.9999C2 6.47709 6.47715 1.99994 12 1.99994C17.5228 1.99994 22 6.47709 22 11.9999C22 17.5228 17.5228 21.9999 12 21.9999C6.47715 21.9999 2 17.5228 2 11.9999ZM12 13C11.4477 13 11 12.5523 11 12V8C11 7.44772 11.4477 7 12 7C12.5523 7 13 7.44772 13 8V12C13 12.5523 12.5523 13 12 13ZM10.5 16C10.5 15.1716 11.1716 14.5 12 14.5H12.01C12.8384 14.5 13.51 15.1716 13.51 16V16.01C13.51 16.8384 12.8384 17.51 12.01 17.51H12C11.1716 17.51 10.5 16.8384 10.5 16.01V16Z" fill="#292929"/>
</svg>
