<svg width="24" height="24" viewBox="0 0 24 24" fill="none" xmlns="http://www.w3.org/2000/svg">
<path fill-rule="evenodd" clip-rule="evenodd" d="M15.6173 5.07612C15.991 4.92134 16.4211 5.00689 16.7071 5.29289L19.7071 8.29289C20.0976 8.68342 20.0976 9.31658 19.7071 9.70711L16.7071 12.7071C16.4211 12.9931 15.991 13.0787 15.6173 12.9239C15.2436 12.7691 15 12.4045 15 12V10H8C6.34315 10 5 11.3431 5 13C5 14.6569 6.34315 16 8 16H19C19.5523 16 20 16.4477 20 17C20 17.5523 19.5523 18 19 18H8C5.23858 18 3 15.7614 3 13C3 10.2386 5.23858 8 8 8H15V6C15 5.59554 15.2436 5.2309 15.6173 5.07612Z" fill="#292929"/>
</svg>
