<svg width="24" height="24" viewBox="0 0 24 24" fill="none" xmlns="http://www.w3.org/2000/svg">
<path fill-rule="evenodd" clip-rule="evenodd" d="M3 4.00098C3 3.44869 3.44772 3.00098 4 3.00098H20C20.5523 3.00098 21 3.44869 21 4.00098V18.001C21 19.6578 19.6569 21.001 18 21.001H6C4.34315 21.001 3 19.6578 3 18.001V4.00098ZM10.5 8C10.5 7.17157 11.1716 6.5 12 6.5H12.01C12.8384 6.5 13.51 7.17157 13.51 8V8.01C13.51 8.83843 12.8384 9.51 12.01 9.51H12C11.1716 9.51 10.5 8.83843 10.5 8.01V8ZM12 11C12.5523 11 13 11.4477 13 12V16C13 16.5523 12.5523 17 12 17C11.4477 17 11 16.5523 11 16V12C11 11.4477 11.4477 11 12 11Z" fill="#292929"/>
</svg>
