<svg width="24" height="24" viewBox="0 0 24 24" fill="none" xmlns="http://www.w3.org/2000/svg">
<path fill-rule="evenodd" clip-rule="evenodd" d="M7 5C6.44772 5 6 5.44772 6 6V7C6 7.55228 5.55228 8 5 8C4.44772 8 4 7.55228 4 7V6C4 4.34315 5.34315 3 7 3H12H17C18.6569 3 20 4.34315 20 6V7C20 7.55228 19.5523 8 19 8C18.4477 8 18 7.55228 18 7V6C18 5.44772 17.5523 5 17 5H13V19H15C15.5523 19 16 19.4477 16 20C16 20.5523 15.5523 21 15 21H12H9C8.44772 21 8 20.5523 8 20C8 19.4477 8.44772 19 9 19H11V5H7Z" fill="#292929"/>
</svg>
