<svg width="24" height="24" viewBox="0 0 24 24" fill="none" xmlns="http://www.w3.org/2000/svg">
<g clip-path="url(#clip0)">
<path d="M7.00017 19H6.00017C3.23874 19 1.00017 16.7614 1.00017 14C1.00017 11.35 3.06179 9.18144 5.66867 9.01081C6.78992 6.64004 9.20352 5 12.0002 5C15.5269 5 18.4444 7.60802 18.9294 11.0006C18.9529 11.0002 18.9765 11 19.0002 11C21.2093 11 23.0002 12.7909 23.0002 15C23.0002 17.2091 21.2093 19 19.0002 19H17.0002" stroke="#242328" stroke-width="2" stroke-linecap="round" stroke-linejoin="round"/>
<path d="M15.0002 13L12.0002 10M12.0002 10L9.00017 13M12.0002 10L12.0002 18" stroke="#7045D4" stroke-width="2" stroke-linecap="round" stroke-linejoin="round"/>
</g>
<defs>
<clipPath id="clip0">
<rect width="24" height="24" fill="white" transform="translate(0.000167847)"/>
</clipPath>
</defs>
</svg>
