<svg width="24" height="24" viewBox="0 0 24 24" fill="none" xmlns="http://www.w3.org/2000/svg">
<path opacity="0.16" d="M17 15C17 17.7614 14.7614 20 12 20C9.23858 20 7 17.7614 7 15C7 12.2386 9.23858 10 12 10C14.7614 10 17 12.2386 17 15Z" fill="#292929"/>
<path d="M13.847 4.5316C14.1406 4.06382 13.9994 3.4466 13.5316 3.15301C13.0638 2.85941 12.4466 3.00062 12.153 3.4684L13.847 4.5316ZM6.92613 11.7963C6.63254 12.2641 6.77374 12.8813 7.24153 13.1749C7.70931 13.4685 8.32653 13.3273 8.62012 12.8595L6.92613 11.7963ZM16 15C16 17.2091 14.2091 19 12 19V21C15.3137 21 18 18.3137 18 15H16ZM12 19C9.79086 19 8 17.2091 8 15H6C6 18.3137 8.68629 21 12 21V19ZM8 15C8 12.7909 9.79086 11 12 11V9C8.68629 9 6 11.6863 6 15H8ZM12 11C14.2091 11 16 12.7909 16 15H18C18 11.6863 15.3137 9 12 9V11ZM12.153 3.4684L6.92613 11.7963L8.62012 12.8595L13.847 4.5316L12.153 3.4684Z" fill="#292929"/>
</svg>
