<svg width="24" height="24" viewBox="0 0 24 24" fill="none" xmlns="http://www.w3.org/2000/svg">
<circle cx="12" cy="12" r="9" stroke="#242328" stroke-linecap="round" stroke-linejoin="round"/>
<path d="M10 9.5C10 10.0523 9.55228 10.5 9 10.5C8.44772 10.5 8 10.0523 8 9.5C8 8.94772 8.44772 8.5 9 8.5C9.55228 8.5 10 8.94772 10 9.5Z" fill="#242328"/>
<path d="M16 9.5C16 10.0523 15.5523 10.5 15 10.5C14.4477 10.5 14 10.0523 14 9.5C14 8.94772 14.4477 8.5 15 8.5C15.5523 8.5 16 8.94772 16 9.5Z" fill="#242328"/>
<path d="M13 15C13 15.5523 12.5523 16 12 16C11.4477 16 11 15.5523 11 15C11 14.4477 11.4477 14 12 14C12.5523 14 13 14.4477 13 15Z" fill="#242328"/>
</svg>
