<svg width="24" height="24" viewBox="0 0 24 24" fill="none" xmlns="http://www.w3.org/2000/svg">
<circle cx="12" cy="12" r="9" stroke="#242328" stroke-linecap="round" stroke-linejoin="round"/>
<path d="M14 14.5C14 13.9477 14.4477 13.5 15 13.5C15.5523 13.5 16 13.9477 16 14.5C16 15.0523 15.5523 15.5 15 15.5C14.4477 15.5 14 15.0523 14 14.5Z" fill="#242328"/>
<path d="M8 14.5C8 13.9477 8.44772 13.5 9 13.5C9.55228 13.5 10 13.9477 10 14.5C10 15.0523 9.55228 15.5 9 15.5C8.44772 15.5 8 15.0523 8 14.5Z" fill="#242328"/>
<path d="M8.5351 10C9.22672 8.8044 10.5194 8 12 8C13.4805 8 14.7732 8.8044 15.4648 10" stroke="#242328" stroke-linecap="round" stroke-linejoin="round"/>
</svg>
