<svg width="24" height="24" viewBox="0 0 24 24" fill="none" xmlns="http://www.w3.org/2000/svg">
<path fill-rule="evenodd" clip-rule="evenodd" d="M2 12C2 6.47715 6.47715 2 12 2C17.5228 2 22 6.47715 22 12C22 17.5228 17.5228 22 12 22C6.47715 22 2 17.5228 2 12ZM15 10C15 9.44772 14.5523 9 14 9H10C9.44772 9 9 9.44772 9 10V14C9 14.5523 9.44772 15 10 15C10.5523 15 11 14.5523 11 14V12.4142L13.2929 14.7071C13.6834 15.0976 14.3166 15.0976 14.7071 14.7071C15.0976 14.3166 15.0976 13.6834 14.7071 13.2929L12.4142 11H14C14.5523 11 15 10.5523 15 10Z" fill="#242328"/>
</svg>
