<svg width="24" height="24" viewBox="0 0 24 24" fill="none" xmlns="http://www.w3.org/2000/svg">
<path fill-rule="evenodd" clip-rule="evenodd" d="M3 4C3 3.44772 3.44772 3 4 3H20C20.5523 3 21 3.44772 21 4V18C21 19.6569 19.6569 21 18 21H6C4.34315 21 3 19.6569 3 18V4ZM15 14V10C15 9.44772 14.5523 9 14 9H10C9.44772 9 9 9.44771 9 10C9 10.5523 9.44772 11 10 11H11.5858L9.29289 13.2929C8.90237 13.6834 8.90237 14.3166 9.29289 14.7071C9.68342 15.0976 10.3166 15.0976 10.7071 14.7071L13 12.4142V14C13 14.5523 13.4477 15 14 15C14.5523 15 15 14.5523 15 14Z" fill="#242328"/>
</svg>
