<svg width="24" height="24" viewBox="0 0 24 24" fill="none" xmlns="http://www.w3.org/2000/svg">
<path fill-rule="evenodd" clip-rule="evenodd" d="M3 4C3 3.44772 3.44772 3 4 3H20C20.5523 3 21 3.44772 21 4V18C21 19.6569 19.6569 21 18 21H6C4.34315 21 3 19.6569 3 18V4ZM12.7071 9.70711C13.0976 9.31658 13.0976 8.68342 12.7071 8.29289C12.3166 7.90237 11.6834 7.90237 11.2929 8.29289L8.29289 11.2929C7.90237 11.6834 7.90237 12.3166 8.29289 12.7071L11.2929 15.7071C11.6834 16.0976 12.3166 16.0976 12.7071 15.7071C13.0976 15.3166 13.0976 14.6834 12.7071 14.2929L11.4142 13H15C15.5523 13 16 12.5523 16 12C16 11.4477 15.5523 11 15 11H11.4142L12.7071 9.70711Z" fill="#242328"/>
</svg>
