<svg width="24" height="24" viewBox="0 0 24 24" fill="none" xmlns="http://www.w3.org/2000/svg">
<path fill-rule="evenodd" clip-rule="evenodd" d="M3 4C3 3.44772 3.44772 3 4 3H20C20.5523 3 21 3.44772 21 4V18C21 19.6569 19.6569 21 18 21H6C4.34315 21 3 19.6569 3 18V4ZM10.2929 14.2929C9.90237 14.6834 9.90237 15.3166 10.2929 15.7071C10.6834 16.0976 11.3166 16.0976 11.7071 15.7071L14.7071 12.7071C15.0976 12.3166 15.0976 11.6834 14.7071 11.2929L11.7071 8.29289C11.3166 7.90237 10.6834 7.90237 10.2929 8.29289C9.90237 8.68342 9.90237 9.31658 10.2929 9.70711L12.5858 12L10.2929 14.2929Z" fill="#242328"/>
</svg>
