<svg width="24" height="24" viewBox="0 0 24 24" fill="none" xmlns="http://www.w3.org/2000/svg">
<path fill-rule="evenodd" clip-rule="evenodd" d="M3 4C3 3.44772 3.44772 3 4 3H20C20.5523 3 21 3.44772 21 4V18C21 19.6569 19.6569 21 18 21H6C4.34315 21 3 19.6569 3 18V4ZM10 15H14C14.5523 15 15 14.5523 15 14V10C15 9.44772 14.5523 9 14 9C13.4477 9 13 9.44772 13 10V11.5858L10.7071 9.29289C10.3166 8.90237 9.68342 8.90237 9.29289 9.29289C8.90237 9.68342 8.90237 10.3166 9.29289 10.7071L11.5858 13H10C9.44772 13 9 13.4477 9 14C9 14.5523 9.44772 15 10 15Z" fill="#242328"/>
</svg>
