<svg width="24" height="24" viewBox="0 0 24 24" fill="none" xmlns="http://www.w3.org/2000/svg">
<path d="M8.35355 6.35355C8.54882 6.15829 8.54882 5.84171 8.35355 5.64645C8.15829 5.45118 7.84171 5.45118 7.64645 5.64645L8.35355 6.35355ZM5 9L4.64645 8.64645C4.45118 8.84171 4.45118 9.15829 4.64645 9.35355L5 9ZM7.64645 12.3536C7.84171 12.5488 8.15829 12.5488 8.35355 12.3536C8.54882 12.1583 8.54882 11.8417 8.35355 11.6464L7.64645 12.3536ZM5 16.5C4.72386 16.5 4.5 16.7239 4.5 17C4.5 17.2761 4.72386 17.5 5 17.5V16.5ZM7.64645 5.64645L4.64645 8.64645L5.35355 9.35355L8.35355 6.35355L7.64645 5.64645ZM4.64645 9.35355L7.64645 12.3536L8.35355 11.6464L5.35355 8.64645L4.64645 9.35355ZM5 9.5H16V8.5H5V9.5ZM19.5 13C19.5 14.933 17.933 16.5 16 16.5V17.5C18.4853 17.5 20.5 15.4853 20.5 13H19.5ZM16 9.5C17.933 9.5 19.5 11.067 19.5 13H20.5C20.5 10.5147 18.4853 8.5 16 8.5V9.5ZM5 17.5H16V16.5H5V17.5Z" fill="#292929"/>
</svg>
