<svg width="24" height="24" viewBox="0 0 24 24" fill="none" xmlns="http://www.w3.org/2000/svg">
<path fill-rule="evenodd" clip-rule="evenodd" d="M3 4.00098C3 3.44869 3.44772 3.00098 4 3.00098H20C20.5523 3.00098 21 3.44869 21 4.00098V18.001C21 19.6578 19.6569 21.001 18 21.001H6C4.34315 21.001 3 19.6578 3 18.001V4.00098ZM10 10.125C10 8.91253 10.9335 8 12 8C13.0665 8 14 8.91253 14 10.125V13.875C14 15.0875 13.0665 16 12 16C10.9335 16 10 15.0875 10 13.875V10.125ZM12 6C9.75278 6 8 7.88569 8 10.125V13.875C8 16.1143 9.75278 18 12 18C14.2472 18 16 16.1143 16 13.875V10.125C16 7.88569 14.2472 6 12 6Z" fill="#242328"/>
</svg>
