<svg width="24" height="24" viewBox="0 0 24 24" fill="none" xmlns="http://www.w3.org/2000/svg">
<path fill-rule="evenodd" clip-rule="evenodd" d="M2 12C2 6.47715 6.47715 2 12 2C17.5228 2 22 6.47715 22 12C22 17.5228 17.5228 22 12 22C6.47715 22 2 17.5228 2 12ZM13.8364 7.54809C14.1391 7.08614 14.01 6.46628 13.548 6.16358C13.0861 5.86088 12.4662 5.98997 12.1635 6.45191L8.67521 11.7753C8.24876 12.4114 8 13.1767 8 14C8 16.2091 9.79086 18 12 18C14.2091 18 16 16.2091 16 14C16 11.8666 14.3298 10.1232 12.2256 10.0063L13.8364 7.54809ZM10 14C10 12.8954 10.8954 12 12 12C13.1046 12 14 12.8954 14 14C14 15.1046 13.1046 16 12 16C10.8954 16 10 15.1046 10 14Z" fill="#242328"/>
</svg>
