<svg width="24" height="24" viewBox="0 0 24 24" fill="none" xmlns="http://www.w3.org/2000/svg">
<path fill-rule="evenodd" clip-rule="evenodd" d="M3 4C3 3.44772 3.44772 3 4 3H20C20.5523 3 21 3.44772 21 4V18C21 19.6569 19.6569 21 18 21H6C4.34315 21 3 19.6569 3 18V4ZM12 9.5C12.8284 9.5 13.5 8.82843 13.5 8C13.5 7.17157 12.8284 6.5 12 6.5C11.1716 6.5 10.5 7.17157 10.5 8C10.5 8.82843 11.1716 9.5 12 9.5ZM12 17.5C12.8284 17.5 13.5 16.8284 13.5 16C13.5 15.1716 12.8284 14.5 12 14.5C11.1716 14.5 10.5 15.1716 10.5 16C10.5 16.8284 11.1716 17.5 12 17.5ZM8 12C8 11.4477 8.44772 11 9 11H15C15.5522 11 16 11.4477 16 12C16 12.5523 15.5522 13 15 13H9C8.44772 13 8 12.5523 8 12Z" fill="#242328"/>
</svg>
