<svg width="24" height="24" viewBox="0 0 24 24" fill="none" xmlns="http://www.w3.org/2000/svg">
<g clip-path="url(#clip0)">
<path d="M12 21C16.9706 21 21 16.9706 21 12C21 7.02944 16.9706 3 12 3C7.02944 3 3 7.02944 3 12C3 13.4876 3.36093 14.891 4 16.1272L3 21L7.8728 20C9.10904 20.6391 10.5124 21 12 21Z" fill="black" fill-opacity="0.16"/>
<path d="M4 16.1272L4.97958 16.3282C5.02556 16.1042 4.99335 15.8712 4.88832 15.668L4 16.1272ZM7.8728 20L8.33201 19.1117C8.12884 19.0066 7.89581 18.9744 7.67177 19.0204L7.8728 20ZM3 21L2.02042 20.799C1.95284 21.1282 2.05521 21.4694 2.29289 21.7071C2.53057 21.9448 2.87176 22.0472 3.20103 21.9796L3 21ZM20 12C20 16.4183 16.4183 20 12 20V22C17.5228 22 22 17.5228 22 12H20ZM4 12C4 7.58172 7.58172 4 12 4V2C6.47715 2 2 6.47715 2 12H4ZM12 4C16.4183 4 20 7.58172 20 12H22C22 6.47715 17.5228 2 12 2V4ZM4.88832 15.668C4.32091 14.5704 4 13.3241 4 12H2C2 13.6511 2.40095 15.2116 3.11168 16.5864L4.88832 15.668ZM12 20C10.6759 20 9.42964 19.6791 8.33201 19.1117L7.41358 20.8883C8.78843 21.599 10.3489 22 12 22V20ZM3.02042 15.9262L2.02042 20.799L3.97958 21.201L4.97958 16.3282L3.02042 15.9262ZM3.20103 21.9796L8.07383 20.9796L7.67177 19.0204L2.79897 20.0204L3.20103 21.9796Z" fill="#242328"/>
<path d="M12 9.00104V15.001" stroke="#242328" stroke-width="2" stroke-linecap="round" stroke-linejoin="round"/>
<path d="M9 12.001H15" stroke="#242328" stroke-width="2" stroke-linecap="round" stroke-linejoin="round"/>
</g>
<defs>
<clipPath id="clip0">
<rect width="24" height="24" fill="white"/>
</clipPath>
</defs>
</svg>
