<svg width="24" height="24" viewBox="0 0 24 24" fill="none" xmlns="http://www.w3.org/2000/svg">
<g clip-path="url(#clip0)">
<path d="M17.3605 4.00003H8.00012V14C8.62487 14 9.20828 14.3123 9.55482 14.8321L12.1095 18.6641C12.6659 19.4987 13.6026 20 14.6057 20H14.8197C15.4376 20 15.9076 19.4452 15.8061 18.8356L15.0001 14H18.5605C19.8226 14 20.7692 12.8454 20.5217 11.6078L19.3217 5.6078C19.1347 4.67295 18.3139 4.00003 17.3605 4.00003Z" fill="black" fill-opacity="0.16"/>
<path d="M15.0001 14L14.0137 14.1644C13.9654 13.8745 14.0471 13.5779 14.2371 13.3537C14.4271 13.1294 14.7062 13 15.0001 13V14ZM4.00012 14V15C3.44784 15 3.00012 14.5523 3.00012 14H4.00012ZM20.5217 11.6078L21.5023 11.4117L20.5217 11.6078ZM6.00012 3.00003H17.3605V5.00003H6.00012V3.00003ZM18.5605 15H15.0001V13H18.5605V15ZM15.9865 13.8356L16.7924 18.6712L14.8197 19L14.0137 14.1644L15.9865 13.8356ZM14.8197 21H14.6057V19H14.8197V21ZM11.2775 19.2188L8.76181 15.4453L10.4259 14.3359L12.9416 18.1094L11.2775 19.2188ZM7.92975 15H4.00012V13H7.92975V15ZM3.00012 14V6.00003H5.00012V14H3.00012ZM20.3023 5.41168L21.5023 11.4117L19.5411 11.8039L18.3411 5.80391L20.3023 5.41168ZM8.76181 15.4453C8.57634 15.1671 8.26411 15 7.92975 15V13C8.93281 13 9.86951 13.5013 10.4259 14.3359L8.76181 15.4453ZM16.7924 18.6712C16.9956 19.8903 16.0555 21 14.8197 21V19L14.8197 19L16.7924 18.6712ZM18.5605 13C19.1916 13 19.6649 12.4227 19.5411 11.8039L21.5023 11.4117C21.8735 13.2681 20.4537 15 18.5605 15V13ZM17.3605 3.00003C18.7906 3.00003 20.0218 4.00941 20.3023 5.41168L18.3411 5.80391C18.2476 5.33649 17.8372 5.00003 17.3605 5.00003V3.00003ZM14.6057 21C13.2683 21 12.0193 20.3316 11.2775 19.2188L12.9416 18.1094C13.3125 18.6658 13.937 19 14.6057 19V21ZM6.00012 5.00003C5.44784 5.00003 5.00012 5.44775 5.00012 6.00003H3.00012C3.00012 4.34318 4.34327 3.00003 6.00012 3.00003V5.00003Z" fill="#242328"/>
<path d="M8.00012 14V4.00003" stroke="#242328" stroke-width="2"/>
</g>
<defs>
<clipPath id="clip0">
<rect width="24" height="24" fill="white" transform="translate(0.00012207)"/>
</clipPath>
</defs>
</svg>
