<svg width="24" height="24" viewBox="0 0 24 24" fill="none" xmlns="http://www.w3.org/2000/svg">
<path d="M16 15H8.00003C6.51299 15 5.21548 15.8114 4.52612 17.0157C6.14206 19.4189 8.8864 21 12 21C15.1137 21 17.858 19.4189 19.4739 17.0157C18.7846 15.8114 17.4871 15 16 15Z" fill="black" fill-opacity="0.16"/>
<path d="M4 12C4 7.58172 7.58172 4 12 4V2C6.47715 2 2 6.47715 2 12H4ZM12 4C16.4183 4 20 7.58172 20 12H22C22 6.47715 17.5228 2 12 2V4ZM8 16H16V14H8V16ZM14 9C14 10.1046 13.1046 11 12 11V13C14.2091 13 16 11.2091 16 9H14ZM12 11C10.8954 11 10 10.1046 10 9H8C8 11.2091 9.79086 13 12 13V11ZM10 9C10 7.89543 10.8954 7 12 7V5C9.79086 5 8 6.79086 8 9H10ZM12 7C13.1046 7 14 7.89543 14 9H16C16 6.79086 14.2091 5 12 5V7ZM8 14C6.13992 14 4.51842 15.0162 3.65822 16.5189L5.39396 17.5125C5.91246 16.6067 6.886 16 8 16V14ZM12 20C9.23327 20 6.794 18.5964 5.35593 16.4577L3.69625 17.5737C5.49004 20.2414 8.53946 22 12 22V20ZM5.35593 16.4577C4.49965 15.1843 4 13.652 4 12H2C2 14.0618 2.62509 15.9807 3.69625 17.5737L5.35593 16.4577ZM16 16C17.114 16 18.0875 16.6067 18.606 17.5125L20.3418 16.5189C19.4816 15.0162 17.8601 14 16 14V16ZM20 12C20 13.652 19.5003 15.1843 18.6441 16.4577L20.3038 17.5737C21.3749 15.9807 22 14.0618 22 12H20ZM18.6441 16.4577C17.206 18.5964 14.7667 20 12 20V22C15.4605 22 18.51 20.2414 20.3038 17.5737L18.6441 16.4577Z" fill="#242328"/>
</svg>
