<svg width="24" height="24" viewBox="0 0 24 24" fill="none" xmlns="http://www.w3.org/2000/svg">
<g clip-path="url(#clip0)">
<path d="M16 5.00005C16 3.89548 16.8954 3.00005 18 3.00005C19.1046 3.00005 20 3.89548 20 5.00005C20 6.10462 19.1046 7.00005 18 7.00005C17.263 7.00005 16.6191 6.60139 16.2722 6.00795C16.0991 5.712 16 5.3676 16 5.00005Z" fill="black" fill-opacity="0.16"/>
<path d="M16 19C16 18.6325 16.0991 18.2881 16.2722 17.9921C16.6191 17.3987 17.263 17 18 17C19.1046 17 20 17.8955 20 19C20 20.1046 19.1046 21 18 21C16.8954 21 16 20.1046 16 19Z" fill="black" fill-opacity="0.16"/>
<path d="M4 12C4 10.8955 4.89543 10 6 10C6.73701 10 7.38092 10.3987 7.72784 10.9921C7.90085 11.2881 8 11.6325 8 12C8 12.3676 7.90085 12.712 7.72784 13.008C7.38092 13.6014 6.73701 14 6 14C4.89543 14 4 13.1046 4 12Z" fill="black" fill-opacity="0.16"/>
<path d="M16.2722 6.00795C16.6191 6.60139 17.263 7.00005 18 7.00005C19.1046 7.00005 20 6.10462 20 5.00005C20 3.89548 19.1046 3.00005 18 3.00005C16.8954 3.00005 16 3.89548 16 5.00005C16 5.3676 16.0991 5.712 16.2722 6.00795ZM16.2722 6.00795L7.72784 10.9921M7.72784 10.9921C7.38092 10.3987 6.73701 10 6 10C4.89543 10 4 10.8955 4 12C4 13.1046 4.89543 14 6 14C6.73701 14 7.38092 13.6014 7.72784 13.008M7.72784 10.9921C7.90085 11.2881 8 11.6325 8 12C8 12.3676 7.90085 12.712 7.72784 13.008M7.72784 13.008L16.2722 17.9921M16.2722 17.9921C16.6191 17.3987 17.263 17 18 17C19.1046 17 20 17.8955 20 19C20 20.1046 19.1046 21 18 21C16.8954 21 16 20.1046 16 19C16 18.6325 16.0991 18.2881 16.2722 17.9921Z" stroke="#242328" stroke-width="2" stroke-linecap="round" stroke-linejoin="round"/>
</g>
<defs>
<clipPath id="clip0">
<rect width="24" height="24" fill="white"/>
</clipPath>
</defs>
</svg>
