<svg width="24" height="24" viewBox="0 0 24 24" fill="none" xmlns="http://www.w3.org/2000/svg">
<path d="M2 3V2.25C1.58579 2.25 1.25 2.58579 1.25 3H2ZM13 3H13.75C13.75 2.58579 13.4142 2.25 13 2.25V3ZM13 9V8.25C12.8011 8.25 12.6103 8.32902 12.4697 8.46967C12.329 8.61032 12.25 8.80109 12.25 9H13ZM2 3.75H13V2.25H2V3.75ZM12.25 3V19H13.75V3H12.25ZM2.75 17V3H1.25V17H2.75ZM13 9.75H18V8.25H13V9.75ZM21.25 13V17H22.75V13H21.25ZM13.75 19L13.75 9H12.25L12.25 19H13.75ZM18.8839 19.8839C18.3957 20.372 17.6043 20.372 17.1161 19.8839L16.0555 20.9445C17.1294 22.0185 18.8706 22.0185 19.9445 20.9445L18.8839 19.8839ZM17.1161 18.1161C17.6043 17.628 18.3957 17.628 18.8839 18.1161L19.9445 17.0555C18.8706 15.9815 17.1294 15.9815 16.0555 17.0555L17.1161 18.1161ZM6.88388 19.8839C6.39573 20.372 5.60427 20.372 5.11612 19.8839L4.05546 20.9445C5.1294 22.0185 6.8706 22.0185 7.94454 20.9445L6.88388 19.8839ZM5.11612 18.1161C5.60427 17.628 6.39573 17.628 6.88388 18.1161L7.94454 17.0555C6.8706 15.9815 5.1294 15.9815 4.05546 17.0555L5.11612 18.1161ZM18.8839 18.1161C19.1281 18.3603 19.25 18.6789 19.25 19H20.75C20.75 18.2974 20.4814 17.5923 19.9445 17.0555L18.8839 18.1161ZM19.25 19C19.25 19.3211 19.1281 19.6397 18.8839 19.8839L19.9445 20.9445C20.4814 20.4077 20.75 19.7026 20.75 19H19.25ZM16 18.25H13V19.75H16V18.25ZM17.1161 19.8839C16.8719 19.6397 16.75 19.3211 16.75 19H15.25C15.25 19.7026 15.5186 20.4077 16.0555 20.9445L17.1161 19.8839ZM16.75 19C16.75 18.6789 16.8719 18.3603 17.1161 18.1161L16.0555 17.0555C15.5186 17.5923 15.25 18.2974 15.25 19H16.75ZM5.11612 19.8839C4.87189 19.6397 4.75 19.3211 4.75 19H3.25C3.25 19.7026 3.51863 20.4077 4.05546 20.9445L5.11612 19.8839ZM4.75 19C4.75 18.6789 4.87189 18.3603 5.11612 18.1161L4.05546 17.0555C3.51863 17.5923 3.25 18.2974 3.25 19H4.75ZM13 18.25H8V19.75H13V18.25ZM6.88388 18.1161C7.12811 18.3603 7.25 18.6789 7.25 19H8.75C8.75 18.2974 8.48137 17.5923 7.94454 17.0555L6.88388 18.1161ZM7.25 19C7.25 19.3211 7.12811 19.6397 6.88388 19.8839L7.94454 20.9445C8.48137 20.4077 8.75 19.7026 8.75 19H7.25ZM21.25 17C21.25 17.6904 20.6904 18.25 20 18.25V19.75C21.5188 19.75 22.75 18.5188 22.75 17H21.25ZM18 9.75C19.7949 9.75 21.25 11.2051 21.25 13H22.75C22.75 10.3766 20.6234 8.25 18 8.25V9.75ZM1.25 17C1.25 18.5188 2.48122 19.75 4 19.75V18.25C3.30964 18.25 2.75 17.6904 2.75 17H1.25Z" fill="#292929"/>
</svg>
