<svg width="24" height="24" viewBox="0 0 24 24" fill="none" xmlns="http://www.w3.org/2000/svg">
<path d="M3 10H2.25C2.25 10.4142 2.58579 10.75 3 10.75L3 10ZM3 14L3 13.25C2.58579 13.25 2.25 13.5858 2.25 14H3ZM21 10V10.75C21.4142 10.75 21.75 10.4142 21.75 10H21ZM21 14H21.75C21.75 13.5858 21.4142 13.25 21 13.25V14ZM5 5.75H10V4.25H5V5.75ZM10 5.75H19V4.25H10V5.75ZM19 18.25H10V19.75H19V18.25ZM10 18.25H5V19.75H10V18.25ZM9.25 5V19H10.75V5H9.25ZM3.88388 11.1161C4.37204 11.6043 4.37204 12.3957 3.88388 12.8839L4.94454 13.9445C6.01849 12.8706 6.01849 11.1294 4.94454 10.0555L3.88388 11.1161ZM20.1161 12.8839C19.628 12.3957 19.628 11.6043 20.1161 11.1161L19.0555 10.0555C17.9815 11.1294 17.9815 12.8706 19.0555 13.9445L20.1161 12.8839ZM3 10.75C3.32106 10.75 3.63966 10.8719 3.88388 11.1161L4.94454 10.0555C4.40772 9.51863 3.70262 9.25 3 9.25L3 10.75ZM3.75 10V7H2.25V10H3.75ZM3.75 17V14H2.25V17H3.75ZM3.88388 12.8839C3.63966 13.1281 3.32106 13.25 3 13.25L3 14.75C3.70263 14.75 4.40772 14.4814 4.94454 13.9445L3.88388 12.8839ZM20.1161 11.1161C20.3603 10.8719 20.6789 10.75 21 10.75V9.25C20.2974 9.25 19.5923 9.51863 19.0555 10.0555L20.1161 11.1161ZM20.25 7V10H21.75V7H20.25ZM20.25 14C20.25 14.0015 20.25 14.0029 20.25 14.0044C20.25 14.0059 20.25 14.0073 20.25 14.0088C20.25 14.0103 20.25 14.0118 20.25 14.0132C20.25 14.0147 20.25 14.0162 20.25 14.0176C20.25 14.0191 20.25 14.0206 20.25 14.0221C20.25 14.0236 20.25 14.025 20.25 14.0265C20.25 14.028 20.25 14.0295 20.25 14.031C20.25 14.0325 20.25 14.0339 20.25 14.0354C20.25 14.0369 20.25 14.0384 20.25 14.0399C20.25 14.0414 20.25 14.0429 20.25 14.0444C20.25 14.0459 20.25 14.0474 20.25 14.0489C20.25 14.0504 20.25 14.0519 20.25 14.0534C20.25 14.0549 20.25 14.0564 20.25 14.0579C20.25 14.0594 20.25 14.0609 20.25 14.0624C20.25 14.0639 20.25 14.0654 20.25 14.0669C20.25 14.0684 20.25 14.0699 20.25 14.0714C20.25 14.0729 20.25 14.0744 20.25 14.0759C20.25 14.0775 20.25 14.079 20.25 14.0805C20.25 14.082 20.25 14.0835 20.25 14.085C20.25 14.0866 20.25 14.0881 20.25 14.0896C20.25 14.0911 20.25 14.0927 20.25 14.0942C20.25 14.0957 20.25 14.0972 20.25 14.0988C20.25 14.1003 20.25 14.1018 20.25 14.1033C20.25 14.1049 20.25 14.1064 20.25 14.1079C20.25 14.1095 20.25 14.111 20.25 14.1125C20.25 14.1141 20.25 14.1156 20.25 14.1171C20.25 14.1187 20.25 14.1202 20.25 14.1218C20.25 14.1233 20.25 14.1248 20.25 14.1264C20.25 14.1279 20.25 14.1295 20.25 14.131C20.25 14.1326 20.25 14.1341 20.25 14.1357C20.25 14.1372 20.25 14.1388 20.25 14.1403C20.25 14.1419 20.25 14.1434 20.25 14.145C20.25 14.1465 20.25 14.1481 20.25 14.1496C20.25 14.1512 20.25 14.1528 20.25 14.1543C20.25 14.1559 20.25 14.1574 20.25 14.159C20.25 14.1606 20.25 14.1621 20.25 14.1637C20.25 14.1653 20.25 14.1668 20.25 14.1684C20.25 14.17 20.25 14.1715 20.25 14.1731C20.25 14.1747 20.25 14.1762 20.25 14.1778C20.25 14.1794 20.25 14.181 20.25 14.1825C20.25 14.1841 20.25 14.1857 20.25 14.1873C20.25 14.1889 20.25 14.1904 20.25 14.192C20.25 14.1936 20.25 14.1952 20.25 14.1968C20.25 14.1983 20.25 14.1999 20.25 14.2015C20.25 14.2031 20.25 14.2047 20.25 14.2063C20.25 14.2079 20.25 14.2095 20.25 14.2111C20.25 14.2126 20.25 14.2142 20.25 14.2158C20.25 14.2174 20.25 14.219 20.25 14.2206C20.25 14.2222 20.25 14.2238 20.25 14.2254C20.25 14.227 20.25 14.2286 20.25 14.2302C20.25 14.2318 20.25 14.2334 20.25 14.235C20.25 14.2366 20.25 14.2382 20.25 14.2398C20.25 14.2415 20.25 14.2431 20.25 14.2447C20.25 14.2463 20.25 14.2479 20.25 14.2495C20.25 14.2511 20.25 14.2527 20.25 14.2543C20.25 14.256 20.25 14.2576 20.25 14.2592C20.25 14.2608 20.25 14.2624 20.25 14.264C20.25 14.2657 20.25 14.2673 20.25 14.2689C20.25 14.2705 20.25 14.2722 20.25 14.2738C20.25 14.2754 20.25 14.277 20.25 14.2787C20.25 14.2803 20.25 14.2819 20.25 14.2836C20.25 14.2852 20.25 14.2868 20.25 14.2884C20.25 14.2901 20.25 14.2917 20.25 14.2934C20.25 14.295 20.25 14.2966 20.25 14.2983C20.25 14.2999 20.25 14.3015 20.25 14.3032C20.25 14.3048 20.25 14.3065 20.25 14.3081C20.25 14.3097 20.25 14.3114 20.25 14.313C20.25 14.3147 20.25 14.3163 20.25 14.318C20.25 14.3196 20.25 14.3213 20.25 14.3229C20.25 14.3246 20.25 14.3262 20.25 14.3279C20.25 14.3295 20.25 14.3312 20.25 14.3328C20.25 14.3345 20.25 14.3362 20.25 14.3378C20.25 14.3395 20.25 14.3411 20.25 14.3428C20.25 14.3445 20.25 14.3461 20.25 14.3478C20.25 14.3494 20.25 14.3511 20.25 14.3528C20.25 14.3544 20.25 14.3561 20.25 14.3578C20.25 14.3594 20.25 14.3611 20.25 14.3628C20.25 14.3644 20.25 14.3661 20.25 14.3678C20.25 14.3695 20.25 14.3711 20.25 14.3728C20.25 14.3745 20.25 14.3762 20.25 14.3778C20.25 14.3795 20.25 14.3812 20.25 14.3829C20.25 14.3846 20.25 14.3862 20.25 14.3879C20.25 14.3896 20.25 14.3913 20.25 14.393C20.25 14.3947 20.25 14.3963 20.25 14.398C20.25 14.3997 20.25 14.4014 20.25 14.4031C20.25 14.4048 20.25 14.4065 20.25 14.4082C20.25 14.4099 20.25 14.4116 20.25 14.4133C20.25 14.4149 20.25 14.4166 20.25 14.4183C20.25 14.42 20.25 14.4217 20.25 14.4234C20.25 14.4251 20.25 14.4268 20.25 14.4285C20.25 14.4302 20.25 14.4319 20.25 14.4336C20.25 14.4353 20.25 14.4371 20.25 14.4388C20.25 14.4405 20.25 14.4422 20.25 14.4439C20.25 14.4456 20.25 14.4473 20.25 14.449C20.25 14.4507 20.25 14.4524 20.25 14.4541C20.25 14.4559 20.25 14.4576 20.25 14.4593C20.25 14.461 20.25 14.4627 20.25 14.4644C20.25 14.4662 20.25 14.4679 20.25 14.4696C20.25 14.4713 20.25 14.473 20.25 14.4748C20.25 14.4765 20.25 14.4782 20.25 14.4799C20.25 14.4817 20.25 14.4834 20.25 14.4851C20.25 14.4868 20.25 14.4886 20.25 14.4903C20.25 14.492 20.25 14.4938 20.25 14.4955C20.25 14.4972 20.25 14.499 20.25 14.5007C20.25 14.5024 20.25 14.5042 20.25 14.5059C20.25 14.5076 20.25 14.5094 20.25 14.5111C20.25 14.5128 20.25 14.5146 20.25 14.5163C20.25 14.5181 20.25 14.5198 20.25 14.5216C20.25 14.5233 20.25 14.525 20.25 14.5268C20.25 14.5285 20.25 14.5303 20.25 14.532C20.25 14.5338 20.25 14.5355 20.25 14.5373C20.25 14.539 20.25 14.5408 20.25 14.5425C20.25 14.5443 20.25 14.546 20.25 14.5478C20.25 14.5495 20.25 14.5513 20.25 14.5531C20.25 14.5548 20.25 14.5566 20.25 14.5583C20.25 14.5601 20.25 14.5619 20.25 14.5636C20.25 14.5654 20.25 14.5671 20.25 14.5689C20.25 14.5707 20.25 14.5724 20.25 14.5742C20.25 14.576 20.25 14.5777 20.25 14.5795C20.25 14.5813 20.25 14.583 20.25 14.5848C20.25 14.5866 20.25 14.5883 20.25 14.5901C20.25 14.5919 20.25 14.5937 20.25 14.5954C20.25 14.5972 20.25 14.599 20.25 14.6008C20.25 14.6025 20.25 14.6043 20.25 14.6061C20.25 14.6079 20.25 14.6097 20.25 14.6114C20.25 14.6132 20.25 14.615 20.25 14.6168C20.25 14.6186 20.25 14.6204 20.25 14.6221C20.25 14.6239 20.25 14.6257 20.25 14.6275C20.25 14.6293 20.25 14.6311 20.25 14.6329C20.25 14.6347 20.25 14.6364 20.25 14.6382C20.25 14.64 20.25 14.6418 20.25 14.6436C20.25 14.6454 20.25 14.6472 20.25 14.649C20.25 14.6508 20.25 14.6526 20.25 14.6544C20.25 14.6562 20.25 14.658 20.25 14.6598C20.25 14.6616 20.25 14.6634 20.25 14.6652C20.25 14.667 20.25 14.6688 20.25 14.6706C20.25 14.6724 20.25 14.6742 20.25 14.676C20.25 14.6778 20.25 14.6796 20.25 14.6814C20.25 14.6833 20.25 14.6851 20.25 14.6869C20.25 14.6887 20.25 14.6905 20.25 14.6923C20.25 14.6941 20.25 14.6959 20.25 14.6978C20.25 14.6996 20.25 14.7014 20.25 14.7032C20.25 14.705 20.25 14.7068 20.25 14.7087C20.25 14.7105 20.25 14.7123 20.25 14.7141C20.25 14.7159 20.25 14.7178 20.25 14.7196C20.25 14.7214 20.25 14.7232 20.25 14.7251C20.25 14.7269 20.25 14.7287 20.25 14.7305C20.25 14.7324 20.25 14.7342 20.25 14.736C20.25 14.7378 20.25 14.7397 20.25 14.7415C20.25 14.7433 20.25 14.7452 20.25 14.747C20.25 14.7488 20.25 14.7507 20.25 14.7525C20.25 14.7543 20.25 14.7562 20.25 14.758C20.25 14.7599 20.25 14.7617 20.25 14.7635C20.25 14.7654 20.25 14.7672 20.25 14.7691C20.25 14.7709 20.25 14.7727 20.25 14.7746C20.25 14.7764 20.25 14.7783 20.25 14.7801C20.25 14.782 20.25 14.7838 20.25 14.7857C20.25 14.7875 20.25 14.7894 20.25 14.7912C20.25 14.7931 20.25 14.7949 20.25 14.7968C20.25 14.7986 20.25 14.8005 20.25 14.8023C20.25 14.8042 20.25 14.806 20.25 14.8079C20.25 14.8097 20.25 14.8116 20.25 14.8134C20.25 14.8153 20.25 14.8172 20.25 14.819C20.25 14.8209 20.25 14.8227 20.25 14.8246C20.25 14.8265 20.25 14.8283 20.25 14.8302C20.25 14.8321 20.25 14.8339 20.25 14.8358C20.25 14.8376 20.25 14.8395 20.25 14.8414C20.25 14.8433 20.25 14.8451 20.25 14.847C20.25 14.8489 20.25 14.8507 20.25 14.8526C20.25 14.8545 20.25 14.8563 20.25 14.8582C20.25 14.8601 20.25 14.862 20.25 14.8638C20.25 14.8657 20.25 14.8676 20.25 14.8695C20.25 14.8713 20.25 14.8732 20.25 14.8751C20.25 14.877 20.25 14.8789 20.25 14.8807C20.25 14.8826 20.25 14.8845 20.25 14.8864C20.25 14.8883 20.25 14.8901 20.25 14.892C20.25 14.8939 20.25 14.8958 20.25 14.8977C20.25 14.8996 20.25 14.9015 20.25 14.9033C20.25 14.9052 20.25 14.9071 20.25 14.909C20.25 14.9109 20.25 14.9128 20.25 14.9147C20.25 14.9166 20.25 14.9185 20.25 14.9204C20.25 14.9223 20.25 14.9241 20.25 14.926C20.25 14.9279 20.25 14.9298 20.25 14.9317C20.25 14.9336 20.25 14.9355 20.25 14.9374C20.25 14.9393 20.25 14.9412 20.25 14.9431C20.25 14.945 20.25 14.9469 20.25 14.9488C20.25 14.9507 20.25 14.9526 20.25 14.9545C20.25 14.9564 20.25 14.9584 20.25 14.9603C20.25 14.9622 20.25 14.9641 20.25 14.966C20.25 14.9679 20.25 14.9698 20.25 14.9717C20.25 14.9736 20.25 14.9755 20.25 14.9774C20.25 14.9794 20.25 14.9813 20.25 14.9832C20.25 14.9851 20.25 14.987 20.25 14.9889C20.25 14.9908 20.25 14.9928 20.25 14.9947C20.25 14.9966 20.25 14.9985 20.25 15.0004C20.25 15.0023 20.25 15.0043 20.25 15.0062C20.25 15.0081 20.25 15.01 20.25 15.012C20.25 15.0139 20.25 15.0158 20.25 15.0177C20.25 15.0196 20.25 15.0216 20.25 15.0235C20.25 15.0254 20.25 15.0273 20.25 15.0293C20.25 15.0312 20.25 15.0331 20.25 15.0351C20.25 15.037 20.25 15.0389 20.25 15.0409C20.25 15.0428 20.25 15.0447 20.25 15.0466C20.25 15.0486 20.25 15.0505 20.25 15.0524C20.25 15.0544 20.25 15.0563 20.25 15.0583C20.25 15.0602 20.25 15.0621 20.25 15.0641C20.25 15.066 20.25 15.0679 20.25 15.0699C20.25 15.0718 20.25 15.0738 20.25 15.0757C20.25 15.0776 20.25 15.0796 20.25 15.0815C20.25 15.0835 20.25 15.0854 20.25 15.0874C20.25 15.0893 20.25 15.0913 20.25 15.0932C20.25 15.0951 20.25 15.0971 20.25 15.099C20.25 15.101 20.25 15.1029 20.25 15.1049C20.25 15.1068 20.25 15.1088 20.25 15.1107C20.25 15.1127 20.25 15.1146 20.25 15.1166C20.25 15.1185 20.25 15.1205 20.25 15.1225C20.25 15.1244 20.25 15.1264 20.25 15.1283C20.25 15.1303 20.25 15.1322 20.25 15.1342C20.25 15.1362 20.25 15.1381 20.25 15.1401C20.25 15.142 20.25 15.144 20.25 15.146C20.25 15.1479 20.25 15.1499 20.25 15.1518C20.25 15.1538 20.25 15.1558 20.25 15.1577C20.25 15.1597 20.25 15.1617 20.25 15.1636C20.25 15.1656 20.25 15.1676 20.25 15.1695C20.25 15.1715 20.25 15.1735 20.25 15.1754C20.25 15.1774 20.25 15.1794 20.25 15.1813C20.25 15.1833 20.25 15.1853 20.25 15.1873C20.25 15.1892 20.25 15.1912 20.25 15.1932C20.25 15.1952 20.25 15.1971 20.25 15.1991C20.25 15.2011 20.25 15.2031 20.25 15.205C20.25 15.207 20.25 15.209 20.25 15.211C20.25 15.2129 20.25 15.2149 20.25 15.2169C20.25 15.2189 20.25 15.2209 20.25 15.2228C20.25 15.2248 20.25 15.2268 20.25 15.2288C20.25 15.2308 20.25 15.2328 20.25 15.2347C20.25 15.2367 20.25 15.2387 20.25 15.2407C20.25 15.2427 20.25 15.2447 20.25 15.2467C20.25 15.2487 20.25 15.2506 20.25 15.2526C20.25 15.2546 20.25 15.2566 20.25 15.2586C20.25 15.2606 20.25 15.2626 20.25 15.2646C20.25 15.2666 20.25 15.2686 20.25 15.2706C20.25 15.2726 20.25 15.2745 20.25 15.2765C20.25 15.2785 20.25 15.2805 20.25 15.2825C20.25 15.2845 20.25 15.2865 20.25 15.2885C20.25 15.2905 20.25 15.2925 20.25 15.2945C20.25 15.2965 20.25 15.2985 20.25 15.3005C20.25 15.3025 20.25 15.3045 20.25 15.3065C20.25 15.3085 20.25 15.3105 20.25 15.3125C20.25 15.3145 20.25 15.3166 20.25 15.3186C20.25 15.3206 20.25 15.3226 20.25 15.3246C20.25 15.3266 20.25 15.3286 20.25 15.3306C20.25 15.3326 20.25 15.3346 20.25 15.3366C20.25 15.3386 20.25 15.3407 20.25 15.3427C20.25 15.3447 20.25 15.3467 20.25 15.3487C20.25 15.3507 20.25 15.3527 20.25 15.3547C20.25 15.3568 20.25 15.3588 20.25 15.3608C20.25 15.3628 20.25 15.3648 20.25 15.3668C20.25 15.3689 20.25 15.3709 20.25 15.3729C20.25 15.3749 20.25 15.3769 20.25 15.379C20.25 15.381 20.25 15.383 20.25 15.385C20.25 15.387 20.25 15.3891 20.25 15.3911C20.25 15.3931 20.25 15.3951 20.25 15.3972C20.25 15.3992 20.25 15.4012 20.25 15.4032C20.25 15.4053 20.25 15.4073 20.25 15.4093C20.25 15.4113 20.25 15.4134 20.25 15.4154C20.25 15.4174 20.25 15.4194 20.25 15.4215C20.25 15.4235 20.25 15.4255 20.25 15.4276C20.25 15.4296 20.25 15.4316 20.25 15.4337C20.25 15.4357 20.25 15.4377 20.25 15.4398C20.25 15.4418 20.25 15.4438 20.25 15.4459C20.25 15.4479 20.25 15.4499 20.25 15.452C20.25 15.454 20.25 15.456 20.25 15.4581C20.25 15.4601 20.25 15.4622 20.25 15.4642C20.25 15.4662 20.25 15.4683 20.25 15.4703C20.25 15.4724 20.25 15.4744 20.25 15.4764C20.25 15.4785 20.25 15.4805 20.25 15.4826C20.25 15.4846 20.25 15.4867 20.25 15.4887C20.25 15.4907 20.25 15.4928 20.25 15.4948C20.25 15.4969 20.25 15.4989 20.25 15.501C20.25 15.503 20.25 15.5051 20.25 15.5071C20.25 15.5092 20.25 15.5112 20.25 15.5133C20.25 15.5153 20.25 15.5174 20.25 15.5194C20.25 15.5215 20.25 15.5235 20.25 15.5256C20.25 15.5276 20.25 15.5297 20.25 15.5317C20.25 15.5338 20.25 15.5358 20.25 15.5379C20.25 15.5399 20.25 15.542 20.25 15.5441C20.25 15.5461 20.25 15.5482 20.25 15.5502C20.25 15.5523 20.25 15.5543 20.25 15.5564C20.25 15.5585 20.25 15.5605 20.25 15.5626C20.25 15.5646 20.25 15.5667 20.25 15.5688C20.25 15.5708 20.25 15.5729 20.25 15.5749C20.25 15.577 20.25 15.5791 20.25 15.5811C20.25 15.5832 20.25 15.5853 20.25 15.5873C20.25 15.5894 20.25 15.5915 20.25 15.5935C20.25 15.5956 20.25 15.5977 20.25 15.5997C20.25 15.6018 20.25 15.6039 20.25 15.6059C20.25 15.608 20.25 15.6101 20.25 15.6121C20.25 15.6142 20.25 15.6163 20.25 15.6183C20.25 15.6204 20.25 15.6225 20.25 15.6245C20.25 15.6266 20.25 15.6287 20.25 15.6308C20.25 15.6328 20.25 15.6349 20.25 15.637C20.25 15.6391 20.25 15.6411 20.25 15.6432C20.25 15.6453 20.25 15.6474 20.25 15.6494C20.25 15.6515 20.25 15.6536 20.25 15.6557C20.25 15.6577 20.25 15.6598 20.25 15.6619C20.25 15.664 20.25 15.6661 20.25 15.6681C20.25 15.6702 20.25 15.6723 20.25 15.6744C20.25 15.6765 20.25 15.6785 20.25 15.6806C20.25 15.6827 20.25 15.6848 20.25 15.6869C20.25 15.6889 20.25 15.691 20.25 15.6931C20.25 15.6952 20.25 15.6973 20.25 15.6994C20.25 15.7015 20.25 15.7035 20.25 15.7056C20.25 15.7077 20.25 15.7098 20.25 15.7119C20.25 15.714 20.25 15.7161 20.25 15.7182C20.25 15.7202 20.25 15.7223 20.25 15.7244C20.25 15.7265 20.25 15.7286 20.25 15.7307C20.25 15.7328 20.25 15.7349 20.25 15.737C20.25 15.7391 20.25 15.7411 20.25 15.7432C20.25 15.7453 20.25 15.7474 20.25 15.7495C20.25 15.7516 20.25 15.7537 20.25 15.7558C20.25 15.7579 20.25 15.76 20.25 15.7621C20.25 15.7642 20.25 15.7663 20.25 15.7684C20.25 15.7705 20.25 15.7726 20.25 15.7747C20.25 15.7768 20.25 15.7789 20.25 15.781C20.25 15.7831 20.25 15.7852 20.25 15.7873C20.25 15.7894 20.25 15.7915 20.25 15.7936C20.25 15.7957 20.25 15.7978 20.25 15.7999C20.25 15.802 20.25 15.8041 20.25 15.8062C20.25 15.8083 20.25 15.8104 20.25 15.8125C20.25 15.8146 20.25 15.8167 20.25 15.8188C20.25 15.8209 20.25 15.823 20.25 15.8251C20.25 15.8272 20.25 15.8293 20.25 15.8314C20.25 15.8335 20.25 15.8356 20.25 15.8378C20.25 15.8399 20.25 15.842 20.25 15.8441C20.25 15.8462 20.25 15.8483 20.25 15.8504C20.25 15.8525 20.25 15.8546 20.25 15.8567C20.25 15.8589 20.25 15.861 20.25 15.8631C20.25 15.8652 20.25 15.8673 20.25 15.8694C20.25 15.8715 20.25 15.8736 20.25 15.8758C20.25 15.8779 20.25 15.88 20.25 15.8821C20.25 15.8842 20.25 15.8863 20.25 15.8884C20.25 15.8906 20.25 15.8927 20.25 15.8948C20.25 15.8969 20.25 15.899 20.25 15.9011C20.25 15.9033 20.25 15.9054 20.25 15.9075C20.25 15.9096 20.25 15.9117 20.25 15.9138C20.25 15.916 20.25 15.9181 20.25 15.9202C20.25 15.9223 20.25 15.9244 20.25 15.9266C20.25 15.9287 20.25 15.9308 20.25 15.9329C20.25 15.9351 20.25 15.9372 20.25 15.9393C20.25 15.9414 20.25 15.9435 20.25 15.9457C20.25 15.9478 20.25 15.9499 20.25 15.952C20.25 15.9542 20.25 15.9563 20.25 15.9584C20.25 15.9605 20.25 15.9627 20.25 15.9648C20.25 15.9669 20.25 15.969 20.25 15.9712C20.25 15.9733 20.25 15.9754 20.25 15.9776C20.25 15.9797 20.25 15.9818 20.25 15.9839C20.25 15.9861 20.25 15.9882 20.25 15.9903C20.25 15.9925 20.25 15.9946 20.25 15.9967C20.25 15.9989 20.25 16.001 20.25 16.0031C20.25 16.0052 20.25 16.0074 20.25 16.0095C20.25 16.0116 20.25 16.0138 20.25 16.0159C20.25 16.018 20.25 16.0202 20.25 16.0223C20.25 16.0244 20.25 16.0266 20.25 16.0287C20.25 16.0308 20.25 16.033 20.25 16.0351C20.25 16.0372 20.25 16.0394 20.25 16.0415C20.25 16.0437 20.25 16.0458 20.25 16.0479C20.25 16.0501 20.25 16.0522 20.25 16.0543C20.25 16.0565 20.25 16.0586 20.25 16.0608C20.25 16.0629 20.25 16.065 20.25 16.0672C20.25 16.0693 20.25 16.0715 20.25 16.0736C20.25 16.0757 20.25 16.0779 20.25 16.08C20.25 16.0822 20.25 16.0843 20.25 16.0864C20.25 16.0886 20.25 16.0907 20.25 16.0929C20.25 16.095 20.25 16.0971 20.25 16.0993C20.25 16.1014 20.25 16.1036 20.25 16.1057C20.25 16.1079 20.25 16.11 20.25 16.1122C20.25 16.1143 20.25 16.1164 20.25 16.1186C20.25 16.1207 20.25 16.1229 20.25 16.125C20.25 16.1272 20.25 16.1293 20.25 16.1315C20.25 16.1336 20.25 16.1358 20.25 16.1379C20.25 16.1401 20.25 16.1422 20.25 16.1443C20.25 16.1465 20.25 16.1486 20.25 16.1508C20.25 16.1529 20.25 16.1551 20.25 16.1572C20.25 16.1594 20.25 16.1615 20.25 16.1637C20.25 16.1658 20.25 16.168 20.25 16.1701C20.25 16.1723 20.25 16.1744 20.25 16.1766C20.25 16.1787 20.25 16.1809 20.25 16.183C20.25 16.1852 20.25 16.1874 20.25 16.1895C20.25 16.1917 20.25 16.1938 20.25 16.196C20.25 16.1981 20.25 16.2003 20.25 16.2024C20.25 16.2046 20.25 16.2067 20.25 16.2089C20.25 16.211 20.25 16.2132 20.25 16.2154C20.25 16.2175 20.25 16.2197 20.25 16.2218C20.25 16.224 20.25 16.2261 20.25 16.2283C20.25 16.2304 20.25 16.2326 20.25 16.2348C20.25 16.2369 20.25 16.2391 20.25 16.2412C20.25 16.2434 20.25 16.2456 20.25 16.2477C20.25 16.2499 20.25 16.252 20.25 16.2542C20.25 16.2563 20.25 16.2585 20.25 16.2607C20.25 16.2628 20.25 16.265 20.25 16.2671C20.25 16.2693 20.25 16.2715 20.25 16.2736C20.25 16.2758 20.25 16.2779 20.25 16.2801C20.25 16.2823 20.25 16.2844 20.25 16.2866C20.25 16.2888 20.25 16.2909 20.25 16.2931C20.25 16.2952 20.25 16.2974 20.25 16.2996C20.25 16.3017 20.25 16.3039 20.25 16.3061C20.25 16.3082 20.25 16.3104 20.25 16.3126C20.25 16.3147 20.25 16.3169 20.25 16.319C20.25 16.3212 20.25 16.3234 20.25 16.3255C20.25 16.3277 20.25 16.3299 20.25 16.332C20.25 16.3342 20.25 16.3364 20.25 16.3385C20.25 16.3407 20.25 16.3429 20.25 16.345C20.25 16.3472 20.25 16.3494 20.25 16.3515C20.25 16.3537 20.25 16.3559 20.25 16.358C20.25 16.3602 20.25 16.3624 20.25 16.3645C20.25 16.3667 20.25 16.3689 20.25 16.371C20.25 16.3732 20.25 16.3754 20.25 16.3776C20.25 16.3797 20.25 16.3819 20.25 16.3841C20.25 16.3862 20.25 16.3884 20.25 16.3906C20.25 16.3927 20.25 16.3949 20.25 16.3971C20.25 16.3993 20.25 16.4014 20.25 16.4036C20.25 16.4058 20.25 16.4079 20.25 16.4101C20.25 16.4123 20.25 16.4145 20.25 16.4166C20.25 16.4188 20.25 16.421 20.25 16.4232C20.25 16.4253 20.25 16.4275 20.25 16.4297C20.25 16.4318 20.25 16.434 20.25 16.4362C20.25 16.4384 20.25 16.4405 20.25 16.4427C20.25 16.4449 20.25 16.4471 20.25 16.4492C20.25 16.4514 20.25 16.4536 20.25 16.4558C20.25 16.4579 20.25 16.4601 20.25 16.4623C20.25 16.4645 20.25 16.4666 20.25 16.4688C20.25 16.471 20.25 16.4732 20.25 16.4753C20.25 16.4775 20.25 16.4797 20.25 16.4819C20.25 16.484 20.25 16.4862 20.25 16.4884C20.25 16.4906 20.25 16.4927 20.25 16.4949C20.25 16.4971 20.25 16.4993 20.25 16.5015C20.25 16.5036 20.25 16.5058 20.25 16.508C20.25 16.5102 20.25 16.5123 20.25 16.5145C20.25 16.5167 20.25 16.5189 20.25 16.5211C20.25 16.5232 20.25 16.5254 20.25 16.5276C20.25 16.5298 20.25 16.532 20.25 16.5341C20.25 16.5363 20.25 16.5385 20.25 16.5407C20.25 16.5429 20.25 16.545 20.25 16.5472C20.25 16.5494 20.25 16.5516 20.25 16.5538C20.25 16.5559 20.25 16.5581 20.25 16.5603C20.25 16.5625 20.25 16.5647 20.25 16.5668C20.25 16.569 20.25 16.5712 20.25 16.5734C20.25 16.5756 20.25 16.5778 20.25 16.5799C20.25 16.5821 20.25 16.5843 20.25 16.5865C20.25 16.5887 20.25 16.5908 20.25 16.593C20.25 16.5952 20.25 16.5974 20.25 16.5996C20.25 16.6018 20.25 16.6039 20.25 16.6061C20.25 16.6083 20.25 16.6105 20.25 16.6127C20.25 16.6149 20.25 16.617 20.25 16.6192C20.25 16.6214 20.25 16.6236 20.25 16.6258C20.25 16.628 20.25 16.6301 20.25 16.6323C20.25 16.6345 20.25 16.6367 20.25 16.6389C20.25 16.6411 20.25 16.6432 20.25 16.6454C20.25 16.6476 20.25 16.6498 20.25 16.652C20.25 16.6542 20.25 16.6564 20.25 16.6585C20.25 16.6607 20.25 16.6629 20.25 16.6651C20.25 16.6673 20.25 16.6695 20.25 16.6717C20.25 16.6738 20.25 16.676 20.25 16.6782C20.25 16.6804 20.25 16.6826 20.25 16.6848C20.25 16.687 20.25 16.6891 20.25 16.6913C20.25 16.6935 20.25 16.6957 20.25 16.6979C20.25 16.7001 20.25 16.7023 20.25 16.7044C20.25 16.7066 20.25 16.7088 20.25 16.711C20.25 16.7132 20.25 16.7154 20.25 16.7176C20.25 16.7198 20.25 16.7219 20.25 16.7241C20.25 16.7263 20.25 16.7285 20.25 16.7307C20.25 16.7329 20.25 16.7351 20.25 16.7373C20.25 16.7394 20.25 16.7416 20.25 16.7438C20.25 16.746 20.25 16.7482 20.25 16.7504C20.25 16.7526 20.25 16.7548 20.25 16.7569C20.25 16.7591 20.25 16.7613 20.25 16.7635C20.25 16.7657 20.25 16.7679 20.25 16.7701C20.25 16.7723 20.25 16.7745 20.25 16.7766C20.25 16.7788 20.25 16.781 20.25 16.7832C20.25 16.7854 20.25 16.7876 20.25 16.7898C20.25 16.792 20.25 16.7942 20.25 16.7963C20.25 16.7985 20.25 16.8007 20.25 16.8029C20.25 16.8051 20.25 16.8073 20.25 16.8095C20.25 16.8117 20.25 16.8139 20.25 16.816C20.25 16.8182 20.25 16.8204 20.25 16.8226C20.25 16.8248 20.25 16.827 20.25 16.8292C20.25 16.8314 20.25 16.8336 20.25 16.8357C20.25 16.8379 20.25 16.8401 20.25 16.8423C20.25 16.8445 20.25 16.8467 20.25 16.8489C20.25 16.8511 20.25 16.8533 20.25 16.8555C20.25 16.8576 20.25 16.8598 20.25 16.862C20.25 16.8642 20.25 16.8664 20.25 16.8686C20.25 16.8708 20.25 16.873 20.25 16.8752C20.25 16.8774 20.25 16.8795 20.25 16.8817C20.25 16.8839 20.25 16.8861 20.25 16.8883C20.25 16.8905 20.25 16.8927 20.25 16.8949C20.25 16.8971 20.25 16.8993 20.25 16.9014C20.25 16.9036 20.25 16.9058 20.25 16.908C20.25 16.9102 20.25 16.9124 20.25 16.9146C20.25 16.9168 20.25 16.919 20.25 16.9212C20.25 16.9234 20.25 16.9255 20.25 16.9277C20.25 16.9299 20.25 16.9321 20.25 16.9343C20.25 16.9365 20.25 16.9387 20.25 16.9409C20.25 16.9431 20.25 16.9453 20.25 16.9474C20.25 16.9496 20.25 16.9518 20.25 16.954C20.25 16.9562 20.25 16.9584 20.25 16.9606C20.25 16.9628 20.25 16.965 20.25 16.9672C20.25 16.9693 20.25 16.9715 20.25 16.9737C20.25 16.9759 20.25 16.9781 20.25 16.9803C20.25 16.9825 20.25 16.9847 20.25 16.9869C20.25 16.9891 20.25 16.9912 20.25 16.9934C20.25 16.9956 20.25 16.9978 20.25 17H21.75C21.75 16.9978 21.75 16.9956 21.75 16.9934C21.75 16.9912 21.75 16.9891 21.75 16.9869C21.75 16.9847 21.75 16.9825 21.75 16.9803C21.75 16.9781 21.75 16.9759 21.75 16.9737C21.75 16.9715 21.75 16.9693 21.75 16.9672C21.75 16.965 21.75 16.9628 21.75 16.9606C21.75 16.9584 21.75 16.9562 21.75 16.954C21.75 16.9518 21.75 16.9496 21.75 16.9474C21.75 16.9453 21.75 16.9431 21.75 16.9409C21.75 16.9387 21.75 16.9365 21.75 16.9343C21.75 16.9321 21.75 16.9299 21.75 16.9277C21.75 16.9255 21.75 16.9234 21.75 16.9212C21.75 16.919 21.75 16.9168 21.75 16.9146C21.75 16.9124 21.75 16.9102 21.75 16.908C21.75 16.9058 21.75 16.9036 21.75 16.9014C21.75 16.8993 21.75 16.8971 21.75 16.8949C21.75 16.8927 21.75 16.8905 21.75 16.8883C21.75 16.8861 21.75 16.8839 21.75 16.8817C21.75 16.8795 21.75 16.8774 21.75 16.8752C21.75 16.873 21.75 16.8708 21.75 16.8686C21.75 16.8664 21.75 16.8642 21.75 16.862C21.75 16.8598 21.75 16.8576 21.75 16.8555C21.75 16.8533 21.75 16.8511 21.75 16.8489C21.75 16.8467 21.75 16.8445 21.75 16.8423C21.75 16.8401 21.75 16.8379 21.75 16.8357C21.75 16.8336 21.75 16.8314 21.75 16.8292C21.75 16.827 21.75 16.8248 21.75 16.8226C21.75 16.8204 21.75 16.8182 21.75 16.816C21.75 16.8139 21.75 16.8117 21.75 16.8095C21.75 16.8073 21.75 16.8051 21.75 16.8029C21.75 16.8007 21.75 16.7985 21.75 16.7963C21.75 16.7942 21.75 16.792 21.75 16.7898C21.75 16.7876 21.75 16.7854 21.75 16.7832C21.75 16.781 21.75 16.7788 21.75 16.7766C21.75 16.7745 21.75 16.7723 21.75 16.7701C21.75 16.7679 21.75 16.7657 21.75 16.7635C21.75 16.7613 21.75 16.7591 21.75 16.7569C21.75 16.7548 21.75 16.7526 21.75 16.7504C21.75 16.7482 21.75 16.746 21.75 16.7438C21.75 16.7416 21.75 16.7394 21.75 16.7373C21.75 16.7351 21.75 16.7329 21.75 16.7307C21.75 16.7285 21.75 16.7263 21.75 16.7241C21.75 16.7219 21.75 16.7198 21.75 16.7176C21.75 16.7154 21.75 16.7132 21.75 16.711C21.75 16.7088 21.75 16.7066 21.75 16.7044C21.75 16.7023 21.75 16.7001 21.75 16.6979C21.75 16.6957 21.75 16.6935 21.75 16.6913C21.75 16.6891 21.75 16.687 21.75 16.6848C21.75 16.6826 21.75 16.6804 21.75 16.6782C21.75 16.676 21.75 16.6738 21.75 16.6717C21.75 16.6695 21.75 16.6673 21.75 16.6651C21.75 16.6629 21.75 16.6607 21.75 16.6585C21.75 16.6564 21.75 16.6542 21.75 16.652C21.75 16.6498 21.75 16.6476 21.75 16.6454C21.75 16.6432 21.75 16.6411 21.75 16.6389C21.75 16.6367 21.75 16.6345 21.75 16.6323C21.75 16.6301 21.75 16.628 21.75 16.6258C21.75 16.6236 21.75 16.6214 21.75 16.6192C21.75 16.617 21.75 16.6149 21.75 16.6127C21.75 16.6105 21.75 16.6083 21.75 16.6061C21.75 16.6039 21.75 16.6018 21.75 16.5996C21.75 16.5974 21.75 16.5952 21.75 16.593C21.75 16.5908 21.75 16.5887 21.75 16.5865C21.75 16.5843 21.75 16.5821 21.75 16.5799C21.75 16.5778 21.75 16.5756 21.75 16.5734C21.75 16.5712 21.75 16.569 21.75 16.5668C21.75 16.5647 21.75 16.5625 21.75 16.5603C21.75 16.5581 21.75 16.5559 21.75 16.5538C21.75 16.5516 21.75 16.5494 21.75 16.5472C21.75 16.545 21.75 16.5429 21.75 16.5407C21.75 16.5385 21.75 16.5363 21.75 16.5341C21.75 16.532 21.75 16.5298 21.75 16.5276C21.75 16.5254 21.75 16.5232 21.75 16.5211C21.75 16.5189 21.75 16.5167 21.75 16.5145C21.75 16.5123 21.75 16.5102 21.75 16.508C21.75 16.5058 21.75 16.5036 21.75 16.5015C21.75 16.4993 21.75 16.4971 21.75 16.4949C21.75 16.4927 21.75 16.4906 21.75 16.4884C21.75 16.4862 21.75 16.484 21.75 16.4819C21.75 16.4797 21.75 16.4775 21.75 16.4753C21.75 16.4732 21.75 16.471 21.75 16.4688C21.75 16.4666 21.75 16.4645 21.75 16.4623C21.75 16.4601 21.75 16.4579 21.75 16.4558C21.75 16.4536 21.75 16.4514 21.75 16.4492C21.75 16.4471 21.75 16.4449 21.75 16.4427C21.75 16.4405 21.75 16.4384 21.75 16.4362C21.75 16.434 21.75 16.4318 21.75 16.4297C21.75 16.4275 21.75 16.4253 21.75 16.4232C21.75 16.421 21.75 16.4188 21.75 16.4166C21.75 16.4145 21.75 16.4123 21.75 16.4101C21.75 16.4079 21.75 16.4058 21.75 16.4036C21.75 16.4014 21.75 16.3993 21.75 16.3971C21.75 16.3949 21.75 16.3927 21.75 16.3906C21.75 16.3884 21.75 16.3862 21.75 16.3841C21.75 16.3819 21.75 16.3797 21.75 16.3776C21.75 16.3754 21.75 16.3732 21.75 16.371C21.75 16.3689 21.75 16.3667 21.75 16.3645C21.75 16.3624 21.75 16.3602 21.75 16.358C21.75 16.3559 21.75 16.3537 21.75 16.3515C21.75 16.3494 21.75 16.3472 21.75 16.345C21.75 16.3429 21.75 16.3407 21.75 16.3385C21.75 16.3364 21.75 16.3342 21.75 16.332C21.75 16.3299 21.75 16.3277 21.75 16.3255C21.75 16.3234 21.75 16.3212 21.75 16.319C21.75 16.3169 21.75 16.3147 21.75 16.3126C21.75 16.3104 21.75 16.3082 21.75 16.3061C21.75 16.3039 21.75 16.3017 21.75 16.2996C21.75 16.2974 21.75 16.2952 21.75 16.2931C21.75 16.2909 21.75 16.2888 21.75 16.2866C21.75 16.2844 21.75 16.2823 21.75 16.2801C21.75 16.2779 21.75 16.2758 21.75 16.2736C21.75 16.2715 21.75 16.2693 21.75 16.2671C21.75 16.265 21.75 16.2628 21.75 16.2607C21.75 16.2585 21.75 16.2563 21.75 16.2542C21.75 16.252 21.75 16.2499 21.75 16.2477C21.75 16.2456 21.75 16.2434 21.75 16.2412C21.75 16.2391 21.75 16.2369 21.75 16.2348C21.75 16.2326 21.75 16.2304 21.75 16.2283C21.75 16.2261 21.75 16.224 21.75 16.2218C21.75 16.2197 21.75 16.2175 21.75 16.2154C21.75 16.2132 21.75 16.211 21.75 16.2089C21.75 16.2067 21.75 16.2046 21.75 16.2024C21.75 16.2003 21.75 16.1981 21.75 16.196C21.75 16.1938 21.75 16.1917 21.75 16.1895C21.75 16.1874 21.75 16.1852 21.75 16.183C21.75 16.1809 21.75 16.1787 21.75 16.1766C21.75 16.1744 21.75 16.1723 21.75 16.1701C21.75 16.168 21.75 16.1658 21.75 16.1637C21.75 16.1615 21.75 16.1594 21.75 16.1572C21.75 16.1551 21.75 16.1529 21.75 16.1508C21.75 16.1486 21.75 16.1465 21.75 16.1443C21.75 16.1422 21.75 16.1401 21.75 16.1379C21.75 16.1358 21.75 16.1336 21.75 16.1315C21.75 16.1293 21.75 16.1272 21.75 16.125C21.75 16.1229 21.75 16.1207 21.75 16.1186C21.75 16.1164 21.75 16.1143 21.75 16.1122C21.75 16.11 21.75 16.1079 21.75 16.1057C21.75 16.1036 21.75 16.1014 21.75 16.0993C21.75 16.0971 21.75 16.095 21.75 16.0929C21.75 16.0907 21.75 16.0886 21.75 16.0864C21.75 16.0843 21.75 16.0822 21.75 16.08C21.75 16.0779 21.75 16.0757 21.75 16.0736C21.75 16.0715 21.75 16.0693 21.75 16.0672C21.75 16.065 21.75 16.0629 21.75 16.0608C21.75 16.0586 21.75 16.0565 21.75 16.0543C21.75 16.0522 21.75 16.0501 21.75 16.0479C21.75 16.0458 21.75 16.0437 21.75 16.0415C21.75 16.0394 21.75 16.0372 21.75 16.0351C21.75 16.033 21.75 16.0308 21.75 16.0287C21.75 16.0266 21.75 16.0244 21.75 16.0223C21.75 16.0202 21.75 16.018 21.75 16.0159C21.75 16.0138 21.75 16.0116 21.75 16.0095C21.75 16.0074 21.75 16.0052 21.75 16.0031C21.75 16.001 21.75 15.9989 21.75 15.9967C21.75 15.9946 21.75 15.9925 21.75 15.9903C21.75 15.9882 21.75 15.9861 21.75 15.9839C21.75 15.9818 21.75 15.9797 21.75 15.9776C21.75 15.9754 21.75 15.9733 21.75 15.9712C21.75 15.969 21.75 15.9669 21.75 15.9648C21.75 15.9627 21.75 15.9605 21.75 15.9584C21.75 15.9563 21.75 15.9542 21.75 15.952C21.75 15.9499 21.75 15.9478 21.75 15.9457C21.75 15.9435 21.75 15.9414 21.75 15.9393C21.75 15.9372 21.75 15.9351 21.75 15.9329C21.75 15.9308 21.75 15.9287 21.75 15.9266C21.75 15.9244 21.75 15.9223 21.75 15.9202C21.75 15.9181 21.75 15.916 21.75 15.9138C21.75 15.9117 21.75 15.9096 21.75 15.9075C21.75 15.9054 21.75 15.9033 21.75 15.9011C21.75 15.899 21.75 15.8969 21.75 15.8948C21.75 15.8927 21.75 15.8906 21.75 15.8884C21.75 15.8863 21.75 15.8842 21.75 15.8821C21.75 15.88 21.75 15.8779 21.75 15.8758C21.75 15.8736 21.75 15.8715 21.75 15.8694C21.75 15.8673 21.75 15.8652 21.75 15.8631C21.75 15.861 21.75 15.8589 21.75 15.8567C21.75 15.8546 21.75 15.8525 21.75 15.8504C21.75 15.8483 21.75 15.8462 21.75 15.8441C21.75 15.842 21.75 15.8399 21.75 15.8378C21.75 15.8356 21.75 15.8335 21.75 15.8314C21.75 15.8293 21.75 15.8272 21.75 15.8251C21.75 15.823 21.75 15.8209 21.75 15.8188C21.75 15.8167 21.75 15.8146 21.75 15.8125C21.75 15.8104 21.75 15.8083 21.75 15.8062C21.75 15.8041 21.75 15.802 21.75 15.7999C21.75 15.7978 21.75 15.7957 21.75 15.7936C21.75 15.7915 21.75 15.7894 21.75 15.7873C21.75 15.7852 21.75 15.7831 21.75 15.781C21.75 15.7789 21.75 15.7768 21.75 15.7747C21.75 15.7726 21.75 15.7705 21.75 15.7684C21.75 15.7663 21.75 15.7642 21.75 15.7621C21.75 15.76 21.75 15.7579 21.75 15.7558C21.75 15.7537 21.75 15.7516 21.75 15.7495C21.75 15.7474 21.75 15.7453 21.75 15.7432C21.75 15.7411 21.75 15.7391 21.75 15.737C21.75 15.7349 21.75 15.7328 21.75 15.7307C21.75 15.7286 21.75 15.7265 21.75 15.7244C21.75 15.7223 21.75 15.7202 21.75 15.7182C21.75 15.7161 21.75 15.714 21.75 15.7119C21.75 15.7098 21.75 15.7077 21.75 15.7056C21.75 15.7035 21.75 15.7015 21.75 15.6994C21.75 15.6973 21.75 15.6952 21.75 15.6931C21.75 15.691 21.75 15.6889 21.75 15.6869C21.75 15.6848 21.75 15.6827 21.75 15.6806C21.75 15.6785 21.75 15.6765 21.75 15.6744C21.75 15.6723 21.75 15.6702 21.75 15.6681C21.75 15.6661 21.75 15.664 21.75 15.6619C21.75 15.6598 21.75 15.6577 21.75 15.6557C21.75 15.6536 21.75 15.6515 21.75 15.6494C21.75 15.6474 21.75 15.6453 21.75 15.6432C21.75 15.6411 21.75 15.6391 21.75 15.637C21.75 15.6349 21.75 15.6328 21.75 15.6308C21.75 15.6287 21.75 15.6266 21.75 15.6245C21.75 15.6225 21.75 15.6204 21.75 15.6183C21.75 15.6163 21.75 15.6142 21.75 15.6121C21.75 15.6101 21.75 15.608 21.75 15.6059C21.75 15.6039 21.75 15.6018 21.75 15.5997C21.75 15.5977 21.75 15.5956 21.75 15.5935C21.75 15.5915 21.75 15.5894 21.75 15.5873C21.75 15.5853 21.75 15.5832 21.75 15.5811C21.75 15.5791 21.75 15.577 21.75 15.5749C21.75 15.5729 21.75 15.5708 21.75 15.5688C21.75 15.5667 21.75 15.5646 21.75 15.5626C21.75 15.5605 21.75 15.5585 21.75 15.5564C21.75 15.5543 21.75 15.5523 21.75 15.5502C21.75 15.5482 21.75 15.5461 21.75 15.5441C21.75 15.542 21.75 15.5399 21.75 15.5379C21.75 15.5358 21.75 15.5338 21.75 15.5317C21.75 15.5297 21.75 15.5276 21.75 15.5256C21.75 15.5235 21.75 15.5215 21.75 15.5194C21.75 15.5174 21.75 15.5153 21.75 15.5133C21.75 15.5112 21.75 15.5092 21.75 15.5071C21.75 15.5051 21.75 15.503 21.75 15.501C21.75 15.4989 21.75 15.4969 21.75 15.4948C21.75 15.4928 21.75 15.4907 21.75 15.4887C21.75 15.4867 21.75 15.4846 21.75 15.4826C21.75 15.4805 21.75 15.4785 21.75 15.4764C21.75 15.4744 21.75 15.4724 21.75 15.4703C21.75 15.4683 21.75 15.4662 21.75 15.4642C21.75 15.4622 21.75 15.4601 21.75 15.4581C21.75 15.456 21.75 15.454 21.75 15.452C21.75 15.4499 21.75 15.4479 21.75 15.4459C21.75 15.4438 21.75 15.4418 21.75 15.4398C21.75 15.4377 21.75 15.4357 21.75 15.4337C21.75 15.4316 21.75 15.4296 21.75 15.4276C21.75 15.4255 21.75 15.4235 21.75 15.4215C21.75 15.4194 21.75 15.4174 21.75 15.4154C21.75 15.4134 21.75 15.4113 21.75 15.4093C21.75 15.4073 21.75 15.4053 21.75 15.4032C21.75 15.4012 21.75 15.3992 21.75 15.3972C21.75 15.3951 21.75 15.3931 21.75 15.3911C21.75 15.3891 21.75 15.387 21.75 15.385C21.75 15.383 21.75 15.381 21.75 15.379C21.75 15.3769 21.75 15.3749 21.75 15.3729C21.75 15.3709 21.75 15.3689 21.75 15.3668C21.75 15.3648 21.75 15.3628 21.75 15.3608C21.75 15.3588 21.75 15.3568 21.75 15.3547C21.75 15.3527 21.75 15.3507 21.75 15.3487C21.75 15.3467 21.75 15.3447 21.75 15.3427C21.75 15.3407 21.75 15.3386 21.75 15.3366C21.75 15.3346 21.75 15.3326 21.75 15.3306C21.75 15.3286 21.75 15.3266 21.75 15.3246C21.75 15.3226 21.75 15.3206 21.75 15.3186C21.75 15.3166 21.75 15.3145 21.75 15.3125C21.75 15.3105 21.75 15.3085 21.75 15.3065C21.75 15.3045 21.75 15.3025 21.75 15.3005C21.75 15.2985 21.75 15.2965 21.75 15.2945C21.75 15.2925 21.75 15.2905 21.75 15.2885C21.75 15.2865 21.75 15.2845 21.75 15.2825C21.75 15.2805 21.75 15.2785 21.75 15.2765C21.75 15.2745 21.75 15.2726 21.75 15.2706C21.75 15.2686 21.75 15.2666 21.75 15.2646C21.75 15.2626 21.75 15.2606 21.75 15.2586C21.75 15.2566 21.75 15.2546 21.75 15.2526C21.75 15.2506 21.75 15.2487 21.75 15.2467C21.75 15.2447 21.75 15.2427 21.75 15.2407C21.75 15.2387 21.75 15.2367 21.75 15.2347C21.75 15.2328 21.75 15.2308 21.75 15.2288C21.75 15.2268 21.75 15.2248 21.75 15.2228C21.75 15.2209 21.75 15.2189 21.75 15.2169C21.75 15.2149 21.75 15.2129 21.75 15.211C21.75 15.209 21.75 15.207 21.75 15.205C21.75 15.2031 21.75 15.2011 21.75 15.1991C21.75 15.1971 21.75 15.1952 21.75 15.1932C21.75 15.1912 21.75 15.1892 21.75 15.1873C21.75 15.1853 21.75 15.1833 21.75 15.1813C21.75 15.1794 21.75 15.1774 21.75 15.1754C21.75 15.1735 21.75 15.1715 21.75 15.1695C21.75 15.1676 21.75 15.1656 21.75 15.1636C21.75 15.1617 21.75 15.1597 21.75 15.1577C21.75 15.1558 21.75 15.1538 21.75 15.1518C21.75 15.1499 21.75 15.1479 21.75 15.146C21.75 15.144 21.75 15.142 21.75 15.1401C21.75 15.1381 21.75 15.1362 21.75 15.1342C21.75 15.1322 21.75 15.1303 21.75 15.1283C21.75 15.1264 21.75 15.1244 21.75 15.1225C21.75 15.1205 21.75 15.1185 21.75 15.1166C21.75 15.1146 21.75 15.1127 21.75 15.1107C21.75 15.1088 21.75 15.1068 21.75 15.1049C21.75 15.1029 21.75 15.101 21.75 15.099C21.75 15.0971 21.75 15.0951 21.75 15.0932C21.75 15.0913 21.75 15.0893 21.75 15.0874C21.75 15.0854 21.75 15.0835 21.75 15.0815C21.75 15.0796 21.75 15.0776 21.75 15.0757C21.75 15.0738 21.75 15.0718 21.75 15.0699C21.75 15.0679 21.75 15.066 21.75 15.0641C21.75 15.0621 21.75 15.0602 21.75 15.0583C21.75 15.0563 21.75 15.0544 21.75 15.0524C21.75 15.0505 21.75 15.0486 21.75 15.0466C21.75 15.0447 21.75 15.0428 21.75 15.0409C21.75 15.0389 21.75 15.037 21.75 15.0351C21.75 15.0331 21.75 15.0312 21.75 15.0293C21.75 15.0273 21.75 15.0254 21.75 15.0235C21.75 15.0216 21.75 15.0196 21.75 15.0177C21.75 15.0158 21.75 15.0139 21.75 15.012C21.75 15.01 21.75 15.0081 21.75 15.0062C21.75 15.0043 21.75 15.0023 21.75 15.0004C21.75 14.9985 21.75 14.9966 21.75 14.9947C21.75 14.9928 21.75 14.9908 21.75 14.9889C21.75 14.987 21.75 14.9851 21.75 14.9832C21.75 14.9813 21.75 14.9794 21.75 14.9774C21.75 14.9755 21.75 14.9736 21.75 14.9717C21.75 14.9698 21.75 14.9679 21.75 14.966C21.75 14.9641 21.75 14.9622 21.75 14.9603C21.75 14.9584 21.75 14.9564 21.75 14.9545C21.75 14.9526 21.75 14.9507 21.75 14.9488C21.75 14.9469 21.75 14.945 21.75 14.9431C21.75 14.9412 21.75 14.9393 21.75 14.9374C21.75 14.9355 21.75 14.9336 21.75 14.9317C21.75 14.9298 21.75 14.9279 21.75 14.926C21.75 14.9241 21.75 14.9223 21.75 14.9204C21.75 14.9185 21.75 14.9166 21.75 14.9147C21.75 14.9128 21.75 14.9109 21.75 14.909C21.75 14.9071 21.75 14.9052 21.75 14.9033C21.75 14.9015 21.75 14.8996 21.75 14.8977C21.75 14.8958 21.75 14.8939 21.75 14.892C21.75 14.8901 21.75 14.8883 21.75 14.8864C21.75 14.8845 21.75 14.8826 21.75 14.8807C21.75 14.8789 21.75 14.877 21.75 14.8751C21.75 14.8732 21.75 14.8713 21.75 14.8695C21.75 14.8676 21.75 14.8657 21.75 14.8638C21.75 14.862 21.75 14.8601 21.75 14.8582C21.75 14.8563 21.75 14.8545 21.75 14.8526C21.75 14.8507 21.75 14.8489 21.75 14.847C21.75 14.8451 21.75 14.8433 21.75 14.8414C21.75 14.8395 21.75 14.8376 21.75 14.8358C21.75 14.8339 21.75 14.8321 21.75 14.8302C21.75 14.8283 21.75 14.8265 21.75 14.8246C21.75 14.8227 21.75 14.8209 21.75 14.819C21.75 14.8172 21.75 14.8153 21.75 14.8134C21.75 14.8116 21.75 14.8097 21.75 14.8079C21.75 14.806 21.75 14.8042 21.75 14.8023C21.75 14.8005 21.75 14.7986 21.75 14.7968C21.75 14.7949 21.75 14.7931 21.75 14.7912C21.75 14.7894 21.75 14.7875 21.75 14.7857C21.75 14.7838 21.75 14.782 21.75 14.7801C21.75 14.7783 21.75 14.7764 21.75 14.7746C21.75 14.7727 21.75 14.7709 21.75 14.7691C21.75 14.7672 21.75 14.7654 21.75 14.7635C21.75 14.7617 21.75 14.7599 21.75 14.758C21.75 14.7562 21.75 14.7543 21.75 14.7525C21.75 14.7507 21.75 14.7488 21.75 14.747C21.75 14.7452 21.75 14.7433 21.75 14.7415C21.75 14.7397 21.75 14.7378 21.75 14.736C21.75 14.7342 21.75 14.7324 21.75 14.7305C21.75 14.7287 21.75 14.7269 21.75 14.7251C21.75 14.7232 21.75 14.7214 21.75 14.7196C21.75 14.7178 21.75 14.7159 21.75 14.7141C21.75 14.7123 21.75 14.7105 21.75 14.7087C21.75 14.7068 21.75 14.705 21.75 14.7032C21.75 14.7014 21.75 14.6996 21.75 14.6978C21.75 14.6959 21.75 14.6941 21.75 14.6923C21.75 14.6905 21.75 14.6887 21.75 14.6869C21.75 14.6851 21.75 14.6833 21.75 14.6814C21.75 14.6796 21.75 14.6778 21.75 14.676C21.75 14.6742 21.75 14.6724 21.75 14.6706C21.75 14.6688 21.75 14.667 21.75 14.6652C21.75 14.6634 21.75 14.6616 21.75 14.6598C21.75 14.658 21.75 14.6562 21.75 14.6544C21.75 14.6526 21.75 14.6508 21.75 14.649C21.75 14.6472 21.75 14.6454 21.75 14.6436C21.75 14.6418 21.75 14.64 21.75 14.6382C21.75 14.6364 21.75 14.6347 21.75 14.6329C21.75 14.6311 21.75 14.6293 21.75 14.6275C21.75 14.6257 21.75 14.6239 21.75 14.6221C21.75 14.6204 21.75 14.6186 21.75 14.6168C21.75 14.615 21.75 14.6132 21.75 14.6114C21.75 14.6097 21.75 14.6079 21.75 14.6061C21.75 14.6043 21.75 14.6025 21.75 14.6008C21.75 14.599 21.75 14.5972 21.75 14.5954C21.75 14.5937 21.75 14.5919 21.75 14.5901C21.75 14.5883 21.75 14.5866 21.75 14.5848C21.75 14.583 21.75 14.5813 21.75 14.5795C21.75 14.5777 21.75 14.576 21.75 14.5742C21.75 14.5724 21.75 14.5707 21.75 14.5689C21.75 14.5671 21.75 14.5654 21.75 14.5636C21.75 14.5619 21.75 14.5601 21.75 14.5583C21.75 14.5566 21.75 14.5548 21.75 14.5531C21.75 14.5513 21.75 14.5495 21.75 14.5478C21.75 14.546 21.75 14.5443 21.75 14.5425C21.75 14.5408 21.75 14.539 21.75 14.5373C21.75 14.5355 21.75 14.5338 21.75 14.532C21.75 14.5303 21.75 14.5285 21.75 14.5268C21.75 14.525 21.75 14.5233 21.75 14.5216C21.75 14.5198 21.75 14.5181 21.75 14.5163C21.75 14.5146 21.75 14.5128 21.75 14.5111C21.75 14.5094 21.75 14.5076 21.75 14.5059C21.75 14.5042 21.75 14.5024 21.75 14.5007C21.75 14.499 21.75 14.4972 21.75 14.4955C21.75 14.4938 21.75 14.492 21.75 14.4903C21.75 14.4886 21.75 14.4868 21.75 14.4851C21.75 14.4834 21.75 14.4817 21.75 14.4799C21.75 14.4782 21.75 14.4765 21.75 14.4748C21.75 14.473 21.75 14.4713 21.75 14.4696C21.75 14.4679 21.75 14.4662 21.75 14.4644C21.75 14.4627 21.75 14.461 21.75 14.4593C21.75 14.4576 21.75 14.4559 21.75 14.4541C21.75 14.4524 21.75 14.4507 21.75 14.449C21.75 14.4473 21.75 14.4456 21.75 14.4439C21.75 14.4422 21.75 14.4405 21.75 14.4388C21.75 14.4371 21.75 14.4353 21.75 14.4336C21.75 14.4319 21.75 14.4302 21.75 14.4285C21.75 14.4268 21.75 14.4251 21.75 14.4234C21.75 14.4217 21.75 14.42 21.75 14.4183C21.75 14.4166 21.75 14.4149 21.75 14.4133C21.75 14.4116 21.75 14.4099 21.75 14.4082C21.75 14.4065 21.75 14.4048 21.75 14.4031C21.75 14.4014 21.75 14.3997 21.75 14.398C21.75 14.3963 21.75 14.3947 21.75 14.393C21.75 14.3913 21.75 14.3896 21.75 14.3879C21.75 14.3862 21.75 14.3846 21.75 14.3829C21.75 14.3812 21.75 14.3795 21.75 14.3778C21.75 14.3762 21.75 14.3745 21.75 14.3728C21.75 14.3711 21.75 14.3695 21.75 14.3678C21.75 14.3661 21.75 14.3644 21.75 14.3628C21.75 14.3611 21.75 14.3594 21.75 14.3578C21.75 14.3561 21.75 14.3544 21.75 14.3528C21.75 14.3511 21.75 14.3494 21.75 14.3478C21.75 14.3461 21.75 14.3445 21.75 14.3428C21.75 14.3411 21.75 14.3395 21.75 14.3378C21.75 14.3362 21.75 14.3345 21.75 14.3328C21.75 14.3312 21.75 14.3295 21.75 14.3279C21.75 14.3262 21.75 14.3246 21.75 14.3229C21.75 14.3213 21.75 14.3196 21.75 14.318C21.75 14.3163 21.75 14.3147 21.75 14.313C21.75 14.3114 21.75 14.3097 21.75 14.3081C21.75 14.3065 21.75 14.3048 21.75 14.3032C21.75 14.3015 21.75 14.2999 21.75 14.2983C21.75 14.2966 21.75 14.295 21.75 14.2934C21.75 14.2917 21.75 14.2901 21.75 14.2884C21.75 14.2868 21.75 14.2852 21.75 14.2836C21.75 14.2819 21.75 14.2803 21.75 14.2787C21.75 14.277 21.75 14.2754 21.75 14.2738C21.75 14.2722 21.75 14.2705 21.75 14.2689C21.75 14.2673 21.75 14.2657 21.75 14.264C21.75 14.2624 21.75 14.2608 21.75 14.2592C21.75 14.2576 21.75 14.256 21.75 14.2543C21.75 14.2527 21.75 14.2511 21.75 14.2495C21.75 14.2479 21.75 14.2463 21.75 14.2447C21.75 14.2431 21.75 14.2415 21.75 14.2398C21.75 14.2382 21.75 14.2366 21.75 14.235C21.75 14.2334 21.75 14.2318 21.75 14.2302C21.75 14.2286 21.75 14.227 21.75 14.2254C21.75 14.2238 21.75 14.2222 21.75 14.2206C21.75 14.219 21.75 14.2174 21.75 14.2158C21.75 14.2142 21.75 14.2126 21.75 14.2111C21.75 14.2095 21.75 14.2079 21.75 14.2063C21.75 14.2047 21.75 14.2031 21.75 14.2015C21.75 14.1999 21.75 14.1983 21.75 14.1968C21.75 14.1952 21.75 14.1936 21.75 14.192C21.75 14.1904 21.75 14.1889 21.75 14.1873C21.75 14.1857 21.75 14.1841 21.75 14.1825C21.75 14.181 21.75 14.1794 21.75 14.1778C21.75 14.1762 21.75 14.1747 21.75 14.1731C21.75 14.1715 21.75 14.17 21.75 14.1684C21.75 14.1668 21.75 14.1653 21.75 14.1637C21.75 14.1621 21.75 14.1606 21.75 14.159C21.75 14.1574 21.75 14.1559 21.75 14.1543C21.75 14.1528 21.75 14.1512 21.75 14.1496C21.75 14.1481 21.75 14.1465 21.75 14.145C21.75 14.1434 21.75 14.1419 21.75 14.1403C21.75 14.1388 21.75 14.1372 21.75 14.1357C21.75 14.1341 21.75 14.1326 21.75 14.131C21.75 14.1295 21.75 14.1279 21.75 14.1264C21.75 14.1248 21.75 14.1233 21.75 14.1218C21.75 14.1202 21.75 14.1187 21.75 14.1171C21.75 14.1156 21.75 14.1141 21.75 14.1125C21.75 14.111 21.75 14.1095 21.75 14.1079C21.75 14.1064 21.75 14.1049 21.75 14.1033C21.75 14.1018 21.75 14.1003 21.75 14.0988C21.75 14.0972 21.75 14.0957 21.75 14.0942C21.75 14.0927 21.75 14.0911 21.75 14.0896C21.75 14.0881 21.75 14.0866 21.75 14.085C21.75 14.0835 21.75 14.082 21.75 14.0805C21.75 14.079 21.75 14.0775 21.75 14.0759C21.75 14.0744 21.75 14.0729 21.75 14.0714C21.75 14.0699 21.75 14.0684 21.75 14.0669C21.75 14.0654 21.75 14.0639 21.75 14.0624C21.75 14.0609 21.75 14.0594 21.75 14.0579C21.75 14.0564 21.75 14.0549 21.75 14.0534C21.75 14.0519 21.75 14.0504 21.75 14.0489C21.75 14.0474 21.75 14.0459 21.75 14.0444C21.75 14.0429 21.75 14.0414 21.75 14.0399C21.75 14.0384 21.75 14.0369 21.75 14.0354C21.75 14.0339 21.75 14.0325 21.75 14.031C21.75 14.0295 21.75 14.028 21.75 14.0265C21.75 14.025 21.75 14.0236 21.75 14.0221C21.75 14.0206 21.75 14.0191 21.75 14.0176C21.75 14.0162 21.75 14.0147 21.75 14.0132C21.75 14.0118 21.75 14.0103 21.75 14.0088C21.75 14.0073 21.75 14.0059 21.75 14.0044C21.75 14.0029 21.75 14.0015 21.75 14H20.25ZM21 13.25C20.6789 13.25 20.3603 13.1281 20.1161 12.8839L19.0555 13.9445C19.5923 14.4814 20.2974 14.75 21 14.75V13.25ZM5 18.25C4.30964 18.25 3.75 17.6904 3.75 17H2.25C2.25 18.5188 3.48122 19.75 5 19.75V18.25ZM19 19.75C20.5188 19.75 21.75 18.5188 21.75 17H20.25C20.25 17.6904 19.6904 18.25 19 18.25V19.75ZM19 5.75C19.6904 5.75 20.25 6.30964 20.25 7H21.75C21.75 5.48122 20.5188 4.25 19 4.25V5.75ZM5 4.25C3.48122 4.25 2.25 5.48122 2.25 7H3.75C3.75 6.30964 4.30964 5.75 5 5.75V4.25Z" fill="#292929"/>
</svg>
