<svg width="24" height="24" viewBox="0 0 24 24" fill="none" xmlns="http://www.w3.org/2000/svg">
<path d="M16.7071 5.29289C16.3166 4.90237 15.6834 4.90237 15.2929 5.29289C14.9024 5.68342 14.9024 6.31658 15.2929 6.70711L16.7071 5.29289ZM19 9L19.7071 9.70711C20.0976 9.31658 20.0976 8.68342 19.7071 8.29289L19 9ZM15.2929 11.2929C14.9024 11.6834 14.9024 12.3166 15.2929 12.7071C15.6834 13.0976 16.3166 13.0976 16.7071 12.7071L15.2929 11.2929ZM19 18C19.5523 18 20 17.5523 20 17C20 16.4477 19.5523 16 19 16V18ZM15.2929 6.70711L18.2929 9.70711L19.7071 8.29289L16.7071 5.29289L15.2929 6.70711ZM18.2929 8.29289L15.2929 11.2929L16.7071 12.7071L19.7071 9.70711L18.2929 8.29289ZM19 8H8V10H19V8ZM3 13C3 15.7614 5.23858 18 8 18V16C6.34315 16 5 14.6569 5 13H3ZM8 8C5.23858 8 3 10.2386 3 13H5C5 11.3431 6.34315 10 8 10V8ZM19 16H8V18H19V16Z" fill="#292929"/>
</svg>
