<svg width="24" height="24" viewBox="0 0 24 24" fill="none" xmlns="http://www.w3.org/2000/svg">
<path d="M20 13V12C20 7.58172 16.4183 4 12 4C7.58172 4 4 7.58172 4 12V13" stroke="#242328" stroke-width="2" stroke-linecap="round"/>
<path d="M4 13V12H3V13H4ZM4 14H7V12H4V14ZM7 14V17H9V14H7ZM5 17V13H3V17H5ZM6 18C5.44772 18 5 17.5523 5 17H3C3 18.6569 4.34315 20 6 20V18ZM7 17C7 17.5523 6.55228 18 6 18V20C7.65685 20 9 18.6569 9 17H7ZM7 14H9C9 12.8954 8.10457 12 7 12V14Z" fill="#242328"/>
<path d="M20 13H21V12H20V13ZM17 14H20V12H17V14ZM19 13V17H21V13H19ZM17 17V14H15V17H17ZM18 18C17.4477 18 17 17.5523 17 17H15C15 18.6569 16.3431 20 18 20V18ZM19 17C19 17.5523 18.5523 18 18 18V20C19.6569 20 21 18.6569 21 17H19ZM17 12C15.8954 12 15 12.8954 15 14H17V14V12Z" fill="#242328"/>
</svg>
