<svg width="24" height="24" viewBox="0 0 24 24" fill="none" xmlns="http://www.w3.org/2000/svg">
<path fill-rule="evenodd" clip-rule="evenodd" d="M2.5 4C2.5 2.89543 3.39543 2 4.5 2C5.69469 2 6.76706 2.52376 7.5 3.35418C8.23295 2.52376 9.30531 2 10.5 2C11.6046 2 12.5 2.89543 12.5 4C12.5 4.72857 12.3052 5.41165 11.9649 6H13C13.5523 6 14 6.44772 14 7V8H18C20.7614 8 23 10.2386 23 13V17C23 18.354 22.1031 19.4984 20.871 19.8716C20.7325 20.3289 20.4826 20.7601 20.1213 21.1213C18.9497 22.2929 17.0503 22.2929 15.8787 21.1213C15.5514 20.7941 15.3156 20.4094 15.1711 20H13H8.8289C8.68444 20.4094 8.44855 20.7941 8.12132 21.1213C6.94975 22.2929 5.05025 22.2929 3.87868 21.1213C3.51745 20.7601 3.26752 20.3289 3.12904 19.8716C1.89694 19.4984 1 18.354 1 17V7C1 6.44772 1.44772 6 2 6H3.03513C2.69479 5.41165 2.5 4.72857 2.5 4ZM4.5 4C5.60457 4 6.5 4.89543 6.5 6C5.39543 6 4.5 5.10457 4.5 4ZM8.5 6C9.60457 6 10.5 5.10457 10.5 4C9.39543 4 8.5 4.89543 8.5 6ZM15.1711 18H14V10H18C19.6569 10 21 11.3431 21 13V17C21 17.2759 20.8883 17.5257 20.7075 17.7067C20.5645 17.4072 20.3691 17.1265 20.1213 16.8787C18.9497 15.7071 17.0503 15.7071 15.8787 16.8787C15.5514 17.2059 15.3156 17.5906 15.1711 18ZM5.29289 18.2929C5.68342 17.9024 6.31658 17.9024 6.70711 18.2929C6.90256 18.4884 7 18.7425 7 19C7 19.2575 6.90256 19.5116 6.70711 19.7071C6.31658 20.0976 5.68342 20.0976 5.29289 19.7071C5.09744 19.5117 5 19.2575 5 19C5 18.7425 5.09744 18.4883 5.29289 18.2929ZM17 19C17 18.7425 17.0974 18.4884 17.2929 18.2929C17.6834 17.9024 18.3166 17.9024 18.7071 18.2929C18.9026 18.4884 19 18.7425 19 19C19 19.2575 18.9026 19.5116 18.7071 19.7071C18.3166 20.0976 17.6834 20.0976 17.2929 19.7071C17.0974 19.5116 17 19.2575 17 19Z" fill="#292929"/>
</svg>
