<svg width="24" height="24" viewBox="0 0 24 24" fill="none" xmlns="http://www.w3.org/2000/svg">
<path fill-rule="evenodd" clip-rule="evenodd" d="M1 3C1 2.44772 1.44772 2 2 2H13C13.5523 2 14 2.44772 14 3V8H18C20.7614 8 23 10.2386 23 13V17C23 18.354 22.1031 19.4984 20.871 19.8716C20.7325 20.3289 20.4826 20.7601 20.1213 21.1213C18.9497 22.2929 17.0503 22.2929 15.8787 21.1213C15.5514 20.7941 15.3156 20.4094 15.1711 20H13H8.8289C8.68444 20.4094 8.44855 20.7941 8.12132 21.1213C6.94975 22.2929 5.05025 22.2929 3.87868 21.1213C3.51745 20.7601 3.26752 20.3289 3.12904 19.8716C1.89694 19.4984 1 18.354 1 17V13H2H7C7.55228 13 8 12.5523 8 12C8 11.4477 7.55228 11 7 11H2H1V9H2H5C5.55228 9 6 8.55228 6 8C6 7.44772 5.55228 7 5 7H2H1V3ZM14 18H15.1711C15.3156 17.5906 15.5514 17.2059 15.8787 16.8787C17.0503 15.7071 18.9497 15.7071 20.1213 16.8787C20.3691 17.1265 20.5645 17.4072 20.7075 17.7067C20.8883 17.5257 21 17.2759 21 17V13C21 11.3431 19.6569 10 18 10H14V18ZM7 19C7 18.7425 6.90256 18.4884 6.70711 18.2929C6.31658 17.9024 5.68342 17.9024 5.29289 18.2929C5.09744 18.4883 5 18.7425 5 19C5 19.2575 5.09744 19.5116 5.29289 19.7071C5.68342 20.0976 6.31658 20.0976 6.70711 19.7071C6.90256 19.5116 7 19.2575 7 19ZM17.2929 18.2929C17.0974 18.4884 17 18.7425 17 19C17 19.2575 17.0974 19.5116 17.2929 19.7071C17.6834 20.0976 18.3166 20.0976 18.7071 19.7071C18.9026 19.5116 19 19.2575 19 19C19 18.7425 18.9026 18.4884 18.7071 18.2929C18.3166 17.9024 17.6834 17.9024 17.2929 18.2929Z" fill="#292929"/>
</svg>
