<svg width="24" height="24" viewBox="0 0 24 24" fill="none" xmlns="http://www.w3.org/2000/svg">
<circle cx="12" cy="12" r="2" stroke="#292929" stroke-width="2.5"/>
<path d="M5.39855 5.87919L6.02355 4.79666C5.51848 4.50505 4.87887 4.60147 4.48221 5.02901L5.39855 5.87919ZM3.4006 9.34458L2.20616 8.97605C2.03421 9.53335 2.27051 10.1355 2.7756 10.4271L3.4006 9.34458ZM3.39889 14.6564L2.77389 13.5739C2.26832 13.8657 2.03212 14.4687 2.20489 15.0263L3.39889 14.6564ZM5.39888 18.1205L4.48149 18.9696C4.87802 19.398 5.51831 19.4949 6.02388 19.203L5.39888 18.1205ZM9.99994 20.775L8.74994 20.775C8.74994 21.3582 9.15326 21.8639 9.72187 21.9937L9.99994 20.775ZM14 20.7774L14.2781 21.9961C14.8467 21.8663 15.25 21.3606 15.25 20.7774L14 20.7774ZM18.6014 18.1208L17.9764 19.2033C18.4815 19.4949 19.1211 19.3985 19.5178 18.971L18.6014 18.1208ZM20.5994 14.6554L21.7938 15.0239C21.9658 14.4666 21.7295 13.8645 21.2244 13.5729L20.5994 14.6554ZM20.6011 9.34352L21.2261 10.426C21.7316 10.1342 21.9679 9.53119 21.7951 8.97356L20.6011 9.34352ZM18.6011 5.87941L19.5184 5.03036C19.1219 4.60191 18.4816 4.50499 17.9761 4.79688L18.6011 5.87941ZM14 3.22499L15.25 3.22499C15.25 2.64176 14.8467 2.13605 14.2781 2.00631L14 3.22499ZM9.99994 3.22257L9.72183 2.0039C9.15324 2.13366 8.74994 2.63937 8.74994 3.22257L9.99994 3.22257ZM14 5.07172L12.75 5.07172L14 5.07172ZM19 13.732L18.375 14.8145L19 13.732ZM17 17.1962L16.375 18.2787L17 17.1962ZM4.99991 13.732L5.62491 14.8146L4.99991 13.732ZM6.99994 6.80375L6.37494 7.88628L6.99994 6.80375ZM4.59504 9.7131C4.93396 8.61462 5.51554 7.59094 6.3149 6.72937L4.48221 5.02901C3.4221 6.17162 2.65344 7.52638 2.20616 8.97605L4.59504 9.7131ZM5.2883 15.875C4.99145 15.3608 4.76075 14.8282 4.59289 14.2864L2.20489 15.0263C2.42746 15.7447 2.73268 16.4485 3.12323 17.125L5.2883 15.875ZM6.31628 17.2715C5.93106 16.8552 5.58514 16.3891 5.2883 15.875L3.12323 17.125C3.51377 17.8014 3.9707 18.4177 4.48149 18.9696L6.31628 17.2715ZM13.7219 19.5587C12.5761 19.8202 11.3988 19.812 10.278 19.5563L9.72187 21.9937C11.201 22.3311 12.7585 22.3428 14.2781 21.9961L13.7219 19.5587ZM19.4049 14.2869C19.066 15.3854 18.4844 16.409 17.6851 17.2706L19.5178 18.971C20.5779 17.8284 21.3465 16.4736 21.7938 15.0239L19.4049 14.2869ZM18.7117 8.12498C19.0085 8.63912 19.2392 9.17175 19.4071 9.71348L21.7951 8.97356C21.5725 8.25525 21.2673 7.55142 20.8768 6.87498L18.7117 8.12498ZM17.6837 6.72847C18.0689 7.14471 18.4148 7.61083 18.7117 8.12498L20.8768 6.87498C20.4862 6.19853 20.0293 5.58227 19.5184 5.03036L17.6837 6.72847ZM10.278 4.44124C11.4239 4.17976 12.6012 4.18794 13.722 4.44366L14.2781 2.00631C12.799 1.66882 11.2414 1.65713 9.72183 2.0039L10.278 4.44124ZM11.2499 5.0717L11.2499 3.22257L8.74994 3.22257L8.74994 5.0717L11.2499 5.0717ZM7.62494 5.72122L6.02355 4.79666L4.77355 6.96172L6.37494 7.88628L7.62494 5.72122ZM4.37491 12.6495L2.77389 13.5739L4.02389 15.7389L5.62491 14.8146L4.37491 12.6495ZM5.62491 9.18541L4.0256 8.26205L2.7756 10.4271L4.37491 11.3505L5.62491 9.18541ZM11.2499 20.775L11.2499 18.9282L8.74994 18.9282L8.74994 20.775L11.2499 20.775ZM6.37494 16.1136L4.77388 17.038L6.02388 19.203L7.62494 18.2787L6.37494 16.1136ZM19.2264 17.0382L17.625 16.1137L16.375 18.2787L17.9764 19.2033L19.2264 17.0382ZM15.25 20.7774L15.25 18.9283L12.75 18.9283L12.75 20.7774L15.25 20.7774ZM19.9761 8.26099L18.375 9.18536L19.625 11.3504L21.2261 10.426L19.9761 8.26099ZM21.2244 13.5729L19.625 12.6495L18.375 14.8145L19.9744 15.7379L21.2244 13.5729ZM15.25 5.07172L15.25 3.22499L12.75 3.22499L12.75 5.07172L15.25 5.07172ZM17.9761 4.79688L16.375 5.72124L17.625 7.8863L19.2261 6.96195L17.9761 4.79688ZM12.75 5.07172C12.75 7.57357 15.4584 9.13723 17.625 7.8863L16.375 5.72124C15.875 6.00991 15.25 5.64907 15.25 5.07172L12.75 5.07172ZM18.375 9.18536C16.2083 10.4363 16.2083 13.5636 18.375 14.8145L19.625 12.6495C19.125 12.3608 19.125 11.6391 19.625 11.3504L18.375 9.18536ZM17.625 16.1137C15.4584 14.8628 12.75 16.4264 12.75 18.9283L15.25 18.9283C15.25 18.3509 15.875 17.9901 16.375 18.2787L17.625 16.1137ZM11.2499 18.9282C11.2499 16.4263 8.5416 14.8627 6.37494 16.1136L7.62494 18.2787C8.12494 17.99 8.74994 18.3508 8.74994 18.9282L11.2499 18.9282ZM5.62491 14.8146C7.79158 13.5636 7.79158 10.4363 5.62491 9.18541L4.37491 11.3505C4.87491 11.6391 4.87491 12.3608 4.37491 12.6495L5.62491 14.8146ZM8.74994 5.0717C8.74994 5.64905 8.12494 6.00989 7.62494 5.72122L6.37494 7.88628C8.5416 9.1372 11.2499 7.57355 11.2499 5.0717L8.74994 5.0717Z" fill="#292929"/>
</svg>
