<svg width="24" height="24" viewBox="0 0 24 24" fill="none" xmlns="http://www.w3.org/2000/svg">
<path d="M12 3L12.4924 1.85107C12.178 1.71631 11.822 1.71631 11.5076 1.85107L12 3ZM12 21L11.3798 22.0853C11.7641 22.3049 12.2359 22.3049 12.6202 22.0853L12 21ZM18.3939 5.74025L17.9015 6.88918L18.3939 5.74025ZM8.02317 18.7275L7.40299 19.8128L8.02317 18.7275ZM11.5076 1.85107L5.11368 4.59132L6.09848 6.88918L12.4924 4.14893L11.5076 1.85107ZM3.75 6.6594V13.5181H6.25V6.6594H3.75ZM7.40299 19.8128L11.3798 22.0853L12.6202 19.9147L8.64334 17.6422L7.40299 19.8128ZM12.6202 22.0853L16.597 19.8128L15.3567 17.6422L11.3798 19.9147L12.6202 22.0853ZM20.25 13.5181V6.6594H17.75V13.5181H20.25ZM18.8863 4.59132L12.4924 1.85107L11.5076 4.14893L17.9015 6.88918L18.8863 4.59132ZM20.25 6.6594C20.25 5.75933 19.7136 4.94587 18.8863 4.59132L17.9015 6.88918C17.8096 6.84979 17.75 6.7594 17.75 6.6594H20.25ZM16.597 19.8128C18.8559 18.522 20.25 16.1198 20.25 13.5181H17.75C17.75 15.2226 16.8366 16.7965 15.3567 17.6422L16.597 19.8128ZM3.75 13.5181C3.75 16.1198 5.14407 18.522 7.40299 19.8128L8.64334 17.6422C7.16336 16.7965 6.25 15.2226 6.25 13.5181H3.75ZM5.11368 4.59132C4.28639 4.94587 3.75 5.75933 3.75 6.6594H6.25C6.25 6.7594 6.1904 6.84979 6.09848 6.88918L5.11368 4.59132Z" fill="#292929"/>
</svg>
