<svg width="24" height="24" viewBox="0 0 24 24" fill="none" xmlns="http://www.w3.org/2000/svg">
<path d="M12 2L13.1351 1.47644C12.9308 1.03361 12.4877 0.75 12 0.75C11.5123 0.75 11.0692 1.03361 10.8649 1.47644L12 2ZM15.1035 8.72839L13.9684 9.25195C14.1505 9.64671 14.5246 9.91851 14.9563 9.9697L15.1035 8.72839ZM22.4616 9.60081L23.3103 10.5185C23.6684 10.1874 23.8012 9.67834 23.6505 9.21454C23.4998 8.75074 23.0931 8.41693 22.6088 8.35951L22.4616 9.60081ZM18.4656 21.8992L17.8551 22.9899C18.2806 23.2281 18.8058 23.1971 19.2004 22.9105C19.5949 22.6238 19.7867 22.1339 19.6917 21.6556L18.4656 21.8992ZM12 18.28L12.6106 17.1893C12.2312 16.9769 11.7688 16.9769 11.3895 17.1893L12 18.28ZM5.53437 21.8992L4.30834 21.6556C4.2133 22.1339 4.40511 22.6238 4.79964 22.9105C5.19418 23.1971 5.71939 23.2281 6.14493 22.9899L5.53437 21.8992ZM6.97843 14.6316L8.20447 14.8752C8.28919 14.4488 8.14629 14.009 7.82712 13.7139L6.97843 14.6316ZM1.53839 9.60081L1.39121 8.35951C0.906937 8.41693 0.500269 8.75074 0.349571 9.21454C0.198872 9.67834 0.331663 10.1874 0.689701 10.5185L1.53839 9.60081ZM8.8935 9.9875C9.57905 9.90622 10.0689 9.28457 9.98762 8.59902C9.90634 7.91347 9.2847 7.42361 8.59914 7.50489L8.8935 9.9875ZM18.8402 17.3705C18.7057 16.6934 18.0477 16.2535 17.3706 16.3881C16.6935 16.5226 16.2536 17.1806 16.3882 17.8577L18.8402 17.3705ZM9.49405 4.44853C9.2049 5.07541 9.47868 5.818 10.1056 6.10715C10.7324 6.39631 11.475 6.12252 11.7642 5.49564L9.49405 4.44853ZM17.8703 12.1442C17.3634 12.6129 17.3325 13.4038 17.8012 13.9106C18.27 14.4175 19.0608 14.4484 19.5677 13.9797L17.8703 12.1442ZM10.8649 2.52356L13.9684 9.25195L16.2386 8.20483L13.1351 1.47644L10.8649 2.52356ZM14.9563 9.9697L22.3145 10.8421L22.6088 8.35951L15.2507 7.48709L14.9563 9.9697ZM19.0762 20.8084L12.6106 17.1893L11.3895 19.3707L17.8551 22.9899L19.0762 20.8084ZM11.3895 17.1893L4.92382 20.8084L6.14493 22.9899L12.6106 19.3707L11.3895 17.1893ZM6.76041 22.1428L8.20447 14.8752L5.7524 14.388L4.30834 21.6556L6.76041 22.1428ZM7.82712 13.7139L2.38708 8.68308L0.689701 10.5185L6.12974 15.5493L7.82712 13.7139ZM1.68557 10.8421L8.8935 9.9875L8.59914 7.50489L1.39121 8.35951L1.68557 10.8421ZM16.3882 17.8577L17.2396 22.1428L19.6917 21.6556L18.8402 17.3705L16.3882 17.8577ZM11.7642 5.49564L13.1351 2.52356L10.8649 1.47644L9.49405 4.44853L11.7642 5.49564ZM21.6129 8.68308L17.8703 12.1442L19.5677 13.9797L23.3103 10.5185L21.6129 8.68308Z" fill="#292929"/>
<path d="M4.00012 4L20.0001 20" stroke="#292929" stroke-width="2.5" stroke-linecap="round"/>
</svg>
