<svg width="24" height="24" viewBox="0 0 24 24" fill="none" xmlns="http://www.w3.org/2000/svg">
<path d="M12 18.28L18.4656 21.8992L17.6142 17.6141L8.74632 8.7462L1.53839 9.60081L6.97843 14.6316L5.53437 21.8992L12 18.28Z" fill="#FFC800"/>
<path d="M12 2L12.9081 1.58115C12.7447 1.22689 12.3901 1 12 1C11.6099 1 11.2554 1.22689 11.092 1.58115L12 2ZM15.1035 8.72839L14.1955 9.14724C14.3411 9.46304 14.6404 9.68049 14.9858 9.72144L15.1035 8.72839ZM22.4616 9.60081L23.1406 10.335C23.427 10.0701 23.5332 9.66284 23.4127 9.2918C23.2921 8.92075 22.9668 8.6537 22.5794 8.60777L22.4616 9.60081ZM18.4656 21.8992L17.9772 22.7718C18.3176 22.9623 18.7378 22.9375 19.0534 22.7082C19.3691 22.4789 19.5225 22.087 19.4465 21.7043L18.4656 21.8992ZM12 18.28L12.4885 17.4074C12.185 17.2375 11.815 17.2375 11.5116 17.4074L12 18.28ZM5.53437 21.8992L4.55355 21.7043C4.47752 22.087 4.63096 22.4789 4.94659 22.7082C5.26222 22.9375 5.68239 22.9623 6.02282 22.7718L5.53437 21.8992ZM6.97843 14.6316L7.95926 14.8265C8.02704 14.4854 7.91272 14.1336 7.65739 13.8974L6.97843 14.6316ZM1.53839 9.60081L1.42065 8.60777C1.03323 8.6537 0.707893 8.92075 0.587335 9.2918C0.466776 9.66284 0.573009 10.0701 0.859439 10.335L1.53839 9.60081ZM8.74632 8.7462L9.45343 8.03909L9.11036 7.69603L8.62858 7.75315L8.74632 8.7462ZM17.6142 17.6141L18.595 17.4192L18.5359 17.1216L18.3213 16.907L17.6142 17.6141ZM9.72107 4.55324C9.48974 5.05474 9.70877 5.64882 10.2103 5.88014C10.7118 6.11146 11.3059 5.89244 11.5372 5.39093L9.72107 4.55324ZM18.04 12.3277C17.6345 12.7027 17.6098 13.3354 17.9848 13.7409C18.3598 14.1464 18.9924 14.1711 19.3979 13.7961L18.04 12.3277ZM11.092 2.41885L14.1955 9.14724L16.0116 8.30954L12.9081 1.58115L11.092 2.41885ZM14.9858 9.72144L22.3439 10.5939L22.5794 8.60777L15.2213 7.73535L14.9858 9.72144ZM18.9541 21.0266L12.4885 17.4074L11.5116 19.1526L17.9772 22.7718L18.9541 21.0266ZM11.5116 17.4074L5.04593 21.0266L6.02282 22.7718L12.4885 19.1526L11.5116 17.4074ZM6.5152 22.0941L7.95926 14.8265L5.99761 14.4367L4.55355 21.7043L6.5152 22.0941ZM7.65739 13.8974L2.21734 8.86663L0.859439 10.335L6.29948 15.3658L7.65739 13.8974ZM1.65613 10.5939L8.86406 9.73924L8.62858 7.75315L1.42065 8.60777L1.65613 10.5939ZM16.6334 17.809L17.4848 22.0941L19.4465 21.7043L18.595 17.4192L16.6334 17.809ZM8.03921 9.4533L16.9071 18.3212L18.3213 16.907L9.45343 8.03909L8.03921 9.4533ZM11.5372 5.39093L12.9081 2.41885L11.092 1.58115L9.72107 4.55324L11.5372 5.39093ZM21.7827 8.86663L18.04 12.3277L19.3979 13.7961L23.1406 10.335L21.7827 8.86663Z" fill="#FFC800"/>
<path d="M4.00012 4L20.0001 20" stroke="#CD7900" stroke-width="2" stroke-linecap="round"/>
</svg>
