<svg width="24" height="24" viewBox="0 0 24 24" fill="none" xmlns="http://www.w3.org/2000/svg">
<path d="M5 16H19V19C19 20.1046 18.1046 21 17 21H7C5.89543 21 5 20.1046 5 19V16Z" stroke="#242328" stroke-linejoin="round"/>
<path d="M4 7H20V14C20 15.1046 19.1046 16 18 16H6C4.89543 16 4 15.1046 4 14V7Z" stroke="#242328" stroke-linejoin="round"/>
<path d="M11 12.5C11 11.9477 11.4477 11.5 12 11.5C12.5523 11.5 13 11.9477 13 12.5C13 13.0523 12.5523 13.5 12 13.5C11.4477 13.5 11 13.0523 11 12.5Z" fill="#242328"/>
<path d="M9 5C9 3.89543 9.89543 3 11 3H13C14.1046 3 15 3.89543 15 5V7H9V5Z" stroke="#242328" stroke-linejoin="round"/>
</svg>
