<svg width="24" height="24" viewBox="0 0 24 24" fill="none" xmlns="http://www.w3.org/2000/svg">
<path d="M10.7302 5.07319C11.1449 5.02485 11.5685 5 12 5C16.664 5 20.3999 7.90264 22 12C21.6054 13.0104 21.0809 13.9482 20.4447 14.7877M6.51962 6.51944C4.47955 7.76406 2.90111 9.69259 2 12C3.60014 16.0974 7.33603 19 12 19C14.0376 19 15.898 18.446 17.4806 17.4804M9.87877 9.87859C9.33582 10.4215 9 11.1715 9 12C9 13.6569 10.3431 15 12 15C12.8285 15 13.5785 14.6642 14.1214 14.1212" stroke="#242328" stroke-linecap="round" stroke-linejoin="round"/>
<path d="M4 4L20 20" stroke="#242328" stroke-linecap="round"/>
</svg>
