<svg width="24" height="24" viewBox="0 0 24 24" fill="none" xmlns="http://www.w3.org/2000/svg">
<path d="M20.5 10C20.5 9.72386 20.2761 9.5 20 9.5C19.7239 9.5 19.5 9.72386 19.5 10H20.5ZM4.5 10C4.5 9.72386 4.27614 9.5 4 9.5C3.72386 9.5 3.5 9.72386 3.5 10H4.5ZM21.6464 12.3536C21.8417 12.5488 22.1583 12.5488 22.3536 12.3536C22.5488 12.1583 22.5488 11.8417 22.3536 11.6464L21.6464 12.3536ZM12 2L12.3536 1.64645C12.1583 1.45118 11.8417 1.45118 11.6464 1.64645L12 2ZM1.64645 11.6464C1.45118 11.8417 1.45118 12.1583 1.64645 12.3536C1.84171 12.5488 2.15829 12.5488 2.35355 12.3536L1.64645 11.6464ZM6 20.5H18V19.5H6V20.5ZM20.5 18V10H19.5V18H20.5ZM4.5 18V10H3.5V18H4.5ZM22.3536 11.6464L12.3536 1.64645L11.6464 2.35355L21.6464 12.3536L22.3536 11.6464ZM11.6464 1.64645L1.64645 11.6464L2.35355 12.3536L12.3536 2.35355L11.6464 1.64645ZM18 20.5C19.3807 20.5 20.5 19.3807 20.5 18H19.5C19.5 18.8284 18.8284 19.5 18 19.5V20.5ZM6 19.5C5.17157 19.5 4.5 18.8284 4.5 18H3.5C3.5 19.3807 4.61929 20.5 6 20.5V19.5Z" fill="#242328"/>
</svg>
