<svg width="24" height="24" viewBox="0 0 24 24" fill="none" xmlns="http://www.w3.org/2000/svg">
<path d="M8 10V7C8 4.79086 9.79086 3 12 3C14.2091 3 16 4.79086 16 7V10" stroke="#242328" stroke-linecap="round"/>
<path d="M5 10H19V19C19 20.1046 18.1046 21 17 21H7C5.89543 21 5 20.1046 5 19V10Z" stroke="#242328" stroke-linejoin="round"/>
<path d="M13.5 15.5C13.5 14.9477 13.9477 14.5 14.5 14.5C15.0523 14.5 15.5 14.9477 15.5 15.5C15.5 16.0523 15.0523 16.5 14.5 16.5C13.9477 16.5 13.5 16.0523 13.5 15.5Z" fill="#242328"/>
</svg>
