<svg width="24" height="24" viewBox="0 0 24 24" fill="none" xmlns="http://www.w3.org/2000/svg">
<path d="M4 4L20 20" stroke="#242328" stroke-linecap="round"/>
<path d="M7.9987 7.99849L4.67369 8.39273C2.9789 8.59367 2.29827 10.6884 3.55127 11.8472L6.38222 14.4652L5.63074 18.2471C5.29813 19.9211 7.08006 21.2157 8.56928 20.3821L11.9339 18.4987L15.2986 20.3821C16.7878 21.2157 18.5697 19.9211 18.2371 18.2471L18.2346 18.2344M10.1104 4.45337L10.1178 4.43733C10.8327 2.88759 13.0352 2.88759 13.7501 4.43733L15.3651 7.93873L19.1942 8.39273C20.889 8.59367 21.5696 10.6884 20.3166 11.8472L18.8555 13.1984" stroke="#242328" stroke-linecap="round" stroke-linejoin="round"/>
</svg>
