<svg width="24" height="24" viewBox="0 0 24 24" fill="none" xmlns="http://www.w3.org/2000/svg">
<path d="M11.9999 18V21" stroke="#2B70C9" stroke-width="2" stroke-linecap="round" stroke-linejoin="round"/>
<path d="M18.9999 11C18.9999 11.7099 18.8942 12.3951 18.6977 13.0408M4.99988 11C4.99988 14.866 8.13388 18 11.9999 18C13.6783 18 15.2187 17.4093 16.4246 16.4244" stroke="#1899D6" stroke-width="2" stroke-linecap="round" stroke-linejoin="round"/>
<path d="M8.99988 11C8.99988 12.6569 10.343 14 11.9999 14C12.5721 14 13.1069 13.8398 13.5619 13.5618L8.99988 8.99975V11Z" fill="#1CB0F6"/>
<path d="M9.71401 4.05703C10.2643 3.41027 11.0842 3 11.9999 3C13.6567 3 14.9999 4.34315 14.9999 6V9.3429M11.9999 14C10.343 14 8.99988 12.6569 8.99988 11V8.99975L13.5619 13.5618C13.1069 13.8398 12.5721 14 11.9999 14Z" stroke="#1CB0F6" stroke-width="2" stroke-linecap="round" stroke-linejoin="round"/>
<path d="M4.00012 4L20.0001 20" stroke="#2B70C9" stroke-width="2" stroke-linecap="round"/>
</svg>
