<svg width="24" height="24" viewBox="0 0 24 24" fill="none" xmlns="http://www.w3.org/2000/svg">
<path d="M5 16H19V19C19 20.1046 18.1046 21 17 21H7C5.89543 21 5 20.1046 5 19V16Z" stroke="#242328" stroke-width="2" stroke-linejoin="round"/>
<path d="M9 5C9 3.89543 9.89543 3 11 3H13C14.1046 3 15 3.89543 15 5V7H9V5Z" stroke="#7045D4" stroke-width="2" stroke-linejoin="round"/>
<path d="M4 7H20V14C20 15.1046 19.1046 16 18 16H6C4.89543 16 4 15.1046 4 14V7Z" stroke="#242328" stroke-width="2" stroke-linejoin="round"/>
<path d="M10.5 12.5C10.5 11.6716 11.1716 11 12 11C12.8284 11 13.5 11.6716 13.5 12.5C13.5 13.3284 12.8284 14 12 14C11.1716 14 10.5 13.3284 10.5 12.5Z" fill="#242328"/>
</svg>
