<svg width="24" height="24" viewBox="0 0 24 24" fill="none" xmlns="http://www.w3.org/2000/svg">
<path d="M21 10C21 9.44772 20.5523 9 20 9C19.4477 9 19 9.44772 19 10H21ZM5 10C5 9.44772 4.55228 9 4 9C3.44772 9 3 9.44772 3 10H5ZM6 21H18V19H6V21ZM21 18V10H19V18H21ZM5 18V10H3V18H5ZM18 21C19.6569 21 21 19.6569 21 18H19C19 18.5523 18.5523 19 18 19V21ZM6 19C5.44772 19 5 18.5523 5 18H3C3 19.6569 4.34315 21 6 21V19Z" fill="#242328"/>
<path d="M22 12L12 2L2 12" stroke="#7045D4" stroke-width="2" stroke-linecap="round" stroke-linejoin="round"/>
</svg>
