<svg width="24" height="24" viewBox="0 0 24 24" fill="none" xmlns="http://www.w3.org/2000/svg">
<path d="M9.36055 6.07904L8.50276 7.93872L4.67366 8.39272C2.97887 8.59367 2.29824 10.6884 3.55124 11.8472L6.38219 14.4652L5.63072 18.2471C5.29811 19.9211 7.08003 21.2157 8.56925 20.3821L11.9339 18.4987L15.2986 20.3821C16.7878 21.2157 18.5697 19.9211 18.2371 18.2471L17.4856 14.4652L18.9892 13.0747" stroke="#242328" stroke-width="2" stroke-linecap="round" stroke-linejoin="round"/>
<path d="M9.36043 6.07904L10.1177 4.43733C10.8325 2.88759 13.0351 2.88759 13.7499 4.43733L15.3649 7.93873L19.194 8.39273C20.8888 8.59367 21.5695 10.6884 20.3165 11.8472L18.9891 13.0747" stroke="#7045D4" stroke-width="2" stroke-linecap="round" stroke-linejoin="round"/>
</svg>
