<svg width="24" height="24" viewBox="0 0 24 24" fill="none" xmlns="http://www.w3.org/2000/svg">
<path d="M8 14V4" stroke="#4400FF" stroke-width="2"/>
<path d="M15 14L14.0136 14.1644C13.9653 13.8744 14.047 13.5779 14.237 13.3536C14.427 13.1293 14.706 13 15 13V14ZM4 14V15C3.44772 15 3 14.5523 3 14H4ZM20.5216 11.6078L21.5021 11.4116L20.5216 11.6078ZM6 3H17.3604V5H6V3ZM18.5604 15H15V13H18.5604V15ZM15.9864 13.8356L16.7923 18.6712L14.8195 19L14.0136 14.1644L15.9864 13.8356ZM14.8195 21H14.6056V19H14.8195V21ZM11.2773 19.2188L8.76168 15.4453L10.4258 14.3359L12.9415 18.1094L11.2773 19.2188ZM7.92963 15H4V13H7.92963V15ZM3 14V6H5V14H3ZM20.3021 5.41165L21.5021 11.4116L19.541 11.8039L18.341 5.80388L20.3021 5.41165ZM8.76168 15.4453C8.57622 15.1671 8.26399 15 7.92963 15V13C8.93269 13 9.86939 13.5013 10.4258 14.3359L8.76168 15.4453ZM16.7923 18.6712C16.9955 19.8903 16.0554 21 14.8195 21V19L14.8195 19L16.7923 18.6712ZM18.5604 13C19.1914 13 19.6647 12.4227 19.541 11.8039L21.5021 11.4116C21.8734 13.268 20.4535 15 18.5604 15V13ZM17.3604 3C18.7904 3 20.0217 4.00938 20.3021 5.41165L18.341 5.80388C18.2475 5.33646 17.8371 5 17.3604 5V3ZM14.6056 21C13.2681 21 12.0192 20.3316 11.2773 19.2188L12.9415 18.1094C13.3124 18.6658 13.9368 19 14.6056 19V21ZM6 5C5.44772 5 5 5.44772 5 6H3C3 4.34315 4.34315 3 6 3V5Z" fill="#292929"/>
</svg>
