<svg width="24" height="24" viewBox="0 0 24 24" fill="none" xmlns="http://www.w3.org/2000/svg">
<g clip-path="url(#clip0)">
<path fill-rule="evenodd" clip-rule="evenodd" d="M5.02571 8.07885C6.39636 5.64586 9.00522 4 12.0002 4C15.7491 4 18.8944 6.57778 19.7626 10.0578C22.1622 10.4249 24.0002 12.4978 24.0002 15C24.0002 17.7614 21.7617 20 19.0002 20H6.00024C2.68654 20 0.000244141 17.3137 0.000244141 14C0.000244141 11.018 2.17509 8.54474 5.02571 8.07885ZM12.0002 13C11.448 13 11.0002 12.5523 11.0002 12V9C11.0002 8.44772 11.448 8 12.0002 8C12.5525 8 13.0002 8.44772 13.0002 9V12C13.0002 12.5523 12.5525 13 12.0002 13ZM10.5 15.5C10.5 14.6716 11.1716 14 12 14C12.8284 14 13.5 14.6716 13.5 15.5C13.5 16.3284 12.8284 17 12 17C11.1716 17 10.5 16.3284 10.5 15.5Z" fill="#242328"/>
</g>
<defs>
<clipPath id="clip0">
<rect width="24" height="24" fill="white" transform="translate(0.000244141)"/>
</clipPath>
</defs>
</svg>
