<svg width="24" height="24" viewBox="0 0 24 24" fill="none" xmlns="http://www.w3.org/2000/svg">
<g clip-path="url(#clip0)">
<path fill-rule="evenodd" clip-rule="evenodd" d="M4.70723 3.29289C4.3167 2.90237 3.68354 2.90237 3.29302 3.29289C2.90249 3.68342 2.90249 4.31658 3.29302 4.70711L5.6803 7.09439C5.43891 7.40498 5.21985 7.73393 5.02556 8.07887C2.17495 8.54477 0.00012207 11.018 0.00012207 14C0.00012207 17.3137 2.68641 20 6.00012 20H18.5859L19.293 20.7071C19.6835 21.0976 20.3167 21.0976 20.7072 20.7071C21.0978 20.3166 21.0978 19.6834 20.7072 19.2929L7.76391 6.34957C7.76179 6.34742 7.75966 6.34527 7.75752 6.34313C7.75537 6.34098 7.75322 6.33885 7.75106 6.33673L4.70723 3.29289ZM12.0001 6.00001C11.6379 6.00001 11.2839 6.032 10.9408 6.09306C10.397 6.18982 9.87778 5.82746 9.78103 5.28372C9.68427 4.73997 10.0466 4.22075 10.5904 4.12399C11.0487 4.04244 11.5199 4.00001 12.0001 4.00001C15.749 4.00001 18.8943 6.57779 19.7625 10.0578C22.1621 10.4249 24.0001 12.4978 24.0001 15C24.0001 15.8459 23.7892 16.6456 23.4163 17.3463C23.1569 17.8339 22.5513 18.0187 22.0638 17.7593C21.5762 17.4998 21.3913 16.8943 21.6508 16.4067C21.8735 15.9882 22.0001 15.5104 22.0001 15C22.0001 13.3432 20.657 12 19.0001 12L18.981 12.0001L18.9467 12.0005C18.4425 12.0092 18.0107 11.6413 17.9394 11.1421C17.5238 8.23513 15.0221 6.00001 12.0001 6.00001Z" fill="#242328"/>
</g>
<defs>
<clipPath id="clip0">
<rect width="24" height="24" fill="white" transform="translate(0.00012207)"/>
</clipPath>
</defs>
</svg>
