<svg width="24" height="24" viewBox="0 0 24 24" fill="none" xmlns="http://www.w3.org/2000/svg">
<g clip-path="url(#clip0)">
<path fill-rule="evenodd" clip-rule="evenodd" d="M6.57262 9.43835C7.53478 7.40395 9.6045 6 12.0001 6C15.0221 6 17.5238 8.23512 17.9394 11.1421C18.0107 11.6413 18.4425 12.0092 18.9467 12.0005C18.9645 12.0002 18.9823 12 19.0001 12C20.657 12 22.0001 13.3431 22.0001 15C22.0001 16.113 21.3946 17.0857 20.4902 17.6046C20.0111 17.8794 19.8456 18.4906 20.1204 18.9696C20.3953 19.4486 21.0064 19.6142 21.4855 19.3393C22.9858 18.4785 24.0001 16.8583 24.0001 15C24.0001 12.4978 22.1621 10.4249 19.7625 10.0578C18.8943 6.57778 15.749 4 12.0001 4C9.0051 4 6.39624 5.64586 5.02559 8.07885C2.17497 8.54474 0.00012207 11.018 0.00012207 14C0.00012207 15.9636 0.944464 17.707 2.39954 18.7999C2.84113 19.1316 3.468 19.0425 3.79969 18.6009C4.13138 18.1594 4.04229 17.5325 3.6007 17.2008C2.62689 16.4693 2.00012 15.308 2.00012 14C2.00012 11.8804 3.64939 10.1451 5.73394 10.0087C6.09632 9.98496 6.41736 9.76665 6.57262 9.43835ZM12.0001 12C8.68641 12 6.00012 14.6863 6.00012 18C6.00012 21.3137 8.68641 24 12.0001 24C15.3138 24 18.0001 21.3137 18.0001 18C18.0001 14.6863 15.3138 12 12.0001 12ZM13.0001 16C13.0001 15.4477 12.5524 15 12.0001 15C11.4478 15 11.0001 15.4477 11.0001 16V17H10.0001C9.44784 17 9.00012 17.4477 9.00012 18C9.00012 18.5523 9.44784 19 10.0001 19H11.0001V20C11.0001 20.5523 11.4478 21 12.0001 21C12.5524 21 13.0001 20.5523 13.0001 20V19H14.0001C14.5524 19 15.0001 18.5523 15.0001 18C15.0001 17.4477 14.5524 17 14.0001 17H13.0001V16Z" fill="#242328"/>
</g>
<defs>
<clipPath id="clip0">
<rect width="24" height="24" fill="white" transform="translate(0.00012207)"/>
</clipPath>
</defs>
</svg>
