<svg width="24" height="24" viewBox="0 0 24 24" fill="none" xmlns="http://www.w3.org/2000/svg">
<g clip-path="url(#clip0)">
<path fill-rule="evenodd" clip-rule="evenodd" d="M5.02571 8.07885C6.39636 5.64586 9.00522 4 12.0002 4C15.7491 4 18.8944 6.57778 19.7626 10.0578C22.1622 10.4249 24.0002 12.4978 24.0002 15C24.0002 17.7614 21.7617 20 19.0002 20H6.00024C2.68654 20 0.000244141 17.3137 0.000244141 14C0.000244141 11.018 2.17509 8.54474 5.02571 8.07885ZM10.7074 10.2929C10.3168 9.90237 9.68366 9.90237 9.29314 10.2929C8.90261 10.6834 8.90261 11.3166 9.29314 11.7071L10.586 13L9.29314 14.2929C8.90261 14.6834 8.90261 15.3166 9.29314 15.7071C9.68366 16.0976 10.3168 16.0976 10.7074 15.7071L12.0002 14.4142L13.2931 15.7071C13.6837 16.0976 14.3168 16.0976 14.7074 15.7071C15.0979 15.3166 15.0979 14.6834 14.7074 14.2929L13.4145 13L14.7074 11.7071C15.0979 11.3166 15.0979 10.6834 14.7074 10.2929C14.3168 9.90237 13.6837 9.90237 13.2931 10.2929L12.0002 11.5858L10.7074 10.2929Z" fill="#242328"/>
</g>
<defs>
<clipPath id="clip0">
<rect width="24" height="24" fill="white" transform="translate(0.000244141)"/>
</clipPath>
</defs>
</svg>
