<svg width="24" height="24" viewBox="0 0 24 24" fill="none" xmlns="http://www.w3.org/2000/svg">
<g clip-path="url(#clip0)">
<path fill-rule="evenodd" clip-rule="evenodd" d="M5.02571 8.07885C6.39636 5.64586 9.00522 4 12.0002 4C15.7491 4 18.8944 6.57778 19.7626 10.0578C22.1622 10.4249 24.0002 12.4978 24.0002 15C24.0002 17.7614 21.7617 20 19.0002 20H6.00024C2.68654 20 0.000244141 17.3137 0.000244141 14C0.000244141 11.018 2.17509 8.54474 5.02571 8.07885ZM15.7074 11.7071C16.0979 11.3166 16.0979 10.6834 15.7074 10.2929C15.3168 9.90237 14.6837 9.90237 14.2931 10.2929L11.0002 13.5858L9.70735 12.2929C9.31683 11.9024 8.68366 11.9024 8.29314 12.2929C7.90261 12.6834 7.90261 13.3166 8.29314 13.7071L10.2931 15.7071C10.6837 16.0976 11.3168 16.0976 11.7074 15.7071L15.7074 11.7071Z" fill="#242328"/>
</g>
<defs>
<clipPath id="clip0">
<rect width="24" height="24" fill="white" transform="translate(0.000244141)"/>
</clipPath>
</defs>
</svg>
