<svg width="24" height="24" viewBox="0 0 24 24" fill="none" xmlns="http://www.w3.org/2000/svg">
<g clip-path="url(#clip0)">
<path fill-rule="evenodd" clip-rule="evenodd" d="M6.57262 9.43835C7.53478 7.40395 9.6045 6 12.0001 6C15.0221 6 17.5238 8.23512 17.9394 11.1421C18.0107 11.6413 18.4425 12.0092 18.9467 12.0005C18.9644 12.0002 18.9823 12 19.0001 12C20.657 12 22.0001 13.3431 22.0001 15C22.0001 16.6569 20.657 18 19.0001 18H17.0001C16.4478 18 16.0001 18.4477 16.0001 19C16.0001 19.5523 16.4478 20 17.0001 20H19.0001C21.7615 20 24.0001 17.7614 24.0001 15C24.0001 12.4978 22.1621 10.4249 19.7625 10.0578C18.8943 6.57778 15.749 4 12.0001 4C9.0051 4 6.39624 5.64586 5.02559 8.07885C2.17497 8.54474 0.00012207 11.018 0.00012207 14C0.00012207 17.3137 2.68641 20 6.00012 20H7.00012C7.55241 20 8.00012 19.5523 8.00012 19C8.00012 18.4477 7.55241 18 7.00012 18H6.00012C3.79098 18 2.00012 16.2091 2.00012 14C2.00012 11.8804 3.64939 10.1451 5.73394 10.0087C6.09632 9.98496 6.41736 9.76665 6.57262 9.43835ZM11.293 18.7071C11.6835 19.0976 12.3167 19.0976 12.7072 18.7071L15.7072 15.7071C16.0978 15.3166 16.0978 14.6834 15.7072 14.2929C15.3167 13.9024 14.6835 13.9024 14.293 14.2929L13.0001 15.5858L13.0001 10C13.0001 9.44771 12.5524 9 12.0001 9C11.4478 9 11.0001 9.44771 11.0001 10L11.0001 15.5858L9.70723 14.2929C9.3167 13.9024 8.68354 13.9024 8.29302 14.2929C7.90249 14.6834 7.90249 15.3166 8.29302 15.7071L11.293 18.7071Z" fill="#242328"/>
</g>
<defs>
<clipPath id="clip0">
<rect width="24" height="24" fill="white" transform="translate(0.00012207)"/>
</clipPath>
</defs>
</svg>
