<svg width="24" height="24" viewBox="0 0 24 24" fill="none" xmlns="http://www.w3.org/2000/svg">
<path fill-rule="evenodd" clip-rule="evenodd" d="M5 2C4.44772 2 4 2.44772 4 3V19C4 20.6569 5.34315 22 7 22H17C18.6569 22 20 20.6569 20 19V8C20 7.73478 19.8946 7.48043 19.7071 7.29289L14.7071 2.29289C14.5196 2.10536 14.2652 2 14 2H5ZM14 4.41421L17.5858 8H14V4.41421ZM13.8297 13.6808C14.3984 14.0789 14.3984 14.9211 13.8297 15.3192L11.5735 16.8986C10.9107 17.3625 10 16.8884 10 16.0793V12.9207C10 12.1116 10.9107 11.6375 11.5735 12.1014L13.8297 13.6808Z" fill="#242328"/>
</svg>
