<svg width="24" height="24" viewBox="0 0 24 24" fill="none" xmlns="http://www.w3.org/2000/svg">
<path fill-rule="evenodd" clip-rule="evenodd" d="M5 2C4.44772 2 4 2.44772 4 3V19C4 20.6569 5.34315 22 7 22H17C18.6569 22 20 20.6569 20 19V8C20 7.73478 19.8946 7.48043 19.7071 7.29289L14.7071 2.29289C14.5196 2.10536 14.2652 2 14 2H5ZM14 4.41421L17.5858 8H14V4.41421ZM7.99996 10.5C7.99996 11.3284 8.67154 12 9.49996 12C10.3284 12 11 11.3284 11 10.5C11 9.67157 10.3284 9 9.49996 9C8.67154 9 7.99996 9.67157 7.99996 10.5ZM12.7071 13.2929C12.3165 12.9024 11.6834 12.9024 11.2929 13.2929L7.29286 17.2929C6.90233 17.6834 6.90233 18.3166 7.29286 18.7071C7.68338 19.0976 8.31654 19.0976 8.70707 18.7071L12 15.4142L15.2929 18.7071C15.6834 19.0976 16.3165 19.0976 16.7071 18.7071C17.0976 18.3166 17.0976 17.6834 16.7071 17.2929L12.7071 13.2929Z" fill="#242328"/>
</svg>
