<svg width="24" height="24" viewBox="0 0 24 24" fill="none" xmlns="http://www.w3.org/2000/svg">
<g clip-path="url(#clip0)">
<path fill-rule="evenodd" clip-rule="evenodd" d="M5.00012 2C4.44784 2 4.00012 2.44772 4.00012 3V19C4.00012 20.6569 5.34327 22 7.00012 22H17.0001C18.657 22 20.0001 20.6569 20.0001 19V8C20.0001 7.73478 19.8948 7.48043 19.7072 7.29289L14.7072 2.29289C14.5197 2.10536 14.2653 2 14.0001 2H5.00012ZM14.0001 4.41421L17.5859 8H14.0001V4.41421ZM11.1683 11.4448C11.103 11.5424 11.0544 11.6523 11.0267 11.7702C11.007 11.8531 10.9984 11.937 11.0001 12.0201V15C9.89555 15 9.00012 15.8954 9.00012 17C9.00012 18.1046 9.89555 19 11.0001 19C12.1047 19 13.0001 18.1046 13.0001 17V13.618L13.5529 13.8944C14.0469 14.1414 14.6476 13.9412 14.8945 13.4472C15.1415 12.9532 14.9413 12.3526 14.4473 12.1056L12.4653 11.1146C12.3918 11.0759 12.3129 11.046 12.2299 11.0265C11.9685 10.9646 11.6966 11.0122 11.4743 11.1492C11.3548 11.2229 11.2497 11.3225 11.1683 11.4448Z" fill="#242328"/>
</g>
<defs>
<clipPath id="clip0">
<rect width="24" height="24" fill="white" transform="translate(0.00012207)"/>
</clipPath>
</defs>
</svg>
