<svg width="24" height="24" viewBox="0 0 24 24" fill="none" xmlns="http://www.w3.org/2000/svg">
<g clip-path="url(#clip0)">
<path fill-rule="evenodd" clip-rule="evenodd" d="M2.00012 5C2.00012 4.44772 2.44784 4 3.00012 4H10.0001C10.2653 4 10.5197 4.10536 10.7072 4.29289L12.4143 6H21.0001C21.5524 6 22.0001 6.44772 22.0001 7V17C22.0001 18.6569 20.657 20 19.0001 20H5.00012C3.34327 20 2.00012 18.6569 2.00012 17V5ZM11.0001 13V10.0002V10C11.0001 9.86441 11.0271 9.73512 11.076 9.61722C11.1248 9.49927 11.1971 9.38877 11.293 9.29289C11.3889 9.19702 11.4994 9.12468 11.6173 9.07588C11.7352 9.02699 11.8645 9 12.0001 9C12.1357 9 12.265 9.02699 12.3829 9.07588C12.5009 9.12468 12.6114 9.19702 12.7072 9.29289L12.7073 9.29296L14.7072 11.2929C15.0978 11.6834 15.0978 12.3166 14.7072 12.7071C14.3167 13.0976 13.6835 13.0976 13.293 12.7071L13.0001 12.4142V15C13.0001 16.1046 12.1047 17 11.0001 17C9.89555 17 9.00012 16.1046 9.00012 15C9.00012 13.8954 9.89555 13 11.0001 13Z" fill="#242328"/>
</g>
<defs>
<clipPath id="clip0">
<rect width="24" height="24" fill="white" transform="translate(-0.00012207)"/>
</clipPath>
</defs>
</svg>
