<svg width="24" height="24" viewBox="0 0 24 24" fill="none" xmlns="http://www.w3.org/2000/svg">
<path fill-rule="evenodd" clip-rule="evenodd" d="M2 5C2 4.44772 2.44772 4 3 4H10C10.2652 4 10.5196 4.10536 10.7071 4.29289L12.4142 6H21C21.5523 6 22 6.44772 22 7V17C22 18.6569 20.6569 20 19 20H5C3.34315 20 2 18.6569 2 17V5ZM13.8297 12.1808C14.3984 12.5789 14.3984 13.4211 13.8297 13.8192L11.5735 15.3986C10.9107 15.8625 10 15.3884 10 14.5793V11.4207C10 10.6116 10.9107 10.1375 11.5735 10.6014L13.8297 12.1808Z" fill="#242328"/>
</svg>
