<svg width="24" height="24" viewBox="0 0 24 24" fill="none" xmlns="http://www.w3.org/2000/svg">
<path fill-rule="evenodd" clip-rule="evenodd" d="M2 5C2 4.44772 2.44772 4 3 4H10C10.2652 4 10.5196 4.10536 10.7071 4.29289L12.4142 6H21C21.5523 6 22 6.44772 22 7V17C22 18.6569 20.6569 20 19 20H5C3.34315 20 2 18.6569 2 17V5ZM5.99997 9.5C5.99997 10.3284 6.67155 11 7.49997 11C8.3284 11 8.99997 10.3284 8.99997 9.5C8.99997 8.67157 8.3284 8 7.49997 8C6.67155 8 5.99997 8.67157 5.99997 9.5ZM12.7071 11.2929C12.3166 10.9024 11.6834 10.9024 11.2929 11.2929L7.29287 15.2929C6.90234 15.6834 6.90234 16.3166 7.29287 16.7071C7.68339 17.0976 8.31656 17.0976 8.70708 16.7071L12 13.4142L15.2929 16.7071C15.6834 17.0976 16.3166 17.0976 16.7071 16.7071C17.0976 16.3166 17.0976 15.6834 16.7071 15.2929L12.7071 11.2929Z" fill="#242328"/>
</svg>
