<svg width="24" height="24" viewBox="0 0 24 24" fill="none" xmlns="http://www.w3.org/2000/svg">
<path fill-rule="evenodd" clip-rule="evenodd" d="M13 4C13 3.44772 12.5523 3 12 3C11.4477 3 11 3.44772 11 4L11 14.5858L7.70711 11.2929C7.31658 10.9024 6.68342 10.9024 6.29289 11.2929C5.90237 11.6834 5.90237 12.3166 6.29289 12.7071L11.2929 17.7071C11.6834 18.0976 12.3166 18.0976 12.7071 17.7071L17.7071 12.7071C18.0976 12.3166 18.0976 11.6834 17.7071 11.2929C17.3166 10.9024 16.6834 10.9024 16.2929 11.2929L13 14.5858L13 4ZM6 19C5.44772 19 5 19.4477 5 20C5 20.5523 5.44772 21 6 21H18C18.5523 21 19 20.5523 19 20C19 19.4477 18.5523 19 18 19H6Z" fill="#242328"/>
</svg>
