<svg width="24" height="24" viewBox="0 0 24 24" fill="none" xmlns="http://www.w3.org/2000/svg">
<g clip-path="url(#clip0)">
<path fill-rule="evenodd" clip-rule="evenodd" d="M2.00002 12C2.00002 6.47715 6.47717 2 12 2C17.5229 2 22 6.47715 22 12C22 17.5228 17.5229 22 12 22C10.4773 22 9.03181 21.659 7.73782 21.0485L3.20105 21.9796C2.87178 22.0472 2.53059 21.9448 2.29291 21.7071C2.05523 21.4694 1.95286 21.1282 2.02043 20.799L2.95147 16.2622C2.34101 14.9682 2.00002 13.5227 2.00002 12ZM15.7074 10.7071C16.0979 10.3166 16.0979 9.68342 15.7074 9.29289C15.3168 8.90237 14.6837 8.90237 14.2931 9.29289L11.0002 12.5858L9.70735 11.2929C9.31683 10.9024 8.68366 10.9024 8.29314 11.2929C7.90261 11.6834 7.90261 12.3166 8.29314 12.7071L10.2931 14.7071C10.6837 15.0976 11.3168 15.0976 11.7074 14.7071L15.7074 10.7071Z" fill="#242328"/>
</g>
<defs>
<clipPath id="clip0">
<rect width="24" height="24" fill="white"/>
</clipPath>
</defs>
</svg>
