<svg width="24" height="24" viewBox="0 0 24 24" fill="none" xmlns="http://www.w3.org/2000/svg">
<g clip-path="url(#clip0)">
<path fill-rule="evenodd" clip-rule="evenodd" d="M2.00002 12C2.00002 6.47715 6.47717 2 12 2C17.5229 2 22 6.47715 22 12C22 17.5228 17.5229 22 12 22C10.4773 22 9.03181 21.659 7.73782 21.0485L3.20105 21.9796C2.87178 22.0472 2.53059 21.9448 2.29291 21.7071C2.05523 21.4694 1.95286 21.1282 2.02043 20.799L2.95147 16.2622C2.34101 14.9682 2.00002 13.5227 2.00002 12ZM10.7074 9.29289C10.3168 8.90237 9.68366 8.90237 9.29314 9.29289C8.90261 9.68342 8.90261 10.3166 9.29314 10.7071L10.586 12L9.29314 13.2929C8.90261 13.6834 8.90261 14.3166 9.29314 14.7071C9.68366 15.0976 10.3168 15.0976 10.7074 14.7071L12.0002 13.4142L13.2931 14.7071C13.6837 15.0976 14.3168 15.0976 14.7074 14.7071C15.0979 14.3166 15.0979 13.6834 14.7074 13.2929L13.4145 12L14.7074 10.7071C15.0979 10.3166 15.0979 9.68342 14.7074 9.29289C14.3168 8.90237 13.6837 8.90237 13.2931 9.29289L12.0002 10.5858L10.7074 9.29289Z" fill="#242328"/>
</g>
<defs>
<clipPath id="clip0">
<rect width="24" height="24" fill="white"/>
</clipPath>
</defs>
</svg>
