<svg width="24" height="24" viewBox="0 0 24 24" fill="none" xmlns="http://www.w3.org/2000/svg">
<g clip-path="url(#clip0)">
<path fill-rule="evenodd" clip-rule="evenodd" d="M11.2775 19.2188C12.0193 20.3316 13.2683 21 14.6057 21H14.8197C16.0555 21 16.9956 19.8903 16.7924 18.6712L16.1806 15H18.5605C20.4537 15 21.8735 13.2681 21.5023 11.4117L20.3023 5.41168C20.0218 4.00941 18.7906 3.00003 17.3605 3.00003H6.00012C4.34327 3.00003 3.00012 4.34318 3.00012 6.00003V14C3.00012 14.5523 3.44784 15 4.00012 15H7.92975C8.26411 15 8.57634 15.1671 8.76181 15.4453L11.2775 19.2188ZM7.00012 5.00003V13H5.00012V6.00003C5.00012 5.44775 5.44784 5.00003 6.00012 5.00003H7.00012Z" fill="#242328"/>
</g>
<defs>
<clipPath id="clip0">
<rect width="24" height="24" fill="white" transform="translate(0.00012207)"/>
</clipPath>
</defs>
</svg>
