<svg width="24" height="24" viewBox="0 0 24 24" fill="none" xmlns="http://www.w3.org/2000/svg">
<g clip-path="url(#clip0)">
<path fill-rule="evenodd" clip-rule="evenodd" d="M11.2775 4.78123C12.0193 3.66844 13.2683 3.00003 14.6057 3.00003H14.8197C16.0555 3.00003 16.9956 4.10976 16.7924 5.32883L16.1806 9.00003H18.5605C20.4537 9.00003 21.8735 10.732 21.5023 12.5884L20.3023 18.5884C20.0218 19.9907 18.7906 21 17.3605 21H6.00012C4.34327 21 3.00012 19.6569 3.00012 18V10C3.00012 9.44775 3.44784 9.00003 4.00012 9.00003H7.92975C8.26411 9.00003 8.57634 8.83293 8.76181 8.55473L11.2775 4.78123ZM7.00012 11H5.00012V18C5.00012 18.5523 5.44784 19 6.00012 19H7.00012V11Z" fill="#242328"/>
</g>
<defs>
<clipPath id="clip0">
<rect width="24" height="24" fill="white" transform="translate(0.00012207)"/>
</clipPath>
</defs>
</svg>
