<svg width="24" height="24" viewBox="0 0 24 24" fill="none" xmlns="http://www.w3.org/2000/svg">
<g clip-path="url(#clip0)">
<path fill-rule="evenodd" clip-rule="evenodd" d="M16.0001 3C18.6687 3 21.226 5.25833 20.4755 8.20623C18.9455 14.2163 14.2164 18.9453 8.20636 20.4754C5.25845 21.2259 3.00012 18.6685 3.00012 16V15C3.00012 13.8731 3.90126 13.0547 4.8999 12.9557C5.73565 12.8728 6.53709 12.6758 7.28891 12.3805C7.65914 12.235 8.08034 12.3229 8.3616 12.6041L9.3637 13.6062C11.1397 12.6123 12.6124 11.1396 13.6063 9.36358L12.6042 8.36149C12.323 8.08023 12.2352 7.65902 12.3806 7.2888C12.6759 6.53697 12.8729 5.73553 12.9558 4.89977C13.0548 3.90113 13.8733 3 15.0001 3H16.0001Z" fill="#242328"/>
</g>
<defs>
<clipPath id="clip0">
<rect width="24" height="24" fill="white" transform="translate(0.00012207)"/>
</clipPath>
</defs>
</svg>
