<svg width="24" height="24" viewBox="0 0 24 24" fill="none" xmlns="http://www.w3.org/2000/svg">
<path fill-rule="evenodd" clip-rule="evenodd" d="M12 4C7.58172 4 4 7.58172 4 12C4 13.1595 4.24615 14.2601 4.68899 15.2535C5.57031 14.4741 6.7295 14 8 14H16C17.2705 14 18.4297 14.4741 19.311 15.2535C19.7539 14.2601 20 13.1595 20 12C20 7.58172 16.4183 4 12 4ZM2 12C2 6.47715 6.47715 2 12 2C17.5228 2 22 6.47715 22 12C22 14.0618 21.3749 15.9807 20.3038 17.5737C18.51 20.2414 15.4605 22 12 22C8.53946 22 5.49004 20.2414 3.69625 17.5737C2.62509 15.9807 2 14.0618 2 12ZM8 9C8 6.79086 9.79086 5 12 5C14.2091 5 16 6.79086 16 9C16 11.2091 14.2091 13 12 13C9.79086 13 8 11.2091 8 9Z" fill="#242328"/>
</svg>
