<svg width="24" height="24" viewBox="0 0 24 24" fill="none" xmlns="http://www.w3.org/2000/svg">
<g clip-path="url(#clip0)">
<path fill-rule="evenodd" clip-rule="evenodd" d="M11 14C11 14.5523 11.4477 15 12 15C12.5523 15 13 14.5523 13 14L13 4.4142L14.2929 5.70709C14.6834 6.09762 15.3166 6.09762 15.7071 5.70709C16.0976 5.31657 16.0976 4.6834 15.7071 4.29288L12.7071 1.29288C12.3166 0.902354 11.6834 0.902353 11.2929 1.29288L8.29289 4.29288C7.90237 4.6834 7.90237 5.31657 8.29289 5.70709C8.68342 6.09761 9.31658 6.09761 9.70711 5.70709L11 4.4142L11 14ZM4 6.99999C3.44772 6.99999 3 7.4477 3 7.99999V18C3 19.6568 4.34315 21 6 21H18C19.6569 21 21 19.6568 21 18V7.99999C21 7.4477 20.5523 6.99999 20 6.99999H18C17.4477 6.99999 17 7.4477 17 7.99999C17 8.55227 17.4477 8.99999 18 8.99999H19V18C19 18.5523 18.5523 19 18 19H6C5.44772 19 5 18.5523 5 18V8.99999H6C6.55228 8.99999 7 8.55227 7 7.99999C7 7.4477 6.55228 6.99999 6 6.99999H4Z" fill="#242328"/>
</g>
<defs>
<clipPath id="clip0">
<rect width="24" height="24" fill="white"/>
</clipPath>
</defs>
</svg>
