<svg width="24" height="24" viewBox="0 0 24 24" fill="none" xmlns="http://www.w3.org/2000/svg">
<g clip-path="url(#clip0)">
<path fill-rule="evenodd" clip-rule="evenodd" d="M18 2.00005C16.3431 2.00005 15 3.34319 15 5.00005C15 5.19168 15.0181 5.37946 15.0527 5.56163L7.93918 9.71115C7.41677 9.26818 6.73995 9.00005 6 9.00005C4.34315 9.00005 3 10.3432 3 12C3 13.6569 4.34315 15 6 15C6.73995 15 7.41677 14.7319 7.93918 14.2889L15.0527 18.4385C15.0181 18.6206 15 18.8084 15 19C15 20.6569 16.3431 22 18 22C19.6569 22 21 20.6569 21 19C21 17.3432 19.6569 16 18 16C17.26 16 16.5832 16.2682 16.0608 16.7112L8.94735 12.5616C8.98192 12.3795 9 12.1917 9 12C9 11.8084 8.98192 11.6206 8.94735 11.4385L16.0608 7.28894C16.5832 7.73191 17.26 8.00005 18 8.00005C19.6569 8.00005 21 6.6569 21 5.00005C21 3.34319 19.6569 2.00005 18 2.00005Z" fill="#242328"/>
</g>
<defs>
<clipPath id="clip0">
<rect width="24" height="24" fill="white"/>
</clipPath>
</defs>
</svg>
