<svg width="24" height="24" viewBox="0 0 24 24" fill="none" xmlns="http://www.w3.org/2000/svg">
<circle cx="12" cy="12" r="9" stroke="#292929" stroke-width="2" stroke-linecap="round" stroke-linejoin="round"/>
<path d="M10.1636 16.4519C9.86093 16.9139 9.99003 17.5337 10.452 17.8364C10.9139 18.1391 11.5338 18.01 11.8365 17.5481L10.1636 16.4519ZM15.3614 12.1688C15.6641 11.7068 15.535 11.087 15.0731 10.7843C14.6111 10.4816 13.9913 10.6107 13.6886 11.0726L15.3614 12.1688ZM10 10C10 8.89543 10.8954 8 12 8L12 6C9.79086 6 8 7.79086 8 10L10 10ZM12 8C13.1046 8 14 8.89543 14 10L16 10C16 7.79086 14.2091 6 12 6L12 8ZM14 10C14 11.1046 13.1046 12 12 12L12 14C14.2091 14 16 12.2091 16 10L14 10ZM12 12C10.8954 12 10 11.1046 10 10L8 10C8 12.2091 9.79086 14 12 14L12 12ZM11.8365 17.5481L15.3614 12.1688L13.6886 11.0726L10.1636 16.4519L11.8365 17.5481Z" fill="#4400FF"/>
</svg>
