<svg width="24" height="24" viewBox="0 0 24 24" fill="none" xmlns="http://www.w3.org/2000/svg">
<g clip-path="url(#clip0)">
<path d="M3 5.00003V4.50003C2.72386 4.50003 2.5 4.72389 2.5 5.00003H3ZM21 5.00003H21.5C21.5 4.72389 21.2761 4.50003 21 4.50003V5.00003ZM3 5.50003H21V4.50003H3V5.50003ZM20.5 5.00003V17H21.5V5.00003H20.5ZM19 18.5H5V19.5H19V18.5ZM3.5 17V5.00003H2.5V17H3.5ZM5 18.5C4.17157 18.5 3.5 17.8285 3.5 17H2.5C2.5 18.3807 3.61929 19.5 5 19.5V18.5ZM20.5 17C20.5 17.8285 19.8284 18.5 19 18.5V19.5C20.3807 19.5 21.5 18.3807 21.5 17H20.5Z" fill="#242328"/>
<path d="M3 7.00003L12 13L21 7.00003" stroke="#242328" stroke-linecap="round" stroke-linejoin="round"/>
</g>
<defs>
<clipPath id="clip0">
<rect width="24" height="24" fill="white"/>
</clipPath>
</defs>
</svg>
