<svg width="24" height="24" viewBox="0 0 24 24" fill="none" xmlns="http://www.w3.org/2000/svg">
<g clip-path="url(#clip0)">
<path d="M15 10L14.5068 9.91783C14.4826 10.0628 14.5235 10.2111 14.6185 10.3232C14.7135 10.4354 14.853 10.5 15 10.5V10ZM4 10V9.50003C3.72386 9.50003 3.5 9.72389 3.5 10H4ZM20.5216 12.3923L21.0118 12.4903L20.5216 12.3923ZM6 20.5H17.3604V19.5H6V20.5ZM18.5604 9.50003H15V10.5H18.5604V9.50003ZM15.4932 10.0822L16.2991 5.24663L15.3127 5.08223L14.5068 9.91783L15.4932 10.0822ZM14.8195 3.50003H14.6056V4.50003H14.8195V3.50003ZM11.6934 5.05858L9.17771 8.83208L10.0098 9.38678L12.5254 5.61328L11.6934 5.05858ZM7.92963 9.50003H4V10.5H7.92963V9.50003ZM3.5 10V18H4.5V10H3.5ZM19.8118 18.4903L21.0118 12.4903L20.0313 12.2942L18.8313 18.2942L19.8118 18.4903ZM9.17771 8.83208C8.89951 9.24938 8.43116 9.50003 7.92963 9.50003V10.5C8.76552 10.5 9.54609 10.0823 10.0098 9.38678L9.17771 8.83208ZM16.2991 5.24663C16.4515 4.33233 15.7464 3.50003 14.8195 3.50003V4.50003C15.1285 4.50003 15.3635 4.77746 15.3127 5.08223L16.2991 5.24663ZM18.5604 10.5C19.507 10.5 20.2169 11.366 20.0313 12.2942L21.0118 12.4903C21.3212 10.9433 20.138 9.50003 18.5604 9.50003V10.5ZM17.3604 20.5C18.5521 20.5 19.5781 19.6589 19.8118 18.4903L18.8313 18.2942C18.691 18.9953 18.0754 19.5 17.3604 19.5V20.5ZM14.6056 3.50003C13.4353 3.50003 12.3425 4.08488 11.6934 5.05858L12.5254 5.61328C12.9891 4.91778 13.7697 4.50003 14.6056 4.50003V3.50003ZM6 19.5C5.17157 19.5 4.5 18.8285 4.5 18H3.5C3.5 19.3807 4.61929 20.5 6 20.5V19.5Z" fill="#242328"/>
<path d="M8 10V20" stroke="#242328"/>
</g>
<defs>
<clipPath id="clip0">
<rect width="24" height="24" fill="white"/>
</clipPath>
</defs>
</svg>
