<svg width="24" height="24" viewBox="0 0 24 24" fill="none" xmlns="http://www.w3.org/2000/svg">
<path d="M14.8305 9.17367L13.3112 7.65438C13.6397 6.81816 13.8587 5.92696 13.9508 4.99842C14.0053 4.44883 14.4477 4 15 4H16C18.2091 4 20.0513 5.81867 19.5063 7.95952C19.1287 9.44253 18.5441 10.8428 17.7848 12.1277M12.4854 12.4851C11.5279 13.4427 10.4092 14.2392 9.17366 14.8305L7.65438 13.3112C6.81815 13.6397 5.92696 13.8587 4.99842 13.9508C4.44883 14.0053 4 14.4477 4 15V16C4 18.2091 5.81867 20.0513 7.95953 19.5063C10.7872 18.7864 13.314 17.3135 15.3139 15.3136" stroke="#242328" stroke-linecap="round" stroke-linejoin="round"/>
<path d="M4 4L20 20" stroke="#242328" stroke-linecap="round"/>
</svg>
