<svg width="24" height="24" viewBox="0 0 24 24" fill="none" xmlns="http://www.w3.org/2000/svg">
<path d="M3.5 12C3.5 7.30558 7.30558 3.5 12 3.5V2.5C6.75329 2.5 2.5 6.75329 2.5 12H3.5ZM12 3.5C16.6944 3.5 20.5 7.30558 20.5 12H21.5C21.5 6.75329 17.2467 2.5 12 2.5V3.5ZM8 15.5H16V14.5H8V15.5ZM14.5 9C14.5 10.3807 13.3807 11.5 12 11.5V12.5C13.933 12.5 15.5 10.933 15.5 9H14.5ZM12 11.5C10.6193 11.5 9.5 10.3807 9.5 9H8.5C8.5 10.933 10.067 12.5 12 12.5V11.5ZM9.5 9C9.5 7.61929 10.6193 6.5 12 6.5V5.5C10.067 5.5 8.5 7.067 8.5 9H9.5ZM12 6.5C13.3807 6.5 14.5 7.61929 14.5 9H15.5C15.5 7.067 13.933 5.5 12 5.5V6.5ZM8 14.5C6.32644 14.5 4.86693 15.4138 4.09215 16.7673L4.96002 17.2641C5.56395 16.2091 6.69948 15.5 8 15.5V14.5ZM12 20.5C9.05981 20.5 6.46801 19.0076 4.94101 16.7367L4.11117 17.2947C5.81603 19.8301 8.71291 21.5 12 21.5V20.5ZM4.94101 16.7367C4.03101 15.3834 3.5 13.7545 3.5 12H2.5C2.5 13.9594 3.09373 15.7816 4.11117 17.2947L4.94101 16.7367ZM16 15.5C17.3005 15.5 18.436 16.2091 19.04 17.2641L19.9078 16.7673C19.1331 15.4138 17.6736 14.5 16 14.5V15.5ZM20.5 12C20.5 13.7545 19.969 15.3834 19.059 16.7367L19.8888 17.2947C20.9063 15.7816 21.5 13.9594 21.5 12H20.5ZM19.059 16.7367C17.532 19.0076 14.9402 20.5 12 20.5V21.5C15.2871 21.5 18.184 19.8301 19.8888 17.2947L19.059 16.7367Z" fill="#242328"/>
</svg>
