<svg width="24" height="24" viewBox="0 0 24 24" fill="none" xmlns="http://www.w3.org/2000/svg">
<path fill-rule="evenodd" clip-rule="evenodd" d="M12 4C7.58172 4 4 7.58172 4 12C4 13.4369 4.37801 14.7832 5.0399 15.9474C5.95387 14.7632 7.38713 14 8.99998 14H15C16.6128 14 18.0461 14.7632 18.9601 15.9475C19.622 14.7833 20 13.4369 20 12C20 7.58172 16.4183 4 12 4ZM19.9429 18.0761C20.0682 17.9125 20.1886 17.745 20.3038 17.5737C21.3749 15.9807 22 14.0618 22 12C22 6.47715 17.5228 2 12 2C6.47715 2 2 6.47715 2 12C2 14.0618 2.62509 15.9807 3.69625 17.5737C3.81141 17.745 3.93174 17.9125 4.05702 18.076L4.05179 18.0936L4.4068 18.5074C6.23929 20.6439 8.9618 22 12 22C12 22 12 22 12 22C12.2163 22 12.431 21.9931 12.6438 21.9796C14.5055 21.8613 16.2285 21.2333 17.6751 20.2346C18.3869 19.7431 19.0318 19.1619 19.5932 18.5074L19.9482 18.0936L19.9429 18.0761ZM12 6C10.3431 6 9 7.34315 9 9C9 10.6569 10.3431 12 12 12C13.6569 12 15 10.6569 15 9C15 7.34315 13.6569 6 12 6Z" fill="#292929"/>
</svg>
