<svg width="24" height="24" viewBox="0 0 24 24" fill="none" xmlns="http://www.w3.org/2000/svg">
<path fill-rule="evenodd" clip-rule="evenodd" d="M12 21C16.9706 21 21 16.9706 21 12C21 7.02944 16.9706 3 12 3C7.02944 3 3 7.02944 3 12C3 16.9706 7.02944 21 12 21ZM15 9L11.3074 9.73851C10.5157 9.89686 9.89686 10.5157 9.73851 11.3074L9 15L12.6926 14.2615C13.4843 14.1031 14.1031 13.4843 14.2615 12.6926L15 9Z" fill="black" fill-opacity="0.16"/>
<circle cx="12" cy="12" r="9" stroke="#242328" stroke-width="2" stroke-linecap="round" stroke-linejoin="round"/>
<path d="M11.3074 9.73851L15 9L14.2615 12.6926C14.1031 13.4843 13.4843 14.1031 12.6926 14.2615L9 15L9.73851 11.3074C9.89686 10.5157 10.5157 9.89686 11.3074 9.73851Z" stroke="#242328" stroke-width="2" stroke-linecap="round" stroke-linejoin="round"/>
</svg>
