<svg width="24" height="24" viewBox="0 0 24 24" fill="none" xmlns="http://www.w3.org/2000/svg">
<path fill-rule="evenodd" clip-rule="evenodd" d="M12 5C7.33603 5 3.60014 7.90264 2 12C3.60014 16.0974 7.33603 19 12 19C16.664 19 20.3999 16.0974 22 12C20.3999 7.90264 16.664 5 12 5ZM12 15C13.6569 15 15 13.6569 15 12C15 10.3431 13.6569 9 12 9C10.3431 9 9 10.3431 9 12C9 13.6569 10.3431 15 12 15Z" fill="black" fill-opacity="0.16"/>
<path d="M15 12C15 13.6569 13.6569 15 12 15C10.3431 15 9 13.6569 9 12C9 10.3431 10.3431 9 12 9C13.6569 9 15 10.3431 15 12Z" stroke="#242328" stroke-width="2" stroke-linecap="round" stroke-linejoin="round"/>
<path d="M2 12C3.60014 7.90264 7.33603 5 12 5C16.664 5 20.3999 7.90264 22 12C20.3999 16.0974 16.664 19 12 19C7.33603 19 3.60014 16.0974 2 12Z" stroke="#242328" stroke-width="2" stroke-linecap="round" stroke-linejoin="round"/>
</svg>
