<svg width="24" height="24" viewBox="0 0 24 24" fill="none" xmlns="http://www.w3.org/2000/svg">
<path d="M5 18V12H19V18C19 19.1046 18.1046 20 17 20H7C5.89543 20 5 19.1046 5 18Z" fill="black" fill-opacity="0.16"/>
<path d="M5 12V18C5 19.1046 5.89543 20 7 20H17C18.1046 20 19 19.1046 19 18V12" stroke="#242328" stroke-width="2" stroke-linecap="round" stroke-linejoin="round"/>
<path d="M6 6C6 4.89543 6.89543 4 8 4V4C10.2091 4 12 5.79086 12 8V8H8C6.89543 8 6 7.10457 6 6V6Z" stroke="#242328" stroke-width="2" stroke-linejoin="round"/>
<path d="M18 6C18 4.89543 17.1046 4 16 4V4C13.7909 4 12 5.79086 12 8V8H16C17.1046 8 18 7.10457 18 6V6Z" stroke="#242328" stroke-width="2" stroke-linejoin="round"/>
<rect x="4" y="8" width="16" height="4" stroke="#242328" stroke-width="2" stroke-linecap="round" stroke-linejoin="round"/>
<path d="M12 12V20" stroke="#242328" stroke-width="2" stroke-linecap="round" stroke-linejoin="round"/>
</svg>
