<svg width="24" height="24" viewBox="0 0 24 24" fill="none" xmlns="http://www.w3.org/2000/svg">
<path d="M18 20H6C4.89543 20 4 19.1046 4 18V10L12 2L20 10V18C20 19.1046 19.1046 20 18 20Z" fill="black" fill-opacity="0.16"/>
<path d="M21 10C21 9.44772 20.5523 9 20 9C19.4477 9 19 9.44772 19 10H21ZM5 10C5 9.44772 4.55228 9 4 9C3.44772 9 3 9.44772 3 10H5ZM21.2929 12.7071C21.6834 13.0976 22.3166 13.0976 22.7071 12.7071C23.0976 12.3166 23.0976 11.6834 22.7071 11.2929L21.2929 12.7071ZM12 2L12.7071 1.29289C12.3166 0.902369 11.6834 0.902369 11.2929 1.29289L12 2ZM1.29289 11.2929C0.902369 11.6834 0.902369 12.3166 1.29289 12.7071C1.68342 13.0976 2.31658 13.0976 2.70711 12.7071L1.29289 11.2929ZM6 21H18V19H6V21ZM21 18V10H19V18H21ZM5 18V10H3V18H5ZM22.7071 11.2929L12.7071 1.29289L11.2929 2.70711L21.2929 12.7071L22.7071 11.2929ZM11.2929 1.29289L1.29289 11.2929L2.70711 12.7071L12.7071 2.70711L11.2929 1.29289ZM18 21C19.6569 21 21 19.6569 21 18H19C19 18.5523 18.5523 19 18 19V21ZM6 19C5.44772 19 5 18.5523 5 18H3C3 19.6569 4.34315 21 6 21V19Z" fill="#242328"/>
</svg>
