<svg width="24" height="24" viewBox="0 0 24 24" fill="none" xmlns="http://www.w3.org/2000/svg">
<path fill-rule="evenodd" clip-rule="evenodd" d="M17.5 16.5L12 22L6.49998 16.5C3.46241 13.4624 3.46241 8.53757 6.49997 5.50001C9.53754 2.46244 14.4624 2.46244 17.5 5.50001C20.5375 8.53757 20.5375 13.4624 17.5 16.5ZM12 13C13.1045 13 14 12.1046 14 11C14 9.89544 13.1045 9.00001 12 9.00001C10.8954 9.00001 9.99997 9.89544 9.99997 11C9.99997 12.1046 10.8954 13 12 13Z" fill="black" fill-opacity="0.16"/>
<circle cx="12" cy="11" r="2" stroke="#242328" stroke-width="2"/>
<path d="M12 22L17.5 16.5C20.5376 13.4624 20.5376 8.53757 17.5 5.5C14.4624 2.46244 9.53757 2.46244 6.5 5.5C3.46244 8.53757 3.46244 13.4624 6.5 16.5L12 22Z" stroke="#242328" stroke-width="2" stroke-linejoin="round"/>
</svg>
