<svg width="24" height="24" viewBox="0 0 24 24" fill="none" xmlns="http://www.w3.org/2000/svg">
<path d="M10.1177 4.43733C10.8325 2.88759 13.0351 2.88759 13.7499 4.43733L15.3649 7.93873L19.194 8.39273C20.8888 8.59367 21.5695 10.6884 20.3165 11.8472L17.4855 14.4652L18.237 18.2471C18.5696 19.9211 16.7877 21.2157 15.2985 20.3821L11.9338 18.4987L8.56913 20.3821C7.07991 21.2157 5.29799 19.9211 5.6306 18.2471L6.38207 14.4652L3.55112 11.8472C2.29812 10.6884 2.97876 8.59367 4.67354 8.39273L8.50264 7.93873L10.1177 4.43733Z" fill="black" fill-opacity="0.16"/>
<path d="M10.1177 4.43733C10.8325 2.88759 13.0351 2.88759 13.7499 4.43733L15.3649 7.93873L19.194 8.39273C20.8888 8.59367 21.5695 10.6884 20.3165 11.8472L17.4855 14.4652L18.237 18.2471C18.5696 19.9211 16.7877 21.2157 15.2985 20.3821L11.9338 18.4987L8.56913 20.3821C7.07991 21.2157 5.29799 19.9211 5.6306 18.2471L6.38207 14.4652L3.55112 11.8472C2.29812 10.6884 2.97876 8.59367 4.67354 8.39273L8.50264 7.93873L10.1177 4.43733Z" stroke="#242328" stroke-width="2" stroke-linecap="round" stroke-linejoin="round"/>
</svg>
