<svg width="24" height="24" viewBox="0 0 24 24" fill="none" xmlns="http://www.w3.org/2000/svg">
<path fill-rule="evenodd" clip-rule="evenodd" d="M2 12C2 6.47715 6.47715 2 12 2C17.5228 2 22 6.47715 22 12C22 17.5228 17.5228 22 12 22C6.47715 22 2 17.5228 2 12ZM9 8C8.17157 8 7.5 8.67157 7.5 9.5V9.51C7.5 10.3384 8.17157 11.01 9 11.01H9.01C9.83843 11.01 10.51 10.3384 10.51 9.51V9.5C10.51 8.67157 9.83843 8 9.01 8H9ZM15 8C14.1716 8 13.5 8.67157 13.5 9.5V9.51C13.5 10.3384 14.1716 11.01 15 11.01H15.01C15.8384 11.01 16.51 10.3384 16.51 9.51V9.5C16.51 8.67157 15.8384 8 15.01 8H15ZM9.0344 16.8656C8.55634 16.5891 8.39298 15.9773 8.66952 15.4993C9.53254 14.0074 11.148 13 13 13C13.5523 13 14 13.4477 14 14C14 14.5523 13.5523 15 13 15C11.8908 15 10.921 15.6014 10.4007 16.5007C10.1242 16.9788 9.51246 17.1421 9.0344 16.8656Z" fill="#292929"/>
</svg>
