<svg width="24" height="24" viewBox="0 0 24 24" fill="none" xmlns="http://www.w3.org/2000/svg">
<path fill-rule="evenodd" clip-rule="evenodd" d="M2 12C2 6.47715 6.47715 2 12 2C17.5228 2 22 6.47715 22 12C22 17.5228 17.5228 22 12 22C6.47715 22 2 17.5228 2 12ZM7.5 9.5C7.5 8.67157 8.17157 8 9 8H9.01C9.83843 8 10.51 8.67157 10.51 9.5V9.51C10.51 10.3384 9.83843 11.01 9.01 11.01H9C8.17157 11.01 7.5 10.3384 7.5 9.51V9.5ZM13.5 9.5C13.5 8.67157 14.1716 8 15 8H15.01C15.8384 8 16.51 8.67157 16.51 9.5V9.51C16.51 10.3384 15.8384 11.01 15.01 11.01H15C14.1716 11.01 13.5 10.3384 13.5 9.51V9.5Z" fill="#292929"/>
</svg>
