<svg width="24" height="24" viewBox="0 0 24 24" fill="none" xmlns="http://www.w3.org/2000/svg">
<path fill-rule="evenodd" clip-rule="evenodd" d="M2 12C2 6.47715 6.47715 2 12 2C17.5228 2 22 6.47715 22 12C22 17.5228 17.5228 22 12 22C6.47715 22 2 17.5228 2 12ZM9 8C8.17157 8 7.5 8.67157 7.5 9.5V9.51C7.5 10.3384 8.17157 11.01 9 11.01H9.01C9.83843 11.01 10.51 10.3384 10.51 9.51V9.5C10.51 8.67157 9.83843 8 9.01 8H9ZM15 8C14.1716 8 13.5 8.67157 13.5 9.5V9.51C13.5 10.3384 14.1716 11.01 15 11.01H15.01C15.8384 11.01 16.51 10.3384 16.51 9.51V9.5C16.51 8.67157 15.8384 8 15.01 8H15ZM15.9656 16.8656C15.4875 17.1421 14.8758 16.9788 14.5992 16.5007C14.079 15.6014 13.1091 15 12 15C10.8908 15 9.92093 15.6014 9.40071 16.5007C9.12416 16.9788 8.51244 17.1421 8.03438 16.8656C7.55631 16.5891 7.39295 15.9773 7.6695 15.4993C8.53251 14.0074 10.148 13 12 13C13.8519 13 15.4674 14.0074 16.3305 15.4993C16.607 15.9773 16.4436 16.5891 15.9656 16.8656Z" fill="#292929"/>
</svg>
