<svg width="24" height="24" viewBox="0 0 24 24" fill="none" xmlns="http://www.w3.org/2000/svg">
<path fill-rule="evenodd" clip-rule="evenodd" d="M2 12C2 6.47715 6.47715 2 12 2C17.5228 2 22 6.47715 22 12C22 17.5228 17.5228 22 12 22C6.47715 22 2 17.5228 2 12ZM9 8C8.17157 8 7.5 8.67157 7.5 9.5V9.51C7.5 10.3384 8.17157 11.01 9 11.01H9.01C9.83843 11.01 10.51 10.3384 10.51 9.51V9.5C10.51 8.67157 9.83843 8 9.01 8H9ZM15 8C14.1716 8 13.5 8.67157 13.5 9.5V9.51C13.5 10.3384 14.1716 11.01 15 11.01H15.01C15.8384 11.01 16.51 10.3384 16.51 9.51V9.5C16.51 8.67157 15.8384 8 15.01 8H15ZM8.03443 13.1344C8.51249 12.8579 9.12422 13.0212 9.40076 13.4993C9.92099 14.3986 10.8909 15 12 15C13.1092 15 14.0791 14.3986 14.5993 13.4993C14.8758 13.0212 15.4876 12.8579 15.9656 13.1344C16.4437 13.4109 16.607 14.0227 16.3305 14.5007C15.4675 15.9926 13.852 17 12 17C10.1481 17 8.53256 15.9926 7.66955 14.5007C7.39301 14.0227 7.55637 13.4109 8.03443 13.1344Z" fill="#292929"/>
</svg>
