<svg width="24" height="24" viewBox="0 0 24 24" fill="none" xmlns="http://www.w3.org/2000/svg">
<circle cx="12" cy="12" r="2" stroke="#292929" stroke-width="1.5"/>
<path d="M5.39856 5.87922L5.77356 5.2297C5.47052 5.05473 5.08675 5.11258 4.84875 5.36911L5.39856 5.87922ZM3.40061 9.3446L2.68394 9.12349C2.58078 9.45787 2.72256 9.81916 3.02561 9.99412L3.40061 9.3446ZM3.3989 14.6564L3.0239 14.0069C2.72056 14.182 2.57883 14.5438 2.6825 14.8784L3.3989 14.6564ZM5.39889 18.1205L4.84846 18.63C5.08638 18.887 5.47055 18.9452 5.77389 18.7701L5.39889 18.1205ZM9.99994 20.775L9.24994 20.775C9.24994 21.1249 9.49194 21.4284 9.8331 21.5062L9.99994 20.775ZM14 20.7774L14.1669 21.5086C14.5081 21.4308 14.75 21.1273 14.75 20.7774L14 20.7774ZM18.6014 18.1208L18.2264 18.7703C18.5295 18.9453 18.9132 18.8874 19.1512 18.6309L18.6014 18.1208ZM20.5994 14.6554L21.3161 14.8765C21.4192 14.5422 21.2774 14.1809 20.9744 14.0059L20.5994 14.6554ZM20.6011 9.34354L20.9761 9.99306C21.2794 9.81793 21.4212 9.45615 21.3175 9.12157L20.6011 9.34354ZM18.6011 5.87944L19.1515 5.37001C18.9136 5.11294 18.5294 5.05479 18.2261 5.22992L18.6011 5.87944ZM14 3.22501L14.75 3.22501C14.75 2.87508 14.508 2.57165 14.1669 2.4938L14 3.22501ZM9.99994 3.2226L9.83308 2.4914C9.49193 2.56925 9.24994 2.87268 9.24995 3.2226L9.99994 3.2226ZM14 5.07175L13.25 5.07175L14 5.07175ZM19 13.732L18.625 14.3815L19 13.732ZM17 17.1962L16.625 17.8458L17 17.1962ZM4.99992 13.7321L5.37492 14.3816L4.99992 13.7321ZM6.99994 6.80377L6.62494 7.45329L6.99994 6.80377ZM4.11727 9.56572C4.47787 8.397 5.09686 7.30711 5.94837 6.38932L4.84875 5.36911C3.84079 6.45551 3.10955 7.74405 2.68394 9.12349L4.11727 9.56572ZM4.85529 16.125C4.5397 15.5784 4.2941 15.0115 4.1153 14.4344L2.6825 14.8784C2.89413 15.5614 3.18444 16.231 3.55625 16.875L4.85529 16.125ZM5.94933 17.6111C5.53899 17.1677 5.17087 16.6716 4.85529 16.125L3.55625 16.875C3.92805 17.519 4.36278 18.1052 4.84846 18.63L5.94933 17.6111ZM13.8332 20.0462C12.6126 20.3248 11.3592 20.3159 10.1668 20.0438L9.8331 21.5062C11.2405 21.8273 12.7221 21.8383 14.1669 21.5086L13.8332 20.0462ZM19.8827 14.4343C19.5221 15.603 18.9031 16.6929 18.0516 17.6107L19.1512 18.6309C20.1592 17.5445 20.8905 16.256 21.3161 14.8765L19.8827 14.4343ZM19.1447 7.87501C19.4603 8.42161 19.7059 8.98848 19.8847 9.56552L21.3175 9.12157C21.1059 8.43858 20.8155 7.76898 20.4437 7.12501L19.1447 7.87501ZM18.0506 6.38888C18.461 6.83225 18.8291 7.32839 19.1447 7.87501L20.4437 7.12501C20.0719 6.48101 19.6372 5.89479 19.1515 5.37001L18.0506 6.38888ZM10.1668 3.9538C11.3874 3.67526 12.6408 3.68414 13.8332 3.95622L14.1669 2.4938C12.7594 2.17267 11.2779 2.16168 9.83308 2.4914L10.1668 3.9538ZM10.7499 5.07172L10.7499 3.2226L9.24995 3.2226L9.24995 5.07172L10.7499 5.07172ZM7.37494 6.15426L5.77356 5.2297L5.02356 6.52873L6.62494 7.45329L7.37494 6.15426ZM4.62492 13.0825L3.0239 14.0069L3.7739 15.3059L5.37492 14.3816L4.62492 13.0825ZM5.37492 9.61845L3.77561 8.69509L3.02561 9.99412L4.62492 10.9175L5.37492 9.61845ZM10.7499 20.775L10.7499 18.9282L9.24994 18.9282L9.24994 20.775L10.7499 20.775ZM6.62494 16.5466L5.02389 17.471L5.77389 18.7701L7.37494 17.8457L6.62494 16.5466ZM18.9764 17.4713L17.375 16.5467L16.625 17.8458L18.2264 18.7703L18.9764 17.4713ZM14.75 20.7774L14.75 18.9283L13.25 18.9283L13.25 20.7774L14.75 20.7774ZM20.2261 8.69402L18.625 9.6184L19.375 10.9174L20.9761 9.99306L20.2261 8.69402ZM20.9744 14.0059L19.375 13.0825L18.625 14.3815L20.2244 15.3049L20.9744 14.0059ZM14.75 5.07175L14.75 3.22501L13.25 3.22501L13.25 5.07175L14.75 5.07175ZM18.2261 5.22992L16.625 6.15428L17.375 7.45332L18.9761 6.52896L18.2261 5.22992ZM13.25 5.07175C13.25 7.1887 15.5417 8.51179 17.375 7.45332L16.625 6.15428C15.7917 6.6354 14.75 6.034 14.75 5.07175L13.25 5.07175ZM18.625 9.6184C16.7917 10.6769 16.7917 13.3231 18.625 14.3815L19.375 13.0825C18.5417 12.6014 18.5417 11.3986 19.375 10.9174L18.625 9.6184ZM17.375 16.5467C15.5417 15.4882 13.25 16.8113 13.25 18.9283L14.75 18.9283C14.75 17.966 15.7917 17.3646 16.625 17.8458L17.375 16.5467ZM10.7499 18.9282C10.7499 16.8113 8.45828 15.4882 6.62494 16.5466L7.37494 17.8457C8.20828 17.3646 9.24994 17.966 9.24994 18.9282L10.7499 18.9282ZM5.37492 14.3816C7.20825 13.3231 7.20825 10.6769 5.37492 9.61845L4.62492 10.9175C5.45825 11.3986 5.45825 12.6014 4.62492 13.0825L5.37492 14.3816ZM9.24995 5.07172C9.24995 6.03397 8.20828 6.63538 7.37494 6.15426L6.62494 7.45329C8.45828 8.51177 10.7499 7.18868 10.7499 5.07172L9.24995 5.07172Z" fill="#292929"/>
</svg>
