<svg width="24" height="24" viewBox="0 0 24 24" fill="none" xmlns="http://www.w3.org/2000/svg">
<path d="M12 3L12.2954 2.31064C12.1068 2.22979 11.8932 2.22979 11.7046 2.31064L12 3ZM12 21L11.6279 21.6512C11.8585 21.7829 12.1415 21.7829 12.3721 21.6512L12 21ZM18.3939 5.74025L18.0985 6.42961L18.3939 5.74025ZM8.02317 18.7275L7.65106 19.3787L8.02317 18.7275ZM11.7046 2.31064L5.31064 5.05089L5.90152 6.42961L12.2954 3.68936L11.7046 2.31064ZM4.25 6.6594V13.5181H5.75V6.6594H4.25ZM7.65106 19.3787L11.6279 21.6512L12.3721 20.3488L8.39527 18.0763L7.65106 19.3787ZM12.3721 21.6512L16.3489 19.3787L15.6047 18.0763L11.6279 20.3488L12.3721 21.6512ZM19.75 13.5181V6.6594H18.25V13.5181H19.75ZM18.6894 5.05089L12.2954 2.31064L11.7046 3.68936L18.0985 6.42961L18.6894 5.05089ZM19.75 6.6594C19.75 5.95935 19.3328 5.32666 18.6894 5.05089L18.0985 6.42961C18.1904 6.469 18.25 6.55939 18.25 6.6594H19.75ZM16.3489 19.3787C18.4521 18.1769 19.75 15.9403 19.75 13.5181H18.25C18.25 15.4021 17.2405 17.1416 15.6047 18.0763L16.3489 19.3787ZM4.25 13.5181C4.25 15.9403 5.54793 18.1769 7.65106 19.3787L8.39527 18.0763C6.7595 17.1416 5.75 15.4021 5.75 13.5181H4.25ZM5.31064 5.05089C4.6672 5.32665 4.25 5.95935 4.25 6.6594H5.75C5.75 6.55939 5.8096 6.469 5.90152 6.42961L5.31064 5.05089Z" fill="#292929"/>
<path d="M15 10L11 14L9 12" stroke="#292929" stroke-width="1.5" stroke-linecap="round" stroke-linejoin="round"/>
</svg>
