<svg width="24" height="24" viewBox="0 0 24 24" fill="none" xmlns="http://www.w3.org/2000/svg">
<path d="M12 2L12.6811 1.68587C12.5585 1.42017 12.2926 1.25 12 1.25C11.7074 1.25 11.4415 1.42017 11.319 1.68587L12 2ZM15.1035 8.72839L14.4225 9.04253C14.5317 9.27938 14.7562 9.44246 15.0152 9.47317L15.1035 8.72839ZM22.4616 9.60081L22.9708 10.1515C23.1857 9.95279 23.2653 9.64733 23.1749 9.36905C23.0845 9.09077 22.8405 8.89048 22.5499 8.85603L22.4616 9.60081ZM18.4656 21.8992L18.0993 22.5536C18.3546 22.6966 18.6698 22.6779 18.9065 22.5059C19.1432 22.334 19.2583 22.04 19.2013 21.753L18.4656 21.8992ZM12 18.28L12.3663 17.6256C12.1387 17.4981 11.8613 17.4981 11.6337 17.6256L12 18.28ZM5.53437 21.8992L4.79876 21.753C4.74173 22.04 4.85682 22.334 5.09354 22.5059C5.33025 22.6779 5.64538 22.6966 5.90071 22.5536L5.53437 21.8992ZM6.97843 14.6316L7.71405 14.7778C7.76489 14.5219 7.67915 14.2581 7.48765 14.081L6.97843 14.6316ZM1.53839 9.60081L1.45009 8.85603C1.15952 8.89048 0.915518 9.09077 0.825099 9.36905C0.73468 9.64733 0.814354 9.95279 1.02918 10.1515L1.53839 9.60081ZM8.83462 9.49098C9.24596 9.44221 9.53987 9.06922 9.4911 8.65789C9.44233 8.24656 9.06935 7.95264 8.65801 8.00141L8.83462 9.49098ZM18.3498 17.4679C18.2691 17.0616 17.8743 16.7977 17.468 16.8785C17.0618 16.9592 16.7979 17.354 16.8786 17.7602L18.3498 17.4679ZM9.94808 4.65795C9.77459 5.03408 9.93886 5.47963 10.315 5.65313C10.6911 5.82662 11.1367 5.66235 11.3102 5.28622L9.94808 4.65795ZM18.2098 12.5113C17.9056 12.7925 17.8871 13.267 18.1683 13.5711C18.4496 13.8752 18.9241 13.8938 19.2282 13.6126L18.2098 12.5113ZM11.319 2.31413L14.4225 9.04253L15.7846 8.41426L12.6811 1.68587L11.319 2.31413ZM15.0152 9.47317L22.3733 10.3456L22.5499 8.85603L15.1918 7.98361L15.0152 9.47317ZM18.832 21.2447L12.3663 17.6256L11.6337 18.9344L18.0993 22.5536L18.832 21.2447ZM11.6337 17.6256L5.16804 21.2447L5.90071 22.5536L12.3663 18.9344L11.6337 17.6256ZM6.26999 22.0454L7.71405 14.7778L6.24281 14.4854L4.79876 21.753L6.26999 22.0454ZM7.48765 14.081L2.0476 9.05018L1.02918 10.1515L6.46922 15.1822L7.48765 14.081ZM1.6267 10.3456L8.83462 9.49098L8.65801 8.00141L1.45009 8.85603L1.6267 10.3456ZM16.8786 17.7602L17.73 22.0454L19.2013 21.753L18.3498 17.4679L16.8786 17.7602ZM11.3102 5.28622L12.6811 2.31413L11.319 1.68587L9.94808 4.65795L11.3102 5.28622ZM21.9524 9.05018L18.2098 12.5113L19.2282 13.6126L22.9708 10.1515L21.9524 9.05018Z" fill="#292929"/>
<path d="M4.00012 4L20.0001 20" stroke="#292929" stroke-width="1.5" stroke-linecap="round"/>
</svg>
