<svg width="24" height="24" viewBox="0 0 24 24" fill="none" xmlns="http://www.w3.org/2000/svg">
<path d="M15 14L14.2602 14.1233C14.224 13.9058 14.2852 13.6834 14.4277 13.5152C14.5702 13.347 14.7795 13.25 15 13.25V14ZM4 14V14.75C3.58579 14.75 3.25 14.4142 3.25 14H4ZM20.5216 11.6078L21.257 11.4607L20.5216 11.6078ZM6 3.25H17.3604V4.75H6V3.25ZM18.5604 14.75H15V13.25H18.5604V14.75ZM15.7398 13.8767L16.5457 18.7123L15.0661 18.9589L14.2602 14.1233L15.7398 13.8767ZM14.8195 20.75H14.6056V19.25H14.8195V20.75ZM11.4854 19.0801L8.9697 15.3066L10.2178 14.4746L12.7334 18.2481L11.4854 19.0801ZM7.92963 14.75H4V13.25H7.92963V14.75ZM3.25 14V6H4.75V14H3.25ZM20.057 5.46068L21.257 11.4607L19.7861 11.7549L18.5861 5.75486L20.057 5.46068ZM8.9697 15.3066C8.73786 14.9589 8.34757 14.75 7.92963 14.75V13.25C8.8491 13.25 9.70774 13.7095 10.2178 14.4746L8.9697 15.3066ZM16.5457 18.7123C16.7235 19.779 15.9009 20.75 14.8195 20.75V19.25C14.974 19.25 15.0915 19.1113 15.0661 18.9589L16.5457 18.7123ZM18.5604 13.25C19.3492 13.25 19.9408 12.5283 19.7861 11.7549L21.257 11.4607C21.5973 13.1624 20.2958 14.75 18.5604 14.75V13.25ZM17.3604 3.25C18.6713 3.25 19.7999 4.17526 20.057 5.46068L18.5861 5.75486C18.4693 5.17057 17.9562 4.75 17.3604 4.75V3.25ZM14.6056 20.75C13.3517 20.75 12.1809 20.1234 11.4854 19.0801L12.7334 18.2481C13.1507 18.874 13.8533 19.25 14.6056 19.25V20.75ZM6 4.75C5.30964 4.75 4.75 5.30964 4.75 6H3.25C3.25 4.48122 4.48122 3.25 6 3.25V4.75Z" fill="#292929"/>
<path d="M8 14V4" stroke="#292929" stroke-width="1.5"/>
</svg>
