<svg width="24" height="24" viewBox="0 0 24 24" fill="none" xmlns="http://www.w3.org/2000/svg">
<path d="M15 10L14.2602 9.8767C14.224 10.0942 14.2852 10.3166 14.4277 10.4848C14.5702 10.653 14.7795 10.75 15 10.75V10ZM4 10V9.25C3.58579 9.25 3.25 9.58579 3.25 10H4ZM20.5216 12.3922L21.257 12.5393L20.5216 12.3922ZM6 20.75H17.3604V19.25H6V20.75ZM18.5604 9.25H15V10.75H18.5604V9.25ZM15.7398 10.1233L16.5457 5.2877L15.0661 5.0411L14.2602 9.8767L15.7398 10.1233ZM14.8195 3.25H14.6056V4.75H14.8195V3.25ZM11.4854 4.91987L8.9697 8.69338L10.2178 9.52543L12.7334 5.75192L11.4854 4.91987ZM7.92963 9.25H4V10.75H7.92963V9.25ZM3.25 10V18H4.75V10H3.25ZM20.057 18.5393L21.257 12.5393L19.7861 12.2451L18.5861 18.2451L20.057 18.5393ZM8.9697 8.69338C8.73786 9.04112 8.34757 9.25 7.92963 9.25V10.75C8.8491 10.75 9.70774 10.2905 10.2178 9.52543L8.9697 8.69338ZM16.5457 5.2877C16.7235 4.22102 15.9009 3.25 14.8195 3.25V4.75C14.974 4.75 15.0915 4.88872 15.0661 5.0411L16.5457 5.2877ZM18.5604 10.75C19.3492 10.75 19.9408 11.4717 19.7861 12.2451L21.257 12.5393C21.5973 10.8376 20.2958 9.25 18.5604 9.25V10.75ZM17.3604 20.75C18.6713 20.75 19.7999 19.8247 20.057 18.5393L18.5861 18.2451C18.4693 18.8294 17.9562 19.25 17.3604 19.25V20.75ZM14.6056 3.25C13.3517 3.25 12.1809 3.87663 11.4854 4.91987L12.7334 5.75192C13.1507 5.12598 13.8533 4.75 14.6056 4.75V3.25ZM6 19.25C5.30964 19.25 4.75 18.6904 4.75 18H3.25C3.25 19.5188 4.48122 20.75 6 20.75V19.25Z" fill="#292929"/>
<path d="M8 10V20" stroke="#292929" stroke-width="1.5"/>
</svg>
