<svg width="24" height="24" viewBox="0 0 24 24" fill="none" xmlns="http://www.w3.org/2000/svg">
<g clip-path="url(#clip0)">
<path d="M19.0002 19H6.00024C3.23882 19 1.00024 16.7614 1.00024 14C1.00024 11.35 3.06187 9.18144 5.66875 9.01081C6.01502 8.27866 6.48454 7.61621 7.05053 7.05022M10.7657 5.10852C11.1664 5.03721 11.579 5 12.0002 5C15.5269 5 18.4445 7.60802 18.9294 11.0006C18.953 11.0002 18.9766 11 19.0002 11C21.2094 11 23.0002 12.7909 23.0002 15C23.0002 15.6782 22.8315 16.3169 22.5337 16.8765" stroke="#242328" stroke-linecap="round" stroke-linejoin="round"/>
<path d="M4.00024 4L20.0002 20" stroke="#242328" stroke-linecap="round"/>
</g>
<defs>
<clipPath id="clip0">
<rect width="24" height="24" fill="white" transform="translate(0.000244141)"/>
</clipPath>
</defs>
</svg>
