<svg width="24" height="24" viewBox="0 0 24 24" fill="none" xmlns="http://www.w3.org/2000/svg">
<path d="M1 4V3C0.447715 3 0 3.44772 0 4H1ZM15 4H16C16 3.44772 15.5523 3 15 3V4ZM15 7V6C14.7348 6 14.4804 6.10536 14.2929 6.29289C14.1054 6.48043 14 6.73478 14 7H15ZM1 5H15V3H1V5ZM14 4V18H16V4H14ZM2 16V4H0V16H2ZM15 8H19V6H15V8ZM22 11V16H24V11H22ZM16 18L16 7H14L14 18H16ZM19.7071 18.7071C19.3166 19.0976 18.6834 19.0976 18.2929 18.7071L16.8787 20.1213C18.0503 21.2929 19.9497 21.2929 21.1213 20.1213L19.7071 18.7071ZM18.2929 17.2929C18.6834 16.9024 19.3166 16.9024 19.7071 17.2929L21.1213 15.8787C19.9497 14.7071 18.0503 14.7071 16.8787 15.8787L18.2929 17.2929ZM6.70711 18.7071C6.31658 19.0976 5.68342 19.0976 5.29289 18.7071L3.87868 20.1213C5.05025 21.2929 6.94975 21.2929 8.12132 20.1213L6.70711 18.7071ZM5.29289 17.2929C5.68342 16.9024 6.31658 16.9024 6.70711 17.2929L8.12132 15.8787C6.94975 14.7071 5.05025 14.7071 3.87868 15.8787L5.29289 17.2929ZM19.7071 17.2929C19.9026 17.4884 20 17.7425 20 18H22C22 17.2338 21.7069 16.4643 21.1213 15.8787L19.7071 17.2929ZM20 18C20 18.2575 19.9026 18.5116 19.7071 18.7071L21.1213 20.1213C21.7069 19.5357 22 18.7662 22 18H20ZM17 17H15V19H17V17ZM18.2929 18.7071C18.0974 18.5116 18 18.2575 18 18H16C16 18.7662 16.2931 19.5357 16.8787 20.1213L18.2929 18.7071ZM18 18C18 17.7425 18.0974 17.4884 18.2929 17.2929L16.8787 15.8787C16.2931 16.4643 16 17.2338 16 18H18ZM5.29289 18.7071C5.09744 18.5116 5 18.2575 5 18H3C3 18.7662 3.29309 19.5357 3.87868 20.1213L5.29289 18.7071ZM5 18C5 17.7425 5.09744 17.4884 5.29289 17.2929L3.87868 15.8787C3.29309 16.4643 3 17.2338 3 18H5ZM4 17H3V19H4V17ZM15 17H8V19H15V17ZM6.70711 17.2929C6.90256 17.4884 7 17.7425 7 18H9C9 17.2338 8.70691 16.4643 8.12132 15.8787L6.70711 17.2929ZM7 18C7 18.2575 6.90256 18.5116 6.70711 18.7071L8.12132 20.1213C8.70691 19.5357 9 18.7662 9 18H7ZM22 16C22 16.5523 21.5523 17 21 17V19C22.6569 19 24 17.6569 24 16H22ZM19 8C20.6569 8 22 9.34315 22 11H24C24 8.23858 21.7614 6 19 6V8ZM0 16C0 17.6569 1.34315 19 3 19V17C2.44772 17 2 16.5523 2 16H0Z" fill="#242328"/>
<path d="M5.06909 10.8672H3.96362V12H3.27808V9.15625H5.18042V9.68555H3.96362V10.3398H5.06909V10.8672Z" fill="#242328"/>
<path d="M6.72222 10.9961H6.35112V12H5.66558V9.15625H6.78472C7.12196 9.15625 7.38563 9.23112 7.57573 9.38086C7.76584 9.5306 7.86089 9.74219 7.86089 10.0156C7.86089 10.2135 7.82052 10.3776 7.73979 10.5078C7.66037 10.638 7.53537 10.7435 7.36479 10.8242L7.95854 11.9707V12H7.22417L6.72222 10.9961ZM6.35112 10.4668H6.78472C6.91493 10.4668 7.01258 10.4329 7.07769 10.3652C7.14409 10.2962 7.17729 10.2005 7.17729 10.0781C7.17729 9.95573 7.14409 9.86003 7.07769 9.79102C7.01128 9.7207 6.91362 9.68555 6.78472 9.68555H6.35112V10.4668Z" fill="#242328"/>
<path d="M10.2386 10.7949H9.1605V11.4727H10.4339V12H8.47495V9.15625H10.4378V9.68555H9.1605V10.2852H10.2386V10.7949Z" fill="#242328"/>
<path d="M12.6769 10.7949H11.5988V11.4727H12.8722V12H10.9132V9.15625H12.8761V9.68555H11.5988V10.2852H12.6769V10.7949Z" fill="#242328"/>
</svg>
