<svg width="24" height="24" viewBox="0 0 24 24" fill="none" xmlns="http://www.w3.org/2000/svg">
<path d="M20 13V12C20 7.58172 16.4183 4 12 4C7.58172 4 4 7.58172 4 12V13" stroke="#242328" stroke-linecap="round"/>
<path d="M4 13V12.5H3.5V13H4ZM4 13.5H7V12.5H4V13.5ZM7.5 14V17H8.5V14H7.5ZM4.5 17V13H3.5V17H4.5ZM6 18.5C5.17157 18.5 4.5 17.8284 4.5 17H3.5C3.5 18.3807 4.61929 19.5 6 19.5V18.5ZM7.5 17C7.5 17.8284 6.82843 18.5 6 18.5V19.5C7.38071 19.5 8.5 18.3807 8.5 17H7.5ZM7 13.5C7.27614 13.5 7.5 13.7239 7.5 14H8.5C8.5 13.1716 7.82843 12.5 7 12.5V13.5Z" fill="#242328"/>
<path d="M20 13H20.5V12.5H20V13ZM17 13.5H20V12.5H17V13.5ZM19.5 13V17H20.5V13H19.5ZM16.5 17V14H15.5V17H16.5ZM18 18.5C17.1716 18.5 16.5 17.8284 16.5 17H15.5C15.5 18.3807 16.6193 19.5 18 19.5V18.5ZM19.5 17C19.5 17.8284 18.8284 18.5 18 18.5V19.5C19.3807 19.5 20.5 18.3807 20.5 17H19.5ZM17 12.5C16.1716 12.5 15.5 13.1716 15.5 14H16.5C16.5 13.7239 16.7239 13.5 17 13.5V12.5Z" fill="#242328"/>
</svg>
