<svg width="24" height="24" viewBox="0 0 24 24" fill="none" xmlns="http://www.w3.org/2000/svg">
<path d="M8.53033 6.53033C8.82322 6.23744 8.82322 5.76256 8.53033 5.46967C8.23744 5.17678 7.76256 5.17678 7.46967 5.46967L8.53033 6.53033ZM5 9L4.46967 8.46967C4.17678 8.76256 4.17678 9.23744 4.46967 9.53033L5 9ZM7.46967 12.5303C7.76256 12.8232 8.23744 12.8232 8.53033 12.5303C8.82322 12.2374 8.82322 11.7626 8.53033 11.4697L7.46967 12.5303ZM5 16.25C4.58579 16.25 4.25 16.5858 4.25 17C4.25 17.4142 4.58579 17.75 5 17.75V16.25ZM7.46967 5.46967L4.46967 8.46967L5.53033 9.53033L8.53033 6.53033L7.46967 5.46967ZM4.46967 9.53033L7.46967 12.5303L8.53033 11.4697L5.53033 8.46967L4.46967 9.53033ZM5 9.75H16V8.25H5V9.75ZM19.25 13C19.25 14.7949 17.7949 16.25 16 16.25V17.75C18.6234 17.75 20.75 15.6234 20.75 13H19.25ZM16 9.75C17.7949 9.75 19.25 11.2051 19.25 13H20.75C20.75 10.3766 18.6234 8.25 16 8.25V9.75ZM5 17.75H16V16.25H5V17.75Z" fill="#292929"/>
</svg>
