<svg width="24" height="24" viewBox="0 0 24 24" fill="none" xmlns="http://www.w3.org/2000/svg">
<path d="M16.5303 5.46967C16.2374 5.17678 15.7626 5.17678 15.4697 5.46967C15.1768 5.76256 15.1768 6.23744 15.4697 6.53033L16.5303 5.46967ZM19 9L19.5303 9.53033C19.8232 9.23744 19.8232 8.76256 19.5303 8.46967L19 9ZM15.4697 11.4697C15.1768 11.7626 15.1768 12.2374 15.4697 12.5303C15.7626 12.8232 16.2374 12.8232 16.5303 12.5303L15.4697 11.4697ZM19 17.75C19.4142 17.75 19.75 17.4142 19.75 17C19.75 16.5858 19.4142 16.25 19 16.25V17.75ZM15.4697 6.53033L18.4697 9.53033L19.5303 8.46967L16.5303 5.46967L15.4697 6.53033ZM18.4697 8.46967L15.4697 11.4697L16.5303 12.5303L19.5303 9.53033L18.4697 8.46967ZM19 8.25H8V9.75H19V8.25ZM3.25 13C3.25 15.6234 5.37665 17.75 8 17.75V16.25C6.20507 16.25 4.75 14.7949 4.75 13H3.25ZM8 8.25C5.37665 8.25 3.25 10.3766 3.25 13H4.75C4.75 11.2051 6.20507 9.75 8 9.75V8.25ZM19 16.25H8V17.75H19V16.25Z" fill="#292929"/>
</svg>
