<svg width="24" height="24" viewBox="0 0 24 24" fill="none" xmlns="http://www.w3.org/2000/svg">
<path d="M12 20.25C7.44365 20.25 3.75 16.5563 3.75 12H2.25C2.25 17.3848 6.61522 21.75 12 21.75V20.25ZM12 3.75C16.5563 3.75 20.25 7.44365 20.25 12H21.75C21.75 6.61522 17.3848 2.25 12 2.25V3.75ZM3.75 12C3.75 9.72162 4.67259 7.66015 6.16637 6.16637L5.10571 5.10571C3.34213 6.86929 2.25 9.30782 2.25 12H3.75ZM6.16637 6.16637C7.66015 4.67259 9.72162 3.75 12 3.75V2.25C9.30782 2.25 6.86929 3.34213 5.10571 5.10571L6.16637 6.16637ZM5.10571 6.16637L17.8336 18.8943L18.8943 17.8336L6.16637 5.10571L5.10571 6.16637ZM20.25 12C20.25 14.2784 19.3274 16.3399 17.8336 17.8336L18.8943 18.8943C20.6579 17.1307 21.75 14.6922 21.75 12H20.25ZM17.8336 17.8336C16.3399 19.3274 14.2784 20.25 12 20.25V21.75C14.6922 21.75 17.1307 20.6579 18.8943 18.8943L17.8336 17.8336Z" fill="#292929"/>
</svg>
