<svg width="24" height="24" viewBox="0 0 24 24" fill="none" xmlns="http://www.w3.org/2000/svg">
<path fill-rule="evenodd" clip-rule="evenodd" d="M2 12C2 6.47715 6.47715 2 12 2C17.5228 2 22 6.47715 22 12C22 17.5228 17.5228 22 12 22C6.47715 22 2 17.5228 2 12ZM9 11C9.82843 11 10.5 10.3284 10.5 9.5C10.5 8.67157 9.82843 8 9 8C8.17157 8 7.5 8.67157 7.5 9.5C7.5 10.3284 8.17157 11 9 11ZM15 11C15.8284 11 16.5 10.3284 16.5 9.5C16.5 8.67157 15.8284 8 15 8C14.1716 8 13.5 8.67157 13.5 9.5C13.5 10.3284 14.1716 11 15 11ZM13.5 15C13.5 15.8284 12.8284 16.5 12 16.5C11.1716 16.5 10.5 15.8284 10.5 15C10.5 14.1716 11.1716 13.5 12 13.5C12.8284 13.5 13.5 14.1716 13.5 15Z" fill="#242328"/>
</svg>
