<svg width="24" height="24" viewBox="0 0 24 24" fill="none" xmlns="http://www.w3.org/2000/svg">
<path fill-rule="evenodd" clip-rule="evenodd" d="M2 12C2 6.47715 6.47715 2 12 2C17.5228 2 22 6.47715 22 12C22 17.5228 17.5228 22 12 22C6.47715 22 2 17.5228 2 12ZM9 11C9.82843 11 10.5 10.3284 10.5 9.5C10.5 8.67157 9.82843 8 9 8C8.17157 8 7.5 8.67157 7.5 9.5C7.5 10.3284 8.17157 11 9 11ZM13.4472 14.8944C13.9412 14.6474 14.1414 14.0468 13.8944 13.5528C13.6474 13.0588 13.0468 12.8586 12.5528 13.1056L10.5528 14.1056C10.214 14.275 10 14.6212 10 15C10 15.3788 10.214 15.725 10.5528 15.8944L12.5528 16.8944C13.0468 17.1414 13.6474 16.9412 13.8944 16.4472C14.1414 15.9532 13.9412 15.3526 13.4472 15.1056L13.2361 15L13.4472 14.8944ZM16.5 9.5C16.5 10.3284 15.8284 11 15 11C14.1716 11 13.5 10.3284 13.5 9.5C13.5 8.67157 14.1716 8 15 8C15.8284 8 16.5 8.67157 16.5 9.5Z" fill="#242328"/>
</svg>
