<svg width="24" height="24" viewBox="0 0 24 24" fill="none" xmlns="http://www.w3.org/2000/svg">
<path fill-rule="evenodd" clip-rule="evenodd" d="M2 12C2 6.47715 6.47715 2 12 2C17.5228 2 22 6.47715 22 12C22 17.5228 17.5228 22 12 22C6.47715 22 2 17.5228 2 12ZM9 11C9.82843 11 10.5 10.3284 10.5 9.5C10.5 8.67157 9.82843 8 9 8C8.17157 8 7.5 8.67157 7.5 9.5C7.5 10.3284 8.17157 11 9 11ZM15 11C15.8284 11 16.5 10.3284 16.5 9.5C16.5 8.67157 15.8284 8 15 8C14.1716 8 13.5 8.67157 13.5 9.5C13.5 10.3284 14.1716 11 15 11ZM8.03443 13.1344C8.51249 12.8579 9.12422 13.0212 9.40076 13.4993C9.92099 14.3986 10.8909 15 12 15C13.1092 15 14.0791 14.3986 14.5993 13.4993C14.8758 13.0212 15.4876 12.8579 15.9656 13.1344C16.4437 13.4109 16.607 14.0227 16.3305 14.5007C15.4675 15.9926 13.852 17 12 17C10.1481 17 8.53256 15.9926 7.66955 14.5007C7.39301 14.0227 7.55637 13.4109 8.03443 13.1344Z" fill="#242328"/>
</svg>
