<svg width="24" height="24" viewBox="0 0 24 24" fill="none" xmlns="http://www.w3.org/2000/svg">
<path d="M2 7V6.5C1.72386 6.5 1.5 6.72386 1.5 7H2ZM13 7H13.5C13.5 6.72386 13.2761 6.5 13 6.5V7ZM13 9V8.5C12.8674 8.5 12.7402 8.55268 12.6464 8.64645C12.5527 8.74021 12.5 8.86739 12.5 9H13ZM2 7.5H13V6.5H2V7.5ZM12.5 7V19H13.5V7H12.5ZM2.5 17V7H1.5V17H2.5ZM13 9.5H18V8.5H13V9.5ZM21.5 13V17H22.5V13H21.5ZM13.5 19L13.5 9H12.5L12.5 19H13.5ZM19.0607 20.0607C18.4749 20.6464 17.5251 20.6464 16.9393 20.0607L16.2322 20.7678C17.2085 21.7441 18.7915 21.7441 19.7678 20.7678L19.0607 20.0607ZM16.9393 17.9393C17.5251 17.3536 18.4749 17.3536 19.0607 17.9393L19.7678 17.2322C18.7915 16.2559 17.2085 16.2559 16.2322 17.2322L16.9393 17.9393ZM7.06066 20.0607C6.47487 20.6464 5.52513 20.6464 4.93934 20.0607L4.23223 20.7678C5.20854 21.7441 6.79146 21.7441 7.76777 20.7678L7.06066 20.0607ZM4.93934 17.9393C5.52513 17.3536 6.47487 17.3536 7.06066 17.9393L7.76777 17.2322C6.79146 16.2559 5.20854 16.2559 4.23223 17.2322L4.93934 17.9393ZM19.0607 17.9393C19.3537 18.2323 19.5 18.6153 19.5 19H20.5C20.5 18.361 20.2558 17.7203 19.7678 17.2322L19.0607 17.9393ZM19.5 19C19.5 19.3847 19.3537 19.7677 19.0607 20.0607L19.7678 20.7678C20.2558 20.2797 20.5 19.639 20.5 19H19.5ZM16 18.5H13V19.5H16V18.5ZM16.9393 20.0607C16.6463 19.7677 16.5 19.3847 16.5 19H15.5C15.5 19.639 15.7442 20.2797 16.2322 20.7678L16.9393 20.0607ZM16.5 19C16.5 18.6153 16.6463 18.2323 16.9393 17.9393L16.2322 17.2322C15.7442 17.7203 15.5 18.361 15.5 19H16.5ZM4.93934 20.0607C4.64635 19.7677 4.5 19.3847 4.5 19H3.5C3.5 19.639 3.74418 20.2797 4.23223 20.7678L4.93934 20.0607ZM4.5 19C4.5 18.6153 4.64635 18.2323 4.93934 17.9393L4.23223 17.2322C3.74418 17.7203 3.5 18.361 3.5 19H4.5ZM13 18.5H8V19.5H13V18.5ZM7.06066 17.9393C7.35365 18.2323 7.5 18.6153 7.5 19H8.5C8.5 18.361 8.25582 17.7203 7.76777 17.2322L7.06066 17.9393ZM7.5 19C7.5 19.3847 7.35365 19.7677 7.06066 20.0607L7.76777 20.7678C8.25582 20.2797 8.5 19.639 8.5 19H7.5ZM21.5 17C21.5 17.8284 20.8284 18.5 20 18.5V19.5C21.3807 19.5 22.5 18.3807 22.5 17H21.5ZM18 9.5C19.933 9.5 21.5 11.067 21.5 13H22.5C22.5 10.5147 20.4853 8.5 18 8.5V9.5ZM1.5 17C1.5 18.3807 2.61929 19.5 4 19.5V18.5C3.17157 18.5 2.5 17.8284 2.5 17H1.5Z" fill="#292929"/>
<path d="M3.5 4C3.5 3.44772 3.94772 3 4.5 3V3C6.15685 3 7.5 4.34315 7.5 6V7H6.5C4.84315 7 3.5 5.65685 3.5 4V4Z" stroke="#292929" stroke-linejoin="round"/>
<path d="M11.5 4C11.5 3.44772 11.0523 3 10.5 3V3C8.84315 3 7.5 4.34315 7.5 6V7H8.5C10.1569 7 11.5 5.65685 11.5 4V4Z" stroke="#292929" stroke-linejoin="round"/>
</svg>
