<svg width="24" height="24" viewBox="0 0 24 24" fill="none" xmlns="http://www.w3.org/2000/svg">
<path fill-rule="evenodd" clip-rule="evenodd" d="M10.4684 20.847C10.0006 20.5534 9.85941 19.9362 10.153 19.4684L13.0107 14.9152C12.6821 14.971 12.3445 15 12 15C8.68629 15 6 12.3137 6 9C6 5.68629 8.68629 3 12 3C15.3137 3 18 5.68629 18 9C18 10.1867 17.6555 11.2928 17.0611 12.224L11.847 20.5316C11.5534 20.9994 10.9362 21.1406 10.4684 20.847ZM12 13C14.2091 13 16 11.2091 16 9C16 6.79086 14.2091 5 12 5C9.79086 5 8 6.79086 8 9C8 11.2091 9.79086 13 12 13Z" fill="#292929"/>
</svg>
