<svg width="24" height="24" viewBox="0 0 24 24" fill="none" xmlns="http://www.w3.org/2000/svg">
<path fill-rule="evenodd" clip-rule="evenodd" d="M10.5 6.5C10.5 5.67157 11.1716 5 12 5H12.01C12.8384 5 13.51 5.67157 13.51 6.5V6.51C13.51 7.33843 12.8384 8.01 12.01 8.01H12C11.1716 8.01 10.5 7.33843 10.5 6.51V6.5ZM10.5 17.5C10.5 16.6716 11.1716 16 12 16H12.01C12.8384 16 13.51 16.6716 13.51 17.5V17.51C13.51 18.3384 12.8384 19.01 12.01 19.01H12C11.1716 19.01 10.5 18.3384 10.5 17.51V17.5ZM6.00005 11C5.44776 11 5.00005 11.4477 5.00005 12C5.00005 12.5523 5.44776 13 6.00005 13H18C18.5523 13 19 12.5523 19 12C19 11.4477 18.5523 11 18 11H6.00005Z" fill="#292929"/>
</svg>
