<svg width="24" height="24" viewBox="0 0 24 24" fill="none" xmlns="http://www.w3.org/2000/svg">
<path d="M9 5V19H11V5H9Z" fill="#4400FF"/>
<path d="M3 10H2C2 10.5523 2.44772 11 3 11L3 10ZM3 14L3 13C2.44772 13 2 13.4477 2 14H3ZM21 10V11C21.5523 11 22 10.5523 22 10H21ZM21 14H22C22 13.4477 21.5523 13 21 13V14ZM3.70711 11.2929C4.09763 11.6834 4.09763 12.3166 3.70711 12.7071L5.12132 14.1213C6.29289 12.9497 6.29289 11.0503 5.12132 9.87868L3.70711 11.2929ZM20.2929 12.7071C19.9024 12.3166 19.9024 11.6834 20.2929 11.2929L18.8787 9.87868C17.7071 11.0503 17.7071 12.9497 18.8787 14.1213L20.2929 12.7071ZM3 11C3.25747 11 3.51165 11.0974 3.70711 11.2929L5.12132 9.87868C4.53573 9.29309 3.76622 9 3 9L3 11ZM4 10V7H2V10H4ZM4 17V14H2V17H4ZM3.70711 12.7071C3.51165 12.9026 3.25747 13 3 13L3 15C3.76622 15 4.53573 14.7069 5.12132 14.1213L3.70711 12.7071ZM20.2929 11.2929C20.4884 11.0974 20.7425 11 21 11V9C20.2338 9 19.4643 9.29309 18.8787 9.87868L20.2929 11.2929ZM20 7V10H22V7H20ZM20 14C20 14.0015 20 14.0029 20 14.0044C20 14.0059 20 14.0073 20 14.0088C20 14.0103 20 14.0118 20 14.0132C20 14.0147 20 14.0162 20 14.0176C20 14.0191 20 14.0206 20 14.0221C20 14.0236 20 14.025 20 14.0265C20 14.028 20 14.0295 20 14.031C20 14.0325 20 14.0339 20 14.0354C20 14.0369 20 14.0384 20 14.0399C20 14.0414 20 14.0429 20 14.0444C20 14.0459 20 14.0474 20 14.0489C20 14.0504 20 14.0519 20 14.0534C20 14.0549 20 14.0564 20 14.0579C20 14.0594 20 14.0609 20 14.0624C20 14.0639 20 14.0654 20 14.0669C20 14.0684 20 14.0699 20 14.0714C20 14.0729 20 14.0744 20 14.0759C20 14.0775 20 14.079 20 14.0805C20 14.082 20 14.0835 20 14.085C20 14.0866 20 14.0881 20 14.0896C20 14.0911 20 14.0927 20 14.0942C20 14.0957 20 14.0972 20 14.0988C20 14.1003 20 14.1018 20 14.1033C20 14.1049 20 14.1064 20 14.1079C20 14.1095 20 14.111 20 14.1125C20 14.1141 20 14.1156 20 14.1171C20 14.1187 20 14.1202 20 14.1218C20 14.1233 20 14.1248 20 14.1264C20 14.1279 20 14.1295 20 14.131C20 14.1326 20 14.1341 20 14.1357C20 14.1372 20 14.1388 20 14.1403C20 14.1419 20 14.1434 20 14.145C20 14.1465 20 14.1481 20 14.1496C20 14.1512 20 14.1528 20 14.1543C20 14.1559 20 14.1574 20 14.159C20 14.1606 20 14.1621 20 14.1637C20 14.1653 20 14.1668 20 14.1684C20 14.17 20 14.1715 20 14.1731C20 14.1747 20 14.1762 20 14.1778C20 14.1794 20 14.181 20 14.1825C20 14.1841 20 14.1857 20 14.1873C20 14.1889 20 14.1904 20 14.192C20 14.1936 20 14.1952 20 14.1968C20 14.1983 20 14.1999 20 14.2015C20 14.2031 20 14.2047 20 14.2063C20 14.2079 20 14.2095 20 14.2111C20 14.2126 20 14.2142 20 14.2158C20 14.2174 20 14.219 20 14.2206C20 14.2222 20 14.2238 20 14.2254C20 14.227 20 14.2286 20 14.2302C20 14.2318 20 14.2334 20 14.235C20 14.2366 20 14.2382 20 14.2398C20 14.2415 20 14.2431 20 14.2447C20 14.2463 20 14.2479 20 14.2495C20 14.2511 20 14.2527 20 14.2543C20 14.256 20 14.2576 20 14.2592C20 14.2608 20 14.2624 20 14.264C20 14.2657 20 14.2673 20 14.2689C20 14.2705 20 14.2722 20 14.2738C20 14.2754 20 14.277 20 14.2787C20 14.2803 20 14.2819 20 14.2836C20 14.2852 20 14.2868 20 14.2884C20 14.2901 20 14.2917 20 14.2934C20 14.295 20 14.2966 20 14.2983C20 14.2999 20 14.3015 20 14.3032C20 14.3048 20 14.3065 20 14.3081C20 14.3097 20 14.3114 20 14.313C20 14.3147 20 14.3163 20 14.318C20 14.3196 20 14.3213 20 14.3229C20 14.3246 20 14.3262 20 14.3279C20 14.3295 20 14.3312 20 14.3328C20 14.3345 20 14.3362 20 14.3378C20 14.3395 20 14.3411 20 14.3428C20 14.3445 20 14.3461 20 14.3478C20 14.3494 20 14.3511 20 14.3528C20 14.3544 20 14.3561 20 14.3578C20 14.3594 20 14.3611 20 14.3628C20 14.3644 20 14.3661 20 14.3678C20 14.3695 20 14.3711 20 14.3728C20 14.3745 20 14.3762 20 14.3778C20 14.3795 20 14.3812 20 14.3829C20 14.3846 20 14.3862 20 14.3879C20 14.3896 20 14.3913 20 14.393C20 14.3947 20 14.3963 20 14.398C20 14.3997 20 14.4014 20 14.4031C20 14.4048 20 14.4065 20 14.4082C20 14.4099 20 14.4116 20 14.4133C20 14.4149 20 14.4166 20 14.4183C20 14.42 20 14.4217 20 14.4234C20 14.4251 20 14.4268 20 14.4285C20 14.4302 20 14.4319 20 14.4336C20 14.4353 20 14.4371 20 14.4388C20 14.4405 20 14.4422 20 14.4439C20 14.4456 20 14.4473 20 14.449C20 14.4507 20 14.4524 20 14.4541C20 14.4559 20 14.4576 20 14.4593C20 14.461 20 14.4627 20 14.4644C20 14.4662 20 14.4679 20 14.4696C20 14.4713 20 14.473 20 14.4748C20 14.4765 20 14.4782 20 14.4799C20 14.4817 20 14.4834 20 14.4851C20 14.4868 20 14.4886 20 14.4903C20 14.492 20 14.4938 20 14.4955C20 14.4972 20 14.499 20 14.5007C20 14.5024 20 14.5042 20 14.5059C20 14.5076 20 14.5094 20 14.5111C20 14.5128 20 14.5146 20 14.5163C20 14.5181 20 14.5198 20 14.5216C20 14.5233 20 14.525 20 14.5268C20 14.5285 20 14.5303 20 14.532C20 14.5338 20 14.5355 20 14.5373C20 14.539 20 14.5408 20 14.5425C20 14.5443 20 14.546 20 14.5478C20 14.5495 20 14.5513 20 14.5531C20 14.5548 20 14.5566 20 14.5583C20 14.5601 20 14.5619 20 14.5636C20 14.5654 20 14.5671 20 14.5689C20 14.5707 20 14.5724 20 14.5742C20 14.576 20 14.5777 20 14.5795C20 14.5813 20 14.583 20 14.5848C20 14.5866 20 14.5883 20 14.5901C20 14.5919 20 14.5937 20 14.5954C20 14.5972 20 14.599 20 14.6008C20 14.6025 20 14.6043 20 14.6061C20 14.6079 20 14.6097 20 14.6114C20 14.6132 20 14.615 20 14.6168C20 14.6186 20 14.6204 20 14.6221C20 14.6239 20 14.6257 20 14.6275C20 14.6293 20 14.6311 20 14.6329C20 14.6347 20 14.6364 20 14.6382C20 14.64 20 14.6418 20 14.6436C20 14.6454 20 14.6472 20 14.649C20 14.6508 20 14.6526 20 14.6544C20 14.6562 20 14.658 20 14.6598C20 14.6616 20 14.6634 20 14.6652C20 14.667 20 14.6688 20 14.6706C20 14.6724 20 14.6742 20 14.676C20 14.6778 20 14.6796 20 14.6814C20 14.6833 20 14.6851 20 14.6869C20 14.6887 20 14.6905 20 14.6923C20 14.6941 20 14.6959 20 14.6978C20 14.6996 20 14.7014 20 14.7032C20 14.705 20 14.7068 20 14.7087C20 14.7105 20 14.7123 20 14.7141C20 14.7159 20 14.7178 20 14.7196C20 14.7214 20 14.7232 20 14.7251C20 14.7269 20 14.7287 20 14.7305C20 14.7324 20 14.7342 20 14.736C20 14.7378 20 14.7397 20 14.7415C20 14.7433 20 14.7452 20 14.747C20 14.7488 20 14.7507 20 14.7525C20 14.7543 20 14.7562 20 14.758C20 14.7599 20 14.7617 20 14.7635C20 14.7654 20 14.7672 20 14.7691C20 14.7709 20 14.7727 20 14.7746C20 14.7764 20 14.7783 20 14.7801C20 14.782 20 14.7838 20 14.7857C20 14.7875 20 14.7894 20 14.7912C20 14.7931 20 14.7949 20 14.7968C20 14.7986 20 14.8005 20 14.8023C20 14.8042 20 14.806 20 14.8079C20 14.8097 20 14.8116 20 14.8134C20 14.8153 20 14.8172 20 14.819C20 14.8209 20 14.8227 20 14.8246C20 14.8265 20 14.8283 20 14.8302C20 14.8321 20 14.8339 20 14.8358C20 14.8376 20 14.8395 20 14.8414C20 14.8433 20 14.8451 20 14.847C20 14.8489 20 14.8507 20 14.8526C20 14.8545 20 14.8563 20 14.8582C20 14.8601 20 14.862 20 14.8638C20 14.8657 20 14.8676 20 14.8695C20 14.8713 20 14.8732 20 14.8751C20 14.877 20 14.8789 20 14.8807C20 14.8826 20 14.8845 20 14.8864C20 14.8883 20 14.8901 20 14.892C20 14.8939 20 14.8958 20 14.8977C20 14.8996 20 14.9015 20 14.9033C20 14.9052 20 14.9071 20 14.909C20 14.9109 20 14.9128 20 14.9147C20 14.9166 20 14.9185 20 14.9204C20 14.9223 20 14.9241 20 14.926C20 14.9279 20 14.9298 20 14.9317C20 14.9336 20 14.9355 20 14.9374C20 14.9393 20 14.9412 20 14.9431C20 14.945 20 14.9469 20 14.9488C20 14.9507 20 14.9526 20 14.9545C20 14.9564 20 14.9584 20 14.9603C20 14.9622 20 14.9641 20 14.966C20 14.9679 20 14.9698 20 14.9717C20 14.9736 20 14.9755 20 14.9774C20 14.9794 20 14.9813 20 14.9832C20 14.9851 20 14.987 20 14.9889C20 14.9908 20 14.9928 20 14.9947C20 14.9966 20 14.9985 20 15.0004C20 15.0023 20 15.0043 20 15.0062C20 15.0081 20 15.01 20 15.012C20 15.0139 20 15.0158 20 15.0177C20 15.0196 20 15.0216 20 15.0235C20 15.0254 20 15.0273 20 15.0293C20 15.0312 20 15.0331 20 15.0351C20 15.037 20 15.0389 20 15.0409C20 15.0428 20 15.0447 20 15.0466C20 15.0486 20 15.0505 20 15.0524C20 15.0544 20 15.0563 20 15.0583C20 15.0602 20 15.0621 20 15.0641C20 15.066 20 15.0679 20 15.0699C20 15.0718 20 15.0738 20 15.0757C20 15.0776 20 15.0796 20 15.0815C20 15.0835 20 15.0854 20 15.0874C20 15.0893 20 15.0913 20 15.0932C20 15.0951 20 15.0971 20 15.099C20 15.101 20 15.1029 20 15.1049C20 15.1068 20 15.1088 20 15.1107C20 15.1127 20 15.1146 20 15.1166C20 15.1185 20 15.1205 20 15.1225C20 15.1244 20 15.1264 20 15.1283C20 15.1303 20 15.1322 20 15.1342C20 15.1362 20 15.1381 20 15.1401C20 15.142 20 15.144 20 15.146C20 15.1479 20 15.1499 20 15.1518C20 15.1538 20 15.1558 20 15.1577C20 15.1597 20 15.1617 20 15.1636C20 15.1656 20 15.1676 20 15.1695C20 15.1715 20 15.1735 20 15.1754C20 15.1774 20 15.1794 20 15.1813C20 15.1833 20 15.1853 20 15.1873C20 15.1892 20 15.1912 20 15.1932C20 15.1952 20 15.1971 20 15.1991C20 15.2011 20 15.2031 20 15.205C20 15.207 20 15.209 20 15.211C20 15.2129 20 15.2149 20 15.2169C20 15.2189 20 15.2209 20 15.2228C20 15.2248 20 15.2268 20 15.2288C20 15.2308 20 15.2328 20 15.2347C20 15.2367 20 15.2387 20 15.2407C20 15.2427 20 15.2447 20 15.2467C20 15.2487 20 15.2506 20 15.2526C20 15.2546 20 15.2566 20 15.2586C20 15.2606 20 15.2626 20 15.2646C20 15.2666 20 15.2686 20 15.2706C20 15.2726 20 15.2745 20 15.2765C20 15.2785 20 15.2805 20 15.2825C20 15.2845 20 15.2865 20 15.2885C20 15.2905 20 15.2925 20 15.2945C20 15.2965 20 15.2985 20 15.3005C20 15.3025 20 15.3045 20 15.3065C20 15.3085 20 15.3105 20 15.3125C20 15.3145 20 15.3166 20 15.3186C20 15.3206 20 15.3226 20 15.3246C20 15.3266 20 15.3286 20 15.3306C20 15.3326 20 15.3346 20 15.3366C20 15.3386 20 15.3407 20 15.3427C20 15.3447 20 15.3467 20 15.3487C20 15.3507 20 15.3527 20 15.3547C20 15.3568 20 15.3588 20 15.3608C20 15.3628 20 15.3648 20 15.3668C20 15.3689 20 15.3709 20 15.3729C20 15.3749 20 15.3769 20 15.379C20 15.381 20 15.383 20 15.385C20 15.387 20 15.3891 20 15.3911C20 15.3931 20 15.3951 20 15.3972C20 15.3992 20 15.4012 20 15.4032C20 15.4053 20 15.4073 20 15.4093C20 15.4113 20 15.4134 20 15.4154C20 15.4174 20 15.4194 20 15.4215C20 15.4235 20 15.4255 20 15.4276C20 15.4296 20 15.4316 20 15.4337C20 15.4357 20 15.4377 20 15.4398C20 15.4418 20 15.4438 20 15.4459C20 15.4479 20 15.4499 20 15.452C20 15.454 20 15.456 20 15.4581C20 15.4601 20 15.4622 20 15.4642C20 15.4662 20 15.4683 20 15.4703C20 15.4724 20 15.4744 20 15.4764C20 15.4785 20 15.4805 20 15.4826C20 15.4846 20 15.4867 20 15.4887C20 15.4907 20 15.4928 20 15.4948C20 15.4969 20 15.4989 20 15.501C20 15.503 20 15.5051 20 15.5071C20 15.5092 20 15.5112 20 15.5133C20 15.5153 20 15.5174 20 15.5194C20 15.5215 20 15.5235 20 15.5256C20 15.5276 20 15.5297 20 15.5317C20 15.5338 20 15.5358 20 15.5379C20 15.5399 20 15.542 20 15.5441C20 15.5461 20 15.5482 20 15.5502C20 15.5523 20 15.5543 20 15.5564C20 15.5585 20 15.5605 20 15.5626C20 15.5646 20 15.5667 20 15.5688C20 15.5708 20 15.5729 20 15.5749C20 15.577 20 15.5791 20 15.5811C20 15.5832 20 15.5853 20 15.5873C20 15.5894 20 15.5915 20 15.5935C20 15.5956 20 15.5977 20 15.5997C20 15.6018 20 15.6039 20 15.6059C20 15.608 20 15.6101 20 15.6121C20 15.6142 20 15.6163 20 15.6183C20 15.6204 20 15.6225 20 15.6245C20 15.6266 20 15.6287 20 15.6308C20 15.6328 20 15.6349 20 15.637C20 15.6391 20 15.6411 20 15.6432C20 15.6453 20 15.6474 20 15.6494C20 15.6515 20 15.6536 20 15.6557C20 15.6577 20 15.6598 20 15.6619C20 15.664 20 15.6661 20 15.6681C20 15.6702 20 15.6723 20 15.6744C20 15.6765 20 15.6785 20 15.6806C20 15.6827 20 15.6848 20 15.6869C20 15.6889 20 15.691 20 15.6931C20 15.6952 20 15.6973 20 15.6994C20 15.7015 20 15.7035 20 15.7056C20 15.7077 20 15.7098 20 15.7119C20 15.714 20 15.7161 20 15.7182C20 15.7202 20 15.7223 20 15.7244C20 15.7265 20 15.7286 20 15.7307C20 15.7328 20 15.7349 20 15.737C20 15.7391 20 15.7411 20 15.7432C20 15.7453 20 15.7474 20 15.7495C20 15.7516 20 15.7537 20 15.7558C20 15.7579 20 15.76 20 15.7621C20 15.7642 20 15.7663 20 15.7684C20 15.7705 20 15.7726 20 15.7747C20 15.7768 20 15.7789 20 15.781C20 15.7831 20 15.7852 20 15.7873C20 15.7894 20 15.7915 20 15.7936C20 15.7957 20 15.7978 20 15.7999C20 15.802 20 15.8041 20 15.8062C20 15.8083 20 15.8104 20 15.8125C20 15.8146 20 15.8167 20 15.8188C20 15.8209 20 15.823 20 15.8251C20 15.8272 20 15.8293 20 15.8314C20 15.8335 20 15.8356 20 15.8378C20 15.8399 20 15.842 20 15.8441C20 15.8462 20 15.8483 20 15.8504C20 15.8525 20 15.8546 20 15.8567C20 15.8589 20 15.861 20 15.8631C20 15.8652 20 15.8673 20 15.8694C20 15.8715 20 15.8736 20 15.8758C20 15.8779 20 15.88 20 15.8821C20 15.8842 20 15.8863 20 15.8884C20 15.8906 20 15.8927 20 15.8948C20 15.8969 20 15.899 20 15.9011C20 15.9033 20 15.9054 20 15.9075C20 15.9096 20 15.9117 20 15.9138C20 15.916 20 15.9181 20 15.9202C20 15.9223 20 15.9244 20 15.9266C20 15.9287 20 15.9308 20 15.9329C20 15.9351 20 15.9372 20 15.9393C20 15.9414 20 15.9435 20 15.9457C20 15.9478 20 15.9499 20 15.952C20 15.9542 20 15.9563 20 15.9584C20 15.9605 20 15.9627 20 15.9648C20 15.9669 20 15.969 20 15.9712C20 15.9733 20 15.9754 20 15.9776C20 15.9797 20 15.9818 20 15.9839C20 15.9861 20 15.9882 20 15.9903C20 15.9925 20 15.9946 20 15.9967C20 15.9989 20 16.001 20 16.0031C20 16.0052 20 16.0074 20 16.0095C20 16.0116 20 16.0138 20 16.0159C20 16.018 20 16.0202 20 16.0223C20 16.0244 20 16.0266 20 16.0287C20 16.0308 20 16.033 20 16.0351C20 16.0372 20 16.0394 20 16.0415C20 16.0437 20 16.0458 20 16.0479C20 16.0501 20 16.0522 20 16.0543C20 16.0565 20 16.0586 20 16.0608C20 16.0629 20 16.065 20 16.0672C20 16.0693 20 16.0715 20 16.0736C20 16.0757 20 16.0779 20 16.08C20 16.0822 20 16.0843 20 16.0864C20 16.0886 20 16.0907 20 16.0929C20 16.095 20 16.0971 20 16.0993C20 16.1014 20 16.1036 20 16.1057C20 16.1079 20 16.11 20 16.1122C20 16.1143 20 16.1164 20 16.1186C20 16.1207 20 16.1229 20 16.125C20 16.1272 20 16.1293 20 16.1315C20 16.1336 20 16.1358 20 16.1379C20 16.1401 20 16.1422 20 16.1443C20 16.1465 20 16.1486 20 16.1508C20 16.1529 20 16.1551 20 16.1572C20 16.1594 20 16.1615 20 16.1637C20 16.1658 20 16.168 20 16.1701C20 16.1723 20 16.1744 20 16.1766C20 16.1787 20 16.1809 20 16.183C20 16.1852 20 16.1874 20 16.1895C20 16.1917 20 16.1938 20 16.196C20 16.1981 20 16.2003 20 16.2024C20 16.2046 20 16.2067 20 16.2089C20 16.211 20 16.2132 20 16.2154C20 16.2175 20 16.2197 20 16.2218C20 16.224 20 16.2261 20 16.2283C20 16.2304 20 16.2326 20 16.2348C20 16.2369 20 16.2391 20 16.2412C20 16.2434 20 16.2456 20 16.2477C20 16.2499 20 16.252 20 16.2542C20 16.2563 20 16.2585 20 16.2607C20 16.2628 20 16.265 20 16.2671C20 16.2693 20 16.2715 20 16.2736C20 16.2758 20 16.2779 20 16.2801C20 16.2823 20 16.2844 20 16.2866C20 16.2888 20 16.2909 20 16.2931C20 16.2952 20 16.2974 20 16.2996C20 16.3017 20 16.3039 20 16.3061C20 16.3082 20 16.3104 20 16.3126C20 16.3147 20 16.3169 20 16.319C20 16.3212 20 16.3234 20 16.3255C20 16.3277 20 16.3299 20 16.332C20 16.3342 20 16.3364 20 16.3385C20 16.3407 20 16.3429 20 16.345C20 16.3472 20 16.3494 20 16.3515C20 16.3537 20 16.3559 20 16.358C20 16.3602 20 16.3624 20 16.3645C20 16.3667 20 16.3689 20 16.371C20 16.3732 20 16.3754 20 16.3776C20 16.3797 20 16.3819 20 16.3841C20 16.3862 20 16.3884 20 16.3906C20 16.3927 20 16.3949 20 16.3971C20 16.3993 20 16.4014 20 16.4036C20 16.4058 20 16.4079 20 16.4101C20 16.4123 20 16.4145 20 16.4166C20 16.4188 20 16.421 20 16.4232C20 16.4253 20 16.4275 20 16.4297C20 16.4318 20 16.434 20 16.4362C20 16.4384 20 16.4405 20 16.4427C20 16.4449 20 16.4471 20 16.4492C20 16.4514 20 16.4536 20 16.4558C20 16.4579 20 16.4601 20 16.4623C20 16.4645 20 16.4666 20 16.4688C20 16.471 20 16.4732 20 16.4753C20 16.4775 20 16.4797 20 16.4819C20 16.484 20 16.4862 20 16.4884C20 16.4906 20 16.4927 20 16.4949C20 16.4971 20 16.4993 20 16.5015C20 16.5036 20 16.5058 20 16.508C20 16.5102 20 16.5123 20 16.5145C20 16.5167 20 16.5189 20 16.5211C20 16.5232 20 16.5254 20 16.5276C20 16.5298 20 16.532 20 16.5341C20 16.5363 20 16.5385 20 16.5407C20 16.5429 20 16.545 20 16.5472C20 16.5494 20 16.5516 20 16.5538C20 16.5559 20 16.5581 20 16.5603C20 16.5625 20 16.5647 20 16.5668C20 16.569 20 16.5712 20 16.5734C20 16.5756 20 16.5778 20 16.5799C20 16.5821 20 16.5843 20 16.5865C20 16.5887 20 16.5908 20 16.593C20 16.5952 20 16.5974 20 16.5996C20 16.6018 20 16.6039 20 16.6061C20 16.6083 20 16.6105 20 16.6127C20 16.6149 20 16.617 20 16.6192C20 16.6214 20 16.6236 20 16.6258C20 16.628 20 16.6301 20 16.6323C20 16.6345 20 16.6367 20 16.6389C20 16.6411 20 16.6432 20 16.6454C20 16.6476 20 16.6498 20 16.652C20 16.6542 20 16.6564 20 16.6585C20 16.6607 20 16.6629 20 16.6651C20 16.6673 20 16.6695 20 16.6717C20 16.6738 20 16.676 20 16.6782C20 16.6804 20 16.6826 20 16.6848C20 16.687 20 16.6891 20 16.6913C20 16.6935 20 16.6957 20 16.6979C20 16.7001 20 16.7023 20 16.7044C20 16.7066 20 16.7088 20 16.711C20 16.7132 20 16.7154 20 16.7176C20 16.7198 20 16.7219 20 16.7241C20 16.7263 20 16.7285 20 16.7307C20 16.7329 20 16.7351 20 16.7373C20 16.7394 20 16.7416 20 16.7438C20 16.746 20 16.7482 20 16.7504C20 16.7526 20 16.7548 20 16.7569C20 16.7591 20 16.7613 20 16.7635C20 16.7657 20 16.7679 20 16.7701C20 16.7723 20 16.7745 20 16.7766C20 16.7788 20 16.781 20 16.7832C20 16.7854 20 16.7876 20 16.7898C20 16.792 20 16.7942 20 16.7963C20 16.7985 20 16.8007 20 16.8029C20 16.8051 20 16.8073 20 16.8095C20 16.8117 20 16.8139 20 16.816C20 16.8182 20 16.8204 20 16.8226C20 16.8248 20 16.827 20 16.8292C20 16.8314 20 16.8336 20 16.8357C20 16.8379 20 16.8401 20 16.8423C20 16.8445 20 16.8467 20 16.8489C20 16.8511 20 16.8533 20 16.8555C20 16.8576 20 16.8598 20 16.862C20 16.8642 20 16.8664 20 16.8686C20 16.8708 20 16.873 20 16.8752C20 16.8774 20 16.8795 20 16.8817C20 16.8839 20 16.8861 20 16.8883C20 16.8905 20 16.8927 20 16.8949C20 16.8971 20 16.8993 20 16.9014C20 16.9036 20 16.9058 20 16.908C20 16.9102 20 16.9124 20 16.9146C20 16.9168 20 16.919 20 16.9212C20 16.9234 20 16.9255 20 16.9277C20 16.9299 20 16.9321 20 16.9343C20 16.9365 20 16.9387 20 16.9409C20 16.9431 20 16.9453 20 16.9474C20 16.9496 20 16.9518 20 16.954C20 16.9562 20 16.9584 20 16.9606C20 16.9628 20 16.965 20 16.9672C20 16.9693 20 16.9715 20 16.9737C20 16.9759 20 16.9781 20 16.9803C20 16.9825 20 16.9847 20 16.9869C20 16.9891 20 16.9912 20 16.9934C20 16.9956 20 16.9978 20 17H22C22 16.9978 22 16.9956 22 16.9934C22 16.9912 22 16.9891 22 16.9869C22 16.9847 22 16.9825 22 16.9803C22 16.9781 22 16.9759 22 16.9737C22 16.9715 22 16.9693 22 16.9672C22 16.965 22 16.9628 22 16.9606C22 16.9584 22 16.9562 22 16.954C22 16.9518 22 16.9496 22 16.9474C22 16.9453 22 16.9431 22 16.9409C22 16.9387 22 16.9365 22 16.9343C22 16.9321 22 16.9299 22 16.9277C22 16.9255 22 16.9234 22 16.9212C22 16.919 22 16.9168 22 16.9146C22 16.9124 22 16.9102 22 16.908C22 16.9058 22 16.9036 22 16.9014C22 16.8993 22 16.8971 22 16.8949C22 16.8927 22 16.8905 22 16.8883C22 16.8861 22 16.8839 22 16.8817C22 16.8795 22 16.8774 22 16.8752C22 16.873 22 16.8708 22 16.8686C22 16.8664 22 16.8642 22 16.862C22 16.8598 22 16.8576 22 16.8555C22 16.8533 22 16.8511 22 16.8489C22 16.8467 22 16.8445 22 16.8423C22 16.8401 22 16.8379 22 16.8357C22 16.8336 22 16.8314 22 16.8292C22 16.827 22 16.8248 22 16.8226C22 16.8204 22 16.8182 22 16.816C22 16.8139 22 16.8117 22 16.8095C22 16.8073 22 16.8051 22 16.8029C22 16.8007 22 16.7985 22 16.7963C22 16.7942 22 16.792 22 16.7898C22 16.7876 22 16.7854 22 16.7832C22 16.781 22 16.7788 22 16.7766C22 16.7745 22 16.7723 22 16.7701C22 16.7679 22 16.7657 22 16.7635C22 16.7613 22 16.7591 22 16.7569C22 16.7548 22 16.7526 22 16.7504C22 16.7482 22 16.746 22 16.7438C22 16.7416 22 16.7394 22 16.7373C22 16.7351 22 16.7329 22 16.7307C22 16.7285 22 16.7263 22 16.7241C22 16.7219 22 16.7198 22 16.7176C22 16.7154 22 16.7132 22 16.711C22 16.7088 22 16.7066 22 16.7044C22 16.7023 22 16.7001 22 16.6979C22 16.6957 22 16.6935 22 16.6913C22 16.6891 22 16.687 22 16.6848C22 16.6826 22 16.6804 22 16.6782C22 16.676 22 16.6738 22 16.6717C22 16.6695 22 16.6673 22 16.6651C22 16.6629 22 16.6607 22 16.6585C22 16.6564 22 16.6542 22 16.652C22 16.6498 22 16.6476 22 16.6454C22 16.6432 22 16.6411 22 16.6389C22 16.6367 22 16.6345 22 16.6323C22 16.6301 22 16.628 22 16.6258C22 16.6236 22 16.6214 22 16.6192C22 16.617 22 16.6149 22 16.6127C22 16.6105 22 16.6083 22 16.6061C22 16.6039 22 16.6018 22 16.5996C22 16.5974 22 16.5952 22 16.593C22 16.5908 22 16.5887 22 16.5865C22 16.5843 22 16.5821 22 16.5799C22 16.5778 22 16.5756 22 16.5734C22 16.5712 22 16.569 22 16.5668C22 16.5647 22 16.5625 22 16.5603C22 16.5581 22 16.5559 22 16.5538C22 16.5516 22 16.5494 22 16.5472C22 16.545 22 16.5429 22 16.5407C22 16.5385 22 16.5363 22 16.5341C22 16.532 22 16.5298 22 16.5276C22 16.5254 22 16.5232 22 16.5211C22 16.5189 22 16.5167 22 16.5145C22 16.5123 22 16.5102 22 16.508C22 16.5058 22 16.5036 22 16.5015C22 16.4993 22 16.4971 22 16.4949C22 16.4927 22 16.4906 22 16.4884C22 16.4862 22 16.484 22 16.4819C22 16.4797 22 16.4775 22 16.4753C22 16.4732 22 16.471 22 16.4688C22 16.4666 22 16.4645 22 16.4623C22 16.4601 22 16.4579 22 16.4558C22 16.4536 22 16.4514 22 16.4492C22 16.4471 22 16.4449 22 16.4427C22 16.4405 22 16.4384 22 16.4362C22 16.434 22 16.4318 22 16.4297C22 16.4275 22 16.4253 22 16.4232C22 16.421 22 16.4188 22 16.4166C22 16.4145 22 16.4123 22 16.4101C22 16.4079 22 16.4058 22 16.4036C22 16.4014 22 16.3993 22 16.3971C22 16.3949 22 16.3927 22 16.3906C22 16.3884 22 16.3862 22 16.3841C22 16.3819 22 16.3797 22 16.3776C22 16.3754 22 16.3732 22 16.371C22 16.3689 22 16.3667 22 16.3645C22 16.3624 22 16.3602 22 16.358C22 16.3559 22 16.3537 22 16.3515C22 16.3494 22 16.3472 22 16.345C22 16.3429 22 16.3407 22 16.3385C22 16.3364 22 16.3342 22 16.332C22 16.3299 22 16.3277 22 16.3255C22 16.3234 22 16.3212 22 16.319C22 16.3169 22 16.3147 22 16.3126C22 16.3104 22 16.3082 22 16.3061C22 16.3039 22 16.3017 22 16.2996C22 16.2974 22 16.2952 22 16.2931C22 16.2909 22 16.2888 22 16.2866C22 16.2844 22 16.2823 22 16.2801C22 16.2779 22 16.2758 22 16.2736C22 16.2715 22 16.2693 22 16.2671C22 16.265 22 16.2628 22 16.2607C22 16.2585 22 16.2563 22 16.2542C22 16.252 22 16.2499 22 16.2477C22 16.2456 22 16.2434 22 16.2412C22 16.2391 22 16.2369 22 16.2348C22 16.2326 22 16.2304 22 16.2283C22 16.2261 22 16.224 22 16.2218C22 16.2197 22 16.2175 22 16.2154C22 16.2132 22 16.211 22 16.2089C22 16.2067 22 16.2046 22 16.2024C22 16.2003 22 16.1981 22 16.196C22 16.1938 22 16.1917 22 16.1895C22 16.1874 22 16.1852 22 16.183C22 16.1809 22 16.1787 22 16.1766C22 16.1744 22 16.1723 22 16.1701C22 16.168 22 16.1658 22 16.1637C22 16.1615 22 16.1594 22 16.1572C22 16.1551 22 16.1529 22 16.1508C22 16.1486 22 16.1465 22 16.1443C22 16.1422 22 16.1401 22 16.1379C22 16.1358 22 16.1336 22 16.1315C22 16.1293 22 16.1272 22 16.125C22 16.1229 22 16.1207 22 16.1186C22 16.1164 22 16.1143 22 16.1122C22 16.11 22 16.1079 22 16.1057C22 16.1036 22 16.1014 22 16.0993C22 16.0971 22 16.095 22 16.0929C22 16.0907 22 16.0886 22 16.0864C22 16.0843 22 16.0822 22 16.08C22 16.0779 22 16.0757 22 16.0736C22 16.0715 22 16.0693 22 16.0672C22 16.065 22 16.0629 22 16.0608C22 16.0586 22 16.0565 22 16.0543C22 16.0522 22 16.0501 22 16.0479C22 16.0458 22 16.0437 22 16.0415C22 16.0394 22 16.0372 22 16.0351C22 16.033 22 16.0308 22 16.0287C22 16.0266 22 16.0244 22 16.0223C22 16.0202 22 16.018 22 16.0159C22 16.0138 22 16.0116 22 16.0095C22 16.0074 22 16.0052 22 16.0031C22 16.001 22 15.9989 22 15.9967C22 15.9946 22 15.9925 22 15.9903C22 15.9882 22 15.9861 22 15.9839C22 15.9818 22 15.9797 22 15.9776C22 15.9754 22 15.9733 22 15.9712C22 15.969 22 15.9669 22 15.9648C22 15.9627 22 15.9605 22 15.9584C22 15.9563 22 15.9542 22 15.952C22 15.9499 22 15.9478 22 15.9457C22 15.9435 22 15.9414 22 15.9393C22 15.9372 22 15.9351 22 15.9329C22 15.9308 22 15.9287 22 15.9266C22 15.9244 22 15.9223 22 15.9202C22 15.9181 22 15.916 22 15.9138C22 15.9117 22 15.9096 22 15.9075C22 15.9054 22 15.9033 22 15.9011C22 15.899 22 15.8969 22 15.8948C22 15.8927 22 15.8906 22 15.8884C22 15.8863 22 15.8842 22 15.8821C22 15.88 22 15.8779 22 15.8758C22 15.8736 22 15.8715 22 15.8694C22 15.8673 22 15.8652 22 15.8631C22 15.861 22 15.8589 22 15.8567C22 15.8546 22 15.8525 22 15.8504C22 15.8483 22 15.8462 22 15.8441C22 15.842 22 15.8399 22 15.8378C22 15.8356 22 15.8335 22 15.8314C22 15.8293 22 15.8272 22 15.8251C22 15.823 22 15.8209 22 15.8188C22 15.8167 22 15.8146 22 15.8125C22 15.8104 22 15.8083 22 15.8062C22 15.8041 22 15.802 22 15.7999C22 15.7978 22 15.7957 22 15.7936C22 15.7915 22 15.7894 22 15.7873C22 15.7852 22 15.7831 22 15.781C22 15.7789 22 15.7768 22 15.7747C22 15.7726 22 15.7705 22 15.7684C22 15.7663 22 15.7642 22 15.7621C22 15.76 22 15.7579 22 15.7558C22 15.7537 22 15.7516 22 15.7495C22 15.7474 22 15.7453 22 15.7432C22 15.7411 22 15.7391 22 15.737C22 15.7349 22 15.7328 22 15.7307C22 15.7286 22 15.7265 22 15.7244C22 15.7223 22 15.7202 22 15.7182C22 15.7161 22 15.714 22 15.7119C22 15.7098 22 15.7077 22 15.7056C22 15.7035 22 15.7015 22 15.6994C22 15.6973 22 15.6952 22 15.6931C22 15.691 22 15.6889 22 15.6869C22 15.6848 22 15.6827 22 15.6806C22 15.6785 22 15.6765 22 15.6744C22 15.6723 22 15.6702 22 15.6681C22 15.6661 22 15.664 22 15.6619C22 15.6598 22 15.6577 22 15.6557C22 15.6536 22 15.6515 22 15.6494C22 15.6474 22 15.6453 22 15.6432C22 15.6411 22 15.6391 22 15.637C22 15.6349 22 15.6328 22 15.6308C22 15.6287 22 15.6266 22 15.6245C22 15.6225 22 15.6204 22 15.6183C22 15.6163 22 15.6142 22 15.6121C22 15.6101 22 15.608 22 15.6059C22 15.6039 22 15.6018 22 15.5997C22 15.5977 22 15.5956 22 15.5935C22 15.5915 22 15.5894 22 15.5873C22 15.5853 22 15.5832 22 15.5811C22 15.5791 22 15.577 22 15.5749C22 15.5729 22 15.5708 22 15.5688C22 15.5667 22 15.5646 22 15.5626C22 15.5605 22 15.5585 22 15.5564C22 15.5543 22 15.5523 22 15.5502C22 15.5482 22 15.5461 22 15.5441C22 15.542 22 15.5399 22 15.5379C22 15.5358 22 15.5338 22 15.5317C22 15.5297 22 15.5276 22 15.5256C22 15.5235 22 15.5215 22 15.5194C22 15.5174 22 15.5153 22 15.5133C22 15.5112 22 15.5092 22 15.5071C22 15.5051 22 15.503 22 15.501C22 15.4989 22 15.4969 22 15.4948C22 15.4928 22 15.4907 22 15.4887C22 15.4867 22 15.4846 22 15.4826C22 15.4805 22 15.4785 22 15.4764C22 15.4744 22 15.4724 22 15.4703C22 15.4683 22 15.4662 22 15.4642C22 15.4622 22 15.4601 22 15.4581C22 15.456 22 15.454 22 15.452C22 15.4499 22 15.4479 22 15.4459C22 15.4438 22 15.4418 22 15.4398C22 15.4377 22 15.4357 22 15.4337C22 15.4316 22 15.4296 22 15.4276C22 15.4255 22 15.4235 22 15.4215C22 15.4194 22 15.4174 22 15.4154C22 15.4134 22 15.4113 22 15.4093C22 15.4073 22 15.4053 22 15.4032C22 15.4012 22 15.3992 22 15.3972C22 15.3951 22 15.3931 22 15.3911C22 15.3891 22 15.387 22 15.385C22 15.383 22 15.381 22 15.379C22 15.3769 22 15.3749 22 15.3729C22 15.3709 22 15.3689 22 15.3668C22 15.3648 22 15.3628 22 15.3608C22 15.3588 22 15.3568 22 15.3547C22 15.3527 22 15.3507 22 15.3487C22 15.3467 22 15.3447 22 15.3427C22 15.3407 22 15.3386 22 15.3366C22 15.3346 22 15.3326 22 15.3306C22 15.3286 22 15.3266 22 15.3246C22 15.3226 22 15.3206 22 15.3186C22 15.3166 22 15.3145 22 15.3125C22 15.3105 22 15.3085 22 15.3065C22 15.3045 22 15.3025 22 15.3005C22 15.2985 22 15.2965 22 15.2945C22 15.2925 22 15.2905 22 15.2885C22 15.2865 22 15.2845 22 15.2825C22 15.2805 22 15.2785 22 15.2765C22 15.2745 22 15.2726 22 15.2706C22 15.2686 22 15.2666 22 15.2646C22 15.2626 22 15.2606 22 15.2586C22 15.2566 22 15.2546 22 15.2526C22 15.2506 22 15.2487 22 15.2467C22 15.2447 22 15.2427 22 15.2407C22 15.2387 22 15.2367 22 15.2347C22 15.2328 22 15.2308 22 15.2288C22 15.2268 22 15.2248 22 15.2228C22 15.2209 22 15.2189 22 15.2169C22 15.2149 22 15.2129 22 15.211C22 15.209 22 15.207 22 15.205C22 15.2031 22 15.2011 22 15.1991C22 15.1971 22 15.1952 22 15.1932C22 15.1912 22 15.1892 22 15.1873C22 15.1853 22 15.1833 22 15.1813C22 15.1794 22 15.1774 22 15.1754C22 15.1735 22 15.1715 22 15.1695C22 15.1676 22 15.1656 22 15.1636C22 15.1617 22 15.1597 22 15.1577C22 15.1558 22 15.1538 22 15.1518C22 15.1499 22 15.1479 22 15.146C22 15.144 22 15.142 22 15.1401C22 15.1381 22 15.1362 22 15.1342C22 15.1322 22 15.1303 22 15.1283C22 15.1264 22 15.1244 22 15.1225C22 15.1205 22 15.1185 22 15.1166C22 15.1146 22 15.1127 22 15.1107C22 15.1088 22 15.1068 22 15.1049C22 15.1029 22 15.101 22 15.099C22 15.0971 22 15.0951 22 15.0932C22 15.0913 22 15.0893 22 15.0874C22 15.0854 22 15.0835 22 15.0815C22 15.0796 22 15.0776 22 15.0757C22 15.0738 22 15.0718 22 15.0699C22 15.0679 22 15.066 22 15.0641C22 15.0621 22 15.0602 22 15.0583C22 15.0563 22 15.0544 22 15.0524C22 15.0505 22 15.0486 22 15.0466C22 15.0447 22 15.0428 22 15.0409C22 15.0389 22 15.037 22 15.0351C22 15.0331 22 15.0312 22 15.0293C22 15.0273 22 15.0254 22 15.0235C22 15.0216 22 15.0196 22 15.0177C22 15.0158 22 15.0139 22 15.012C22 15.01 22 15.0081 22 15.0062C22 15.0043 22 15.0023 22 15.0004C22 14.9985 22 14.9966 22 14.9947C22 14.9928 22 14.9908 22 14.9889C22 14.987 22 14.9851 22 14.9832C22 14.9813 22 14.9794 22 14.9774C22 14.9755 22 14.9736 22 14.9717C22 14.9698 22 14.9679 22 14.966C22 14.9641 22 14.9622 22 14.9603C22 14.9584 22 14.9564 22 14.9545C22 14.9526 22 14.9507 22 14.9488C22 14.9469 22 14.945 22 14.9431C22 14.9412 22 14.9393 22 14.9374C22 14.9355 22 14.9336 22 14.9317C22 14.9298 22 14.9279 22 14.926C22 14.9241 22 14.9223 22 14.9204C22 14.9185 22 14.9166 22 14.9147C22 14.9128 22 14.9109 22 14.909C22 14.9071 22 14.9052 22 14.9033C22 14.9015 22 14.8996 22 14.8977C22 14.8958 22 14.8939 22 14.892C22 14.8901 22 14.8883 22 14.8864C22 14.8845 22 14.8826 22 14.8807C22 14.8789 22 14.877 22 14.8751C22 14.8732 22 14.8713 22 14.8695C22 14.8676 22 14.8657 22 14.8638C22 14.862 22 14.8601 22 14.8582C22 14.8563 22 14.8545 22 14.8526C22 14.8507 22 14.8489 22 14.847C22 14.8451 22 14.8433 22 14.8414C22 14.8395 22 14.8376 22 14.8358C22 14.8339 22 14.8321 22 14.8302C22 14.8283 22 14.8265 22 14.8246C22 14.8227 22 14.8209 22 14.819C22 14.8172 22 14.8153 22 14.8134C22 14.8116 22 14.8097 22 14.8079C22 14.806 22 14.8042 22 14.8023C22 14.8005 22 14.7986 22 14.7968C22 14.7949 22 14.7931 22 14.7912C22 14.7894 22 14.7875 22 14.7857C22 14.7838 22 14.782 22 14.7801C22 14.7783 22 14.7764 22 14.7746C22 14.7727 22 14.7709 22 14.7691C22 14.7672 22 14.7654 22 14.7635C22 14.7617 22 14.7599 22 14.758C22 14.7562 22 14.7543 22 14.7525C22 14.7507 22 14.7488 22 14.747C22 14.7452 22 14.7433 22 14.7415C22 14.7397 22 14.7378 22 14.736C22 14.7342 22 14.7324 22 14.7305C22 14.7287 22 14.7269 22 14.7251C22 14.7232 22 14.7214 22 14.7196C22 14.7178 22 14.7159 22 14.7141C22 14.7123 22 14.7105 22 14.7087C22 14.7068 22 14.705 22 14.7032C22 14.7014 22 14.6996 22 14.6978C22 14.6959 22 14.6941 22 14.6923C22 14.6905 22 14.6887 22 14.6869C22 14.6851 22 14.6833 22 14.6814C22 14.6796 22 14.6778 22 14.676C22 14.6742 22 14.6724 22 14.6706C22 14.6688 22 14.667 22 14.6652C22 14.6634 22 14.6616 22 14.6598C22 14.658 22 14.6562 22 14.6544C22 14.6526 22 14.6508 22 14.649C22 14.6472 22 14.6454 22 14.6436C22 14.6418 22 14.64 22 14.6382C22 14.6364 22 14.6347 22 14.6329C22 14.6311 22 14.6293 22 14.6275C22 14.6257 22 14.6239 22 14.6221C22 14.6204 22 14.6186 22 14.6168C22 14.615 22 14.6132 22 14.6114C22 14.6097 22 14.6079 22 14.6061C22 14.6043 22 14.6025 22 14.6008C22 14.599 22 14.5972 22 14.5954C22 14.5937 22 14.5919 22 14.5901C22 14.5883 22 14.5866 22 14.5848C22 14.583 22 14.5813 22 14.5795C22 14.5777 22 14.576 22 14.5742C22 14.5724 22 14.5707 22 14.5689C22 14.5671 22 14.5654 22 14.5636C22 14.5619 22 14.5601 22 14.5583C22 14.5566 22 14.5548 22 14.5531C22 14.5513 22 14.5495 22 14.5478C22 14.546 22 14.5443 22 14.5425C22 14.5408 22 14.539 22 14.5373C22 14.5355 22 14.5338 22 14.532C22 14.5303 22 14.5285 22 14.5268C22 14.525 22 14.5233 22 14.5216C22 14.5198 22 14.5181 22 14.5163C22 14.5146 22 14.5128 22 14.5111C22 14.5094 22 14.5076 22 14.5059C22 14.5042 22 14.5024 22 14.5007C22 14.499 22 14.4972 22 14.4955C22 14.4938 22 14.492 22 14.4903C22 14.4886 22 14.4868 22 14.4851C22 14.4834 22 14.4817 22 14.4799C22 14.4782 22 14.4765 22 14.4748C22 14.473 22 14.4713 22 14.4696C22 14.4679 22 14.4662 22 14.4644C22 14.4627 22 14.461 22 14.4593C22 14.4576 22 14.4559 22 14.4541C22 14.4524 22 14.4507 22 14.449C22 14.4473 22 14.4456 22 14.4439C22 14.4422 22 14.4405 22 14.4388C22 14.4371 22 14.4353 22 14.4336C22 14.4319 22 14.4302 22 14.4285C22 14.4268 22 14.4251 22 14.4234C22 14.4217 22 14.42 22 14.4183C22 14.4166 22 14.4149 22 14.4133C22 14.4116 22 14.4099 22 14.4082C22 14.4065 22 14.4048 22 14.4031C22 14.4014 22 14.3997 22 14.398C22 14.3963 22 14.3947 22 14.393C22 14.3913 22 14.3896 22 14.3879C22 14.3862 22 14.3846 22 14.3829C22 14.3812 22 14.3795 22 14.3778C22 14.3762 22 14.3745 22 14.3728C22 14.3711 22 14.3695 22 14.3678C22 14.3661 22 14.3644 22 14.3628C22 14.3611 22 14.3594 22 14.3578C22 14.3561 22 14.3544 22 14.3528C22 14.3511 22 14.3494 22 14.3478C22 14.3461 22 14.3445 22 14.3428C22 14.3411 22 14.3395 22 14.3378C22 14.3362 22 14.3345 22 14.3328C22 14.3312 22 14.3295 22 14.3279C22 14.3262 22 14.3246 22 14.3229C22 14.3213 22 14.3196 22 14.318C22 14.3163 22 14.3147 22 14.313C22 14.3114 22 14.3097 22 14.3081C22 14.3065 22 14.3048 22 14.3032C22 14.3015 22 14.2999 22 14.2983C22 14.2966 22 14.295 22 14.2934C22 14.2917 22 14.2901 22 14.2884C22 14.2868 22 14.2852 22 14.2836C22 14.2819 22 14.2803 22 14.2787C22 14.277 22 14.2754 22 14.2738C22 14.2722 22 14.2705 22 14.2689C22 14.2673 22 14.2657 22 14.264C22 14.2624 22 14.2608 22 14.2592C22 14.2576 22 14.256 22 14.2543C22 14.2527 22 14.2511 22 14.2495C22 14.2479 22 14.2463 22 14.2447C22 14.2431 22 14.2415 22 14.2398C22 14.2382 22 14.2366 22 14.235C22 14.2334 22 14.2318 22 14.2302C22 14.2286 22 14.227 22 14.2254C22 14.2238 22 14.2222 22 14.2206C22 14.219 22 14.2174 22 14.2158C22 14.2142 22 14.2126 22 14.2111C22 14.2095 22 14.2079 22 14.2063C22 14.2047 22 14.2031 22 14.2015C22 14.1999 22 14.1983 22 14.1968C22 14.1952 22 14.1936 22 14.192C22 14.1904 22 14.1889 22 14.1873C22 14.1857 22 14.1841 22 14.1825C22 14.181 22 14.1794 22 14.1778C22 14.1762 22 14.1747 22 14.1731C22 14.1715 22 14.17 22 14.1684C22 14.1668 22 14.1653 22 14.1637C22 14.1621 22 14.1606 22 14.159C22 14.1574 22 14.1559 22 14.1543C22 14.1528 22 14.1512 22 14.1496C22 14.1481 22 14.1465 22 14.145C22 14.1434 22 14.1419 22 14.1403C22 14.1388 22 14.1372 22 14.1357C22 14.1341 22 14.1326 22 14.131C22 14.1295 22 14.1279 22 14.1264C22 14.1248 22 14.1233 22 14.1218C22 14.1202 22 14.1187 22 14.1171C22 14.1156 22 14.1141 22 14.1125C22 14.111 22 14.1095 22 14.1079C22 14.1064 22 14.1049 22 14.1033C22 14.1018 22 14.1003 22 14.0988C22 14.0972 22 14.0957 22 14.0942C22 14.0927 22 14.0911 22 14.0896C22 14.0881 22 14.0866 22 14.085C22 14.0835 22 14.082 22 14.0805C22 14.079 22 14.0775 22 14.0759C22 14.0744 22 14.0729 22 14.0714C22 14.0699 22 14.0684 22 14.0669C22 14.0654 22 14.0639 22 14.0624C22 14.0609 22 14.0594 22 14.0579C22 14.0564 22 14.0549 22 14.0534C22 14.0519 22 14.0504 22 14.0489C22 14.0474 22 14.0459 22 14.0444C22 14.0429 22 14.0414 22 14.0399C22 14.0384 22 14.0369 22 14.0354C22 14.0339 22 14.0325 22 14.031C22 14.0295 22 14.028 22 14.0265C22 14.025 22 14.0236 22 14.0221C22 14.0206 22 14.0191 22 14.0176C22 14.0162 22 14.0147 22 14.0132C22 14.0118 22 14.0103 22 14.0088C22 14.0073 22 14.0059 22 14.0044C22 14.0029 22 14.0015 22 14H20ZM21 13C20.7425 13 20.4884 12.9026 20.2929 12.7071L18.8787 14.1213C19.4643 14.7069 20.2338 15 21 15V13ZM5 6H19V4H5V6ZM19 18H5V20H19V18ZM2 17C2 18.6569 3.34315 20 5 20V18C4.44772 18 4 17.5523 4 17H2ZM20 17C20 17.5523 19.5523 18 19 18V20C20.6568 20 22 18.6569 22 17H20ZM22 7C22 5.34315 20.6569 4 19 4V6C19.5523 6 20 6.44772 20 7H22ZM4 7C4 6.44772 4.44772 6 5 6V4C3.34315 4 2 5.34315 2 7H4Z" fill="#292929"/>
</svg>
