<svg width="24" height="24" viewBox="0 0 24 24" fill="none" xmlns="http://www.w3.org/2000/svg">
<g clip-path="url(#clip0)">
<path fill-rule="evenodd" clip-rule="evenodd" d="M6.6967 6.6967C9.62563 3.76777 14.3744 3.76777 17.3033 6.6967C18.6719 8.06533 19.4011 9.83218 19.4906 11.6237C21.2207 12.0647 22.5 13.6326 22.5 15.5C22.5 17.7091 20.7091 19.5 18.5 19.5H6.5C3.73858 19.5 1.5 17.2614 1.5 14.5C1.5 12.3224 2.89164 10.4711 4.83316 9.78472C5.18155 8.65442 5.8031 7.5903 6.6967 6.6967ZM15.7074 11.7071C16.0979 11.3166 16.0979 10.6834 15.7074 10.2929C15.3168 9.90237 14.6837 9.90237 14.2931 10.2929L11.0002 13.5858L9.70735 12.2929C9.31683 11.9024 8.68366 11.9024 8.29314 12.2929C7.90261 12.6834 7.90261 13.3166 8.29314 13.7071L10.2931 15.7071C10.6837 16.0976 11.3168 16.0976 11.7074 15.7071L15.7074 11.7071Z" fill="#292929"/>
</g>
<defs>
<clipPath id="clip0">
<rect width="24" height="24" fill="white" transform="translate(0.000244141)"/>
</clipPath>
</defs>
</svg>
