<svg width="24" height="24" viewBox="0 0 24 24" fill="none" xmlns="http://www.w3.org/2000/svg">
<path fill-rule="evenodd" clip-rule="evenodd" d="M6.6967 6.6967C9.62563 3.76777 14.3744 3.76777 17.3033 6.6967C18.6719 8.06533 19.4011 9.83218 19.4906 11.6237C21.2207 12.0647 22.5 13.6326 22.5 15.5C22.5 17.7091 20.7091 19.5 18.5 19.5H6.5C3.73858 19.5 1.5 17.2614 1.5 14.5C1.5 12.3224 2.89164 10.4711 4.83316 9.78472C5.18155 8.65442 5.8031 7.5903 6.6967 6.6967ZM12.0001 11V13H14.0001C14.5523 13 15.0001 13.4477 15.0001 14C15.0001 14.5523 14.5523 15 14.0001 15H11.0001C10.7348 15 10.4805 14.8946 10.293 14.7071C10.1054 14.5196 10.0001 14.2652 10.0001 14V11C10.0001 10.4477 10.4478 10 11.0001 10C11.5523 10 12.0001 10.4477 12.0001 11Z" fill="#292929"/>
</svg>
