<svg width="24" height="24" viewBox="0 0 24 24" fill="none" xmlns="http://www.w3.org/2000/svg">
<path fill-rule="evenodd" clip-rule="evenodd" d="M6.6967 6.6967C9.62563 3.76777 14.3744 3.76777 17.3033 6.6967C18.6719 8.06533 19.4011 9.83218 19.4906 11.6237C21.2207 12.0647 22.5 13.6326 22.5 15.5C22.5 17.7091 20.7091 19.5 18.5 19.5H6.5C3.73858 19.5 1.5 17.2614 1.5 14.5C1.5 12.3224 2.89164 10.4711 4.83316 9.78472C5.18155 8.65442 5.8031 7.5903 6.6967 6.6967ZM12.7071 8.29289C12.3166 7.90237 11.6834 7.90237 11.2929 8.29289L9.29289 10.2929C8.90237 10.6834 8.90237 11.3166 9.29289 11.7071C9.68342 12.0976 10.3166 12.0976 10.7071 11.7071L11 11.4142V15C11 15.5523 11.4477 16 12 16C12.5523 16 13 15.5523 13 15V11.4142L13.2929 11.7071C13.6834 12.0976 14.3166 12.0976 14.7071 11.7071C15.0976 11.3166 15.0976 10.6834 14.7071 10.2929L12.7071 8.29289Z" fill="#292929"/>
</svg>
