<svg width="24" height="24" viewBox="0 0 24 24" fill="none" xmlns="http://www.w3.org/2000/svg">
<path fill-rule="evenodd" clip-rule="evenodd" d="M6.6967 6.6967C9.62563 3.76777 14.3744 3.76777 17.3033 6.6967C18.6719 8.06533 19.4011 9.83218 19.4906 11.6237C21.2207 12.0647 22.5 13.6326 22.5 15.5C22.5 17.7091 20.7091 19.5 18.5 19.5H6.5C3.73858 19.5 1.5 17.2614 1.5 14.5C1.5 12.3224 2.89164 10.4711 4.83316 9.78472C5.18155 8.65442 5.8031 7.5903 6.6967 6.6967ZM11.2929 15.7071C11.6834 16.0976 12.3166 16.0976 12.7071 15.7071L14.7071 13.7071C15.0976 13.3166 15.0976 12.6834 14.7071 12.2929C14.3166 11.9024 13.6834 11.9024 13.2929 12.2929L13 12.5858L13 9C13 8.44771 12.5523 8 12 8C11.4477 8 11 8.44771 11 9L11 12.5858L10.7071 12.2929C10.3166 11.9024 9.68342 11.9024 9.29289 12.2929C8.90237 12.6834 8.90237 13.3166 9.29289 13.7071L11.2929 15.7071Z" fill="#292929"/>
</svg>
