<svg width="24" height="24" viewBox="0 0 24 24" fill="none" xmlns="http://www.w3.org/2000/svg">
<path fill-rule="evenodd" clip-rule="evenodd" d="M5 2C4.44772 2 4 2.44772 4 3V19C4 20.6569 5.34315 22 7 22H17C18.6569 22 20 20.6569 20 19V8C20 7.73478 19.8946 7.48043 19.7071 7.29289L14.7071 2.29289C14.5196 2.10536 14.2652 2 14 2H5ZM14 4.41421L17.5858 8H14V4.41421ZM14.5 15.366C14.8094 15.1874 15 14.8573 15 14.5C15 14.1427 14.8094 13.8126 14.5 13.634L11.5 11.9019C11.1906 11.7233 10.8094 11.7233 10.5 11.9019C10.1906 12.0806 10 12.4107 10 12.7679V16.2321C10 16.5893 10.1906 16.9194 10.5 17.0981C10.8094 17.2767 11.1906 17.2767 11.5 17.0981L14.5 15.366Z" fill="#292929"/>
</svg>
