<svg width="24" height="24" viewBox="0 0 24 24" fill="none" xmlns="http://www.w3.org/2000/svg">
<path fill-rule="evenodd" clip-rule="evenodd" d="M2 5C2 4.44772 2.44772 4 3 4H10C10.2652 4 10.5196 4.10536 10.7071 4.29289L12.4142 6H21C21.5523 6 22 6.44772 22 7V17C22 18.6569 20.6569 20 19 20H5C3.34315 20 2 18.6569 2 17V5ZM15.7071 11.7071C16.0976 11.3166 16.0976 10.6834 15.7071 10.2929C15.3166 9.90237 14.6834 9.90237 14.2929 10.2929L11 13.5858L9.70711 12.2929C9.31658 11.9024 8.68342 11.9024 8.29289 12.2929C7.90237 12.6834 7.90237 13.3166 8.29289 13.7071L10.2929 15.7071C10.6834 16.0976 11.3166 16.0976 11.7071 15.7071L15.7071 11.7071Z" fill="#292929"/>
</svg>
