<svg width="24" height="24" viewBox="0 0 24 24" fill="none" xmlns="http://www.w3.org/2000/svg">
<path d="M15 14L14.5068 14.0822C14.4826 13.9372 14.5235 13.789 14.6185 13.6768C14.7135 13.5647 14.853 13.5 15 13.5V14ZM4 14V14.5C3.72386 14.5 3.5 14.2761 3.5 14H4ZM20.5216 11.6078L21.0118 11.5097L20.5216 11.6078ZM6 3.5H17.3604V4.5H6V3.5ZM18.5604 14.5H15V13.5H18.5604V14.5ZM15.4932 13.9178L16.2991 18.7534L15.3127 18.9178L14.5068 14.0822L15.4932 13.9178ZM14.8195 20.5H14.6056V19.5H14.8195V20.5ZM11.6934 18.9415L9.17771 15.1679L10.0098 14.6132L12.5254 18.3868L11.6934 18.9415ZM7.92963 14.5H4V13.5H7.92963V14.5ZM3.5 14V6H4.5V14H3.5ZM19.8118 5.50971L21.0118 11.5097L20.0313 11.7058L18.8313 5.70583L19.8118 5.50971ZM9.17771 15.1679C8.89951 14.7507 8.43116 14.5 7.92963 14.5V13.5C8.76552 13.5 9.54609 13.9178 10.0098 14.6132L9.17771 15.1679ZM16.2991 18.7534C16.4515 19.6677 15.7464 20.5 14.8195 20.5V19.5C15.1285 19.5 15.3635 19.2226 15.3127 18.9178L16.2991 18.7534ZM18.5604 13.5C19.507 13.5 20.2169 12.634 20.0313 11.7058L21.0118 11.5097C21.3212 13.0567 20.138 14.5 18.5604 14.5V13.5ZM17.3604 3.5C18.5521 3.5 19.5781 4.34115 19.8118 5.50971L18.8313 5.70583C18.691 5.00469 18.0754 4.5 17.3604 4.5V3.5ZM14.6056 20.5C13.4353 20.5 12.3425 19.9151 11.6934 18.9415L12.5254 18.3868C12.9891 19.0822 13.7697 19.5 14.6056 19.5V20.5ZM6 4.5C5.17157 4.5 4.5 5.17157 4.5 6H3.5C3.5 4.61929 4.61929 3.5 6 3.5V4.5Z" fill="#292929"/>
<path d="M8 14V4" stroke="#292929"/>
</svg>
