<svg width="24" height="24" viewBox="0 0 24 24" fill="none" xmlns="http://www.w3.org/2000/svg">
<path d="M16.3536 5.64645C16.1583 5.45118 15.8417 5.45118 15.6464 5.64645C15.4512 5.84171 15.4512 6.15829 15.6464 6.35355L16.3536 5.64645ZM19 9L19.3536 9.35355C19.5488 9.15829 19.5488 8.84171 19.3536 8.64645L19 9ZM15.6464 11.6464C15.4512 11.8417 15.4512 12.1583 15.6464 12.3536C15.8417 12.5488 16.1583 12.5488 16.3536 12.3536L15.6464 11.6464ZM19 17.5C19.2761 17.5 19.5 17.2761 19.5 17C19.5 16.7239 19.2761 16.5 19 16.5V17.5ZM15.6464 6.35355L18.6464 9.35355L19.3536 8.64645L16.3536 5.64645L15.6464 6.35355ZM18.6464 8.64645L15.6464 11.6464L16.3536 12.3536L19.3536 9.35355L18.6464 8.64645ZM19 8.5H8V9.5H19V8.5ZM3.5 13C3.5 15.4853 5.51472 17.5 8 17.5V16.5C6.067 16.5 4.5 14.933 4.5 13H3.5ZM8 8.5C5.51472 8.5 3.5 10.5147 3.5 13H4.5C4.5 11.067 6.067 9.5 8 9.5V8.5ZM19 16.5H8V17.5H19V16.5Z" fill="#242328"/>
</svg>
