<svg width="24" height="24" viewBox="0 0 24 24" fill="none" xmlns="http://www.w3.org/2000/svg">
<g clip-path="url(#clip0)">
<path d="M13 5.00098C13 5.55326 12.5523 6.00098 12 6.00098C11.4477 6.00098 11 5.55326 11 5.00098C11 4.44869 11.4477 4.00098 12 4.00098C12.5523 4.00098 13 4.44869 13 5.00098Z" stroke="#242328"/>
<path d="M13 12.001C13 12.5533 12.5523 13.001 12 13.001C11.4477 13.001 11 12.5533 11 12.001C11 11.4487 11.4477 11.001 12 11.001C12.5523 11.001 13 11.4487 13 12.001Z" stroke="#242328"/>
<path d="M13 19.001C13 19.5533 12.5523 20.001 12 20.001C11.4477 20.001 11 19.5533 11 19.001C11 18.4487 11.4477 18.001 12 18.001C12.5523 18.001 13 18.4487 13 19.001Z" stroke="#242328"/>
</g>
<defs>
<clipPath id="clip0">
<rect width="24" height="24" fill="white" transform="translate(0 0.000976562)"/>
</clipPath>
</defs>
</svg>
