<svg width="24" height="24" viewBox="0 0 24 24" fill="none" xmlns="http://www.w3.org/2000/svg">
<g clip-path="url(#clip0)">
<path d="M21 12.001C21 12.5533 20.5523 13.001 20 13.001C19.4477 13.001 19 12.5533 19 12.001C19 11.4487 19.4477 11.001 20 11.001C20.5523 11.001 21 11.4487 21 12.001Z" stroke="#242328"/>
<path d="M13 12.001C13 12.5533 12.5523 13.001 12 13.001C11.4477 13.001 11 12.5533 11 12.001C11 11.4487 11.4477 11.001 12 11.001C12.5523 11.001 13 11.4487 13 12.001Z" stroke="#242328"/>
<path d="M6 12.001C6 12.5533 5.55228 13.001 5 13.001C4.44772 13.001 4 12.5533 4 12.001C4 11.4487 4.44772 11.001 5 11.001C5.55228 11.001 6 11.4487 6 12.001Z" stroke="#242328"/>
</g>
<defs>
<clipPath id="clip0">
<rect width="24" height="24" fill="white" transform="translate(0 0.000976562)"/>
</clipPath>
</defs>
</svg>
