<svg width="24" height="24" viewBox="0 0 24 24" fill="none" xmlns="http://www.w3.org/2000/svg">
<path fill-rule="evenodd" clip-rule="evenodd" d="M8 3C6.34315 3 5 4.34315 5 6C5 6.35064 5.06015 6.68722 5.17071 7H4C3.44772 7 3 7.44772 3 8V12C3 12.5523 3.44772 13 4 13V18C4 19.6569 5.34315 21 7 21H12H17C18.6569 21 20 19.6569 20 18V13C20.5523 13 21 12.5523 21 12V8C21 7.44772 20.5523 7 20 7H18.8293C18.9398 6.68722 19 6.35064 19 6C19 4.34315 17.6569 3 16 3C14.3644 3 12.9122 3.78534 12 4.99952C11.0878 3.78534 9.6356 3 8 3ZM13 19H17C17.5523 19 18 18.5523 18 18V13H13V19ZM11 13V19H7C6.44772 19 6 18.5523 6 18V13H11ZM16 7C16.5523 7 17 6.55228 17 6C17 5.44772 16.5523 5 16 5C14.6938 5 13.5825 5.83481 13.1707 7H16ZM10.8293 7C10.4175 5.83481 9.30622 5 8 5C7.44772 5 7 5.44772 7 6C7 6.55228 7.44772 7 8 7H10.8293Z" fill="#242328"/>
</svg>
