<svg width="24" height="24" viewBox="0 0 24 24" fill="none" xmlns="http://www.w3.org/2000/svg">
<path fill-rule="evenodd" clip-rule="evenodd" d="M18.2071 4.7929C14.779 1.36481 9.22096 1.36481 5.79287 4.7929C2.36478 8.22099 2.36478 13.779 5.79287 17.2071L11.2929 22.7071C11.4804 22.8946 11.7348 23 12 23C12.2652 23 12.5195 22.8946 12.7071 22.7071L18.2071 17.2071C21.6352 13.779 21.6352 8.22099 18.2071 4.7929ZM12.0001 13C12.1737 13 12.3422 12.9779 12.5028 12.9363C13.3639 12.7132 13.9999 11.9309 13.9999 11C13.9999 9.89546 13.1044 9.00003 11.9999 9.00003C11.8262 9.00003 11.6578 9.02216 11.4971 9.06374C10.636 9.28678 10.0001 10.0691 10.0001 11C10.0001 12.1046 10.8955 13 12.0001 13Z" fill="#242328"/>
</svg>
