<svg width="24" height="24" viewBox="0 0 24 24" fill="none" xmlns="http://www.w3.org/2000/svg">
<path fill-rule="evenodd" clip-rule="evenodd" d="M12 2C12.5523 2 13 2.44772 13 3V4C13 4.55228 12.5523 5 12 5C11.4477 5 11 4.55228 11 4V3C11 2.44772 11.4477 2 12 2ZM2 12C2 11.4477 2.44772 11 3 11H4C4.55228 11 5 11.4477 5 12C5 12.5523 4.55228 13 4 13H3C2.44772 13 2 12.5523 2 12ZM19 12C19 11.4477 19.4477 11 20 11H21C21.5523 11 22 11.4477 22 12C22 12.5523 21.5523 13 21 13H20C19.4477 13 19 12.5523 19 12ZM13 20C13 19.4477 12.5523 19 12 19C11.4477 19 11 19.4477 11 20V21C11 21.5523 11.4477 22 12 22C12.5523 22 13 21.5523 13 21V20ZM18.3638 16.9498C17.9733 16.5592 17.3402 16.5592 16.9496 16.9498C16.5591 17.3403 16.5591 17.9734 16.9496 18.364L17.6567 19.0711C18.0473 19.4616 18.6804 19.4616 19.071 19.0711C19.4615 18.6805 19.4615 18.0474 19.071 17.6569L18.3638 16.9498ZM4.92888 4.92888C5.3194 4.53836 5.95257 4.53836 6.34309 4.92888L7.0502 5.63599C7.44072 6.02651 7.44072 6.65968 7.0502 7.0502C6.65968 7.44072 6.02651 7.44072 5.63599 7.0502L4.92888 6.34309C4.53836 5.95257 4.53836 5.3194 4.92888 4.92888ZM7.05037 18.364C7.44089 17.9734 7.44089 17.3403 7.05037 16.9498C6.65984 16.5592 6.02668 16.5592 5.63616 16.9498L4.92905 17.6569C4.53852 18.0474 4.53852 18.6805 4.92905 19.0711C5.31957 19.4616 5.95274 19.4616 6.34326 19.0711L7.05037 18.364ZM19.0711 4.92888C19.4616 5.3194 19.4616 5.95257 19.0711 6.34309L18.364 7.0502C17.9735 7.44072 17.3403 7.44072 16.9498 7.0502C16.5593 6.65968 16.5593 6.02651 16.9498 5.63599L17.6569 4.92888C18.0474 4.53836 18.6806 4.53836 19.0711 4.92888ZM7 12C7 9.23858 9.23858 7 12 7C14.7614 7 17 9.23858 17 12C17 14.7614 14.7614 17 12 17C9.23858 17 7 14.7614 7 12Z" fill="#242328"/>
</svg>
