<svg width="24" height="24" viewBox="0 0 24 24" fill="none" xmlns="http://www.w3.org/2000/svg">
<path fill-rule="evenodd" clip-rule="evenodd" d="M9.20976 4.01849C10.282 1.69387 13.5859 1.69387 14.6581 4.01849L16.0387 7.01159L19.3119 7.39968C21.8541 7.7011 22.8751 10.8433 20.9956 12.5814L19.5344 13.9326C19.1289 14.3076 18.4963 14.2828 18.1213 13.8774C17.7463 13.4719 17.771 12.8392 18.1765 12.4642L19.6377 11.113C20.2642 10.5336 19.9238 9.48624 19.0764 9.38577L15.2473 8.93177C14.902 8.89082 14.6027 8.67338 14.457 8.35757L12.842 4.85618C12.4846 4.08131 11.3833 4.08131 11.0259 4.85618L11.0185 4.87221C10.7872 5.37372 10.1931 5.59275 9.69158 5.36143C9.19008 5.13011 8.97105 4.53603 9.20237 4.03452L9.20976 4.01849L9.20976 4.01849ZM18.9581 17.5439C18.9478 17.5331 18.9372 17.5225 18.9264 17.5122L8.71992 7.30571C8.71093 7.29637 8.70176 7.2872 8.69243 7.27822L4.7071 3.29289C4.31658 2.90237 3.68341 2.90237 3.29289 3.29289C2.90236 3.68342 2.90236 4.31658 3.29289 4.70711L5.83394 7.24816L4.55594 7.39968C2.01376 7.7011 0.992814 10.8433 2.87231 12.5814L5.2923 14.8193L4.64991 18.0523C4.151 20.5632 6.82388 22.5051 9.05772 21.2547L11.9339 19.6447L14.8102 21.2547C16.3162 22.0977 18.0217 21.4897 18.8204 20.2346L19.2929 20.7071C19.6834 21.0976 20.3166 21.0976 20.7071 20.7071C21.0976 20.3166 21.0976 19.6834 20.7071 19.2929L18.9581 17.5439Z" fill="#242328"/>
</svg>
