<svg width="24" height="24" viewBox="0 0 24 24" fill="none" xmlns="http://www.w3.org/2000/svg">
<path d="M12 2L12.454 1.79058C12.3723 1.61344 12.1951 1.5 12 1.5C11.8049 1.5 11.6277 1.61344 11.546 1.79058L12 2ZM15.1035 8.72839L14.6495 8.93781C14.7223 9.09572 14.872 9.20444 15.0446 9.22491L15.1035 8.72839ZM22.4616 9.60081L22.8011 9.9679C22.9443 9.83546 22.9974 9.63182 22.9372 9.4463C22.8769 9.26078 22.7142 9.12726 22.5205 9.10429L22.4616 9.60081ZM18.4656 21.8992L18.2214 22.3355C18.3916 22.4308 18.6017 22.4184 18.7595 22.3037C18.9174 22.189 18.9941 21.9931 18.9561 21.8017L18.4656 21.8992ZM12 18.28L12.2442 17.8437C12.0925 17.7588 11.9075 17.7588 11.7558 17.8437L12 18.28ZM5.53437 21.8992L5.04396 21.8017C5.00594 21.9931 5.08267 22.189 5.24048 22.3037C5.39829 22.4184 5.60838 22.4308 5.7786 22.3355L5.53437 21.8992ZM6.97843 14.6316L7.46885 14.7291C7.50274 14.5585 7.44558 14.3826 7.31791 14.2645L6.97843 14.6316ZM1.53839 9.60081L1.47952 9.10429C1.28581 9.12726 1.12314 9.26078 1.06286 9.4463C1.00258 9.63182 1.0557 9.83546 1.19892 9.9679L1.53839 9.60081ZM8.80519 9.24272C9.07941 9.21021 9.27535 8.96155 9.24284 8.68733C9.21033 8.41311 8.96167 8.21716 8.68745 8.24968L8.80519 9.24272ZM18.1046 17.5166C18.0508 17.2458 17.7876 17.0699 17.5168 17.1237C17.2459 17.1775 17.07 17.4407 17.1238 17.7115L18.1046 17.5166ZM10.1751 4.76266C10.0594 5.01341 10.1689 5.31045 10.4197 5.42611C10.6705 5.54177 10.9675 5.43226 11.0832 5.18151L10.1751 4.76266ZM18.3795 12.6948C18.1768 12.8823 18.1644 13.1987 18.3519 13.4014C18.5394 13.6041 18.8557 13.6165 19.0584 13.429L18.3795 12.6948ZM11.546 2.20942L14.6495 8.93781L15.5575 8.51897L12.454 1.79058L11.546 2.20942ZM15.0446 9.22491L22.4028 10.0973L22.5205 9.10429L15.1624 8.23187L15.0446 9.22491ZM18.7099 21.4629L12.2442 17.8437L11.7558 18.7163L18.2214 22.3355L18.7099 21.4629ZM11.7558 17.8437L5.29015 21.4629L5.7786 22.3355L12.2442 18.7163L11.7558 17.8437ZM6.02479 21.9966L7.46885 14.7291L6.48802 14.5342L5.04396 21.8017L6.02479 21.9966ZM7.31791 14.2645L1.87787 9.23372L1.19892 9.9679L6.63896 14.9987L7.31791 14.2645ZM1.59726 10.0973L8.80519 9.24272L8.68745 8.24968L1.47952 9.10429L1.59726 10.0973ZM17.1238 17.7115L17.9752 21.9966L18.9561 21.8017L18.1046 17.5166L17.1238 17.7115ZM11.0832 5.18151L12.454 2.20942L11.546 1.79058L10.1751 4.76266L11.0832 5.18151ZM22.1222 9.23372L18.3795 12.6948L19.0584 13.429L22.8011 9.9679L22.1222 9.23372Z" fill="#292929"/>
<path d="M4.00012 4L20.0001 20" stroke="#292929" stroke-linecap="round"/>
</svg>
