<svg width="24" height="24" viewBox="0 0 24 24" fill="none" xmlns="http://www.w3.org/2000/svg">
<path opacity="0.16" d="M12 20.9999C16.9706 20.9999 21 16.9705 21 11.9999C21 7.02938 16.9706 2.99994 12 2.99994C7.02944 2.99994 3 7.02938 3 11.9999C3 13.4876 3.36093 14.8909 4 16.1271L3 20.9999L7.8728 19.9999C9.10904 20.639 10.5124 20.9999 12 20.9999Z" fill="#292929"/>
<path d="M12 20.9999C16.9706 20.9999 21 16.9705 21 11.9999C21 7.02938 16.9706 2.99994 12 2.99994C7.02944 2.99994 3 7.02938 3 11.9999C3 13.4876 3.36093 14.8909 4 16.1271L3 20.9999L7.8728 19.9999C9.10904 20.639 10.5124 20.9999 12 20.9999Z" stroke="#292929" stroke-width="2" stroke-linecap="round" stroke-linejoin="round"/>
<path d="M10.0002 9.99994L14.0002 13.9999M10.0002 13.9999L14.0002 9.99994" stroke="#292929" stroke-width="2" stroke-linecap="round" stroke-linejoin="round"/>
</svg>
