<svg width="24" height="24" viewBox="0 0 24 24" fill="none" xmlns="http://www.w3.org/2000/svg">
<path opacity="0.16" d="M3 5L10.5858 12.5858C11.3668 13.3668 12.6332 13.3668 13.4142 12.5858L21 5V17C21 18.1046 20.1046 19 19 19H5C3.89543 19 3 18.1046 3 17V5Z" fill="#292929"/>
<path d="M3 5V4C2.44772 4 2 4.44772 2 5H3ZM21 5H22C22 4.44772 21.5523 4 21 4V5ZM3 6H21V4H3V6ZM20 5V17H22V5H20ZM19 18H5V20H19V18ZM4 17V5H2V17H4ZM5 18C4.44772 18 4 17.5523 4 17H2C2 18.6569 3.34315 20 5 20V18ZM20 17C20 17.5523 19.5523 18 19 18V20C20.6569 20 22 18.6569 22 17H20Z" fill="#292929"/>
<path d="M3 5L12 14L21 5" stroke="#292929" stroke-width="2" stroke-linecap="round" stroke-linejoin="round"/>
</svg>
