<svg width="24" height="24" viewBox="0 0 24 24" fill="none" xmlns="http://www.w3.org/2000/svg">
<path opacity="0.16" d="M3.99988 18C3.99988 15.7908 5.79074 14 7.99988 14H15.9999C18.209 14 19.9999 15.7908 19.9999 18C19.9999 19.1045 19.1044 20 17.9999 20H5.99988C4.89531 20 3.99988 19.1045 3.99988 18Z" fill="#292929"/>
<path d="M4 18C4 15.7908 5.79086 14 8 14H16C18.2091 14 20 15.7908 20 18V18C20 19.1045 19.1046 20 18 20H6C4.89543 20 4 19.1045 4 18V18Z" stroke="#292929" stroke-width="2" stroke-linejoin="round"/>
<circle cx="11.9999" cy="6.99997" r="3" stroke="#292929" stroke-width="2"/>
</svg>
