<svg width="24" height="24" viewBox="0 0 24 24" fill="none" xmlns="http://www.w3.org/2000/svg">
<g clip-path="url(#clip0)">
<path d="M15.0001 14L13.7671 14.2055C13.7067 13.8431 13.8088 13.4724 14.0463 13.192C14.2839 12.9117 14.6327 12.75 15.0001 12.75V14ZM4.00012 14V15.25C3.30977 15.25 2.75012 14.6904 2.75012 14H4.00012ZM20.5217 11.6078L21.7474 11.3626L20.5217 11.6078ZM6.00012 2.75H17.3605V5.25H6.00012V2.75ZM18.5605 15.25H15.0001V12.75H18.5605V15.25ZM16.2331 13.7945L17.039 18.6301L14.5731 19.0411L13.7671 14.2055L16.2331 13.7945ZM14.8197 21.25H14.6057V18.75H14.8197V21.25ZM11.0695 19.3575L8.55379 15.584L10.6339 14.1972L13.1496 17.9707L11.0695 19.3575ZM7.92975 15.25H4.00012V12.75H7.92975V15.25ZM2.75012 14V6H5.25012V14H2.75012ZM20.5474 5.36262L21.7474 11.3626L19.2959 11.8529L18.096 5.85291L20.5474 5.36262ZM8.55379 15.584C8.41469 15.3753 8.18052 15.25 7.92975 15.25V12.75C9.0164 12.75 10.0312 13.2931 10.6339 14.1972L8.55379 15.584ZM17.039 18.6301C17.2676 20.0015 16.21 21.25 14.8197 21.25V18.75C14.6652 18.75 14.5477 18.8887 14.5731 19.0411L17.039 18.6301ZM18.5605 12.75C19.0338 12.75 19.3888 12.317 19.2959 11.8529L21.7474 11.3626C22.1496 13.3737 20.6114 15.25 18.5605 15.25V12.75ZM17.3605 2.75C18.9097 2.75 20.2436 3.84349 20.5474 5.36262L18.096 5.85291C18.0258 5.50234 17.718 5.25 17.3605 5.25V2.75ZM14.6057 21.25C13.1847 21.25 11.8577 20.5398 11.0695 19.3575L13.1496 17.9707C13.4742 18.4576 14.0206 18.75 14.6057 18.75V21.25ZM6.00012 5.25C5.58591 5.25 5.25012 5.58579 5.25012 6H2.75012C2.75012 4.20507 4.2052 2.75 6.00012 2.75V5.25Z" fill="#292929"/>
<path d="M8.00012 14V4" stroke="#292929" stroke-width="2.5"/>
</g>
<defs>
<clipPath id="clip0">
<rect width="24" height="24" fill="white" transform="translate(0.00012207)"/>
</clipPath>
</defs>
</svg>
