<svg width="24" height="24" viewBox="0 0 24 24" fill="none" xmlns="http://www.w3.org/2000/svg">
<g clip-path="url(#clip0)">
<path d="M15.0001 10L13.7671 9.7945C13.7067 10.1569 13.8088 10.5276 14.0463 10.808C14.2839 11.0883 14.6327 11.25 15.0001 11.25V10ZM4.00012 10V8.75C3.30977 8.75 2.75012 9.30964 2.75012 10H4.00012ZM20.5217 12.3922L21.7474 12.6374L20.5217 12.3922ZM6.00012 21.25H17.3605V18.75H6.00012V21.25ZM18.5605 8.75H15.0001V11.25H18.5605V8.75ZM16.2331 10.2055L17.039 5.3699L14.5731 4.9589L13.7671 9.7945L16.2331 10.2055ZM14.8197 2.75H14.6057V5.25H14.8197V2.75ZM11.0695 4.64252L8.55379 8.41603L10.6339 9.80278L13.1496 6.02927L11.0695 4.64252ZM7.92975 8.75H4.00012V11.25H7.92975V8.75ZM2.75012 10V18H5.25012V10H2.75012ZM20.5474 18.6374L21.7474 12.6374L19.2959 12.1471L18.096 18.1471L20.5474 18.6374ZM8.55379 8.41603C8.41469 8.62467 8.18052 8.75 7.92975 8.75V11.25C9.0164 11.25 10.0312 10.7069 10.6339 9.80278L8.55379 8.41603ZM17.039 5.3699C17.2676 3.99845 16.21 2.75 14.8197 2.75V5.25C14.6652 5.25 14.5477 5.11128 14.5731 4.9589L17.039 5.3699ZM18.5605 11.25C19.0338 11.25 19.3888 11.683 19.2959 12.1471L21.7474 12.6374C22.1496 10.6263 20.6114 8.75 18.5605 8.75V11.25ZM17.3605 21.25C18.9097 21.25 20.2436 20.1565 20.5474 18.6374L18.096 18.1471C18.0258 18.4977 17.718 18.75 17.3605 18.75V21.25ZM14.6057 2.75C13.1847 2.75 11.8577 3.46018 11.0695 4.64252L13.1496 6.02927C13.4742 5.54243 14.0206 5.25 14.6057 5.25V2.75ZM6.00012 18.75C5.58591 18.75 5.25012 18.4142 5.25012 18H2.75012C2.75012 19.7949 4.2052 21.25 6.00012 21.25V18.75Z" fill="#292929"/>
<path d="M8.00012 10V20" stroke="#292929" stroke-width="2.5"/>
</g>
<defs>
<clipPath id="clip0">
<rect width="24" height="24" fill="white" transform="translate(0.00012207)"/>
</clipPath>
</defs>
</svg>
