<svg width="24" height="24" viewBox="0 0 24 24" fill="none" xmlns="http://www.w3.org/2000/svg">
<g clip-path="url(#clip0)">
<path d="M16.2722 6.00797C16.6191 6.60141 17.263 7.00006 18 7.00006C19.1046 7.00006 20 6.10463 20 5.00006C20 3.89549 19.1046 3.00006 18 3.00006C16.8954 3.00006 16 3.89549 16 5.00006C16 5.36762 16.0991 5.71201 16.2722 6.00797ZM16.2722 6.00797L7.72784 10.9922M7.72784 10.9922C7.38092 10.3987 6.73701 10.0001 6 10.0001C4.89543 10.0001 4 10.8955 4 12.0001C4 13.1046 4.89543 14.0001 6 14.0001C6.73701 14.0001 7.38092 13.6014 7.72784 13.008M7.72784 10.9922C7.90085 11.2881 8 11.6325 8 12.0001C8 12.3676 7.90085 12.712 7.72784 13.008M7.72784 13.008L16.2722 17.9922M16.2722 17.9922C16.6191 17.3987 17.263 17.0001 18 17.0001C19.1046 17.0001 20 17.8955 20 19.0001C20 20.1046 19.1046 21.0001 18 21.0001C16.8954 21.0001 16 20.1046 16 19.0001C16 18.6325 16.0991 18.2881 16.2722 17.9922Z" stroke="#292929" stroke-width="2.5" stroke-linecap="round" stroke-linejoin="round"/>
</g>
<defs>
<clipPath id="clip0">
<rect width="24" height="24" fill="white"/>
</clipPath>
</defs>
</svg>
